<?xml version="1.0" encoding="UTF-8"?>
<!DOCTYPE svg PUBLIC "-//W3C//DTD SVG 1.1//EN" "http://www.w3.org/Graphics/SVG/1.1/DTD/svg11.dtd">
<!-- Creator: CorelDRAW 2018 (64-Bit) -->
<svg xmlns="http://www.w3.org/2000/svg" xml:space="preserve" width="247.564mm" height="160.313mm" version="1.1" style="shape-rendering:geometricPrecision; text-rendering:geometricPrecision; image-rendering:optimizeQuality; fill-rule:evenodd; clip-rule:evenodd"
viewBox="0 0 24756.4 16031.28"
 xmlns:xlink="http://www.w3.org/1999/xlink">
 <defs>
  <style type="text/css">
   <![CDATA[
    .fil2 {fill:#FEFEFE;fill-rule:nonzero}
    .fil0 {fill:#DA4537;fill-rule:nonzero}
    .fil1 {fill:#585757;fill-rule:nonzero}
   ]]>
  </style>
 </defs>
 <g id="Слой_x0020_1">
  <metadata id="CorelCorpID_0Corel-Layer"/>
  <g id="_3_ТОСЭРы">
   <g id="Asset_x0020_23_x0020_новый_eps.eps">
    <path class="fil0" d="M16774.63 11226.35c-220.35,0.24 -398.91,178.81 -399.15,399.15 0,116.65 65.61,245.61 194.36,382.17 58.36,61.63 122.14,117.9 190.57,168.12l17.79 12.9 17.86 -12.47c67.45,-49.19 130.1,-104.62 187.15,-165.56 126.49,-135.46 190.57,-265.15 190.57,-385.16 -0.24,-220.34 -178.81,-398.91 -399.15,-399.15z"/>
    <path class="fil1" d="M16774.63 11264.63c-199.21,0.24 -360.64,161.66 -360.88,360.87 0,240.59 323.4,485.77 364.52,515.88 40.46,-30.33 357.23,-275.29 357.23,-515.88 -0.24,-199.21 -161.67,-360.63 -360.87,-360.87zm3.64 893.07c-1.51,0.01 -2.99,-0.44 -4.23,-1.31 -67.11,-49.38 -129.73,-104.59 -187.14,-164.98 -85.52,-90.76 -187.73,-227.9 -187.73,-365.91 0,-207.36 168.1,-375.45 375.46,-375.45 207.36,0 375.45,168.09 375.45,375.45 0,137.94 -100.17,275.07 -184.15,365.84 -56.14,60.29 -117.5,115.5 -183.36,164.98 -1.25,0.9 -2.75,1.39 -4.3,1.38z"/>
    <polygon class="fil2" points="16774.63,11315.52 16791.98,11358.89 16835.36,11367.57 16800.66,11393.59 16818.01,11436.97 16774.63,11410.95 16731.25,11436.97 16748.6,11393.59 16713.9,11367.57 16757.27,11358.89 "/>
    <polygon class="fil2" points="16722.57,11853.26 16739.93,11853.26 16739.93,11567.03 16722.57,11567.03 "/>
    <polygon class="fil2" points="16809.33,11853.26 16826.68,11853.26 16826.68,11601.73 16809.33,11601.73 "/>
    <polygon class="fil2" points="16913.44,11827.23 16896.09,11827.23 16896.09,11610.41 16809.33,11610.41 16809.33,11523.73 16739.93,11523.73 16739.93,11575.71 16653.24,11575.71 16653.24,11827.23 16635.89,11827.23 16635.89,11558.43 16722.57,11558.43 16722.57,11506.38 16826.68,11506.38 16826.68,11593.06 16913.44,11593.06 "/>
    <polygon class="fil2" points="16844.03,11714.52 16878.74,11714.52 16878.74,11697.17 16844.03,11697.17 "/>
    <polygon class="fil2" points="16844.03,11679.82 16878.74,11679.82 16878.74,11662.46 16844.03,11662.46 "/>
    <polygon class="fil2" points="16844.03,11645.12 16878.74,11645.12 16878.74,11627.76 16844.03,11627.76 "/>
    <polygon class="fil2" points="16844.03,11749.22 16878.74,11749.22 16878.74,11731.87 16844.03,11731.87 "/>
    <polygon class="fil2" points="16844.03,11783.92 16878.74,11783.92 16878.74,11766.57 16844.03,11766.57 "/>
    <polygon class="fil2" points="16844.03,11818.55 16878.74,11818.55 16878.74,11801.2 16844.03,11801.2 "/>
    <polygon class="fil2" points="16670.59,11679.82 16705.3,11679.82 16705.3,11662.46 16670.59,11662.46 "/>
    <polygon class="fil2" points="16670.59,11645.12 16705.3,11645.12 16705.3,11627.76 16670.59,11627.76 "/>
    <polygon class="fil2" points="16670.59,11610.41 16705.3,11610.41 16705.3,11593.06 16670.59,11593.06 "/>
    <polygon class="fil2" points="16670.59,11714.52 16705.3,11714.52 16705.3,11697.17 16670.59,11697.17 "/>
    <polygon class="fil2" points="16670.59,11749.22 16705.3,11749.22 16705.3,11731.87 16670.59,11731.87 "/>
    <polygon class="fil2" points="16670.59,11783.92 16705.3,11783.92 16705.3,11766.57 16670.59,11766.57 "/>
    <polygon class="fil2" points="16670.59,11818.55 16705.3,11818.55 16705.3,11801.2 16670.59,11801.2 "/>
    <polygon class="fil2" points="16757.27,11593.06 16791.98,11593.06 16791.98,11575.71 16757.27,11575.71 "/>
    <polygon class="fil2" points="16757.27,11558.43 16791.98,11558.43 16791.98,11541.08 16757.27,11541.08 "/>
    <polygon class="fil2" points="16757.27,11627.76 16791.98,11627.76 16791.98,11610.41 16757.27,11610.41 "/>
    <polygon class="fil2" points="16757.27,11662.46 16791.98,11662.46 16791.98,11645.12 16757.27,11645.12 "/>
    <polygon class="fil2" points="16757.27,11697.17 16791.98,11697.17 16791.98,11679.82 16757.27,11679.82 "/>
    <polygon class="fil2" points="16757.27,11731.87 16791.98,11731.87 16791.98,11714.52 16757.27,11714.52 "/>
    <polygon class="fil2" points="16757.27,11766.57 16791.98,11766.57 16791.98,11749.22 16757.27,11749.22 "/>
    <polygon class="fil2" points="16757.27,11801.27 16791.98,11801.27 16791.98,11783.92 16757.27,11783.92 "/>
    <polygon class="fil2" points="16757.27,11835.9 16791.98,11835.9 16791.98,11818.55 16757.27,11818.55 "/>
    <polygon class="fil2" points="16557.81,11749.22 16644.57,11749.22 16644.57,11731.87 16557.81,11731.87 "/>
    <polygon class="fil2" points="16904.76,11749.22 16991.52,11749.22 16991.52,11731.87 16904.76,11731.87 "/>
    <polygon class="fil2" points="16583.84,11783.92 16618.54,11783.92 16618.54,11766.57 16583.84,11766.57 "/>
    <polygon class="fil2" points="16930.79,11783.92 16965.49,11783.92 16965.49,11766.57 16930.79,11766.57 "/>
   </g>
   <g id="Asset_x0020_23_x0020_новый_eps.eps_0">
    <path class="fil0" d="M20566.93 11595.35c-220.35,0.24 -398.91,178.81 -399.15,399.15 0,116.65 65.61,245.61 194.36,382.17 58.36,61.63 122.14,117.9 190.57,168.12l17.79 12.9 17.86 -12.47c67.45,-49.19 130.1,-104.62 187.15,-165.56 126.49,-135.46 190.57,-265.15 190.57,-385.16 -0.24,-220.34 -178.81,-398.91 -399.15,-399.15z"/>
    <path class="fil1" d="M20566.93 11633.63c-199.21,0.24 -360.64,161.66 -360.88,360.87 0,240.59 323.4,485.77 364.52,515.88 40.46,-30.33 357.23,-275.29 357.23,-515.88 -0.24,-199.21 -161.67,-360.63 -360.87,-360.87zm3.64 893.07c-1.51,0.01 -2.99,-0.44 -4.23,-1.31 -67.11,-49.38 -129.73,-104.59 -187.14,-164.98 -85.52,-90.76 -187.73,-227.9 -187.73,-365.91 0,-207.36 168.1,-375.45 375.46,-375.45 207.36,0 375.45,168.09 375.45,375.45 0,137.94 -100.17,275.07 -184.15,365.84 -56.14,60.29 -117.5,115.5 -183.36,164.98 -1.25,0.9 -2.75,1.39 -4.3,1.38z"/>
    <polygon class="fil2" points="20566.93,11684.52 20584.28,11727.89 20627.66,11736.57 20592.96,11762.59 20610.31,11805.97 20566.93,11779.95 20523.55,11805.97 20540.9,11762.59 20506.2,11736.57 20549.57,11727.89 "/>
    <polygon class="fil2" points="20514.87,12222.26 20532.23,12222.26 20532.23,11936.03 20514.87,11936.03 "/>
    <polygon class="fil2" points="20601.63,12222.26 20618.98,12222.26 20618.98,11970.73 20601.63,11970.73 "/>
    <polygon class="fil2" points="20705.74,12196.23 20688.39,12196.23 20688.39,11979.41 20601.63,11979.41 20601.63,11892.73 20532.23,11892.73 20532.23,11944.71 20445.54,11944.71 20445.54,12196.23 20428.19,12196.23 20428.19,11927.43 20514.87,11927.43 20514.87,11875.38 20618.98,11875.38 20618.98,11962.06 20705.74,11962.06 "/>
    <polygon class="fil2" points="20636.33,12083.52 20671.04,12083.52 20671.04,12066.17 20636.33,12066.17 "/>
    <polygon class="fil2" points="20636.33,12048.82 20671.04,12048.82 20671.04,12031.46 20636.33,12031.46 "/>
    <polygon class="fil2" points="20636.33,12014.12 20671.04,12014.12 20671.04,11996.76 20636.33,11996.76 "/>
    <polygon class="fil2" points="20636.33,12118.22 20671.04,12118.22 20671.04,12100.87 20636.33,12100.87 "/>
    <polygon class="fil2" points="20636.33,12152.92 20671.04,12152.92 20671.04,12135.57 20636.33,12135.57 "/>
    <polygon class="fil2" points="20636.33,12187.55 20671.04,12187.55 20671.04,12170.2 20636.33,12170.2 "/>
    <polygon class="fil2" points="20462.89,12048.82 20497.6,12048.82 20497.6,12031.46 20462.89,12031.46 "/>
    <polygon class="fil2" points="20462.89,12014.12 20497.6,12014.12 20497.6,11996.76 20462.89,11996.76 "/>
    <polygon class="fil2" points="20462.89,11979.41 20497.6,11979.41 20497.6,11962.06 20462.89,11962.06 "/>
    <polygon class="fil2" points="20462.89,12083.52 20497.6,12083.52 20497.6,12066.17 20462.89,12066.17 "/>
    <polygon class="fil2" points="20462.89,12118.22 20497.6,12118.22 20497.6,12100.87 20462.89,12100.87 "/>
    <polygon class="fil2" points="20462.89,12152.92 20497.6,12152.92 20497.6,12135.57 20462.89,12135.57 "/>
    <polygon class="fil2" points="20462.89,12187.55 20497.6,12187.55 20497.6,12170.2 20462.89,12170.2 "/>
    <polygon class="fil2" points="20549.57,11962.06 20584.28,11962.06 20584.28,11944.71 20549.57,11944.71 "/>
    <polygon class="fil2" points="20549.57,11927.43 20584.28,11927.43 20584.28,11910.08 20549.57,11910.08 "/>
    <polygon class="fil2" points="20549.57,11996.76 20584.28,11996.76 20584.28,11979.41 20549.57,11979.41 "/>
    <polygon class="fil2" points="20549.57,12031.46 20584.28,12031.46 20584.28,12014.12 20549.57,12014.12 "/>
    <polygon class="fil2" points="20549.57,12066.17 20584.28,12066.17 20584.28,12048.82 20549.57,12048.82 "/>
    <polygon class="fil2" points="20549.57,12100.87 20584.28,12100.87 20584.28,12083.52 20549.57,12083.52 "/>
    <polygon class="fil2" points="20549.57,12135.57 20584.28,12135.57 20584.28,12118.22 20549.57,12118.22 "/>
    <polygon class="fil2" points="20549.57,12170.27 20584.28,12170.27 20584.28,12152.92 20549.57,12152.92 "/>
    <polygon class="fil2" points="20549.57,12204.9 20584.28,12204.9 20584.28,12187.55 20549.57,12187.55 "/>
    <polygon class="fil2" points="20350.11,12118.22 20436.87,12118.22 20436.87,12100.87 20350.11,12100.87 "/>
    <polygon class="fil2" points="20697.06,12118.22 20783.82,12118.22 20783.82,12100.87 20697.06,12100.87 "/>
    <polygon class="fil2" points="20376.14,12152.92 20410.84,12152.92 20410.84,12135.57 20376.14,12135.57 "/>
    <polygon class="fil2" points="20723.09,12152.92 20757.79,12152.92 20757.79,12135.57 20723.09,12135.57 "/>
   </g>
  </g>
 </g>
</svg>
