<?xml version="1.0" encoding="UTF-8"?>
<!DOCTYPE svg PUBLIC "-//W3C//DTD SVG 1.1//EN" "http://www.w3.org/Graphics/SVG/1.1/DTD/svg11.dtd">
<!-- Creator: CorelDRAW 2018 (64-Bit) -->
<svg xmlns="http://www.w3.org/2000/svg" xml:space="preserve" width="247.564mm" height="160.313mm" version="1.1" style="shape-rendering:geometricPrecision; text-rendering:geometricPrecision; image-rendering:optimizeQuality; fill-rule:evenodd; clip-rule:evenodd"
viewBox="0 0 24756.4 16031.28"
 xmlns:xlink="http://www.w3.org/1999/xlink">
 <defs>
  <style type="text/css">
   <![CDATA[
    .fil2 {fill:#49A2DC}
    .fil7 {fill:#545454}
    .fil4 {fill:#636363}
    .fil1 {fill:white}
    .fil5 {fill:white}
    .fil0 {fill:#49A2DC;fill-rule:nonzero}
    .fil3 {fill:#545454;fill-rule:nonzero}
    .fil6 {fill:#636363;fill-rule:nonzero}
   ]]>
  </style>
 </defs>
 <g id="Слой_x0020_1">
  <metadata id="CorelCorpID_0Corel-Layer"/>
  <g id="_1_Города">
   <path class="fil0" d="M11024.36 10403.83c74.24,-36.45 156.37,-39.32 228.93,-14.56 72.69,24.79 136.03,77.36 172.53,151.69 36.43,74.22 39.31,156.37 14.55,228.91 -24.8,72.7 -77.38,136.04 -151.69,172.55 -74.24,36.45 -156.38,39.32 -228.93,14.56 -72.67,-24.81 -136.01,-77.4 -172.52,-151.71 -36.45,-74.23 -39.34,-156.39 -14.58,-228.91 24.8,-72.68 77.38,-136.02 151.71,-172.53zm194.99 85.55c-47.31,-16.13 -100.67,-14.36 -148.65,9.18 -47.87,23.51 -81.83,64.56 -97.93,111.74 -16.14,47.28 -14.37,100.66 9.2,148.64 23.51,47.87 64.55,81.83 111.71,97.93 47.32,16.14 100.68,14.36 148.66,-9.18 47.85,-23.51 81.81,-64.55 97.91,-111.76 16.14,-47.31 14.39,-100.67 -9.16,-148.64 -23.49,-47.85 -64.53,-81.8 -111.74,-97.91z"/>
   <path class="fil1" d="M11047.54 10451.19c122.2,-60.01 270.87,-9.3 330.91,112.94 60.01,122.21 9.27,270.9 -112.94,330.92 -122.24,60.03 -270.9,9.26 -330.91,-112.94 -60.04,-122.25 -9.31,-270.89 112.94,-330.92z"/>
   <path class="fil1" d="M11047.66 10448.98c61.49,-29.93 129.32,-32.26 189.19,-11.82 60.34,20.56 113,64.33 143.41,126.24 30.29,61.74 32.73,129.92 12.22,190.03 -20.6,60.37 -64.37,113.03 -126.25,143.41 -61.77,30.33 -129.95,32.75 -190.04,12.24 -60.36,-20.61 -113,-64.34 -143.38,-126.22l-0.38 -0.79c-29.98,-61.53 -32.29,-129.41 -11.89,-189.28 20.6,-60.36 64.35,-112.98 126.25,-143.4l0.87 -0.41zm39.19 82.29c78.13,-38.36 173.15,-5.96 211.53,72.18 38.35,78.12 5.91,173.16 -72.2,211.51 -78.14,38.38 -173.16,5.93 -211.5,-72.18 -38.39,-78.14 -5.95,-173.14 72.17,-211.51z"/>
   <path class="fil2" d="M11086.86 10531.27c78.11,-38.36 173.14,-5.95 211.51,72.18 38.37,78.12 5.93,173.16 -72.19,211.52 -78.13,38.37 -173.15,5.92 -211.51,-72.19 -38.37,-78.14 -5.94,-173.14 72.19,-211.51z"/>
   <path class="fil3" d="M9272.36 10480.01c0,36.76 -11.57,67.24 -34.64,91.37 -23.07,24.2 -52.99,36.26 -89.82,36.26 -36.05,0 -65.4,-12.06 -87.91,-36.26 -22.57,-24.13 -33.79,-54.61 -33.79,-91.37l0 -54.19c0,-36.61 11.22,-67.02 33.79,-91.3 22.51,-24.2 51.79,-36.33 87.7,-36.33 36.83,0 66.82,12.13 89.96,36.33 23.14,24.28 34.71,54.69 34.71,91.3l0 54.19zm-50.02 -54.47c0,-25.05 -6.7,-45.58 -20.18,-61.73 -13.4,-16.09 -31.54,-24.13 -54.47,-24.13 -22.01,0 -39.44,8.04 -52.28,24.13 -12.77,16.15 -19.19,36.68 -19.19,61.73l0 54.54c0,25.33 6.42,46.07 19.19,62.23 12.84,16.16 30.34,24.27 52.49,24.27 23.08,0 41.21,-8.04 54.47,-24.13 13.34,-16.16 19.97,-36.9 19.97,-62.37l0 -54.54z"/>
   <path id="1" class="fil3" d="M9516.27 10498.99c0,32.52 -7.62,58.7 -22.93,78.67 -15.31,19.96 -36.55,29.98 -63.85,29.98 -12.7,0 -23.92,-2.25 -33.73,-6.84 -9.74,-4.52 -18.13,-11.22 -25.19,-20.04l0 108.59 -50.23 0 0 -309.46 42.4 0 4.94 28.08c7.13,-10.44 15.8,-18.48 25.96,-23.99 10.09,-5.57 21.88,-8.32 35.21,-8.32 27.59,0 49.04,10.93 64.42,32.74 15.31,21.8 23,50.58 23,86.21l0 4.38zm-50.02 -4.45c0,-22.86 -4.31,-41.48 -12.92,-56.02 -8.6,-14.53 -21.44,-21.8 -38.52,-21.8 -10.51,0 -19.4,2.26 -26.67,6.7 -7.34,4.52 -13.19,10.73 -17.57,18.7l0 100.97c4.38,7.83 10.23,13.82 17.57,18.06 7.27,4.16 16.3,6.28 27.09,6.28 17.08,0 29.85,-6.28 38.32,-18.91 8.46,-12.56 12.7,-29.14 12.7,-49.6l0 -4.38z"/>
   <path id="2" class="fil3" d="M9655.97 10607.64c-31.68,0 -56.94,-10.37 -75.7,-31.11 -18.84,-20.67 -28.23,-47.34 -28.23,-79.8l0 -8.25c0,-32.53 9.32,-59.48 28.02,-80.93 18.62,-21.38 42.05,-32.03 70.13,-31.89 30.19,0 53.34,9.1 69.35,27.37 16.09,18.28 24.13,42.76 24.13,73.45l0 29.56 -139.56 0 -0.42 1.06c0.85,17.71 6.07,32.18 15.59,43.46 9.6,11.22 22.86,16.87 39.8,16.87 13.54,0 25.11,-1.63 34.71,-4.94 9.67,-3.32 18.98,-8.12 27.94,-14.32l16.16 32.94c-8.47,7.48 -19.62,13.76 -33.52,18.84 -13.9,5.15 -30.05,7.69 -48.4,7.69zm-5.78 -191.77c-12.35,0 -22.58,4.94 -30.55,14.82 -7.98,9.81 -12.99,22.3 -14.89,37.47l0.42 1.05 88.69 0 0 -5.15c0,-14.18 -3.67,-25.82 -10.87,-34.78 -7.26,-8.96 -18.2,-13.41 -32.8,-13.41z"/>
   <polygon id="3" class="fil3" points="9971.21,10603.41 9921.04,10603.41 9921.04,10513.24 9833.98,10513.24 9833.98,10603.41 9783.74,10603.41 9783.74,10379.89 9833.98,10379.89 9833.98,10473.02 9921.04,10473.02 9921.04,10379.89 9971.21,10379.89 "/>
   <path id="4" class="fil3" d="M10125.59 10392.17c29.77,0 53.2,9.59 70.34,28.78 17.08,19.27 25.61,43.96 25.61,74.09l0 4.37c0,31.96 -9.17,57.93 -27.37,78.04 -18.28,20.1 -43.32,30.19 -75.14,30.19 -31.97,0 -57.08,-10.02 -75.36,-30.12 -18.27,-20.11 -27.37,-46.15 -27.37,-78.11l0 -29.07c0,-46.85 9.31,-83.39 28.08,-109.78 18.77,-26.32 43.6,-42.62 74.65,-48.82 15.52,-2.61 26.88,-5.93 34,-9.95 7.06,-4.02 10.59,-10.59 10.59,-19.69l38.87 0 0.43 1.27c0.56,25.76 -5.37,42.76 -17.78,50.94 -12.42,8.19 -32.67,14.68 -60.75,19.34 -16.93,3.03 -31.12,9.66 -42.41,20.03 -11.28,10.3 -18.34,24.98 -21.23,44.1l0.56 1.06c8.19,-7.9 17.78,-14.25 28.93,-19.26 11.22,-4.94 23,-7.41 35.35,-7.41zm-6.99 40.21c-17.49,0 -30.55,5.93 -39.16,17.78 -8.6,11.79 -12.91,26.74 -12.91,44.81l0 4.3c0,20.11 4.24,36.48 12.77,49.18 8.54,12.63 21.81,18.98 39.73,18.98 17.49,0 30.62,-6.35 39.37,-18.98 8.74,-12.7 13.12,-29.07 13.12,-49.18l0 -4.3c0,-18.21 -4.38,-33.16 -13.12,-44.95 -8.75,-11.78 -22.02,-17.64 -39.8,-17.64z"/>
   <path id="5" class="fil3" d="M10335.63 10513.88l4.94 22.29 1.27 0 48.97 -156.28 54.96 0 -92.57 257.32c-5.93,15.52 -14.25,28.85 -25.05,39.86 -10.72,11.01 -25.96,16.51 -45.65,16.51 -4.16,0 -8.6,-0.42 -13.33,-1.27 -4.73,-0.78 -9.31,-1.76 -13.76,-2.89l5.57 -39.02c1.84,0.14 4.38,0.35 7.7,0.63 3.24,0.29 5.78,0.43 7.4,0.43 9.11,0 16.37,-3.11 21.81,-9.24 5.43,-6.14 9.87,-13.27 13.33,-21.31l8.25 -20.04 -81.2 -220.98 54.75 0 42.61 133.99z"/>
   <path id="6" class="fil3" d="M10671.9 10498.99c0,32.52 -7.62,58.7 -22.93,78.67 -15.31,19.96 -36.55,29.98 -63.85,29.98 -12.7,0 -23.92,-2.25 -33.73,-6.84 -9.74,-4.52 -18.13,-11.22 -25.19,-20.04l0 108.59 -50.23 0 0 -309.46 42.4 0 4.94 28.08c7.13,-10.44 15.8,-18.48 25.96,-23.99 10.09,-5.57 21.88,-8.32 35.21,-8.32 27.59,0 49.04,10.93 64.42,32.74 15.31,21.8 23,50.58 23,86.21l0 4.38zm-50.02 -4.45c0,-22.86 -4.31,-41.48 -12.92,-56.02 -8.6,-14.53 -21.44,-21.8 -38.52,-21.8 -10.51,0 -19.4,2.26 -26.67,6.7 -7.34,4.52 -13.19,10.73 -17.57,18.7l0 100.97c4.38,7.83 10.23,13.82 17.57,18.06 7.27,4.16 16.3,6.28 27.09,6.28 17.08,0 29.85,-6.28 38.32,-18.91 8.46,-12.56 12.7,-29.14 12.7,-49.6l0 -4.38z"/>
   <polygon id="7" class="fil3" points="10862.47,10420.11 10765.53,10420.11 10765.53,10603.41 10715.29,10603.41 10715.29,10379.89 10862.47,10379.89 "/>
   <g>
    <path class="fil4" d="M7839.41 10206.97c69.05,0 125,55.98 125,125 0,69.03 -55.95,125.01 -125,125.01 -69.05,0 -125.01,-55.98 -125.01,-125.01 0,-69.02 55.96,-125 125.01,-125z"/>
    <path id="1" class="fil5" d="M7839.41 10206.97c69.05,0 125,55.98 125,125 0,69.03 -55.95,125.01 -125,125.01 -69.05,0 -125.01,-55.98 -125.01,-125.01 0,-69.02 55.96,-125 125.01,-125zm53.04 71.96c-13.56,-13.56 -32.32,-21.96 -53.04,-21.96 -20.72,0 -39.48,8.4 -53.04,21.96l-0.19 0c-13.45,13.45 -21.78,32.21 -21.78,53.04 0,20.72 8.4,39.48 21.97,53.05 13.56,13.56 32.32,21.96 53.04,21.96 20.72,0 39.48,-8.4 53.04,-21.96l0.09 0.09c13.51,-13.56 21.87,-32.34 21.87,-53.14 0,-20.71 -8.4,-39.48 -21.96,-53.04z"/>
   </g>
   <polygon class="fil6" points="7198.83,9944.37 7262.75,10107.4 7263.6,10107.4 7327.52,9944.37 7362.23,9944.37 7362.23,10145.03 7335.09,10145.03 7335.09,10065.63 7337.87,9984.07 7337.16,9983.93 7272.11,10145.03 7254.05,10145.03 7189.33,9984.35 7188.62,9984.45 7191.21,10065.63 7191.21,10145.03 7164.07,10145.03 7164.07,9944.37 "/>
   <path id="1" class="fil6" d="M7452.54 10089.76l4.8 18.72 0.85 0 36.64 -112.46 30.2 0 -62.7 171.82c-3.77,9.97 -9.17,18.72 -16.23,26.16 -7.01,7.43 -16.51,11.14 -28.46,11.14 -2.16,0 -4.98,-0.23 -8.37,-0.75 -3.39,-0.52 -6.02,-0.99 -7.85,-1.46l2.72 -21.35c-0.51,-0.1 1.09,0 4.9,0.28 3.8,0.28 6.25,0.42 7.24,0.42 5.78,0 10.53,-2.58 14.2,-7.71 3.67,-5.13 6.78,-10.82 9.22,-17.08l6.49 -15.52 -55.41 -145.95 30.34 0 31.42 93.74z"/>
   <path id="2" class="fil6" d="M7607.67 10126.4c8.98,0 16.93,-2.77 23.75,-8.32 6.87,-5.55 10.3,-12.42 10.3,-20.46l24.37 0 0.28 0.8c0.47,12.88 -5.27,24.31 -17.17,34.38 -11.9,10.02 -25.73,15.05 -41.53,15.05 -21.69,0 -38.24,-7.05 -49.77,-21.21 -11.47,-14.11 -17.21,-31.89 -17.21,-53.29l0 -5.79c0,-21.21 5.78,-38.9 17.31,-53.1 11.52,-14.16 28.08,-21.26 49.67,-21.26 17.45,0 31.7,5.17 42.8,15.47 11.06,10.3 16.42,22.95 16.04,37.96l-0.28 0.8 -24.51 0c0,-9.08 -3.24,-16.84 -9.64,-23.19 -6.44,-6.4 -14.58,-9.6 -24.41,-9.6 -14.25,0 -24.41,5.08 -30.53,15.29 -6.11,10.21 -9.17,22.77 -9.17,37.58l0 5.74c0,15.19 3.06,27.85 9.12,37.96 6.07,10.11 16.23,15.19 30.58,15.19z"/>
   <polygon id="3" class="fil6" points="7811.76,10017.47 7762.56,10017.47 7762.56,10145.03 7735.42,10145.03 7735.42,10017.47 7686.92,10017.47 7686.92,9996.02 7811.76,9996.02 "/>
   <path id="4" class="fil6" d="M7930.67 10145.03c-0.9,-4.52 -1.6,-8.47 -2.12,-11.9 -0.52,-3.48 -0.8,-6.91 -0.89,-10.44 -5.08,7.19 -11.67,13.17 -19.81,17.97 -8.09,4.79 -16.88,7.19 -26.24,7.19 -15.53,0 -27.33,-4 -35.47,-11.95 -8.14,-7.94 -12.18,-18.9 -12.18,-32.87 0,-14.26 5.74,-25.4 17.26,-33.45 11.52,-8.04 27.19,-12.04 46.94,-12.04l29.5 0 0 -14.67c0,-8.66 -2.69,-15.53 -8,-20.61 -5.32,-5.08 -12.89,-7.62 -22.63,-7.62 -8.7,0 -15.8,2.22 -21.26,6.64 -5.45,4.42 -8.23,9.73 -8.23,15.89l-25.87 0 -0.28 -0.79c-0.56,-10.82 4.56,-20.75 15.33,-29.73 10.82,-8.99 24.75,-13.45 41.87,-13.45 16.88,0 30.48,4.28 40.78,12.88 10.3,8.56 15.43,20.98 15.43,37.12l0 71.77c0,5.37 0.28,10.49 0.8,15.43 0.56,4.99 1.59,9.83 3.05,14.63l-27.98 0zm-45.07 -20.04c9.84,0 18.73,-2.54 26.63,-7.57 7.9,-5.03 13.03,-10.82 15.43,-17.31l0 -24.22 -30.48 0c-10.92,0 -19.67,2.72 -26.25,8.23 -6.54,5.5 -9.83,11.99 -9.83,19.42 0,6.59 2.07,11.81 6.21,15.67 4.09,3.85 10.2,5.78 18.29,5.78z"/>
   <path id="5" class="fil6" d="M8056.06 10147.85c-20.74,0 -37.25,-6.91 -49.53,-20.74 -12.27,-13.78 -18.39,-31.75 -18.39,-53.76l0 -6.07c0,-21.22 6.3,-38.85 18.96,-52.96 12.6,-14.07 27.56,-21.12 44.87,-21.12 20.08,0 35.28,6.06 45.58,18.15 10.3,12.14 15.43,28.27 15.43,48.45l0 16.93 -96.71 0 -0.42 0.71c0.28,14.25 3.9,25.96 10.86,35.18 7.01,9.17 16.79,13.78 29.35,13.78 9.22,0 17.26,-1.31 24.23,-3.95 6.91,-2.58 12.88,-6.21 17.96,-10.82l10.59 17.69c-5.32,5.31 -12.33,9.69 -21.08,13.22 -8.7,3.52 -19.28,5.31 -31.7,5.31zm-4.09 -133.21c-9.13,0 -16.89,3.81 -23.33,11.39 -6.4,7.62 -10.35,17.12 -11.85,28.55l0.28 0.7 68.77 0 0 -3.52c0,-10.59 -2.83,-19.38 -8.52,-26.49 -5.74,-7.1 -14.16,-10.63 -25.35,-10.63z"/>
   <path id="6" class="fil6" d="M8143.6 10145.03l0 -149.01 58.84 0c19.66,0 34.9,3.43 45.72,10.25 10.87,6.87 16.28,17.12 16.28,30.81 0,6.96 -2.12,13.22 -6.35,18.67 -4.19,5.46 -10.16,9.6 -17.88,12.47 9.27,2.3 16.51,6.58 21.69,12.89 5.17,6.25 7.8,13.45 7.8,21.54 0,13.92 -5.08,24.51 -15.24,31.66 -10.16,7.15 -24.31,10.72 -42.52,10.72l-68.34 0zm27.14 -65.19l0 43.74 41.2 0c10.02,0 17.6,-1.88 22.72,-5.64 5.18,-3.77 7.72,-9.18 7.72,-16.23 0,-6.96 -2.54,-12.37 -7.72,-16.18 -5.12,-3.81 -12.7,-5.69 -22.72,-5.69l-41.2 0zm0 -20.89l31.84 0c11.48,0 20.14,-1.69 25.97,-5.03 5.83,-3.39 8.75,-8.47 8.75,-15.29 0,-7.01 -2.92,-12.27 -8.8,-15.85 -5.88,-3.53 -14.58,-5.31 -26.06,-5.31l-31.7 0 0 41.48z"/>
   <path id="7" class="fil6" d="M8297.51 10069.07c0,-22.02 5.97,-40.17 17.92,-54.47 11.95,-14.25 28.17,-21.4 48.64,-21.4 20.69,0 37.01,7.1 49.01,21.35 11.99,14.21 17.97,32.41 17.97,54.52l0 3.05c0,22.2 -5.98,40.41 -17.93,54.52 -11.94,14.16 -28.17,21.21 -48.77,21.21 -20.56,0 -36.88,-7.1 -48.83,-21.26 -11.99,-14.2 -18.01,-32.36 -18.01,-54.47l0 -3.05zm27.14 2.96c0,15.76 3.34,28.74 10.02,38.99 6.63,10.26 16.55,15.38 29.68,15.38 12.98,0 22.76,-5.12 29.49,-15.38 6.73,-10.25 10.07,-23.23 10.07,-38.99l0 -3.01c0,-15.57 -3.39,-28.51 -10.12,-38.85 -6.77,-10.35 -16.65,-15.53 -29.72,-15.53 -12.94,0 -22.77,5.18 -29.4,15.53 -6.68,10.34 -10.02,23.28 -10.02,38.85l0 3.01z"/>
   <g>
    <path class="fil4" d="M6637.49 7858.69c69.05,0 125,55.98 125,125 0,69.03 -55.95,125.01 -125,125.01 -69.05,0 -125.01,-55.98 -125.01,-125.01 0,-69.02 55.96,-125 125.01,-125z"/>
    <path id="1" class="fil5" d="M6637.49 7858.69c69.05,0 125,55.98 125,125 0,69.03 -55.95,125.01 -125,125.01 -69.05,0 -125.01,-55.98 -125.01,-125.01 0,-69.02 55.96,-125 125.01,-125zm53.04 71.96c-13.56,-13.56 -32.32,-21.96 -53.04,-21.96 -20.72,0 -39.48,8.4 -53.04,21.96l-0.19 0c-13.45,13.45 -21.78,32.21 -21.78,53.04 0,20.72 8.4,39.48 21.97,53.05 13.56,13.56 32.32,21.96 53.04,21.96 20.72,0 39.48,-8.4 53.04,-21.96l0.09 0.09c13.5,-13.55 21.87,-32.34 21.87,-53.14 0,-20.71 -8.4,-39.48 -21.96,-53.04z"/>
   </g>
   <polygon class="fil6" points="6664.57,7662.27 6616.2,7662.27 6616.2,7796.68 6595.85,7796.68 6595.85,7662.27 6547.59,7662.27 6547.59,7646.18 6664.57,7646.18 "/>
   <path id="1" class="fil6" d="M6669.93 7739.71c0,-16.51 4.48,-30.13 13.44,-40.86 8.96,-10.69 21.13,-16.05 36.48,-16.05 15.52,0 27.76,5.33 36.76,16.02 8.99,10.65 13.47,24.3 13.47,40.89l0 2.29c0,16.65 -4.48,30.3 -13.44,40.89 -8.96,10.61 -21.13,15.91 -36.58,15.91 -15.42,0 -27.66,-5.33 -36.62,-15.95 -9,-10.65 -13.51,-24.27 -13.51,-40.85l0 -2.29zm20.35 2.22c0,11.82 2.51,21.55 7.52,29.24 4.97,7.69 12.42,11.54 22.26,11.54 9.74,0 17.07,-3.85 22.12,-11.54 5.04,-7.69 7.55,-17.42 7.55,-29.24l0 -2.26c0,-11.68 -2.54,-21.38 -7.59,-29.14 -5.08,-7.76 -12.48,-11.64 -22.29,-11.64 -9.7,0 -17.08,3.88 -22.05,11.64 -5.01,7.76 -7.52,17.46 -7.52,29.14l0 2.26z"/>
   <polygon id="2" class="fil6" points="6794.99,7684.92 6815.35,7684.92 6815.35,7780.59 6865.27,7780.59 6865.27,7684.92 6885.62,7684.92 6885.62,7780.59 6899.27,7780.59 6899.27,7833.3 6878.92,7833.3 6878.92,7796.68 6794.99,7796.68 "/>
   <polygon id="3" class="fil6" points="6955.58,7749.27 6942.24,7749.27 6942.24,7796.68 6921.88,7796.68 6921.88,7684.92 6942.24,7684.92 6942.24,7732.12 6954.02,7732.12 6990.92,7684.92 7014.81,7684.92 7015.13,7685.45 6971.31,7738.44 7018.62,7796.15 7018.34,7796.68 6993.32,7796.68 "/>
   <path id="4" class="fil6" d="M7022.57 7739.71c0,-16.51 4.48,-30.13 13.44,-40.86 8.96,-10.69 21.13,-16.05 36.48,-16.05 15.52,0 27.76,5.33 36.76,16.02 8.99,10.65 13.47,24.3 13.47,40.89l0 2.29c0,16.65 -4.48,30.3 -13.44,40.89 -8.96,10.61 -21.13,15.91 -36.58,15.91 -15.42,0 -27.66,-5.33 -36.62,-15.95 -9,-10.65 -13.51,-24.27 -13.51,-40.85l0 -2.29zm20.35 2.22c0,11.82 2.51,21.55 7.52,29.24 4.97,7.69 12.42,11.54 22.26,11.54 9.74,0 17.07,-3.85 22.12,-11.54 5.04,-7.69 7.55,-17.42 7.55,-29.24l0 -2.26c0,-11.68 -2.54,-21.38 -7.59,-29.14 -5.08,-7.76 -12.48,-11.64 -22.29,-11.64 -9.7,0 -17.08,3.88 -22.05,11.64 -5.01,7.76 -7.52,17.46 -7.52,29.14l0 2.26z"/>
   <path id="5" class="fil6" d="M7194.02 7798.8c-15.56,0 -27.94,-5.19 -37.15,-15.56 -9.2,-10.34 -13.79,-23.81 -13.79,-40.32l0 -4.56c0,-15.91 4.73,-29.13 14.22,-39.72 9.45,-10.55 20.67,-15.84 33.65,-15.84 15.07,0 26.46,4.55 34.19,13.62 7.72,9.1 11.57,21.2 11.57,36.34l0 12.7 -72.53 0 -0.32 0.53c0.21,10.68 2.93,19.47 8.15,26.38 5.26,6.88 12.59,10.34 22.01,10.34 6.92,0 12.95,-0.99 18.17,-2.96 5.19,-1.94 9.67,-4.66 13.48,-8.12l7.93 13.27c-3.98,3.98 -9.24,7.26 -15.8,9.91 -6.53,2.65 -14.46,3.99 -23.78,3.99zm-3.07 -99.91c-6.84,0 -12.66,2.86 -17.49,8.54 -4.8,5.71 -7.77,12.84 -8.89,21.41l0.21 0.53 51.57 0 0 -2.65c0,-7.93 -2.11,-14.53 -6.38,-19.86 -4.31,-5.33 -10.62,-7.97 -19.02,-7.97z"/>
   <g>
    <path class="fil4" d="M9234.03 5374.94c69.05,0 125,55.98 125,125 0,69.03 -55.95,125.01 -125,125.01 -69.05,0 -125.01,-55.98 -125.01,-125.01 0,-69.02 55.96,-125 125.01,-125z"/>
    <path id="1" class="fil5" d="M9234.03 5374.94c69.05,0 125,55.98 125,125 0,69.03 -55.95,125.01 -125,125.01 -69.05,0 -125.01,-55.98 -125.01,-125.01 0,-69.02 55.96,-125 125.01,-125zm53.04 71.96c-13.56,-13.56 -32.32,-21.96 -53.04,-21.96 -20.72,0 -39.48,8.4 -53.04,21.96l-0.19 0c-13.45,13.45 -21.78,32.21 -21.78,53.04 0,20.72 8.4,39.48 21.97,53.05 13.56,13.56 32.32,21.96 53.04,21.96 20.72,0 39.48,-8.4 53.04,-21.96l0.09 0.09c13.51,-13.56 21.87,-32.34 21.87,-53.14 0,-20.71 -8.4,-39.48 -21.96,-53.04z"/>
   </g>
   <polygon class="fil6" points="8613.08,5800.72 8592.62,5800.72 8592.62,5666.31 8519.42,5666.31 8519.42,5800.72 8499.06,5800.72 8499.06,5650.22 8613.08,5650.22 "/>
   <path id="1" class="fil6" d="M8641.69 5743.75c0,-16.51 4.48,-30.13 13.44,-40.86 8.96,-10.69 21.13,-16.05 36.48,-16.05 15.52,0 27.76,5.33 36.76,16.02 8.99,10.65 13.47,24.3 13.47,40.89l0 2.29c0,16.65 -4.48,30.3 -13.44,40.89 -8.96,10.61 -21.13,15.91 -36.58,15.91 -15.42,0 -27.66,-5.33 -36.62,-15.95 -9,-10.65 -13.51,-24.27 -13.51,-40.85l0 -2.29zm20.35 2.22c0,11.82 2.51,21.55 7.52,29.24 4.97,7.69 12.42,11.54 22.26,11.54 9.74,0 17.07,-3.85 22.12,-11.54 5.04,-7.69 7.55,-17.42 7.55,-29.24l0 -2.26c0,-11.68 -2.54,-21.38 -7.59,-29.14 -5.08,-7.76 -12.48,-11.64 -22.29,-11.64 -9.7,0 -17.08,3.88 -22.05,11.64 -5.01,7.76 -7.52,17.46 -7.52,29.14l0 2.26z"/>
   <polygon id="2" class="fil6" points="8857.28,5800.72 8836.92,5800.72 8836.92,5753.31 8787.11,5753.31 8787.11,5800.72 8766.75,5800.72 8766.75,5688.96 8787.11,5688.96 8787.11,5737.22 8836.92,5737.22 8836.92,5688.96 8857.28,5688.96 "/>
   <path id="3" class="fil6" d="M8882.29 5743.75c0,-16.51 4.48,-30.13 13.44,-40.86 8.96,-10.69 21.13,-16.05 36.48,-16.05 15.52,0 27.76,5.33 36.76,16.02 8.99,10.65 13.47,24.3 13.47,40.89l0 2.29c0,16.65 -4.48,30.3 -13.44,40.89 -8.96,10.61 -21.13,15.91 -36.58,15.91 -15.42,0 -27.66,-5.33 -36.62,-15.95 -9,-10.65 -13.51,-24.27 -13.51,-40.85l0 -2.29zm20.35 2.22c0,11.82 2.51,21.55 7.52,29.24 4.97,7.69 12.42,11.54 22.26,11.54 9.74,0 17.07,-3.85 22.12,-11.54 5.04,-7.69 7.55,-17.42 7.55,-29.24l0 -2.26c0,-11.68 -2.54,-21.38 -7.59,-29.14 -5.08,-7.76 -12.48,-11.64 -22.29,-11.64 -9.7,0 -17.08,3.88 -22.05,11.64 -5.01,7.76 -7.52,17.46 -7.52,29.14l0 2.26z"/>
   <polygon id="4" class="fil6" points="9071.03,5774.05 9071.63,5774.05 9108.21,5688.96 9133.65,5688.96 9133.65,5800.72 9113.29,5800.72 9113.29,5723.18 9112.66,5722.97 9078.37,5800.72 9064.29,5800.72 9029.37,5721.2 9028.73,5721.41 9028.73,5800.72 9008.37,5800.72 9008.37,5688.96 9034.62,5688.96 "/>
   <path id="5" class="fil6" d="M9234.01 5800.72c-0.67,-3.39 -1.2,-6.35 -1.58,-8.93 -0.39,-2.61 -0.6,-5.18 -0.67,-7.83 -3.81,5.4 -8.75,9.88 -14.86,13.48 -6.06,3.6 -12.66,5.4 -19.68,5.4 -11.64,0 -20.5,-3 -26.6,-8.96 -6.1,-5.97 -9.14,-14.19 -9.14,-24.66 0,-10.69 4.31,-19.05 12.95,-25.09 8.64,-6.03 20.39,-9.03 35.21,-9.03l22.12 0 0 -11c0,-6.5 -2.01,-11.65 -6,-15.46 -3.99,-3.81 -9.67,-5.71 -16.97,-5.71 -6.53,0 -11.85,1.66 -15.95,4.97 -4.09,3.32 -6.17,7.31 -6.17,11.93l-19.4 0 -0.21 -0.6c-0.43,-8.12 3.42,-15.56 11.5,-22.3 8.11,-6.74 18.55,-10.09 31.39,-10.09 12.67,0 22.86,3.21 30.59,9.67 7.73,6.42 11.57,15.73 11.57,27.83l0 53.84c0,4.02 0.21,7.86 0.6,11.57 0.42,3.74 1.2,7.37 2.29,10.97l-20.99 0zm-33.79 -15.03c7.37,0 14.04,-1.9 19.96,-5.68 5.93,-3.77 9.78,-8.11 11.58,-12.98l0 -18.17 -22.86 0c-8.19,0 -14.75,2.05 -19.69,6.17 -4.9,4.13 -7.37,9 -7.37,14.57 0,4.94 1.55,8.86 4.65,11.75 3.07,2.9 7.66,4.34 13.73,4.34z"/>
   <path id="6" class="fil6" d="M9376.96 5749.04c0,16.08 -3.85,29.1 -11.57,38.98 -7.73,9.88 -18.38,14.82 -31.93,14.82 -6.91,0 -12.95,-1.17 -18.13,-3.46 -5.22,-2.33 -9.63,-5.79 -13.3,-10.41l0 54.72 -20.36 0 0 -154.73 15.59 0 3.21 14.46c3.67,-5.36 8.22,-9.49 13.66,-12.31 5.43,-2.86 11.78,-4.27 19.01,-4.27 13.87,0 24.63,5.5 32.28,16.48 7.69,10.97 11.54,25.5 11.54,43.53l0 2.19zm-20.36 -2.3c0,-12.63 -2.5,-23.03 -7.48,-31.18 -5.01,-8.15 -12.34,-12.21 -22.08,-12.21 -5.86,0 -10.87,1.31 -14.99,3.95 -4.13,2.65 -7.48,6.28 -10.02,10.9l0 53.91c2.54,4.62 5.89,8.18 10.02,10.76 4.12,2.57 9.2,3.88 15.2,3.88 9.63,0 16.93,-3.53 21.91,-10.58 4.97,-7.02 7.44,-16.13 7.44,-27.24l0 -2.19z"/>
   <path id="7" class="fil6" d="M9448.36 5802.84c-15.56,0 -27.94,-5.19 -37.15,-15.56 -9.2,-10.34 -13.79,-23.81 -13.79,-40.32l0 -4.56c0,-15.91 4.73,-29.13 14.22,-39.72 9.45,-10.55 20.67,-15.84 33.65,-15.84 15.07,0 26.46,4.55 34.19,13.62 7.72,9.1 11.57,21.2 11.57,36.34l0 12.7 -72.53 0 -0.32 0.53c0.21,10.68 2.93,19.47 8.15,26.38 5.26,6.88 12.59,10.34 22.01,10.34 6.92,0 12.95,-0.99 18.17,-2.96 5.19,-1.94 9.67,-4.66 13.48,-8.12l7.93 13.27c-3.98,3.98 -9.24,7.26 -15.8,9.91 -6.53,2.65 -14.46,3.99 -23.78,3.99zm-3.07 -99.91c-6.84,0 -12.66,2.86 -17.49,8.54 -4.8,5.71 -7.77,12.84 -8.89,21.41l0.21 0.53 51.57 0 0 -2.65c0,-7.93 -2.11,-14.53 -6.38,-19.86 -4.31,-5.33 -10.62,-7.97 -19.02,-7.97zm35.14 -34.93l-22.65 0 0 -20.74 22.65 0 0 20.74zm-48.58 0l-22.65 0 0 -20.74 22.65 0 0 20.74z"/>
   <path id="8" class="fil6" d="M9514.02 5800.72l0 -111.76 44.13 0c14.75,0 26.18,2.57 34.29,7.69 8.15,5.15 12.21,12.84 12.21,23.11 0,5.22 -1.59,9.91 -4.77,14 -3.13,4.09 -7.62,7.2 -13.4,9.35 6.95,1.73 12.38,4.94 16.26,9.67 3.88,4.69 5.86,10.09 5.86,16.15 0,10.45 -3.81,18.38 -11.43,23.75 -7.62,5.36 -18.24,8.04 -31.89,8.04l-51.26 0zm20.35 -48.9l0 32.81 30.91 0c7.51,0 13.19,-1.41 17.04,-4.23 3.88,-2.82 5.78,-6.88 5.78,-12.17 0,-5.22 -1.9,-9.28 -5.78,-12.14 -3.85,-2.85 -9.53,-4.27 -17.04,-4.27l-30.91 0zm0 -15.66l23.89 0c8.6,0 15.1,-1.27 19.47,-3.77 4.37,-2.54 6.56,-6.35 6.56,-11.47 0,-5.26 -2.19,-9.21 -6.6,-11.89 -4.4,-2.64 -10.93,-3.98 -19.54,-3.98l-23.78 0 0 31.11z"/>
   <polygon id="9" class="fil6" points="9668.93,5753.31 9655.59,5753.31 9655.59,5800.72 9635.23,5800.72 9635.23,5688.96 9655.59,5688.96 9655.59,5736.16 9667.37,5736.16 9704.27,5688.96 9728.16,5688.96 9728.48,5689.49 9684.66,5742.48 9731.97,5800.19 9731.69,5800.72 9706.67,5800.72 "/>
   <path id="10" class="fil6" d="M9815.19 5800.72c-0.67,-3.39 -1.2,-6.35 -1.58,-8.93 -0.39,-2.61 -0.6,-5.18 -0.67,-7.83 -3.81,5.4 -8.75,9.88 -14.86,13.48 -6.06,3.6 -12.66,5.4 -19.68,5.4 -11.64,0 -20.5,-3 -26.6,-8.96 -6.1,-5.97 -9.14,-14.19 -9.14,-24.66 0,-10.69 4.31,-19.05 12.95,-25.09 8.64,-6.03 20.39,-9.03 35.21,-9.03l22.12 0 0 -11c0,-6.5 -2.01,-11.65 -6,-15.46 -3.99,-3.81 -9.67,-5.71 -16.97,-5.71 -6.53,0 -11.85,1.66 -15.95,4.97 -4.09,3.32 -6.17,7.31 -6.17,11.93l-19.4 0 -0.21 -0.6c-0.43,-8.12 3.42,-15.56 11.5,-22.3 8.11,-6.74 18.55,-10.09 31.39,-10.09 12.67,0 22.86,3.21 30.59,9.67 7.73,6.42 11.57,15.73 11.57,27.83l0 53.84c0,4.02 0.21,7.86 0.6,11.57 0.42,3.74 1.2,7.37 2.29,10.97l-20.99 0zm-33.79 -15.03c7.37,0 14.04,-1.9 19.96,-5.68 5.93,-3.77 9.78,-8.11 11.58,-12.98l0 -18.17 -22.86 0c-8.19,0 -14.75,2.05 -19.69,6.17 -4.9,4.13 -7.37,9 -7.37,14.57 0,4.94 1.55,8.86 4.65,11.75 3.07,2.9 7.66,4.34 13.73,4.34z"/>
   <g>
    <path class="fil4" d="M4457.75 9832.6c69.05,0 125,55.98 125,125 0,69.03 -55.95,125.01 -125,125.01 -69.05,0 -125.01,-55.98 -125.01,-125.01 0,-69.02 55.96,-125 125.01,-125z"/>
    <path id="1" class="fil5" d="M4457.75 9832.6c69.05,0 125,55.98 125,125 0,69.03 -55.95,125.01 -125,125.01 -69.05,0 -125.01,-55.98 -125.01,-125.01 0,-69.02 55.96,-125 125.01,-125zm53.04 71.96c-13.56,-13.56 -32.32,-21.96 -53.04,-21.96 -20.72,0 -39.48,8.4 -53.04,21.96l-0.19 0c-13.45,13.45 -21.78,32.21 -21.78,53.04 0,20.72 8.4,39.48 21.97,53.05 13.56,13.56 32.32,21.96 53.04,21.96 20.72,0 39.48,-8.4 53.04,-21.96l0.09 0.09c13.51,-13.56 21.87,-32.34 21.87,-53.14 0,-20.71 -8.4,-39.48 -21.96,-53.04z"/>
   </g>
   <polygon class="fil6" points="3853.51,10279.77 3833.05,10279.77 3833.05,10145.36 3759.85,10145.36 3759.85,10279.77 3739.49,10279.77 3739.49,10129.27 3853.51,10129.27 "/>
   <path id="1" class="fil6" d="M3933.27 10281.89c-15.56,0 -27.94,-5.19 -37.15,-15.56 -9.2,-10.34 -13.79,-23.81 -13.79,-40.32l0 -4.56c0,-15.91 4.73,-29.13 14.22,-39.72 9.45,-10.55 20.67,-15.84 33.65,-15.84 15.07,0 26.46,4.55 34.19,13.62 7.72,9.1 11.57,21.2 11.57,36.34l0 12.7 -72.53 0 -0.32 0.53c0.21,10.68 2.93,19.47 8.15,26.38 5.26,6.88 12.59,10.34 22.01,10.34 6.92,0 12.95,-0.99 18.17,-2.96 5.19,-1.94 9.67,-4.66 13.48,-8.12l7.93 13.27c-3.98,3.98 -9.24,7.26 -15.8,9.91 -6.53,2.65 -14.46,3.99 -23.78,3.99zm-3.07 -99.91c-6.84,0 -12.66,2.86 -17.49,8.54 -4.8,5.71 -7.77,12.84 -8.89,21.41l0.21 0.53 51.57 0 0 -2.65c0,-7.93 -2.11,-14.53 -6.38,-19.86 -4.31,-5.33 -10.62,-7.97 -19.02,-7.97z"/>
   <path id="2" class="fil6" d="M4094.11 10228.09c0,16.08 -3.85,29.1 -11.57,38.98 -7.73,9.88 -18.38,14.82 -31.93,14.82 -6.91,0 -12.95,-1.17 -18.13,-3.46 -5.22,-2.33 -9.63,-5.79 -13.3,-10.41l0 54.72 -20.36 0 0 -154.73 15.59 0 3.21 14.46c3.67,-5.36 8.22,-9.49 13.66,-12.31 5.43,-2.86 11.78,-4.27 19.01,-4.27 13.87,0 24.63,5.5 32.28,16.48 7.69,10.97 11.54,25.5 11.54,43.53l0 2.19zm-20.36 -2.3c0,-12.63 -2.5,-23.03 -7.48,-31.18 -5.01,-8.15 -12.34,-12.21 -22.08,-12.21 -5.86,0 -10.87,1.31 -14.99,3.95 -4.13,2.65 -7.48,6.28 -10.02,10.9l0 53.91c2.54,4.62 5.89,8.18 10.02,10.76 4.12,2.57 9.2,3.88 15.2,3.88 9.63,0 16.93,-3.53 21.91,-10.58 4.97,-7.02 7.44,-16.13 7.44,-27.24l0 -2.19z"/>
   <path id="3" class="fil6" d="M4119.23 10279.77l0 -111.76 44.13 0c14.75,0 26.18,2.57 34.29,7.69 8.15,5.15 12.21,12.84 12.21,23.11 0,5.22 -1.59,9.91 -4.77,14 -3.13,4.09 -7.62,7.2 -13.4,9.35 6.95,1.73 12.38,4.94 16.26,9.67 3.88,4.69 5.86,10.09 5.86,16.15 0,10.45 -3.81,18.38 -11.43,23.75 -7.62,5.36 -18.24,8.04 -31.89,8.04l-51.26 0zm20.35 -48.9l0 32.81 30.91 0c7.51,0 13.19,-1.41 17.04,-4.23 3.88,-2.82 5.78,-6.88 5.78,-12.17 0,-5.22 -1.9,-9.28 -5.78,-12.14 -3.85,-2.85 -9.53,-4.27 -17.04,-4.27l-30.91 0zm0 -15.66l23.89 0c8.6,0 15.1,-1.27 19.47,-3.77 4.37,-2.54 6.56,-6.35 6.56,-11.47 0,-5.26 -2.19,-9.21 -6.6,-11.89 -4.4,-2.64 -10.93,-3.98 -19.54,-3.98l-23.78 0 0 31.11z"/>
   <path id="4" class="fil6" d="M4234.66 10222.8c0,-16.51 4.48,-30.13 13.44,-40.86 8.96,-10.69 21.13,-16.05 36.48,-16.05 15.52,0 27.76,5.33 36.76,16.02 8.99,10.65 13.47,24.3 13.47,40.89l0 2.29c0,16.65 -4.48,30.3 -13.44,40.89 -8.96,10.61 -21.13,15.91 -36.58,15.91 -15.42,0 -27.66,-5.33 -36.62,-15.95 -9,-10.65 -13.51,-24.27 -13.51,-40.85l0 -2.29zm20.35 2.22c0,11.82 2.51,21.55 7.52,29.24 4.97,7.69 12.42,11.54 22.26,11.54 9.74,0 17.07,-3.85 22.12,-11.54 5.04,-7.69 7.55,-17.42 7.55,-29.24l0 -2.26c0,-11.68 -2.54,-21.38 -7.59,-29.14 -5.08,-7.76 -12.48,-11.64 -22.29,-11.64 -9.7,0 -17.08,3.88 -22.05,11.64 -5.01,7.76 -7.52,17.46 -7.52,29.14l0 2.26z"/>
   <polygon id="5" class="fil6" points="4423.4,10253.1 4424,10253.1 4460.58,10168.01 4486.02,10168.01 4486.02,10279.77 4465.66,10279.77 4465.66,10202.23 4465.03,10202.02 4430.74,10279.77 4416.66,10279.77 4381.74,10200.25 4381.1,10200.46 4381.1,10279.77 4360.74,10279.77 4360.74,10168.01 4386.99,10168.01 "/>
   <path id="6" class="fil6" d="M4586.38 10279.77c-0.67,-3.39 -1.2,-6.35 -1.58,-8.93 -0.39,-2.61 -0.6,-5.18 -0.67,-7.83 -3.81,5.4 -8.75,9.88 -14.86,13.48 -6.06,3.6 -12.66,5.4 -19.68,5.4 -11.64,0 -20.5,-3 -26.6,-8.96 -6.1,-5.97 -9.14,-14.19 -9.14,-24.66 0,-10.69 4.31,-19.05 12.95,-25.09 8.64,-6.03 20.39,-9.03 35.21,-9.03l22.12 0 0 -11c0,-6.5 -2.01,-11.65 -6,-15.46 -3.99,-3.81 -9.67,-5.71 -16.97,-5.71 -6.53,0 -11.85,1.66 -15.95,4.97 -4.09,3.32 -6.17,7.31 -6.17,11.93l-19.4 0 -0.21 -0.6c-0.43,-8.12 3.42,-15.56 11.5,-22.3 8.11,-6.74 18.55,-10.09 31.39,-10.09 12.67,0 22.86,3.21 30.59,9.67 7.73,6.42 11.57,15.73 11.57,27.83l0 53.84c0,4.02 0.21,7.86 0.6,11.57 0.42,3.74 1.2,7.37 2.29,10.97l-20.99 0zm-33.79 -15.03c7.37,0 14.04,-1.9 19.96,-5.68 5.93,-3.77 9.78,-8.11 11.58,-12.98l0 -18.17 -22.86 0c-8.19,0 -14.75,2.05 -19.69,6.17 -4.9,4.13 -7.37,9 -7.37,14.57 0,4.94 1.55,8.86 4.65,11.75 3.07,2.9 7.66,4.34 13.73,4.34z"/>
   <path id="7" class="fil6" d="M4704.32 10168.01l20.35 0 0 111.76 -20.35 0 0 -79.31 -0.6 -0.21 -49.43 79.52 -20.25 0 0 -111.76 20.25 0 0 79.3 0.64 0.22 49.39 -79.52zm5.43 -46.15l0.21 0.64c0.28,7.97 -2.36,14.5 -7.94,19.54 -5.61,5.05 -13.12,7.55 -22.54,7.55 -9.53,0 -17.07,-2.5 -22.65,-7.55 -5.57,-5.04 -8.18,-11.57 -7.83,-19.54l0.18 -0.64 15.62 0c0,4.52 1.17,8.22 3.5,11.01 2.36,2.82 6.06,4.23 11.18,4.23 4.94,0 8.64,-1.41 11.04,-4.26 2.44,-2.86 3.64,-6.53 3.64,-10.98l15.59 0z"/>
   <path id="8" class="fil6" d="M4799.82 10265.8c6.73,0 12.7,-2.08 17.81,-6.24 5.15,-4.17 7.73,-9.32 7.73,-15.35l18.27 0 0.21 0.6c0.36,9.67 -3.95,18.24 -12.87,25.79 -8.93,7.51 -19.3,11.29 -31.15,11.29 -16.27,0 -28.69,-5.3 -37.33,-15.91 -8.61,-10.59 -12.91,-23.92 -12.91,-39.97l0 -4.34c0,-15.91 4.34,-29.18 12.98,-39.83 8.64,-10.62 21.06,-15.95 37.26,-15.95 13.08,0 23.77,3.88 32.1,11.61 8.29,7.72 12.31,17.21 12.03,28.47l-0.21 0.6 -18.38 0c0,-6.81 -2.44,-12.63 -7.24,-17.39 -4.83,-4.8 -10.93,-7.2 -18.3,-7.2 -10.69,0 -18.31,3.81 -22.9,11.46 -4.59,7.66 -6.88,17.08 -6.88,28.19l0 4.31c0,11.39 2.29,20.88 6.84,28.46 4.56,7.59 12.18,11.4 22.94,11.4z"/>
   <polygon id="9" class="fil6" points="4901.42,10232.36 4888.08,10232.36 4888.08,10279.77 4867.72,10279.77 4867.72,10168.01 4888.08,10168.01 4888.08,10215.21 4899.86,10215.21 4936.76,10168.01 4960.65,10168.01 4960.97,10168.54 4917.15,10221.53 4964.46,10279.24 4964.18,10279.77 4939.16,10279.77 "/>
   <polygon id="10" class="fil6" points="5049.24,10168.01 5069.59,10168.01 5069.59,10279.77 5049.24,10279.77 5049.24,10200.46 5048.64,10200.25 4999.21,10279.77 4978.96,10279.77 4978.96,10168.01 4999.21,10168.01 4999.21,10247.31 4999.85,10247.53 "/>
   <path id="11" class="fil6" d="M5169.54 10168.01l20.35 0 0 111.76 -20.35 0 0 -79.31 -0.6 -0.21 -49.43 79.52 -20.25 0 0 -111.76 20.25 0 0 79.3 0.64 0.22 49.39 -79.52zm5.43 -46.15l0.21 0.64c0.28,7.97 -2.36,14.5 -7.94,19.54 -5.61,5.05 -13.12,7.55 -22.54,7.55 -9.53,0 -17.07,-2.5 -22.65,-7.55 -5.57,-5.04 -8.18,-11.57 -7.83,-19.54l0.18 -0.64 15.62 0c0,4.52 1.17,8.22 3.5,11.01 2.36,2.82 6.06,4.23 11.18,4.23 4.94,0 8.64,-1.41 11.04,-4.26 2.44,-2.86 3.64,-6.53 3.64,-10.98l15.59 0z"/>
   <g>
    <path class="fil4" d="M20264.46 12471.9c69.05,0 125,55.98 125,125 0,69.03 -55.95,125.01 -125,125.01 -69.05,0 -125.01,-55.98 -125.01,-125.01 0,-69.02 55.96,-125 125.01,-125z"/>
    <path id="1" class="fil5" d="M20264.46 12471.9c69.05,0 125,55.98 125,125 0,69.03 -55.95,125.01 -125,125.01 -69.05,0 -125.01,-55.98 -125.01,-125.01 0,-69.02 55.96,-125 125.01,-125zm53.04 71.96c-13.56,-13.56 -32.32,-21.96 -53.04,-21.96 -20.72,0 -39.48,8.4 -53.04,21.96l-0.19 0c-13.45,13.45 -21.78,32.21 -21.78,53.04 0,20.72 8.4,39.48 21.97,53.05 13.56,13.56 32.32,21.96 53.04,21.96 20.72,0 39.48,-8.4 53.04,-21.96l0.09 0.09c13.51,-13.56 21.87,-32.34 21.87,-53.14 0,-20.71 -8.4,-39.48 -21.96,-53.04z"/>
   </g>
   <path class="fil6" d="M19626.04 12449.63l-21.59 0 35.24 -64.31c-9.7,-3.71 -17.11,-9.03 -22.15,-15.91 -5.08,-6.88 -7.62,-15.24 -7.62,-25.02 0,-14.32 4.76,-25.47 14.22,-33.37 9.49,-7.94 22.5,-11.89 39.12,-11.89l48.15 0 0 150.5 -20.35 0 0 -58.84 -33.69 0 -31.33 58.84zm65.02 -134.41l-27.8 0c-10.76,0 -18.94,2.57 -24.55,7.76 -5.61,5.15 -8.44,12.24 -8.44,21.24 0,9.03 2.86,16.37 8.51,22.01 5.64,5.65 13.72,8.47 24.27,8.47l28.01 0 0 -59.48z"/>
   <path id="1" class="fil6" d="M19790.2 12435.66c6.73,0 12.7,-2.08 17.81,-6.24 5.15,-4.17 7.73,-9.32 7.73,-15.35l18.27 0 0.21 0.6c0.36,9.67 -3.95,18.24 -12.87,25.79 -8.93,7.51 -19.3,11.29 -31.15,11.29 -16.27,0 -28.69,-5.3 -37.33,-15.91 -8.61,-10.59 -12.91,-23.92 -12.91,-39.97l0 -4.34c0,-15.91 4.34,-29.18 12.98,-39.83 8.64,-10.62 21.06,-15.95 37.26,-15.95 13.08,0 23.77,3.88 32.1,11.61 8.29,7.72 12.31,17.21 12.03,28.47l-0.21 0.6 -18.38 0c0,-6.81 -2.44,-12.63 -7.24,-17.39 -4.83,-4.8 -10.93,-7.2 -18.3,-7.2 -10.69,0 -18.31,3.81 -22.9,11.46 -4.59,7.66 -6.88,17.08 -6.88,28.19l0 4.31c0,11.39 2.29,20.88 6.84,28.46 4.56,7.59 12.18,11.4 22.94,11.4z"/>
   <polygon id="2" class="fil6" points="19947.61,12449.63 19927.25,12449.63 19927.25,12402.22 19877.44,12402.22 19877.44,12449.63 19857.08,12449.63 19857.08,12337.87 19877.44,12337.87 19877.44,12386.13 19927.25,12386.13 19927.25,12337.87 19947.61,12337.87 "/>
   <path id="3" class="fil6" d="M20000.84 12380.41l27.8 0c13.23,0 23.53,3.18 30.87,9.49 7.34,6.35 11.01,14.57 11.01,24.7 0,10.19 -3.71,18.59 -11.12,25.15 -7.4,6.6 -17.67,9.88 -30.76,9.88l-48.15 0 0 -111.76 20.35 0 0 42.54zm109.75 69.22l-20.35 0 0 -111.76 20.35 0 0 111.76zm-109.75 -53.13l0 37.04 27.8 0c7.3,0 12.7,-1.73 16.19,-5.22 3.46,-3.49 5.22,-7.79 5.22,-12.98 0,-5.05 -1.76,-9.46 -5.29,-13.19 -3.49,-3.78 -8.89,-5.65 -16.12,-5.65l-27.8 0z"/>
   <path id="4" class="fil6" d="M20214.77 12337.87l20.35 0 0 111.76 -20.35 0 0 -79.31 -0.6 -0.21 -49.43 79.52 -20.25 0 0 -111.76 20.25 0 0 79.3 0.64 0.22 49.39 -79.52zm5.43 -46.15l0.21 0.64c0.28,7.97 -2.36,14.5 -7.94,19.54 -5.61,5.05 -13.12,7.55 -22.54,7.55 -9.53,0 -17.07,-2.5 -22.65,-7.55 -5.57,-5.04 -8.18,-11.57 -7.83,-19.54l0.18 -0.64 15.62 0c0,4.52 1.17,8.22 3.5,11.01 2.36,2.82 6.06,4.23 11.18,4.23 4.94,0 8.64,-1.41 11.04,-4.26 2.44,-2.86 3.64,-6.53 3.64,-10.98l15.59 0z"/>
   <g>
    <path class="fil4" d="M20002.07 9237.76c69.05,0 125,55.98 125,125 0,69.03 -55.95,125.01 -125,125.01 -69.05,0 -125.01,-55.98 -125.01,-125.01 0,-69.02 55.96,-125 125.01,-125z"/>
    <path id="1" class="fil5" d="M20002.07 9237.76c69.05,0 125,55.98 125,125 0,69.03 -55.95,125.01 -125,125.01 -69.05,0 -125.01,-55.98 -125.01,-125.01 0,-69.02 55.96,-125 125.01,-125zm53.04 71.96c-13.56,-13.56 -32.32,-21.96 -53.04,-21.96 -20.72,0 -39.48,8.4 -53.04,21.96l-0.19 0c-13.45,13.45 -21.78,32.21 -21.78,53.04 0,20.72 8.4,39.48 21.97,53.05 13.56,13.56 32.32,21.96 53.04,21.96 20.72,0 39.48,-8.4 53.04,-21.96l0.09 0.09c13.51,-13.56 21.87,-32.34 21.87,-53.14 0,-20.71 -8.4,-39.48 -21.96,-53.04z"/>
   </g>
   <polygon class="fil6" points="19459.29,9123.19 19441.69,9123.19 19441.69,9190.92 19421.33,9190.92 19421.33,9040.42 19441.69,9040.42 19441.69,9107.1 19457.42,9107.1 19511.26,9040.42 19533.8,9040.42 19534.12,9040.95 19475.7,9113.34 19538.35,9190.39 19538.03,9190.92 19513.76,9190.92 "/>
   <path id="1" class="fil6" d="M19553.73 9190.92l0 -111.76 44.13 0c14.75,0 26.18,2.57 34.29,7.69 8.15,5.15 12.21,12.84 12.21,23.11 0,5.22 -1.59,9.91 -4.77,14 -3.13,4.09 -7.62,7.2 -13.4,9.35 6.95,1.73 12.38,4.94 16.26,9.67 3.88,4.69 5.86,10.09 5.86,16.15 0,10.45 -3.81,18.38 -11.43,23.75 -7.62,5.36 -18.24,8.04 -31.89,8.04l-51.26 0zm20.35 -48.9l0 32.81 30.91 0c7.51,0 13.19,-1.41 17.04,-4.23 3.88,-2.82 5.78,-6.88 5.78,-12.17 0,-5.22 -1.9,-9.28 -5.78,-12.14 -3.85,-2.85 -9.53,-4.27 -17.04,-4.27l-30.91 0zm0 -15.66l23.89 0c8.6,0 15.1,-1.27 19.47,-3.77 4.37,-2.54 6.56,-6.35 6.56,-11.47 0,-5.26 -2.19,-9.21 -6.6,-11.89 -4.4,-2.64 -10.93,-3.98 -19.54,-3.98l-23.78 0 0 31.11z"/>
   <path id="2" class="fil6" d="M19742.64 9190.92c-0.67,-3.39 -1.2,-6.35 -1.58,-8.93 -0.39,-2.61 -0.6,-5.18 -0.67,-7.83 -3.81,5.4 -8.75,9.88 -14.86,13.48 -6.06,3.6 -12.66,5.4 -19.68,5.4 -11.64,0 -20.5,-3 -26.6,-8.96 -6.1,-5.97 -9.14,-14.19 -9.14,-24.66 0,-10.69 4.31,-19.05 12.95,-25.09 8.64,-6.03 20.39,-9.03 35.21,-9.03l22.12 0 0 -11c0,-6.5 -2.01,-11.65 -6,-15.46 -3.99,-3.81 -9.67,-5.71 -16.97,-5.71 -6.53,0 -11.85,1.66 -15.95,4.97 -4.09,3.32 -6.17,7.31 -6.17,11.93l-19.4 0 -0.21 -0.6c-0.43,-8.12 3.42,-15.56 11.5,-22.3 8.11,-6.74 18.55,-10.09 31.39,-10.09 12.67,0 22.86,3.21 30.59,9.67 7.73,6.42 11.57,15.73 11.57,27.83l0 53.84c0,4.02 0.21,7.86 0.6,11.57 0.42,3.74 1.2,7.37 2.29,10.97l-20.99 0zm-33.79 -15.03c7.37,0 14.04,-1.9 19.96,-5.68 5.93,-3.77 9.78,-8.11 11.58,-12.98l0 -18.17 -22.86 0c-8.19,0 -14.75,2.05 -19.69,6.17 -4.9,4.13 -7.37,9 -7.37,14.57 0,4.94 1.55,8.86 4.65,11.75 3.07,2.9 7.66,4.34 13.73,4.34z"/>
   <path id="3" class="fil6" d="M19885.59 9139.24c0,16.08 -3.85,29.1 -11.57,38.98 -7.73,9.88 -18.38,14.82 -31.93,14.82 -6.91,0 -12.95,-1.17 -18.13,-3.46 -5.22,-2.33 -9.63,-5.79 -13.3,-10.41l0 54.72 -20.36 0 0 -154.73 15.59 0 3.21 14.46c3.67,-5.36 8.22,-9.49 13.66,-12.31 5.43,-2.86 11.78,-4.27 19.01,-4.27 13.87,0 24.63,5.5 32.28,16.48 7.69,10.97 11.54,25.5 11.54,43.53l0 2.19zm-20.36 -2.3c0,-12.63 -2.5,-23.03 -7.48,-31.18 -5.01,-8.15 -12.34,-12.21 -22.08,-12.21 -5.86,0 -10.87,1.31 -14.99,3.95 -4.13,2.65 -7.48,6.28 -10.02,10.9l0 53.91c2.54,4.62 5.89,8.18 10.02,10.76 4.12,2.57 9.2,3.88 15.2,3.88 9.63,0 16.93,-3.53 21.91,-10.58 4.97,-7.02 7.44,-16.13 7.44,-27.24l0 -2.19z"/>
   <polygon id="4" class="fil6" points="19945.32,9143.51 19931.98,9143.51 19931.98,9190.92 19911.62,9190.92 19911.62,9079.16 19931.98,9079.16 19931.98,9126.36 19943.76,9126.36 19980.66,9079.16 20004.55,9079.16 20004.87,9079.69 19961.05,9132.68 20008.36,9190.39 20008.08,9190.92 19983.06,9190.92 "/>
   <path id="5" class="fil6" d="M20067.59 9193.04c-15.56,0 -27.94,-5.19 -37.15,-15.56 -9.2,-10.34 -13.79,-23.81 -13.79,-40.32l0 -4.56c0,-15.91 4.73,-29.13 14.22,-39.72 9.45,-10.55 20.67,-15.84 33.65,-15.84 15.07,0 26.46,4.55 34.19,13.62 7.72,9.1 11.57,21.2 11.57,36.34l0 12.7 -72.53 0 -0.32 0.53c0.21,10.68 2.93,19.47 8.15,26.38 5.26,6.88 12.59,10.34 22.01,10.34 6.92,0 12.95,-0.99 18.17,-2.96 5.19,-1.94 9.67,-4.66 13.48,-8.12l7.93 13.27c-3.98,3.98 -9.24,7.26 -15.8,9.91 -6.53,2.65 -14.46,3.99 -23.78,3.99zm-3.07 -99.91c-6.84,0 -12.66,2.86 -17.49,8.54 -4.8,5.71 -7.77,12.84 -8.89,21.41l0.21 0.53 51.57 0 0 -2.65c0,-7.93 -2.11,-14.53 -6.38,-19.86 -4.31,-5.33 -10.62,-7.97 -19.02,-7.97z"/>
   <polygon id="6" class="fil6" points="20223.67,9190.92 20203.31,9190.92 20203.31,9143.51 20153.5,9143.51 20153.5,9190.92 20133.14,9190.92 20133.14,9079.16 20153.5,9079.16 20153.5,9127.42 20203.31,9127.42 20203.31,9079.16 20223.67,9079.16 "/>
   <path id="7" class="fil6" d="M20248.68 9133.95c0,-16.51 4.48,-30.13 13.44,-40.86 8.96,-10.69 21.13,-16.05 36.48,-16.05 15.52,0 27.76,5.33 36.76,16.02 8.99,10.65 13.47,24.3 13.47,40.89l0 2.29c0,16.65 -4.48,30.3 -13.44,40.89 -8.96,10.61 -21.13,15.91 -36.58,15.91 -15.42,0 -27.66,-5.33 -36.62,-15.95 -9,-10.65 -13.51,-24.27 -13.51,-40.85l0 -2.29zm20.35 2.22c0,11.82 2.51,21.55 7.52,29.24 4.97,7.69 12.42,11.54 22.26,11.54 9.74,0 17.07,-3.85 22.12,-11.54 5.04,-7.69 7.55,-17.42 7.55,-29.24l0 -2.26c0,-11.68 -2.54,-21.38 -7.59,-29.14 -5.08,-7.76 -12.48,-11.64 -22.29,-11.64 -9.7,0 -17.08,3.88 -22.05,11.64 -5.01,7.76 -7.52,17.46 -7.52,29.14l0 2.26z"/>
   <g>
    <path class="fil4" d="M18595.41 11475.2c69.05,0 125,55.98 125,125 0,69.03 -55.95,125.01 -125,125.01 -69.05,0 -125.01,-55.98 -125.01,-125.01 0,-69.02 55.96,-125 125.01,-125z"/>
    <path id="1" class="fil5" d="M18595.41 11475.2c69.05,0 125,55.98 125,125 0,69.03 -55.95,125.01 -125,125.01 -69.05,0 -125.01,-55.98 -125.01,-125.01 0,-69.02 55.96,-125 125.01,-125zm53.04 71.96c-13.56,-13.56 -32.32,-21.96 -53.04,-21.96 -20.72,0 -39.48,8.4 -53.04,21.96l-0.19 0c-13.45,13.45 -21.78,32.21 -21.78,53.04 0,20.72 8.4,39.48 21.97,53.05 13.56,13.56 32.32,21.96 53.04,21.96 20.72,0 39.48,-8.4 53.04,-21.96l0.09 0.09c13.51,-13.56 21.87,-32.34 21.87,-53.14 0,-20.71 -8.4,-39.48 -21.96,-53.04z"/>
   </g>
   <polygon class="fil6" points="18628.74,11421.74 18608.38,11421.74 18608.38,11355.28 18535.29,11355.28 18535.29,11421.74 18514.93,11421.74 18514.93,11271.24 18535.29,11271.24 18535.29,11339.19 18608.38,11339.19 18608.38,11271.24 18628.74,11271.24 "/>
   <path id="1" class="fil6" d="M18657.35 11364.77c0,-16.51 4.48,-30.13 13.44,-40.86 8.96,-10.69 21.13,-16.05 36.48,-16.05 15.52,0 27.76,5.33 36.76,16.02 8.99,10.65 13.47,24.3 13.47,40.89l0 2.29c0,16.65 -4.48,30.3 -13.44,40.89 -8.96,10.61 -21.13,15.91 -36.58,15.91 -15.42,0 -27.66,-5.33 -36.62,-15.95 -9,-10.65 -13.51,-24.27 -13.51,-40.85l0 -2.29zm20.35 2.22c0,11.82 2.51,21.55 7.52,29.24 4.97,7.69 12.42,11.54 22.26,11.54 9.74,0 17.07,-3.85 22.12,-11.54 5.04,-7.69 7.55,-17.42 7.55,-29.24l0 -2.26c0,-11.68 -2.54,-21.38 -7.59,-29.14 -5.08,-7.76 -12.48,-11.64 -22.29,-11.64 -9.7,0 -17.08,3.88 -22.05,11.64 -5.01,7.76 -7.52,17.46 -7.52,29.14l0 2.26z"/>
   <path id="2" class="fil6" d="M18782.52 11421.74l0 -111.76 44.13 0c14.75,0 26.18,2.57 34.29,7.69 8.15,5.15 12.21,12.84 12.21,23.11 0,5.22 -1.59,9.91 -4.77,14 -3.13,4.09 -7.62,7.2 -13.4,9.35 6.95,1.73 12.38,4.94 16.26,9.67 3.88,4.69 5.86,10.09 5.86,16.15 0,10.45 -3.81,18.38 -11.43,23.75 -7.62,5.36 -18.24,8.04 -31.89,8.04l-51.26 0zm20.35 -48.9l0 32.81 30.91 0c7.51,0 13.19,-1.41 17.04,-4.23 3.88,-2.82 5.78,-6.88 5.78,-12.17 0,-5.22 -1.9,-9.28 -5.78,-12.14 -3.85,-2.85 -9.53,-4.27 -17.04,-4.27l-30.91 0zm0 -15.66l23.89 0c8.6,0 15.1,-1.27 19.47,-3.77 4.37,-2.54 6.56,-6.35 6.56,-11.47 0,-5.26 -2.19,-9.21 -6.6,-11.89 -4.4,-2.64 -10.93,-3.98 -19.54,-3.98l-23.78 0 0 31.11z"/>
   <path id="3" class="fil6" d="M18897.95 11364.77c0,-16.51 4.48,-30.13 13.44,-40.86 8.96,-10.69 21.13,-16.05 36.48,-16.05 15.52,0 27.76,5.33 36.76,16.02 8.99,10.65 13.47,24.3 13.47,40.89l0 2.29c0,16.65 -4.48,30.3 -13.44,40.89 -8.96,10.61 -21.13,15.91 -36.58,15.91 -15.42,0 -27.66,-5.33 -36.62,-15.95 -9,-10.65 -13.51,-24.27 -13.51,-40.85l0 -2.29zm20.35 2.22c0,11.82 2.51,21.55 7.52,29.24 4.97,7.69 12.42,11.54 22.26,11.54 9.74,0 17.07,-3.85 22.12,-11.54 5.04,-7.69 7.55,-17.42 7.55,-29.24l0 -2.26c0,-11.68 -2.54,-21.38 -7.59,-29.14 -5.08,-7.76 -12.48,-11.64 -22.29,-11.64 -9.7,0 -17.08,3.88 -22.05,11.64 -5.01,7.76 -7.52,17.46 -7.52,29.14l0 2.26z"/>
   <path id="4" class="fil6" d="M19018.25 11364.77c0,-16.51 4.48,-30.13 13.44,-40.86 8.96,-10.69 21.13,-16.05 36.48,-16.05 15.52,0 27.76,5.33 36.76,16.02 8.99,10.65 13.47,24.3 13.47,40.89l0 2.29c0,16.65 -4.48,30.3 -13.44,40.89 -8.96,10.61 -21.13,15.91 -36.58,15.91 -15.42,0 -27.66,-5.33 -36.62,-15.95 -9,-10.65 -13.51,-24.27 -13.51,-40.85l0 -2.29zm20.35 2.22c0,11.82 2.51,21.55 7.52,29.24 4.97,7.69 12.42,11.54 22.26,11.54 9.74,0 17.07,-3.85 22.12,-11.54 5.04,-7.69 7.55,-17.42 7.55,-29.24l0 -2.26c0,-11.68 -2.54,-21.38 -7.59,-29.14 -5.08,-7.76 -12.48,-11.64 -22.29,-11.64 -9.7,0 -17.08,3.88 -22.05,11.64 -5.01,7.76 -7.52,17.46 -7.52,29.14l0 2.26z"/>
   <path id="5" class="fil6" d="M19238.6 11370.06c0,16.08 -3.85,29.1 -11.57,38.98 -7.73,9.88 -18.38,14.82 -31.93,14.82 -6.91,0 -12.95,-1.17 -18.13,-3.46 -5.22,-2.33 -9.63,-5.79 -13.3,-10.41l0 54.72 -20.36 0 0 -154.73 15.59 0 3.21 14.46c3.67,-5.36 8.22,-9.49 13.66,-12.31 5.43,-2.86 11.78,-4.27 19.01,-4.27 13.87,0 24.63,5.5 32.28,16.48 7.69,10.97 11.54,25.5 11.54,43.53l0 2.19zm-20.36 -2.3c0,-12.63 -2.5,-23.03 -7.48,-31.18 -5.01,-8.15 -12.34,-12.21 -22.08,-12.21 -5.86,0 -10.87,1.31 -14.99,3.95 -4.13,2.65 -7.48,6.28 -10.02,10.9l0 53.91c2.54,4.62 5.89,8.18 10.02,10.76 4.12,2.57 9.2,3.88 15.2,3.88 9.63,0 16.93,-3.53 21.91,-10.58 4.97,-7.02 7.44,-16.13 7.44,-27.24l0 -2.19z"/>
   <path id="6" class="fil6" d="M19309.09 11407.77c6.73,0 12.7,-2.08 17.81,-6.24 5.15,-4.17 7.73,-9.32 7.73,-15.35l18.27 0 0.21 0.6c0.36,9.67 -3.95,18.24 -12.87,25.79 -8.93,7.51 -19.3,11.29 -31.15,11.29 -16.27,0 -28.69,-5.3 -37.33,-15.91 -8.61,-10.59 -12.91,-23.92 -12.91,-39.97l0 -4.34c0,-15.91 4.34,-29.18 12.98,-39.83 8.64,-10.62 21.06,-15.95 37.26,-15.95 13.08,0 23.77,3.88 32.1,11.61 8.29,7.72 12.31,17.21 12.03,28.47l-0.21 0.6 -18.38 0c0,-6.81 -2.44,-12.63 -7.24,-17.39 -4.83,-4.8 -10.93,-7.2 -18.3,-7.2 -10.69,0 -18.31,3.81 -22.9,11.46 -4.59,7.66 -6.88,17.08 -6.88,28.19l0 4.31c0,11.39 2.29,20.88 6.84,28.46 4.56,7.59 12.18,11.4 22.94,11.4z"/>
   <polygon id="7" class="fil6" points="19410.69,11374.33 19397.35,11374.33 19397.35,11421.74 19376.99,11421.74 19376.99,11309.98 19397.35,11309.98 19397.35,11357.18 19409.13,11357.18 19446.03,11309.98 19469.92,11309.98 19470.24,11310.51 19426.42,11363.5 19473.73,11421.21 19473.45,11421.74 19448.43,11421.74 "/>
   <g>
    <path class="fil4" d="M22202.59 13132.98c69.05,0 125,55.98 125,125 0,69.03 -55.95,125.01 -125,125.01 -69.05,0 -125.01,-55.98 -125.01,-125.01 0,-69.02 55.96,-125 125.01,-125z"/>
    <path id="1" class="fil5" d="M22202.59 13132.98c69.05,0 125,55.98 125,125 0,69.03 -55.95,125.01 -125,125.01 -69.05,0 -125.01,-55.98 -125.01,-125.01 0,-69.02 55.96,-125 125.01,-125zm53.04 71.96c-13.56,-13.56 -32.32,-21.96 -53.04,-21.96 -20.72,0 -39.48,8.4 -53.04,21.96l-0.19 0c-13.45,13.45 -21.78,32.21 -21.78,53.04 0,20.72 8.4,39.48 21.97,53.05 13.56,13.56 32.32,21.96 53.04,21.96 20.72,0 39.48,-8.4 53.04,-21.96l0.09 0.09c13.51,-13.56 21.87,-32.34 21.87,-53.14 0,-20.71 -8.4,-39.48 -21.96,-53.04z"/>
   </g>
   <path class="fil6" d="M21895.49 13041.62l0.21 0.63c0.28,14.11 -4.69,25.97 -14.89,35.53 -10.2,9.56 -23.67,14.36 -40.43,14.36 -17,0 -30.87,-6.04 -41.59,-18.07 -10.69,-12.06 -16.05,-27.34 -16.05,-45.86l0 -26.77c0,-18.53 5.36,-33.84 16.05,-45.9 10.72,-12.1 24.59,-18.13 41.59,-18.13 17.04,0 30.59,4.55 40.64,13.61 10.06,9.11 14.96,21.1 14.68,36.06l-0.21 0.63 -19.55 0c0,-10.55 -3.1,-18.87 -9.28,-25.01 -6.21,-6.14 -14.95,-9.21 -26.28,-9.21 -11.36,0 -20.43,4.59 -27.16,13.73 -6.74,9.13 -10.13,20.46 -10.13,34l0 26.89c0,13.68 3.39,25.08 10.13,34.22 6.73,9.13 15.8,13.72 27.16,13.72 11.33,0 20.07,-3.03 26.28,-9.14 6.18,-6.1 9.28,-14.53 9.28,-25.29l19.55 0z"/>
   <path id="1" class="fil6" d="M21919.48 13090.02l0 -111.76 44.13 0c14.75,0 26.18,2.57 34.29,7.69 8.15,5.15 12.21,12.84 12.21,23.11 0,5.22 -1.59,9.91 -4.77,14 -3.13,4.09 -7.62,7.2 -13.4,9.35 6.95,1.73 12.38,4.94 16.26,9.67 3.88,4.69 5.86,10.09 5.86,16.15 0,10.45 -3.81,18.38 -11.43,23.75 -7.62,5.36 -18.24,8.04 -31.89,8.04l-51.26 0zm20.35 -48.9l0 32.81 30.91 0c7.51,0 13.19,-1.41 17.04,-4.23 3.88,-2.82 5.78,-6.88 5.78,-12.17 0,-5.22 -1.9,-9.28 -5.78,-12.14 -3.85,-2.85 -9.53,-4.27 -17.04,-4.27l-30.91 0zm0 -15.66l23.89 0c8.6,0 15.1,-1.27 19.47,-3.77 4.37,-2.54 6.56,-6.35 6.56,-11.47 0,-5.26 -2.19,-9.21 -6.6,-11.89 -4.4,-2.64 -10.93,-3.98 -19.54,-3.98l-23.78 0 0 31.11z"/>
   <path id="2" class="fil6" d="M22086.06 13092.14c-15.56,0 -27.94,-5.19 -37.15,-15.56 -9.2,-10.34 -13.79,-23.81 -13.79,-40.32l0 -4.56c0,-15.91 4.73,-29.13 14.22,-39.72 9.45,-10.55 20.67,-15.84 33.65,-15.84 15.07,0 26.46,4.55 34.19,13.62 7.72,9.1 11.57,21.2 11.57,36.34l0 12.7 -72.53 0 -0.32 0.53c0.21,10.68 2.93,19.47 8.15,26.38 5.26,6.88 12.59,10.34 22.01,10.34 6.92,0 12.95,-0.99 18.17,-2.96 5.19,-1.94 9.67,-4.66 13.48,-8.12l7.93 13.27c-3.98,3.98 -9.24,7.26 -15.8,9.91 -6.53,2.65 -14.46,3.99 -23.78,3.99zm-3.07 -99.91c-6.84,0 -12.66,2.86 -17.49,8.54 -4.8,5.71 -7.77,12.84 -8.89,21.41l0.21 0.53 51.57 0 0 -2.65c0,-7.93 -2.11,-14.53 -6.38,-19.86 -4.31,-5.33 -10.62,-7.97 -19.02,-7.97z"/>
   <polygon id="3" class="fil6" points="22236.67,12994.35 22199.77,12994.35 22199.77,13090.02 22179.41,13090.02 22179.41,12994.35 22143.04,12994.35 22143.04,12978.26 22236.67,12978.26 "/>
   <path id="4" class="fil6" d="M22345.18 12978.26l0 111.76 -20.35 0 0 -95.67 -37.82 0 0 31.6c0,22.05 -2.93,38.25 -8.79,48.58 -5.85,10.34 -15.84,15.49 -29.98,15.49l-5.79 0 0.42 -17.15 4.24 -0.1c7.23,0 12.27,-3.53 15.13,-10.62 2.86,-7.06 4.31,-19.09 4.31,-36.05l0 -47.84 78.63 0z"/>
   <path id="5" class="fil6" d="M22395.1 13020.8l27.8 0c13.23,0 23.53,3.18 30.87,9.49 7.34,6.35 11.01,14.57 11.01,24.7 0,10.19 -3.71,18.59 -11.12,25.15 -7.4,6.6 -17.67,9.88 -30.76,9.88l-48.15 0 0 -111.76 20.35 0 0 42.54zm109.75 69.22l-20.35 0 0 -111.76 20.35 0 0 111.76zm-109.75 -53.13l0 37.04 27.8 0c7.3,0 12.7,-1.73 16.19,-5.22 3.46,-3.49 5.22,-7.79 5.22,-12.98 0,-5.05 -1.76,-9.46 -5.29,-13.19 -3.49,-3.78 -8.89,-5.65 -16.12,-5.65l-27.8 0z"/>
   <path id="6" class="fil6" d="M22609.03 12978.26l20.35 0 0 111.76 -20.35 0 0 -79.31 -0.6 -0.21 -49.43 79.52 -20.25 0 0 -111.76 20.25 0 0 79.3 0.64 0.22 49.39 -79.52zm5.43 -46.15l0.21 0.64c0.28,7.97 -2.36,14.5 -7.94,19.54 -5.61,5.05 -13.12,7.55 -22.54,7.55 -9.53,0 -17.07,-2.5 -22.65,-7.55 -5.57,-5.04 -8.18,-11.57 -7.83,-19.54l0.18 -0.64 15.62 0c0,4.52 1.17,8.22 3.5,11.01 2.36,2.82 6.06,4.23 11.18,4.23 4.94,0 8.64,-1.41 11.04,-4.26 2.44,-2.86 3.64,-6.53 3.64,-10.98l15.59 0z"/>
   <g>
    <path class="fil4" d="M13554.05 10265.86c69.05,0 125,55.98 125,125 0,69.03 -55.95,125.01 -125,125.01 -69.05,0 -125.01,-55.98 -125.01,-125.01 0,-69.02 55.96,-125 125.01,-125z"/>
    <path id="1" class="fil5" d="M13554.05 10265.86c69.05,0 125,55.98 125,125 0,69.03 -55.95,125.01 -125,125.01 -69.05,0 -125.01,-55.98 -125.01,-125.01 0,-69.02 55.96,-125 125.01,-125zm53.04 71.96c-13.56,-13.56 -32.32,-21.96 -53.04,-21.96 -20.72,0 -39.48,8.4 -53.04,21.96l-0.19 0c-13.45,13.45 -21.78,32.21 -21.78,53.04 0,20.72 8.4,39.48 21.97,53.05 13.56,13.56 32.32,21.96 53.04,21.96 20.72,0 39.48,-8.4 53.04,-21.96l0.09 0.09c13.51,-13.56 21.87,-32.34 21.87,-53.14 0,-20.71 -8.4,-39.48 -21.96,-53.04z"/>
   </g>
   <path class="fil6" d="M13110.69 10150.57l0.21 0.63c0.28,14.11 -4.69,25.97 -14.89,35.53 -10.2,9.56 -23.67,14.36 -40.43,14.36 -17,0 -30.87,-6.04 -41.59,-18.07 -10.69,-12.06 -16.05,-27.34 -16.05,-45.86l0 -26.77c0,-18.53 5.36,-33.84 16.05,-45.9 10.72,-12.1 24.59,-18.13 41.59,-18.13 17.04,0 30.59,4.55 40.64,13.61 10.06,9.11 14.96,21.1 14.68,36.06l-0.21 0.63 -19.55 0c0,-10.55 -3.1,-18.87 -9.28,-25.01 -6.21,-6.14 -14.95,-9.21 -26.28,-9.21 -11.36,0 -20.43,4.59 -27.16,13.73 -6.74,9.13 -10.13,20.46 -10.13,34l0 26.89c0,13.68 3.39,25.08 10.13,34.22 6.73,9.13 15.8,13.72 27.16,13.72 11.33,0 20.07,-3.03 26.28,-9.14 6.18,-6.1 9.28,-14.53 9.28,-25.29l19.55 0z"/>
   <path id="1" class="fil6" d="M13203.29 10198.97c-0.67,-3.39 -1.2,-6.35 -1.58,-8.93 -0.39,-2.61 -0.6,-5.18 -0.67,-7.83 -3.81,5.4 -8.75,9.88 -14.86,13.48 -6.06,3.6 -12.66,5.4 -19.68,5.4 -11.64,0 -20.5,-3 -26.6,-8.96 -6.1,-5.97 -9.14,-14.19 -9.14,-24.66 0,-10.69 4.31,-19.05 12.95,-25.09 8.64,-6.03 20.39,-9.03 35.21,-9.03l22.12 0 0 -11c0,-6.5 -2.01,-11.65 -6,-15.46 -3.99,-3.81 -9.67,-5.71 -16.97,-5.71 -6.53,0 -11.85,1.66 -15.95,4.97 -4.09,3.32 -6.17,7.31 -6.17,11.93l-19.4 0 -0.21 -0.6c-0.43,-8.12 3.42,-15.56 11.5,-22.3 8.11,-6.74 18.55,-10.09 31.39,-10.09 12.67,0 22.86,3.21 30.59,9.67 7.73,6.42 11.57,15.73 11.57,27.83l0 53.84c0,4.02 0.21,7.86 0.6,11.57 0.42,3.74 1.2,7.37 2.29,10.97l-20.99 0zm-33.79 -15.03c7.37,0 14.04,-1.9 19.96,-5.68 5.93,-3.77 9.78,-8.11 11.58,-12.98l0 -18.17 -22.86 0c-8.19,0 -14.75,2.05 -19.69,6.17 -4.9,4.13 -7.37,9 -7.37,14.57 0,4.94 1.55,8.86 4.65,11.75 3.07,2.9 7.66,4.34 13.73,4.34z"/>
   <path id="2" class="fil6" d="M13346.24 10147.29c0,16.08 -3.85,29.1 -11.57,38.98 -7.73,9.88 -18.38,14.82 -31.93,14.82 -6.91,0 -12.95,-1.17 -18.13,-3.46 -5.22,-2.33 -9.63,-5.79 -13.3,-10.41l0 54.72 -20.36 0 0 -154.73 15.59 0 3.21 14.46c3.67,-5.36 8.22,-9.49 13.66,-12.31 5.43,-2.86 11.78,-4.27 19.01,-4.27 13.87,0 24.63,5.5 32.28,16.48 7.69,10.97 11.54,25.5 11.54,43.53l0 2.19zm-20.36 -2.3c0,-12.63 -2.5,-23.03 -7.48,-31.18 -5.01,-8.15 -12.34,-12.21 -22.08,-12.21 -5.86,0 -10.87,1.31 -14.99,3.95 -4.13,2.65 -7.48,6.28 -10.02,10.9l0 53.91c2.54,4.62 5.89,8.18 10.02,10.76 4.12,2.57 9.2,3.88 15.2,3.88 9.63,0 16.93,-3.53 21.91,-10.58 4.97,-7.02 7.44,-16.13 7.44,-27.24l0 -2.19z"/>
   <path id="3" class="fil6" d="M13439.97 10198.97c-0.67,-3.39 -1.2,-6.35 -1.58,-8.93 -0.39,-2.61 -0.6,-5.18 -0.67,-7.83 -3.81,5.4 -8.75,9.88 -14.86,13.48 -6.06,3.6 -12.66,5.4 -19.68,5.4 -11.64,0 -20.5,-3 -26.6,-8.96 -6.1,-5.97 -9.14,-14.19 -9.14,-24.66 0,-10.69 4.31,-19.05 12.95,-25.09 8.64,-6.03 20.39,-9.03 35.21,-9.03l22.12 0 0 -11c0,-6.5 -2.01,-11.65 -6,-15.46 -3.99,-3.81 -9.67,-5.71 -16.97,-5.71 -6.53,0 -11.85,1.66 -15.95,4.97 -4.09,3.32 -6.17,7.31 -6.17,11.93l-19.4 0 -0.21 -0.6c-0.43,-8.12 3.42,-15.56 11.5,-22.3 8.11,-6.74 18.55,-10.09 31.39,-10.09 12.67,0 22.86,3.21 30.59,9.67 7.73,6.42 11.57,15.73 11.57,27.83l0 53.84c0,4.02 0.21,7.86 0.6,11.57 0.42,3.74 1.2,7.37 2.29,10.97l-20.99 0zm-33.79 -15.03c7.37,0 14.04,-1.9 19.96,-5.68 5.93,-3.77 9.78,-8.11 11.58,-12.98l0 -18.17 -22.86 0c-8.19,0 -14.75,2.05 -19.69,6.17 -4.9,4.13 -7.37,9 -7.37,14.57 0,4.94 1.55,8.86 4.65,11.75 3.07,2.9 7.66,4.34 13.73,4.34z"/>
   <polygon id="4" class="fil6" points="13522.35,10151.56 13509.01,10151.56 13509.01,10198.97 13488.65,10198.97 13488.65,10087.21 13509.01,10087.21 13509.01,10134.41 13520.79,10134.41 13557.69,10087.21 13581.58,10087.21 13581.9,10087.74 13538.08,10140.73 13585.39,10198.44 13585.11,10198.97 13560.09,10198.97 "/>
   <polygon id="5" class="fil6" points="13686.08,10103.3 13649.18,10103.3 13649.18,10198.97 13628.82,10198.97 13628.82,10103.3 13592.45,10103.3 13592.45,10087.21 13686.08,10087.21 "/>
   <path id="6" class="fil6" d="M13775.26 10198.97c-0.67,-3.39 -1.2,-6.35 -1.58,-8.93 -0.39,-2.61 -0.6,-5.18 -0.67,-7.83 -3.81,5.4 -8.75,9.88 -14.86,13.48 -6.06,3.6 -12.66,5.4 -19.68,5.4 -11.64,0 -20.5,-3 -26.6,-8.96 -6.1,-5.97 -9.14,-14.19 -9.14,-24.66 0,-10.69 4.31,-19.05 12.95,-25.09 8.64,-6.03 20.39,-9.03 35.21,-9.03l22.12 0 0 -11c0,-6.5 -2.01,-11.65 -6,-15.46 -3.99,-3.81 -9.67,-5.71 -16.97,-5.71 -6.53,0 -11.85,1.66 -15.95,4.97 -4.09,3.32 -6.17,7.31 -6.17,11.93l-19.4 0 -0.21 -0.6c-0.43,-8.12 3.42,-15.56 11.5,-22.3 8.11,-6.74 18.55,-10.09 31.39,-10.09 12.67,0 22.86,3.21 30.59,9.67 7.73,6.42 11.57,15.73 11.57,27.83l0 53.84c0,4.02 0.21,7.86 0.6,11.57 0.42,3.74 1.2,7.37 2.29,10.97l-20.99 0zm-33.79 -15.03c7.37,0 14.04,-1.9 19.96,-5.68 5.93,-3.77 9.78,-8.11 11.58,-12.98l0 -18.17 -22.86 0c-8.19,0 -14.75,2.05 -19.69,6.17 -4.9,4.13 -7.37,9 -7.37,14.57 0,4.94 1.55,8.86 4.65,11.75 3.07,2.9 7.66,4.34 13.73,4.34z"/>
   <polygon id="7" class="fil6" points="13843.28,10087.21 13843.28,10182.88 13882.65,10182.88 13882.65,10087.21 13903.04,10087.21 13903.04,10182.88 13942.41,10182.88 13942.41,10087.21 13962.76,10087.21 13962.76,10198.97 13822.92,10198.97 13822.92,10087.21 "/>
   <g>
    <path class="fil4" d="M9970.82 8676.2c69.05,0 125,55.98 125,125 0,69.03 -55.95,125.01 -125,125.01 -69.05,0 -125.01,-55.98 -125.01,-125.01 0,-69.02 55.96,-125 125.01,-125z"/>
    <path id="1" class="fil5" d="M9970.82 8676.2c69.05,0 125,55.98 125,125 0,69.03 -55.95,125.01 -125,125.01 -69.05,0 -125.01,-55.98 -125.01,-125.01 0,-69.02 55.96,-125 125.01,-125zm53.04 71.96c-13.56,-13.56 -32.32,-21.96 -53.04,-21.96 -20.72,0 -39.48,8.4 -53.04,21.96l-0.19 0c-13.45,13.45 -21.78,32.21 -21.78,53.04 0,20.72 8.4,39.48 21.97,53.05 13.56,13.56 32.32,21.96 53.04,21.96 20.72,0 39.48,-8.4 53.04,-21.96l0.09 0.09c13.51,-13.56 21.87,-32.34 21.87,-53.14 0,-20.71 -8.4,-39.48 -21.96,-53.04z"/>
   </g>
   <path class="fil6" d="M9533.72 8584.84l0.21 0.63c0.28,14.11 -4.69,25.97 -14.89,35.53 -10.2,9.56 -23.67,14.36 -40.43,14.36 -17,0 -30.87,-6.04 -41.59,-18.07 -10.69,-12.06 -16.05,-27.34 -16.05,-45.86l0 -26.77c0,-18.53 5.36,-33.84 16.05,-45.9 10.72,-12.1 24.59,-18.13 41.59,-18.13 17.04,0 30.59,4.55 40.64,13.61 10.06,9.11 14.96,21.1 14.68,36.06l-0.21 0.63 -19.55 0c0,-10.55 -3.1,-18.87 -9.28,-25.01 -6.21,-6.14 -14.95,-9.21 -26.28,-9.21 -11.36,0 -20.43,4.59 -27.16,13.73 -6.74,9.13 -10.13,20.46 -10.13,34l0 26.89c0,13.68 3.39,25.08 10.13,34.22 6.73,9.13 15.8,13.72 27.16,13.72 11.33,0 20.07,-3.03 26.28,-9.14 6.18,-6.1 9.28,-14.53 9.28,-25.29l19.55 0z"/>
   <polygon id="1" class="fil6" points="9643.79,8537.57 9606.89,8537.57 9606.89,8633.24 9586.53,8633.24 9586.53,8537.57 9550.16,8537.57 9550.16,8521.48 9643.79,8521.48 "/>
   <path id="2" class="fil6" d="M9710.46 8635.36c-15.56,0 -27.94,-5.19 -37.15,-15.56 -9.2,-10.34 -13.79,-23.81 -13.79,-40.32l0 -4.56c0,-15.91 4.73,-29.13 14.22,-39.72 9.45,-10.55 20.67,-15.84 33.65,-15.84 15.07,0 26.46,4.55 34.19,13.62 7.72,9.1 11.57,21.2 11.57,36.34l0 12.7 -72.53 0 -0.32 0.53c0.21,10.68 2.93,19.47 8.15,26.38 5.26,6.88 12.59,10.34 22.01,10.34 6.92,0 12.95,-0.99 18.17,-2.96 5.19,-1.94 9.67,-4.66 13.48,-8.12l7.93 13.27c-3.98,3.98 -9.24,7.26 -15.8,9.91 -6.53,2.65 -14.46,3.99 -23.78,3.99zm-3.07 -99.91c-6.84,0 -12.66,2.86 -17.49,8.54 -4.8,5.71 -7.77,12.84 -8.89,21.41l0.21 0.53 51.57 0 0 -2.65c0,-7.93 -2.11,-14.53 -6.38,-19.86 -4.31,-5.33 -10.62,-7.97 -19.02,-7.97z"/>
   <polygon id="3" class="fil6" points="9866.64,8633.24 9846.29,8633.24 9846.29,8537.57 9796.37,8537.57 9796.37,8633.24 9776.01,8633.24 9776.01,8521.48 9866.64,8521.48 "/>
   <path id="4" class="fil6" d="M9965.03 8633.24c-0.67,-3.39 -1.2,-6.35 -1.58,-8.93 -0.39,-2.61 -0.6,-5.18 -0.67,-7.83 -3.81,5.4 -8.75,9.88 -14.86,13.48 -6.06,3.6 -12.66,5.4 -19.68,5.4 -11.64,0 -20.5,-3 -26.6,-8.96 -6.1,-5.97 -9.14,-14.19 -9.14,-24.66 0,-10.69 4.31,-19.05 12.95,-25.09 8.64,-6.03 20.39,-9.03 35.21,-9.03l22.12 0 0 -11c0,-6.5 -2.01,-11.65 -6,-15.46 -3.99,-3.81 -9.67,-5.71 -16.97,-5.71 -6.53,0 -11.85,1.66 -15.95,4.97 -4.09,3.32 -6.17,7.31 -6.17,11.93l-19.4 0 -0.21 -0.6c-0.43,-8.12 3.42,-15.56 11.5,-22.3 8.11,-6.74 18.55,-10.09 31.39,-10.09 12.67,0 22.86,3.21 30.59,9.67 7.73,6.42 11.57,15.73 11.57,27.83l0 53.84c0,4.02 0.21,7.86 0.6,11.57 0.42,3.74 1.2,7.37 2.29,10.97l-20.99 0zm-33.79 -15.03c7.37,0 14.04,-1.9 19.96,-5.68 5.93,-3.77 9.78,-8.11 11.58,-12.98l0 -18.17 -22.86 0c-8.19,0 -14.75,2.05 -19.69,6.17 -4.9,4.13 -7.37,9 -7.37,14.57 0,4.94 1.55,8.86 4.65,11.75 3.07,2.9 7.66,4.34 13.73,4.34z"/>
   <polygon id="5" class="fil6" points="10103.22,8633.24 10082.86,8633.24 10082.86,8585.83 10033.05,8585.83 10033.05,8633.24 10012.69,8633.24 10012.69,8521.48 10033.05,8521.48 10033.05,8569.74 10082.86,8569.74 10082.86,8521.48 10103.22,8521.48 "/>
   <path id="6" class="fil6" d="M10128.23 8576.27c0,-16.51 4.48,-30.13 13.44,-40.86 8.96,-10.69 21.13,-16.05 36.48,-16.05 15.52,0 27.76,5.33 36.76,16.02 8.99,10.65 13.47,24.3 13.47,40.89l0 2.29c0,16.65 -4.48,30.3 -13.44,40.89 -8.96,10.61 -21.13,15.91 -36.58,15.91 -15.42,0 -27.66,-5.33 -36.62,-15.95 -9,-10.65 -13.51,-24.27 -13.51,-40.85l0 -2.29zm20.35 2.22c0,11.82 2.51,21.55 7.52,29.24 4.97,7.69 12.42,11.54 22.26,11.54 9.74,0 17.07,-3.85 22.12,-11.54 5.04,-7.69 7.55,-17.42 7.55,-29.24l0 -2.26c0,-11.68 -2.54,-21.38 -7.59,-29.14 -5.08,-7.76 -12.48,-11.64 -22.29,-11.64 -9.7,0 -17.08,3.88 -22.05,11.64 -5.01,7.76 -7.52,17.46 -7.52,29.14l0 2.26z"/>
   <path id="7" class="fil6" d="M10253.4 8633.24l0 -111.76 44.13 0c14.75,0 26.18,2.57 34.29,7.69 8.15,5.15 12.21,12.84 12.21,23.11 0,5.22 -1.59,9.91 -4.77,14 -3.13,4.09 -7.62,7.2 -13.4,9.35 6.95,1.73 12.38,4.94 16.26,9.67 3.88,4.69 5.86,10.09 5.86,16.15 0,10.45 -3.81,18.38 -11.43,23.75 -7.62,5.36 -18.24,8.04 -31.89,8.04l-51.26 0zm20.35 -48.9l0 32.81 30.91 0c7.51,0 13.19,-1.41 17.04,-4.23 3.88,-2.82 5.78,-6.88 5.78,-12.17 0,-5.22 -1.9,-9.28 -5.78,-12.14 -3.85,-2.85 -9.53,-4.27 -17.04,-4.27l-30.91 0zm0 -15.66l23.89 0c8.6,0 15.1,-1.27 19.47,-3.77 4.37,-2.54 6.56,-6.35 6.56,-11.47 0,-5.26 -2.19,-9.21 -6.6,-11.89 -4.4,-2.64 -10.93,-3.98 -19.54,-3.98l-23.78 0 0 31.11z"/>
   <polygon id="8" class="fil6" points="10408.31,8585.83 10394.97,8585.83 10394.97,8633.24 10374.61,8633.24 10374.61,8521.48 10394.97,8521.48 10394.97,8568.68 10406.75,8568.68 10443.65,8521.48 10467.54,8521.48 10467.86,8522.01 10424.04,8575 10471.35,8632.71 10471.07,8633.24 10446.05,8633.24 "/>
   <path id="9" class="fil6" d="M10554.57 8633.24c-0.67,-3.39 -1.2,-6.35 -1.58,-8.93 -0.39,-2.61 -0.6,-5.18 -0.67,-7.83 -3.81,5.4 -8.75,9.88 -14.86,13.48 -6.06,3.6 -12.66,5.4 -19.68,5.4 -11.64,0 -20.5,-3 -26.6,-8.96 -6.1,-5.97 -9.14,-14.19 -9.14,-24.66 0,-10.69 4.31,-19.05 12.95,-25.09 8.64,-6.03 20.39,-9.03 35.21,-9.03l22.12 0 0 -11c0,-6.5 -2.01,-11.65 -6,-15.46 -3.99,-3.81 -9.67,-5.71 -16.97,-5.71 -6.53,0 -11.85,1.66 -15.95,4.97 -4.09,3.32 -6.17,7.31 -6.17,11.93l-19.4 0 -0.21 -0.6c-0.43,-8.12 3.42,-15.56 11.5,-22.3 8.11,-6.74 18.55,-10.09 31.39,-10.09 12.67,0 22.86,3.21 30.59,9.67 7.73,6.42 11.57,15.73 11.57,27.83l0 53.84c0,4.02 0.21,7.86 0.6,11.57 0.42,3.74 1.2,7.37 2.29,10.97l-20.99 0zm-33.79 -15.03c7.37,0 14.04,-1.9 19.96,-5.68 5.93,-3.77 9.78,-8.11 11.58,-12.98l0 -18.17 -22.86 0c-8.19,0 -14.75,2.05 -19.69,6.17 -4.9,4.13 -7.37,9 -7.37,14.57 0,4.94 1.55,8.86 4.65,11.75 3.07,2.9 7.66,4.34 13.73,4.34z"/>
   <g>
    <path class="fil4" d="M9053.6 7760.27c69.05,0 125,55.98 125,125 0,69.03 -55.95,125.01 -125,125.01 -69.05,0 -125.01,-55.98 -125.01,-125.01 0,-69.02 55.96,-125 125.01,-125z"/>
    <path id="1" class="fil5" d="M9053.6 7760.27c69.05,0 125,55.98 125,125 0,69.03 -55.95,125.01 -125,125.01 -69.05,0 -125.01,-55.98 -125.01,-125.01 0,-69.02 55.96,-125 125.01,-125zm53.04 71.96c-13.56,-13.56 -32.32,-21.96 -53.04,-21.96 -20.72,0 -39.48,8.4 -53.04,21.96l-0.19 0c-13.45,13.45 -21.78,32.21 -21.78,53.04 0,20.72 8.4,39.48 21.97,53.05 13.56,13.56 32.32,21.96 53.04,21.96 20.72,0 39.48,-8.4 53.04,-21.96l0.09 0.09c13.51,-13.56 21.87,-32.34 21.87,-53.14 0,-20.71 -8.4,-39.48 -21.96,-53.04z"/>
   </g>
   <path class="fil6" d="M8089.64 7707.38l-21.59 0 35.24 -64.31c-9.7,-3.71 -17.11,-9.03 -22.15,-15.91 -5.08,-6.88 -7.62,-15.24 -7.62,-25.02 0,-14.32 4.76,-25.47 14.22,-33.37 9.49,-7.94 22.5,-11.89 39.12,-11.89l48.15 0 0 150.5 -20.35 0 0 -58.84 -33.69 0 -31.33 58.84zm65.02 -134.41l-27.8 0c-10.76,0 -18.94,2.57 -24.55,7.76 -5.61,5.15 -8.44,12.24 -8.44,21.24 0,9.03 2.86,16.37 8.51,22.01 5.64,5.65 13.72,8.47 24.27,8.47l28.01 0 0 -59.48z"/>
   <path id="1" class="fil6" d="M8253.8 7693.41c6.73,0 12.7,-2.08 17.81,-6.24 5.15,-4.17 7.73,-9.32 7.73,-15.35l18.27 0 0.21 0.6c0.36,9.67 -3.95,18.24 -12.87,25.79 -8.93,7.51 -19.3,11.29 -31.15,11.29 -16.27,0 -28.69,-5.3 -37.33,-15.91 -8.61,-10.59 -12.91,-23.92 -12.91,-39.97l0 -4.34c0,-15.91 4.34,-29.18 12.98,-39.83 8.64,-10.62 21.06,-15.95 37.26,-15.95 13.08,0 23.77,3.88 32.1,11.61 8.29,7.72 12.31,17.21 12.03,28.47l-0.21 0.6 -18.38 0c0,-6.81 -2.44,-12.63 -7.24,-17.39 -4.83,-4.8 -10.93,-7.2 -18.3,-7.2 -10.69,0 -18.31,3.81 -22.9,11.46 -4.59,7.66 -6.88,17.08 -6.88,28.19l0 4.31c0,11.39 2.29,20.88 6.84,28.46 4.56,7.59 12.18,11.4 22.94,11.4z"/>
   <polygon id="2" class="fil6" points="8411.21,7707.38 8390.85,7707.38 8390.85,7659.97 8341.04,7659.97 8341.04,7707.38 8320.68,7707.38 8320.68,7595.62 8341.04,7595.62 8341.04,7643.88 8390.85,7643.88 8390.85,7595.62 8411.21,7595.62 "/>
   <path id="3" class="fil6" d="M8436.22 7650.41c0,-16.51 4.48,-30.13 13.44,-40.86 8.96,-10.69 21.13,-16.05 36.48,-16.05 15.52,0 27.76,5.33 36.76,16.02 8.99,10.65 13.47,24.3 13.47,40.89l0 2.29c0,16.65 -4.48,30.3 -13.44,40.89 -8.96,10.61 -21.13,15.91 -36.58,15.91 -15.42,0 -27.66,-5.33 -36.62,-15.95 -9,-10.65 -13.51,-24.27 -13.51,-40.85l0 -2.29zm20.35 2.22c0,11.82 2.51,21.55 7.52,29.24 4.97,7.69 12.42,11.54 22.26,11.54 9.74,0 17.07,-3.85 22.12,-11.54 5.04,-7.69 7.55,-17.42 7.55,-29.24l0 -2.26c0,-11.68 -2.54,-21.38 -7.59,-29.14 -5.08,-7.76 -12.48,-11.64 -22.29,-11.64 -9.7,0 -17.08,3.88 -22.05,11.64 -5.01,7.76 -7.52,17.46 -7.52,29.14l0 2.26z"/>
   <polygon id="4" class="fil6" points="8632.4,7611.71 8581.64,7611.71 8581.64,7707.38 8561.28,7707.38 8561.28,7595.62 8632.4,7595.62 "/>
   <path id="5" class="fil6" d="M8642.21 7650.41c0,-16.51 4.48,-30.13 13.44,-40.86 8.96,-10.69 21.13,-16.05 36.48,-16.05 15.52,0 27.76,5.33 36.76,16.02 8.99,10.65 13.47,24.3 13.47,40.89l0 2.29c0,16.65 -4.48,30.3 -13.44,40.89 -8.96,10.61 -21.13,15.91 -36.58,15.91 -15.42,0 -27.66,-5.33 -36.62,-15.95 -9,-10.65 -13.51,-24.27 -13.51,-40.85l0 -2.29zm20.35 2.22c0,11.82 2.51,21.55 7.52,29.24 4.97,7.69 12.42,11.54 22.26,11.54 9.74,0 17.07,-3.85 22.12,-11.54 5.04,-7.69 7.55,-17.42 7.55,-29.24l0 -2.26c0,-11.68 -2.54,-21.38 -7.59,-29.14 -5.08,-7.76 -12.48,-11.64 -22.29,-11.64 -9.7,0 -17.08,3.88 -22.05,11.64 -5.01,7.76 -7.52,17.46 -7.52,29.14l0 2.26z"/>
   <path id="6" class="fil6" d="M8862.56 7655.7c0,16.08 -3.85,29.1 -11.57,38.98 -7.73,9.88 -18.38,14.82 -31.93,14.82 -6.91,0 -12.95,-1.17 -18.13,-3.46 -5.22,-2.33 -9.63,-5.79 -13.3,-10.41l0 54.72 -20.36 0 0 -154.73 15.59 0 3.21 14.46c3.67,-5.36 8.22,-9.49 13.66,-12.31 5.43,-2.86 11.78,-4.27 19.01,-4.27 13.87,0 24.63,5.5 32.28,16.48 7.69,10.97 11.54,25.5 11.54,43.53l0 2.19zm-20.36 -2.3c0,-12.63 -2.5,-23.03 -7.48,-31.18 -5.01,-8.15 -12.34,-12.21 -22.08,-12.21 -5.86,0 -10.87,1.31 -14.99,3.95 -4.13,2.65 -7.48,6.28 -10.02,10.9l0 53.91c2.54,4.62 5.89,8.18 10.02,10.76 4.12,2.57 9.2,3.88 15.2,3.88 9.63,0 16.93,-3.53 21.91,-10.58 4.97,-7.02 7.44,-16.13 7.44,-27.24l0 -2.19z"/>
   <path id="7" class="fil6" d="M8933.05 7693.41c6.73,0 12.7,-2.08 17.81,-6.24 5.15,-4.17 7.73,-9.32 7.73,-15.35l18.27 0 0.21 0.6c0.36,9.67 -3.95,18.24 -12.87,25.79 -8.93,7.51 -19.3,11.29 -31.15,11.29 -16.27,0 -28.69,-5.3 -37.33,-15.91 -8.61,-10.59 -12.91,-23.92 -12.91,-39.97l0 -4.34c0,-15.91 4.34,-29.18 12.98,-39.83 8.64,-10.62 21.06,-15.95 37.26,-15.95 13.08,0 23.77,3.88 32.1,11.61 8.29,7.72 12.31,17.21 12.03,28.47l-0.21 0.6 -18.38 0c0,-6.81 -2.44,-12.63 -7.24,-17.39 -4.83,-4.8 -10.93,-7.2 -18.3,-7.2 -10.69,0 -18.31,3.81 -22.9,11.46 -4.59,7.66 -6.88,17.08 -6.88,28.19l0 4.31c0,11.39 2.29,20.88 6.84,28.46 4.56,7.59 12.18,11.4 22.94,11.4z"/>
   <polygon id="8" class="fil6" points="9034.65,7659.97 9021.31,7659.97 9021.31,7707.38 9000.95,7707.38 9000.95,7595.62 9021.31,7595.62 9021.31,7642.82 9033.09,7642.82 9069.99,7595.62 9093.88,7595.62 9094.2,7596.15 9050.38,7649.14 9097.69,7706.85 9097.41,7707.38 9072.39,7707.38 "/>
   <polygon id="9" class="fil6" points="9182.47,7595.62 9202.82,7595.62 9202.82,7707.38 9182.47,7707.38 9182.47,7628.07 9181.87,7627.86 9132.44,7707.38 9112.19,7707.38 9112.19,7595.62 9132.44,7595.62 9132.44,7674.92 9133.08,7675.14 "/>
   <path id="10" class="fil6" d="M9302.77 7595.62l20.35 0 0 111.76 -20.35 0 0 -79.31 -0.6 -0.21 -49.43 79.52 -20.25 0 0 -111.76 20.25 0 0 79.3 0.64 0.22 49.39 -79.52zm5.43 -46.15l0.21 0.64c0.28,7.97 -2.36,14.5 -7.94,19.54 -5.61,5.05 -13.12,7.55 -22.54,7.55 -9.53,0 -17.07,-2.5 -22.65,-7.55 -5.57,-5.04 -8.18,-11.57 -7.83,-19.54l0.18 -0.64 15.62 0c0,4.52 1.17,8.22 3.5,11.01 2.36,2.82 6.06,4.23 11.18,4.23 4.94,0 8.64,-1.41 11.04,-4.26 2.44,-2.86 3.64,-6.53 3.64,-10.98l15.59 0z"/>
   <g>
    <path class="fil4" d="M11888.87 8407.42c69.05,0 125,55.98 125,125 0,69.03 -55.95,125.01 -125,125.01 -69.05,0 -125.01,-55.98 -125.01,-125.01 0,-69.02 55.96,-125 125.01,-125z"/>
    <path id="1" class="fil5" d="M11888.87 8407.42c69.05,0 125,55.98 125,125 0,69.03 -55.95,125.01 -125,125.01 -69.05,0 -125.01,-55.98 -125.01,-125.01 0,-69.02 55.96,-125 125.01,-125zm53.04 71.96c-13.56,-13.56 -32.32,-21.96 -53.04,-21.96 -20.72,0 -39.48,8.4 -53.04,21.96l-0.19 0c-13.45,13.45 -21.78,32.21 -21.78,53.04 0,20.72 8.4,39.48 21.97,53.05 13.56,13.56 32.32,21.96 53.04,21.96 20.72,0 39.48,-8.4 53.04,-21.96l0.09 0.09c13.51,-13.56 21.87,-32.34 21.87,-53.14 0,-20.71 -8.4,-39.48 -21.96,-53.04z"/>
   </g>
   <path class="fil6" d="M11347.06 8765.26c0,18.38 -5.72,33.62 -17.11,45.76 -11.4,12.1 -26.22,18.17 -44.38,18.17 -17.57,0 -31.86,-6.07 -42.87,-18.17 -10.97,-12.14 -16.47,-27.38 -16.47,-45.76l0 -26.77c0,-18.31 5.5,-33.55 16.47,-45.76 11.01,-12.17 25.3,-18.27 42.87,-18.27 18.16,0 32.98,6.06 44.38,18.23 11.39,12.14 17.11,27.42 17.11,45.8l0 26.77zm-20.36 -26.74c0,-13.72 -3.74,-24.98 -11.18,-33.76 -7.45,-8.78 -17.43,-13.16 -29.95,-13.16 -11.86,0 -21.31,4.38 -28.37,13.16 -7.09,8.78 -10.62,20.04 -10.62,33.76l0 26.85c0,13.83 3.53,25.15 10.62,33.94 7.06,8.78 16.51,13.15 28.37,13.15 12.59,0 22.61,-4.37 30.02,-13.12 7.41,-8.75 11.11,-20.07 11.11,-33.97l0 -26.85z"/>
   <polygon id="1" class="fil6" points="11408.34,8779.66 11395,8779.66 11395,8827.07 11374.64,8827.07 11374.64,8715.31 11395,8715.31 11395,8762.51 11406.78,8762.51 11443.68,8715.31 11467.57,8715.31 11467.89,8715.84 11424.07,8768.83 11471.38,8826.54 11471.1,8827.07 11446.08,8827.07 "/>
   <polygon id="2" class="fil6" points="11572.07,8731.4 11535.17,8731.4 11535.17,8827.07 11514.81,8827.07 11514.81,8731.4 11478.44,8731.4 11478.44,8715.31 11572.07,8715.31 "/>
   <path id="3" class="fil6" d="M11683.79 8715.31l0 111.76 -20.36 0 0 -43.39 -27.58 0 -26.46 43.39 -21.91 0 28.29 -46.39c-7.09,-2.58 -12.56,-6.6 -16.37,-12.1 -3.81,-5.5 -5.75,-11.85 -5.75,-19.09 0,-10.05 3.81,-18.27 11.43,-24.62 7.62,-6.39 18.1,-9.56 31.47,-9.56l47.24 0zm-69.68 34.5c0,4.9 1.7,9.1 5.08,12.56 3.39,3.49 8.44,5.22 15.21,5.22l29.03 0 0 -36.19 -26.88 0c-7.37,0 -12.95,1.83 -16.72,5.46 -3.81,3.64 -5.72,7.98 -5.72,12.95z"/>
   <path id="4" class="fil6" d="M11763.58 8721.66c14.26,0 25.51,4.73 33.8,14.22 8.26,9.45 12.38,21.59 12.38,36.4l0 2.26c0,16.05 -4.48,29.18 -13.44,39.37 -8.96,10.2 -21.13,15.28 -36.58,15.28 -15.42,0 -27.66,-5.12 -36.62,-15.31 -9,-10.2 -13.51,-23.36 -13.51,-39.41l0 -14.5c0,-22.05 4.66,-39.65 13.9,-52.74 9.28,-13.09 21.69,-21.2 37.25,-24.31 8.72,-1.55 15,-3.42 18.88,-5.61 3.88,-2.15 5.85,-5.75 5.85,-10.69l15.7 0 0.21 0.64c0.21,12.1 -2.64,20.04 -8.57,23.81 -5.93,3.81 -15.35,6.81 -28.22,9 -9.39,1.59 -17.39,5.18 -24.1,10.83 -6.66,5.68 -10.76,13.97 -12.27,24.9l0.38 0.53c4.06,-4.34 9.18,-7.86 15.31,-10.58 6.14,-2.72 12.67,-4.09 19.65,-4.09zm-4.05 16.09c-9.7,0 -17.04,3.28 -22.02,9.87 -4.93,6.56 -7.44,14.78 -7.44,24.66l0 2.26c0,11.18 2.51,20.39 7.44,27.66 4.98,7.27 12.39,10.9 22.23,10.9 9.74,0 17.07,-3.63 22.12,-10.9 5.04,-7.27 7.55,-16.48 7.55,-27.66l0 -2.26c0,-9.88 -2.54,-18.1 -7.59,-24.66 -5.08,-6.59 -12.48,-9.87 -22.29,-9.87z"/>
   <path id="5" class="fil6" d="M11925.02 8775.39c0,16.08 -3.85,29.1 -11.57,38.98 -7.73,9.88 -18.38,14.82 -31.93,14.82 -6.91,0 -12.95,-1.17 -18.13,-3.46 -5.22,-2.33 -9.63,-5.79 -13.3,-10.41l0 54.72 -20.36 0 0 -154.73 15.59 0 3.21 14.46c3.67,-5.36 8.22,-9.49 13.66,-12.31 5.43,-2.86 11.78,-4.27 19.01,-4.27 13.87,0 24.63,5.5 32.28,16.48 7.69,10.97 11.54,25.5 11.54,43.53l0 2.19zm-20.36 -2.3c0,-12.63 -2.5,-23.03 -7.48,-31.18 -5.01,-8.15 -12.34,-12.21 -22.08,-12.21 -5.86,0 -10.87,1.31 -14.99,3.95 -4.13,2.65 -7.48,6.28 -10.02,10.9l0 53.91c2.54,4.62 5.89,8.18 10.02,10.76 4.12,2.57 9.2,3.88 15.2,3.88 9.63,0 16.93,-3.53 21.91,-10.58 4.97,-7.02 7.44,-16.13 7.44,-27.24l0 -2.19z"/>
   <path id="6" class="fil6" d="M11971.41 8757.85l27.83 0c13.23,0 23.5,3.18 30.84,9.49 7.34,6.35 11,14.57 11,24.7 0,10.19 -3.7,18.59 -11.11,25.15 -7.41,6.6 -17.64,9.88 -30.73,9.88l-48.19 0 0 -111.76 20.36 0 0 42.54zm0 16.09l0 37.04 27.83 0c7.31,0 12.67,-1.73 16.16,-5.22 3.49,-3.49 5.22,-7.79 5.22,-12.98 0,-5.05 -1.76,-9.46 -5.25,-13.19 -3.53,-3.78 -8.89,-5.65 -16.13,-5.65l-27.83 0z"/>
   <path id="7" class="fil6" d="M12110.55 8813.1c6.73,0 12.7,-2.08 17.81,-6.24 5.15,-4.17 7.73,-9.32 7.73,-15.35l18.27 0 0.21 0.6c0.36,9.67 -3.95,18.24 -12.87,25.79 -8.93,7.51 -19.3,11.29 -31.15,11.29 -16.27,0 -28.69,-5.3 -37.33,-15.91 -8.61,-10.59 -12.91,-23.92 -12.91,-39.97l0 -4.34c0,-15.91 4.34,-29.18 12.98,-39.83 8.64,-10.62 21.06,-15.95 37.26,-15.95 13.08,0 23.77,3.88 32.1,11.61 8.29,7.72 12.31,17.21 12.03,28.47l-0.21 0.6 -18.38 0c0,-6.81 -2.44,-12.63 -7.24,-17.39 -4.83,-4.8 -10.93,-7.2 -18.3,-7.2 -10.69,0 -18.31,3.81 -22.9,11.46 -4.59,7.66 -6.88,17.08 -6.88,28.19l0 4.31c0,11.39 2.29,20.88 6.84,28.46 4.56,7.59 12.18,11.4 22.94,11.4z"/>
   <polygon id="8" class="fil6" points="12212.15,8779.66 12198.81,8779.66 12198.81,8827.07 12178.45,8827.07 12178.45,8715.31 12198.81,8715.31 12198.81,8762.51 12210.59,8762.51 12247.49,8715.31 12271.38,8715.31 12271.7,8715.84 12227.88,8768.83 12275.19,8826.54 12274.91,8827.07 12249.89,8827.07 "/>
   <path id="9" class="fil6" d="M12279.14 8770.1c0,-16.51 4.48,-30.13 13.44,-40.86 8.96,-10.69 21.13,-16.05 36.48,-16.05 15.52,0 27.76,5.33 36.76,16.02 8.99,10.65 13.47,24.3 13.47,40.89l0 2.29c0,16.65 -4.48,30.3 -13.44,40.89 -8.96,10.61 -21.13,15.91 -36.58,15.91 -15.42,0 -27.66,-5.33 -36.62,-15.95 -9,-10.65 -13.51,-24.27 -13.51,-40.85l0 -2.29zm20.35 2.22c0,11.82 2.51,21.55 7.52,29.24 4.97,7.69 12.42,11.54 22.26,11.54 9.74,0 17.07,-3.85 22.12,-11.54 5.04,-7.69 7.55,-17.42 7.55,-29.24l0 -2.26c0,-11.68 -2.54,-21.38 -7.59,-29.14 -5.08,-7.76 -12.48,-11.64 -22.29,-11.64 -9.7,0 -17.08,3.88 -22.05,11.64 -5.01,7.76 -7.52,17.46 -7.52,29.14l0 2.26z"/>
   <path id="10" class="fil6" d="M12450.59 8829.19c-15.56,0 -27.94,-5.19 -37.15,-15.56 -9.2,-10.34 -13.79,-23.81 -13.79,-40.32l0 -4.56c0,-15.91 4.73,-29.13 14.22,-39.72 9.45,-10.55 20.67,-15.84 33.65,-15.84 15.07,0 26.46,4.55 34.19,13.62 7.72,9.1 11.57,21.2 11.57,36.34l0 12.7 -72.53 0 -0.32 0.53c0.21,10.68 2.93,19.47 8.15,26.38 5.26,6.88 12.59,10.34 22.01,10.34 6.92,0 12.95,-0.99 18.17,-2.96 5.19,-1.94 9.67,-4.66 13.48,-8.12l7.93 13.27c-3.98,3.98 -9.24,7.26 -15.8,9.91 -6.53,2.65 -14.46,3.99 -23.78,3.99zm-3.07 -99.91c-6.84,0 -12.66,2.86 -17.49,8.54 -4.8,5.71 -7.77,12.84 -8.89,21.41l0.21 0.53 51.57 0 0 -2.65c0,-7.93 -2.11,-14.53 -6.38,-19.86 -4.31,-5.33 -10.62,-7.97 -19.02,-7.97z"/>
   <g>
    <path class="fil4" d="M19378.86 9874.54c69.05,0 125,55.98 125,125 0,69.03 -55.95,125.01 -125,125.01 -69.05,0 -125.01,-55.98 -125.01,-125.01 0,-69.02 55.96,-125 125.01,-125z"/>
    <path id="1" class="fil5" d="M19378.86 9874.54c69.05,0 125,55.98 125,125 0,69.03 -55.95,125.01 -125,125.01 -69.05,0 -125.01,-55.98 -125.01,-125.01 0,-69.02 55.96,-125 125.01,-125zm53.04 71.96c-13.56,-13.56 -32.32,-21.96 -53.04,-21.96 -20.72,0 -39.48,8.4 -53.04,21.96l-0.19 0c-13.45,13.45 -21.78,32.21 -21.78,53.04 0,20.72 8.4,39.48 21.97,53.05 13.56,13.56 32.32,21.96 53.04,21.96 20.72,0 39.48,-8.4 53.04,-21.96l0.09 0.09c13.51,-13.56 21.87,-32.34 21.87,-53.14 0,-20.71 -8.4,-39.48 -21.96,-53.04z"/>
   </g>
   <polygon class="fil6" points="18981.46,9681.08 19029.41,9803.36 19030.04,9803.36 19077.98,9681.08 19104.02,9681.08 19104.02,9831.58 19083.66,9831.58 19083.66,9772.03 19085.75,9710.86 19085.22,9710.75 19036.43,9831.58 19022.88,9831.58 18974.34,9711.07 18973.81,9711.14 18975.75,9772.03 18975.75,9831.58 18955.39,9831.58 18955.39,9681.08 "/>
   <path id="1" class="fil6" d="M19206.25 9831.58c-0.67,-3.39 -1.2,-6.35 -1.58,-8.93 -0.39,-2.61 -0.6,-5.18 -0.67,-7.83 -3.81,5.4 -8.75,9.88 -14.86,13.48 -6.06,3.6 -12.66,5.4 -19.68,5.4 -11.64,0 -20.5,-3 -26.6,-8.96 -6.1,-5.97 -9.14,-14.19 -9.14,-24.66 0,-10.69 4.31,-19.05 12.95,-25.09 8.64,-6.03 20.39,-9.03 35.21,-9.03l22.12 0 0 -11c0,-6.5 -2.01,-11.65 -6,-15.46 -3.99,-3.81 -9.67,-5.71 -16.97,-5.71 -6.53,0 -11.85,1.66 -15.95,4.97 -4.09,3.32 -6.17,7.31 -6.17,11.93l-19.4 0 -0.21 -0.6c-0.43,-8.12 3.42,-15.56 11.5,-22.3 8.11,-6.74 18.55,-10.09 31.39,-10.09 12.67,0 22.86,3.21 30.59,9.67 7.73,6.42 11.57,15.73 11.57,27.83l0 53.84c0,4.02 0.21,7.86 0.6,11.57 0.42,3.74 1.2,7.37 2.29,10.97l-20.99 0zm-33.79 -15.03c7.37,0 14.04,-1.9 19.96,-5.68 5.93,-3.77 9.78,-8.11 11.58,-12.98l0 -18.17 -22.86 0c-8.19,0 -14.75,2.05 -19.69,6.17 -4.9,4.13 -7.37,9 -7.37,14.57 0,4.94 1.55,8.86 4.65,11.75 3.07,2.9 7.66,4.34 13.73,4.34z"/>
   <path id="2" class="fil6" d="M19324.19 9719.82l20.35 0 0 111.76 -20.35 0 0 -79.31 -0.6 -0.21 -49.43 79.52 -20.25 0 0 -111.76 20.25 0 0 79.3 0.64 0.22 49.39 -79.52zm5.43 -46.15l0.21 0.64c0.28,7.97 -2.36,14.5 -7.94,19.54 -5.61,5.05 -13.12,7.55 -22.54,7.55 -9.53,0 -17.07,-2.5 -22.65,-7.55 -5.57,-5.04 -8.18,-11.57 -7.83,-19.54l0.18 -0.64 15.62 0c0,4.52 1.17,8.22 3.5,11.01 2.36,2.82 6.06,4.23 11.18,4.23 4.94,0 8.64,-1.41 11.04,-4.26 2.44,-2.86 3.64,-6.53 3.64,-10.98l15.59 0z"/>
   <path id="3" class="fil6" d="M19419.69 9817.61c6.73,0 12.7,-2.08 17.81,-6.24 5.15,-4.17 7.73,-9.32 7.73,-15.35l18.27 0 0.21 0.6c0.36,9.67 -3.95,18.24 -12.87,25.79 -8.93,7.51 -19.3,11.29 -31.15,11.29 -16.27,0 -28.69,-5.3 -37.33,-15.91 -8.61,-10.59 -12.91,-23.92 -12.91,-39.97l0 -4.34c0,-15.91 4.34,-29.18 12.98,-39.83 8.64,-10.62 21.06,-15.95 37.26,-15.95 13.08,0 23.77,3.88 32.1,11.61 8.29,7.72 12.31,17.21 12.03,28.47l-0.21 0.6 -18.38 0c0,-6.81 -2.44,-12.63 -7.24,-17.39 -4.83,-4.8 -10.93,-7.2 -18.3,-7.2 -10.69,0 -18.31,3.81 -22.9,11.46 -4.59,7.66 -6.88,17.08 -6.88,28.19l0 4.31c0,11.39 2.29,20.88 6.84,28.46 4.56,7.59 12.18,11.4 22.94,11.4z"/>
   <polygon id="4" class="fil6" points="19521.29,9784.17 19507.95,9784.17 19507.95,9831.58 19487.59,9831.58 19487.59,9719.82 19507.95,9719.82 19507.95,9767.02 19519.73,9767.02 19556.63,9719.82 19580.52,9719.82 19580.84,9720.35 19537.02,9773.34 19584.33,9831.05 19584.05,9831.58 19559.03,9831.58 "/>
   <polygon id="5" class="fil6" points="19669.11,9719.82 19689.46,9719.82 19689.46,9831.58 19669.11,9831.58 19669.11,9752.27 19668.51,9752.06 19619.08,9831.58 19598.83,9831.58 19598.83,9719.82 19619.08,9719.82 19619.08,9799.12 19619.72,9799.34 "/>
   <path id="6" class="fil6" d="M19789.41 9719.82l20.35 0 0 111.76 -20.35 0 0 -79.31 -0.6 -0.21 -49.43 79.52 -20.25 0 0 -111.76 20.25 0 0 79.3 0.64 0.22 49.39 -79.52zm5.43 -46.15l0.21 0.64c0.28,7.97 -2.36,14.5 -7.94,19.54 -5.61,5.05 -13.12,7.55 -22.54,7.55 -9.53,0 -17.07,-2.5 -22.65,-7.55 -5.57,-5.04 -8.18,-11.57 -7.83,-19.54l0.18 -0.64 15.62 0c0,4.52 1.17,8.22 3.5,11.01 2.36,2.82 6.06,4.23 11.18,4.23 4.94,0 8.64,-1.41 11.04,-4.26 2.44,-2.86 3.64,-6.53 3.64,-10.98l15.59 0z"/>
   <g>
    <path class="fil4" d="M5305.96 7983.9c69.05,0 125,55.98 125,125 0,69.03 -55.95,125.01 -125,125.01 -69.05,0 -125.01,-55.98 -125.01,-125.01 0,-69.02 55.96,-125 125.01,-125z"/>
    <path id="1" class="fil5" d="M5305.96 7983.9c69.05,0 125,55.98 125,125 0,69.03 -55.95,125.01 -125,125.01 -69.05,0 -125.01,-55.98 -125.01,-125.01 0,-69.02 55.96,-125 125.01,-125zm53.04 71.96c-13.56,-13.56 -32.32,-21.96 -53.04,-21.96 -20.72,0 -39.48,8.4 -53.04,21.96l-0.19 0c-13.45,13.45 -21.78,32.21 -21.78,53.04 0,20.72 8.4,39.48 21.97,53.05 13.56,13.56 32.32,21.96 53.04,21.96 20.72,0 39.48,-8.4 53.04,-21.96l0.09 0.09c13.51,-13.56 21.87,-32.34 21.87,-53.14 0,-20.71 -8.4,-39.48 -21.96,-53.04z"/>
   </g>
   <polygon class="fil6" points="4465.63,7866.59 4448.03,7866.59 4448.03,7934.32 4427.67,7934.32 4427.67,7783.82 4448.03,7783.82 4448.03,7850.5 4463.76,7850.5 4517.6,7783.82 4540.14,7783.82 4540.46,7784.35 4482.04,7856.74 4544.69,7933.79 4544.37,7934.32 4520.1,7934.32 "/>
   <path id="1" class="fil6" d="M4590.06 7892.87l3.6 14.04 0.64 0 27.48 -84.35 22.65 0 -47.03 128.87c-2.82,7.48 -6.88,14.04 -12.17,19.61 -5.26,5.58 -12.38,8.37 -21.34,8.37 -1.63,0 -3.74,-0.18 -6.28,-0.57 -2.54,-0.39 -4.52,-0.74 -5.9,-1.09l2.05 -16.02c-0.39,-0.07 0.81,0 3.67,0.21 2.86,0.21 4.69,0.32 5.43,0.32 4.34,0 7.9,-1.94 10.66,-5.79 2.75,-3.84 5.08,-8.11 6.91,-12.8l4.87 -11.64 -41.56 -109.47 22.76 0 23.56 70.31z"/>
   <path id="2" class="fil6" d="M4757.6 7882.64c0,16.08 -3.85,29.1 -11.57,38.98 -7.73,9.88 -18.38,14.82 -31.93,14.82 -6.91,0 -12.95,-1.17 -18.13,-3.46 -5.22,-2.33 -9.63,-5.79 -13.3,-10.41l0 54.72 -20.36 0 0 -154.73 15.59 0 3.21 14.46c3.67,-5.36 8.22,-9.49 13.66,-12.31 5.43,-2.86 11.78,-4.27 19.01,-4.27 13.87,0 24.63,5.5 32.28,16.48 7.69,10.97 11.54,25.5 11.54,43.53l0 2.19zm-20.36 -2.3c0,-12.63 -2.5,-23.03 -7.48,-31.18 -5.01,-8.15 -12.34,-12.21 -22.08,-12.21 -5.86,0 -10.87,1.31 -14.99,3.95 -4.13,2.65 -7.48,6.28 -10.02,10.9l0 53.91c2.54,4.62 5.89,8.18 10.02,10.76 4.12,2.57 9.2,3.88 15.2,3.88 9.63,0 16.93,-3.53 21.91,-10.58 4.97,-7.02 7.44,-16.13 7.44,-27.24l0 -2.19z"/>
   <polygon id="3" class="fil6" points="4846.29,7907.65 4846.89,7907.65 4883.47,7822.56 4908.91,7822.56 4908.91,7934.32 4888.55,7934.32 4888.55,7856.78 4887.92,7856.57 4853.63,7934.32 4839.55,7934.32 4804.63,7854.8 4803.99,7855.01 4803.99,7934.32 4783.63,7934.32 4783.63,7822.56 4809.88,7822.56 "/>
   <path id="4" class="fil6" d="M5009.27 7934.32c-0.67,-3.39 -1.2,-6.35 -1.58,-8.93 -0.39,-2.61 -0.6,-5.18 -0.67,-7.83 -3.81,5.4 -8.75,9.88 -14.86,13.48 -6.06,3.6 -12.66,5.4 -19.68,5.4 -11.64,0 -20.5,-3 -26.6,-8.96 -6.1,-5.97 -9.14,-14.19 -9.14,-24.66 0,-10.69 4.31,-19.05 12.95,-25.09 8.64,-6.03 20.39,-9.03 35.21,-9.03l22.12 0 0 -11c0,-6.5 -2.01,-11.65 -6,-15.46 -3.99,-3.81 -9.67,-5.71 -16.97,-5.71 -6.53,0 -11.85,1.66 -15.95,4.97 -4.09,3.32 -6.17,7.31 -6.17,11.93l-19.4 0 -0.21 -0.6c-0.43,-8.12 3.42,-15.56 11.5,-22.3 8.11,-6.74 18.55,-10.09 31.39,-10.09 12.67,0 22.86,3.21 30.59,9.67 7.73,6.42 11.57,15.73 11.57,27.83l0 53.84c0,4.02 0.21,7.86 0.6,11.57 0.42,3.74 1.2,7.37 2.29,10.97l-20.99 0zm-33.79 -15.03c7.37,0 14.04,-1.9 19.96,-5.68 5.93,-3.77 9.78,-8.11 11.58,-12.98l0 -18.17 -22.86 0c-8.19,0 -14.75,2.05 -19.69,6.17 -4.9,4.13 -7.37,9 -7.37,14.57 0,4.94 1.55,8.86 4.65,11.75 3.07,2.9 7.66,4.34 13.73,4.34z"/>
   <polygon id="5" class="fil6" points="5147.46,7934.32 5127.1,7934.32 5127.1,7886.91 5077.29,7886.91 5077.29,7934.32 5056.93,7934.32 5056.93,7822.56 5077.29,7822.56 5077.29,7870.82 5127.1,7870.82 5127.1,7822.56 5147.46,7822.56 "/>
   <path id="6" class="fil6" d="M5245.95 7934.32c-0.67,-3.39 -1.2,-6.35 -1.58,-8.93 -0.39,-2.61 -0.6,-5.18 -0.67,-7.83 -3.81,5.4 -8.75,9.88 -14.86,13.48 -6.06,3.6 -12.66,5.4 -19.68,5.4 -11.64,0 -20.5,-3 -26.6,-8.96 -6.1,-5.97 -9.14,-14.19 -9.14,-24.66 0,-10.69 4.31,-19.05 12.95,-25.09 8.64,-6.03 20.39,-9.03 35.21,-9.03l22.12 0 0 -11c0,-6.5 -2.01,-11.65 -6,-15.46 -3.99,-3.81 -9.67,-5.71 -16.97,-5.71 -6.53,0 -11.85,1.66 -15.95,4.97 -4.09,3.32 -6.17,7.31 -6.17,11.93l-19.4 0 -0.21 -0.6c-0.43,-8.12 3.42,-15.56 11.5,-22.3 8.11,-6.74 18.55,-10.09 31.39,-10.09 12.67,0 22.86,3.21 30.59,9.67 7.73,6.42 11.57,15.73 11.57,27.83l0 53.84c0,4.02 0.21,7.86 0.6,11.57 0.42,3.74 1.2,7.37 2.29,10.97l-20.99 0zm-33.79 -15.03c7.37,0 14.04,-1.9 19.96,-5.68 5.93,-3.77 9.78,-8.11 11.58,-12.98l0 -18.17 -22.86 0c-8.19,0 -14.75,2.05 -19.69,6.17 -4.9,4.13 -7.37,9 -7.37,14.57 0,4.94 1.55,8.86 4.65,11.75 3.07,2.9 7.66,4.34 13.73,4.34z"/>
   <path id="7" class="fil6" d="M5340 7936.44c-15.56,0 -27.94,-5.19 -37.15,-15.56 -9.2,-10.34 -13.79,-23.81 -13.79,-40.32l0 -4.56c0,-15.91 4.73,-29.13 14.22,-39.72 9.45,-10.55 20.67,-15.84 33.65,-15.84 15.07,0 26.46,4.55 34.19,13.62 7.72,9.1 11.57,21.2 11.57,36.34l0 12.7 -72.53 0 -0.32 0.53c0.21,10.68 2.93,19.47 8.15,26.38 5.26,6.88 12.59,10.34 22.01,10.34 6.92,0 12.95,-0.99 18.17,-2.96 5.19,-1.94 9.67,-4.66 13.48,-8.12l7.93 13.27c-3.98,3.98 -9.24,7.26 -15.8,9.91 -6.53,2.65 -14.46,3.99 -23.78,3.99zm-3.07 -99.91c-6.84,0 -12.66,2.86 -17.49,8.54 -4.8,5.71 -7.77,12.84 -8.89,21.41l0.21 0.53 51.57 0 0 -2.65c0,-7.93 -2.11,-14.53 -6.38,-19.86 -4.31,-5.33 -10.62,-7.97 -19.02,-7.97z"/>
   <path id="8" class="fil6" d="M5405.66 7934.32l0 -111.76 44.13 0c14.75,0 26.18,2.57 34.29,7.69 8.15,5.15 12.21,12.84 12.21,23.11 0,5.22 -1.59,9.91 -4.77,14 -3.13,4.09 -7.62,7.2 -13.4,9.35 6.95,1.73 12.38,4.94 16.26,9.67 3.88,4.69 5.86,10.09 5.86,16.15 0,10.45 -3.81,18.38 -11.43,23.75 -7.62,5.36 -18.24,8.04 -31.89,8.04l-51.26 0zm20.35 -48.9l0 32.81 30.91 0c7.51,0 13.19,-1.41 17.04,-4.23 3.88,-2.82 5.78,-6.88 5.78,-12.17 0,-5.22 -1.9,-9.28 -5.78,-12.14 -3.85,-2.85 -9.53,-4.27 -17.04,-4.27l-30.91 0zm0 -15.66l23.89 0c8.6,0 15.1,-1.27 19.47,-3.77 4.37,-2.54 6.56,-6.35 6.56,-11.47 0,-5.26 -2.19,-9.21 -6.6,-11.89 -4.4,-2.64 -10.93,-3.98 -19.54,-3.98l-23.78 0 0 31.11z"/>
   <polygon id="9" class="fil6" points="5560.57,7886.91 5547.23,7886.91 5547.23,7934.32 5526.87,7934.32 5526.87,7822.56 5547.23,7822.56 5547.23,7869.76 5559.01,7869.76 5595.91,7822.56 5619.8,7822.56 5620.12,7823.09 5576.3,7876.08 5623.61,7933.79 5623.33,7934.32 5598.31,7934.32 "/>
   <path id="10" class="fil6" d="M5706.83 7934.32c-0.67,-3.39 -1.2,-6.35 -1.58,-8.93 -0.39,-2.61 -0.6,-5.18 -0.67,-7.83 -3.81,5.4 -8.75,9.88 -14.86,13.48 -6.06,3.6 -12.66,5.4 -19.68,5.4 -11.64,0 -20.5,-3 -26.6,-8.96 -6.1,-5.97 -9.14,-14.19 -9.14,-24.66 0,-10.69 4.31,-19.05 12.95,-25.09 8.64,-6.03 20.39,-9.03 35.21,-9.03l22.12 0 0 -11c0,-6.5 -2.01,-11.65 -6,-15.46 -3.99,-3.81 -9.67,-5.71 -16.97,-5.71 -6.53,0 -11.85,1.66 -15.95,4.97 -4.09,3.32 -6.17,7.31 -6.17,11.93l-19.4 0 -0.21 -0.6c-0.43,-8.12 3.42,-15.56 11.5,-22.3 8.11,-6.74 18.55,-10.09 31.39,-10.09 12.67,0 22.86,3.21 30.59,9.67 7.73,6.42 11.57,15.73 11.57,27.83l0 53.84c0,4.02 0.21,7.86 0.6,11.57 0.42,3.74 1.2,7.37 2.29,10.97l-20.99 0zm-33.79 -15.03c7.37,0 14.04,-1.9 19.96,-5.68 5.93,-3.77 9.78,-8.11 11.58,-12.98l0 -18.17 -22.86 0c-8.19,0 -14.75,2.05 -19.69,6.17 -4.9,4.13 -7.37,9 -7.37,14.57 0,4.94 1.55,8.86 4.65,11.75 3.07,2.9 7.66,4.34 13.73,4.34z"/>
   <g id="Орск">
    <path class="fil1" d="M17601.51 11926.29c49.48,-24.31 104.24,-26.22 152.55,-9.73 48.41,16.5 90.66,51.56 115.03,101.19 24.31,49.48 26.22,104.25 9.73,152.54 -16.52,48.45 -51.6,90.7 -101.19,115.03l-0.88 0.42c-49.25,23.89 -103.64,25.73 -151.67,9.33 -48.43,-16.52 -90.68,-51.6 -115.03,-101.17l-0.42 -0.88c-23.89,-49.25 -25.71,-103.66 -9.33,-151.68 16.52,-48.43 51.62,-90.69 101.21,-115.05zm22.59 46.18c73.41,-36.04 162.72,-5.59 198.8,67.87 36.05,73.42 5.56,162.75 -67.86,198.8 -73.44,36.08 -162.74,5.57 -198.8,-67.85 -36.07,-73.44 -5.58,-162.74 67.86,-198.82z"/>
    <path class="fil4" d="M17624.1 11972.48c73.41,-36.06 162.73,-5.59 198.8,67.85 36.05,73.42 5.56,162.76 -67.85,198.81 -73.44,36.07 -162.75,5.57 -198.8,-67.85 -36.07,-73.44 -5.59,-162.74 67.85,-198.81z"/>
    <path class="fil6" d="M17979.88 12379.25c0,24.51 -7.62,44.83 -22.81,61.01 -15.2,16.13 -34.95,24.22 -59.18,24.22 -23.42,0 -42.47,-8.09 -57.14,-24.22 -14.63,-16.18 -21.97,-36.5 -21.97,-61.01l0 -35.7c0,-24.41 7.34,-44.73 21.97,-61.01 14.67,-16.22 33.72,-24.36 57.14,-24.36 24.23,0 43.98,8.09 59.18,24.32 15.19,16.18 22.81,36.54 22.81,61.05l0 35.7zm-27.14 -35.65c0,-18.3 -4.99,-33.3 -14.91,-45.02 -9.93,-11.71 -23.24,-17.54 -39.94,-17.54 -15.8,0 -28.41,5.83 -37.81,17.54 -9.46,11.72 -14.16,26.72 -14.16,45.02l0 35.79c0,18.44 4.7,33.54 14.16,45.25 9.4,11.71 22.01,17.55 37.81,17.55 16.8,0 30.16,-5.84 40.03,-17.5 9.88,-11.67 14.82,-26.76 14.82,-45.3l0 -35.79z"/>
    <path id="1" class="fil6" d="M18142.34 12392.75c0,21.45 -5.12,38.81 -15.42,51.98 -10.3,13.17 -24.51,19.75 -42.57,19.75 -9.22,0 -17.26,-1.55 -24.18,-4.61 -6.96,-3.1 -12.84,-7.71 -17.73,-13.87l0 72.95 -27.14 0 0 -206.3 20.79 0 4.28 19.28c4.89,-7.15 10.96,-12.65 18.2,-16.41 7.25,-3.81 15.71,-5.69 25.35,-5.69 18.49,0 32.84,7.33 43.04,21.96 10.26,14.63 15.38,34.01 15.38,58.05l0 2.91zm-27.14 -3.06c0,-16.84 -3.34,-30.71 -9.97,-41.58 -6.68,-10.86 -16.46,-16.27 -29.44,-16.27 -7.81,0 -14.49,1.74 -19.99,5.27 -5.51,3.52 -9.97,8.37 -13.36,14.53l0 71.87c3.39,6.17 7.85,10.92 13.36,14.35 5.5,3.43 12.27,5.17 20.27,5.17 12.84,0 22.58,-4.7 29.21,-14.11 6.63,-9.36 9.92,-21.49 9.92,-36.31l0 -2.92z"/>
    <path id="2" class="fil6" d="M18236.33 12443.03c8.98,0 16.93,-2.77 23.75,-8.32 6.87,-5.55 10.3,-12.42 10.3,-20.46l24.37 0 0.28 0.8c0.47,12.88 -5.27,24.31 -17.17,34.38 -11.9,10.02 -25.73,15.05 -41.53,15.05 -21.69,0 -38.24,-7.05 -49.77,-21.21 -11.47,-14.11 -17.21,-31.89 -17.21,-53.29l0 -5.79c0,-21.21 5.78,-38.9 17.31,-53.1 11.52,-14.16 28.08,-21.26 49.67,-21.26 17.45,0 31.7,5.17 42.8,15.47 11.06,10.3 16.42,22.95 16.04,37.96l-0.28 0.8 -24.51 0c0,-9.08 -3.24,-16.84 -9.64,-23.19 -6.44,-6.4 -14.58,-9.6 -24.41,-9.6 -14.25,0 -24.41,5.08 -30.53,15.29 -6.11,10.21 -9.17,22.77 -9.17,37.58l0 5.74c0,15.19 3.06,27.85 9.12,37.96 6.07,10.11 16.23,15.19 30.58,15.19z"/>
    <polygon id="3" class="fil6" points="18371.79,12398.44 18354.01,12398.44 18354.01,12461.66 18326.87,12461.66 18326.87,12312.65 18354.01,12312.65 18354.01,12375.58 18369.72,12375.58 18418.92,12312.65 18450.77,12312.65 18451.19,12313.35 18392.77,12384 18455.85,12460.95 18455.47,12461.66 18422.12,12461.66 "/>
   </g>
   <g id="Бузулук">
    <path class="fil1" d="M5744.9 7033.91c3.15,-2 6.47,-3.63 9.89,-4.88 48.16,-22.08 100.93,-23.38 147.67,-7.44 46.78,15.95 87.77,49.21 112.47,96.16 1.98,3.14 3.6,6.44 4.84,9.84 22.14,48.2 23.42,100.97 7.47,147.75 -16.52,48.43 -51.6,90.68 -101.19,115.03 -49.48,24.31 -104.22,26.22 -152.53,9.75 -48.46,-16.54 -90.7,-51.6 -115.05,-101.19 -24.31,-49.48 -26.22,-104.24 -9.75,-152.55 15.96,-46.78 49.26,-87.79 96.18,-112.47zm27.62 43.62c73.41,-36.06 162.72,-5.59 198.79,67.85 36.06,73.42 5.58,162.74 -67.85,198.81 -73.44,36.06 -162.74,5.56 -198.8,-67.85 -36.07,-73.44 -5.58,-162.74 67.86,-198.81z"/>
    <path class="fil4" d="M5772.52 7077.53c73.41,-36.06 162.73,-5.59 198.8,67.85 36.05,73.42 5.56,162.75 -67.85,198.81 -73.45,36.06 -162.75,5.56 -198.81,-67.86 -36.06,-73.44 -5.59,-162.73 67.86,-198.8z"/>
    <path class="fil6" d="M6180.42 6857.97l-95.91 0 0 57.86 49.44 0c21.45,0 38.1,5.5 49.95,16.46 11.9,11 17.88,25.54 17.88,43.65 0,18.2 -5.98,32.97 -17.92,44.26 -11.95,11.34 -28.56,16.98 -49.91,16.98l-76.58 0 0 -200.66 123.05 0 0 21.45zm-95.91 79.3l0 78.46 49.44 0c13.55,0 23.66,-3.86 30.48,-11.62 6.77,-7.71 10.21,-17.21 10.21,-28.5 0,-10.91 -3.39,-20.04 -10.16,-27.33 -6.73,-7.34 -16.89,-11.01 -30.53,-11.01l-49.44 0z"/>
    <path id="1" class="fil6" d="M6278.25 6981.91l4.8 18.72 0.85 0 36.64 -112.46 30.2 0 -62.7 171.82c-3.77,9.97 -9.17,18.72 -16.23,26.16 -7.01,7.43 -16.51,11.14 -28.46,11.14 -2.16,0 -4.98,-0.23 -8.37,-0.75 -3.39,-0.52 -6.02,-0.99 -7.85,-1.46l2.72 -21.35c-0.51,-0.1 1.09,0 4.9,0.28 3.8,0.28 6.25,0.42 7.24,0.42 5.78,0 10.53,-2.58 14.2,-7.71 3.67,-5.13 6.78,-10.82 9.22,-17.08l6.49 -15.52 -55.41 -145.95 30.34 0 31.42 93.74z"/>
    <path id="2" class="fil6" d="M6428.07 6949.97c9.55,0 16.37,-1.78 20.51,-5.36 4.14,-3.57 6.21,-8.75 6.21,-15.52 0,-6.16 -2.36,-11.38 -7.11,-15.62 -4.7,-4.28 -11.85,-6.39 -21.4,-6.39 -8.56,0 -15.71,2.21 -21.49,6.58 -5.79,4.42 -8.71,9.79 -8.71,16.04l-25.77 0 -0.28 -0.8c-0.52,-12.79 4.65,-23.19 15.66,-31.23 10.96,-8.04 24.51,-12.04 40.59,-12.04 17.45,0 31.09,3.71 40.92,11.19 9.83,7.48 14.73,18.16 14.73,31.99 0,6.68 -2.03,12.79 -6.07,18.34 -4.05,5.55 -9.69,9.93 -16.93,13.13 8.37,3.05 14.72,7.52 19.14,13.4 4.42,5.88 6.63,12.98 6.63,21.36 0,13.97 -5.36,24.92 -16.09,32.83 -10.67,7.9 -24.78,11.85 -42.33,11.85 -16.18,0 -30.1,-3.95 -41.77,-11.81 -11.66,-7.85 -17.26,-19.19 -16.84,-34.1l0.29 -0.8 25.77 0c0,6.96 3.06,12.98 9.13,18.11 6.02,5.13 13.87,7.72 23.42,7.72 9.83,0 17.45,-2.26 22.91,-6.82 5.5,-4.57 8.23,-10.21 8.23,-17.03 0,-8 -2.4,-13.83 -7.1,-17.5 -4.75,-3.67 -12.14,-5.5 -22.25,-5.5l-25.92 0 0 -22.02 25.92 0z"/>
    <path id="3" class="fil6" d="M6563.53 6981.91l4.8 18.72 0.85 0 36.64 -112.46 30.2 0 -62.7 171.82c-3.77,9.97 -9.17,18.72 -16.23,26.16 -7.01,7.43 -16.51,11.14 -28.46,11.14 -2.16,0 -4.98,-0.23 -8.37,-0.75 -3.39,-0.52 -6.02,-0.99 -7.85,-1.46l2.72 -21.35c-0.51,-0.1 1.09,0 4.9,0.28 3.8,0.28 6.25,0.42 7.24,0.42 5.78,0 10.53,-2.58 14.2,-7.71 3.67,-5.13 6.78,-10.82 9.22,-17.08l6.49 -15.52 -55.41 -145.95 30.34 0 31.42 93.74z"/>
    <path id="4" class="fil6" d="M6775.02 6888.17l0 149.01 -27.14 0 0 -127.56 -50.43 0 0 42.14c0,29.4 -3.9,50.99 -11.71,64.77 -7.81,13.78 -21.12,20.65 -39.98,20.65l-7.72 0 0.57 -22.86 5.64 -0.14c9.65,0 16.37,-4.7 20.18,-14.16 3.81,-9.41 5.74,-25.45 5.74,-48.07l0 -63.78 104.85 0z"/>
    <path id="5" class="fil6" d="M6855.91 6981.91l4.8 18.72 0.85 0 36.64 -112.46 30.2 0 -62.7 171.82c-3.77,9.97 -9.17,18.72 -16.23,26.16 -7.01,7.43 -16.51,11.14 -28.46,11.14 -2.16,0 -4.98,-0.23 -8.37,-0.75 -3.39,-0.52 -6.02,-0.99 -7.85,-1.46l2.72 -21.35c-0.51,-0.1 1.09,0 4.9,0.28 3.8,0.28 6.25,0.42 7.24,0.42 5.78,0 10.53,-2.58 14.2,-7.71 3.67,-5.13 6.78,-10.82 9.22,-17.08l6.49 -15.52 -55.41 -145.95 30.34 0 31.42 93.74z"/>
    <polygon id="6" class="fil6" points="6998.53,6973.96 6980.75,6973.96 6980.75,7037.18 6953.61,7037.18 6953.61,6888.17 6980.75,6888.17 6980.75,6951.1 6996.46,6951.1 7045.66,6888.17 7077.51,6888.17 7077.93,6888.87 7019.51,6959.52 7082.59,7036.47 7082.21,7037.18 7048.86,7037.18 "/>
   </g>
   <g id="Соль-илецк">
    <path class="fil1" d="M10596.23 12183.37c73.42,-36.05 162.75,-5.58 198.81,67.86 36.07,73.43 5.58,162.76 -67.85,198.82 -73.45,36.07 -162.75,5.56 -198.81,-67.86 -36.07,-73.43 -5.59,-162.74 67.85,-198.82zm-21.27 -46.8c49.12,-23.71 103.33,-25.47 151.22,-9.12 46.81,15.96 87.84,49.28 112.53,96.26 1.96,3.11 3.56,6.38 4.79,9.75 22.13,48.21 23.42,100.99 7.48,147.72 -15.98,46.81 -49.25,87.82 -96.19,112.49 -3.13,1.98 -6.43,3.6 -9.82,4.83 -48.24,22.13 -101.02,23.42 -147.75,7.48 -48.43,-16.54 -90.67,-51.62 -115.01,-101.2l-0.41 -0.87c-23.91,-49.27 -25.75,-103.65 -9.36,-151.67 16.52,-48.44 51.6,-90.67 101.19,-115.04l1.33 -0.63z"/>
    <path class="fil7" d="M10596.23 12183.38c73.42,-36.05 162.75,-5.59 198.81,67.86 36.06,73.42 5.57,162.75 -67.85,198.81 -73.45,36.07 -162.76,5.57 -198.81,-67.85 -36.07,-73.45 -5.59,-162.75 67.85,-198.82z"/>
    <path class="fil6" d="M10917.65 12067.34l0.29 0.84c0.37,18.82 -6.26,34.62 -19.85,47.37 -13.6,12.75 -31.56,19.14 -53.91,19.14 -22.67,0 -41.15,-8.04 -55.45,-24.08 -14.26,-16.09 -21.41,-36.45 -21.41,-61.15l0 -35.7c0,-24.69 7.15,-45.11 21.41,-61.19 14.3,-16.14 32.78,-24.18 55.45,-24.18 22.72,0 40.78,6.07 54.19,18.16 13.4,12.13 19.94,28.12 19.57,48.07l-0.29 0.84 -26.05 0c0,-14.06 -4.14,-25.16 -12.38,-33.35 -8.27,-8.18 -19.94,-12.27 -35.04,-12.27 -15.14,0 -27.23,6.11 -36.22,18.3 -8.98,12.18 -13.5,27.28 -13.5,45.34l0 35.84c0,18.25 4.52,33.44 13.5,45.63 8.99,12.18 21.08,18.29 36.22,18.29 15.1,0 26.77,-4.04 35.04,-12.18 8.24,-8.14 12.38,-19.38 12.38,-33.72l26.05 0z"/>
    <path id="1" class="fil6" d="M10943.15 12055.91c0,-22.02 5.97,-40.17 17.92,-54.47 11.95,-14.25 28.17,-21.4 48.64,-21.4 20.69,0 37.01,7.1 49.01,21.35 11.99,14.21 17.97,32.41 17.97,54.52l0 3.05c0,22.2 -5.98,40.41 -17.93,54.52 -11.94,14.16 -28.17,21.21 -48.77,21.21 -20.56,0 -36.88,-7.1 -48.83,-21.26 -11.99,-14.2 -18.01,-32.36 -18.01,-54.47l0 -3.05zm27.14 2.96c0,15.76 3.34,28.74 10.02,38.99 6.63,10.26 16.55,15.38 29.68,15.38 12.98,0 22.76,-5.12 29.49,-15.38 6.73,-10.25 10.07,-23.23 10.07,-38.99l0 -3.01c0,-15.57 -3.39,-28.51 -10.12,-38.85 -6.77,-10.35 -16.65,-15.53 -29.72,-15.53 -12.94,0 -22.77,5.18 -29.4,15.53 -6.68,10.34 -10.02,23.28 -10.02,38.85l0 3.01z"/>
    <path id="2" class="fil6" d="M11228.52 11982.86l0 149.01 -27.14 0 0 -127.56 -50.43 0 0 42.14c0,29.4 -3.9,50.99 -11.71,64.77 -7.81,13.78 -21.12,20.65 -39.98,20.65l-7.72 0 0.57 -22.86 5.64 -0.14c9.65,0 16.37,-4.7 20.18,-14.16 3.81,-9.41 5.74,-25.45 5.74,-48.07l0 -63.78 104.85 0z"/>
    <path id="3" class="fil6" d="M11292.29 12039.58l37.11 0c17.64,0 31.33,4.24 41.11,12.66 9.79,8.46 14.68,19.42 14.68,32.92 0,13.6 -4.94,24.79 -14.82,33.54 -9.87,8.8 -23.51,13.17 -40.97,13.17l-64.25 0 0 -149.01 27.14 0 0 56.72zm0 21.45l0 49.39 37.11 0c9.74,0 16.89,-2.3 21.55,-6.96 4.65,-4.66 6.96,-10.4 6.96,-17.31 0,-6.73 -2.35,-12.61 -7.01,-17.59 -4.7,-5.03 -11.85,-7.53 -21.5,-7.53l-37.11 0z"/>
    <polygon id="4" class="fil6" points="11469.81,12057.65 11402.31,12057.65 11402.31,12036.48 11469.81,12036.48 "/>
    <polygon id="5" class="fil6" points="11588.21,11982.86 11615.35,11982.86 11615.35,12131.87 11588.21,12131.87 11588.21,12026.13 11587.41,12025.85 11521.51,12131.87 11494.51,12131.87 11494.51,11982.86 11521.51,11982.86 11521.51,12088.6 11522.35,12088.88 "/>
    <path id="6" class="fil6" d="M11775.75 11982.86l0 149.01 -27.14 0 0 -127.56 -50.43 0 0 42.14c0,29.4 -3.9,50.99 -11.71,64.77 -7.81,13.78 -21.12,20.65 -39.98,20.65l-7.72 0 0.57 -22.86 5.64 -0.14c9.65,0 16.37,-4.7 20.18,-14.16 3.81,-9.41 5.74,-25.45 5.74,-48.07l0 -63.78 104.85 0z"/>
    <path id="7" class="fil6" d="M11872.87 12134.69c-20.74,0 -37.25,-6.91 -49.53,-20.74 -12.27,-13.78 -18.39,-31.75 -18.39,-53.76l0 -6.07c0,-21.22 6.3,-38.85 18.96,-52.96 12.6,-14.07 27.56,-21.12 44.87,-21.12 20.08,0 35.28,6.06 45.58,18.15 10.3,12.14 15.43,28.27 15.43,48.45l0 16.93 -96.71 0 -0.42 0.71c0.28,14.25 3.9,25.96 10.86,35.18 7.01,9.17 16.79,13.78 29.35,13.78 9.22,0 17.26,-1.31 24.23,-3.95 6.91,-2.58 12.88,-6.21 17.96,-10.82l10.59 17.69c-5.32,5.31 -12.33,9.69 -21.08,13.22 -8.7,3.52 -19.28,5.31 -31.7,5.31zm-4.09 -133.21c-9.13,0 -16.89,3.81 -23.33,11.39 -6.4,7.62 -10.35,17.12 -11.85,28.55l0.28 0.7 68.77 0 0 -3.52c0,-10.59 -2.83,-19.38 -8.52,-26.49 -5.74,-7.1 -14.16,-10.63 -25.35,-10.63z"/>
    <polygon id="8" class="fil6" points="11960.27,11982.86 11987.41,11982.86 11987.41,12110.42 12053.97,12110.42 12053.97,11982.86 12081.11,11982.86 12081.11,12110.42 12099.31,12110.42 12099.31,12180.69 12072.17,12180.69 12072.17,12131.87 11960.27,12131.87 "/>
    <polygon id="9" class="fil6" points="12174.38,12068.65 12156.6,12068.65 12156.6,12131.87 12129.46,12131.87 12129.46,11982.86 12156.6,11982.86 12156.6,12045.79 12172.31,12045.79 12221.51,11982.86 12253.36,11982.86 12253.78,11983.56 12195.36,12054.21 12258.44,12131.16 12258.06,12131.87 12224.71,12131.87 "/>
   </g>
   <g id="Бугуруслан">
    <path class="fil1" d="M6233.94 4533c73.43,-36.06 162.74,-5.6 198.8,67.84 36.07,73.42 5.58,162.75 -67.84,198.81 -73.44,36.07 -162.76,5.58 -198.82,-67.84 -36.06,-73.46 -5.59,-162.75 67.86,-198.81zm-21.71 -46.61c49.25,-23.89 103.64,-25.73 151.67,-9.33 48.43,16.51 90.68,51.59 115.03,101.17l0.42 0.88c23.89,49.25 25.71,103.66 9.33,151.68 -16.52,48.45 -51.6,90.7 -101.19,115.05 -49.48,24.31 -104.24,26.22 -152.55,9.75 -48.46,-16.54 -90.7,-51.6 -115.04,-101.19 -24.3,-49.51 -26.24,-104.27 -9.76,-152.56 16.53,-48.43 51.63,-90.68 101.21,-115.03l0.88 -0.42z"/>
    <path class="fil4" d="M6233.94 4533c73.42,-36.06 162.74,-5.59 198.81,67.85 36.06,73.42 5.57,162.75 -67.86,198.81 -73.44,36.06 -162.75,5.56 -198.81,-67.86 -36.06,-73.44 -5.59,-162.74 67.86,-198.8z"/>
    <path class="fil6" d="M5723.47 4953.61l-95.91 0 0 57.86 49.44 0c21.45,0 38.1,5.5 49.95,16.46 11.9,11 17.88,25.54 17.88,43.65 0,18.2 -5.98,32.97 -17.92,44.26 -11.95,11.34 -28.56,16.98 -49.91,16.98l-76.58 0 0 -200.66 123.05 0 0 21.45zm-95.91 79.3l0 78.46 49.44 0c13.55,0 23.66,-3.86 30.48,-11.62 6.77,-7.71 10.21,-17.21 10.21,-28.5 0,-10.91 -3.39,-20.04 -10.16,-27.33 -6.73,-7.34 -16.89,-11.01 -30.53,-11.01l-49.44 0z"/>
    <path id="1" class="fil6" d="M5821.3 5077.55l4.8 18.72 0.85 0 36.64 -112.46 30.2 0 -62.7 171.82c-3.77,9.97 -9.17,18.72 -16.23,26.16 -7.01,7.43 -16.51,11.14 -28.46,11.14 -2.16,0 -4.98,-0.23 -8.37,-0.75 -3.39,-0.52 -6.02,-0.99 -7.85,-1.46l2.72 -21.35c-0.51,-0.1 1.09,0 4.9,0.28 3.8,0.28 6.25,0.42 7.24,0.42 5.78,0 10.53,-2.58 14.2,-7.71 3.67,-5.13 6.78,-10.82 9.22,-17.08l6.49 -15.52 -55.41 -145.95 30.34 0 31.42 93.74z"/>
    <polygon id="2" class="fil6" points="6012.46,5005.26 5944.78,5005.26 5944.78,5132.82 5917.64,5132.82 5917.64,4983.81 6012.46,4983.81 "/>
    <path id="3" class="fil6" d="M6080.24 5077.55l4.8 18.72 0.85 0 36.64 -112.46 30.2 0 -62.7 171.82c-3.77,9.97 -9.17,18.72 -16.23,26.16 -7.01,7.43 -16.51,11.14 -28.46,11.14 -2.16,0 -4.98,-0.23 -8.37,-0.75 -3.39,-0.52 -6.02,-0.99 -7.85,-1.46l2.72 -21.35c-0.51,-0.1 1.09,0 4.9,0.28 3.8,0.28 6.25,0.42 7.24,0.42 5.78,0 10.53,-2.58 14.2,-7.71 3.67,-5.13 6.78,-10.82 9.22,-17.08l6.49 -15.52 -55.41 -145.95 30.34 0 31.42 93.74z"/>
    <path id="4" class="fil6" d="M6303.62 5063.91c0,21.45 -5.12,38.81 -15.42,51.98 -10.3,13.17 -24.51,19.75 -42.57,19.75 -9.22,0 -17.26,-1.55 -24.18,-4.61 -6.96,-3.1 -12.84,-7.71 -17.73,-13.87l0 72.95 -27.14 0 0 -206.3 20.79 0 4.28 19.28c4.89,-7.15 10.96,-12.65 18.2,-16.41 7.25,-3.81 15.71,-5.69 25.35,-5.69 18.49,0 32.84,7.33 43.04,21.96 10.26,14.63 15.38,34.01 15.38,58.05l0 2.91zm-27.14 -3.06c0,-16.84 -3.34,-30.71 -9.97,-41.58 -6.68,-10.86 -16.46,-16.27 -29.44,-16.27 -7.81,0 -14.49,1.74 -19.99,5.27 -5.51,3.52 -9.97,8.37 -13.36,14.53l0 71.87c3.39,6.17 7.85,10.92 13.36,14.35 5.5,3.43 12.27,5.17 20.27,5.17 12.84,0 22.58,-4.7 29.21,-14.11 6.63,-9.36 9.92,-21.49 9.92,-36.31l0 -2.92z"/>
    <path id="5" class="fil6" d="M6381.09 5077.55l4.8 18.72 0.85 0 36.64 -112.46 30.2 0 -62.7 171.82c-3.77,9.97 -9.17,18.72 -16.23,26.16 -7.01,7.43 -16.51,11.14 -28.46,11.14 -2.16,0 -4.98,-0.23 -8.37,-0.75 -3.39,-0.52 -6.02,-0.99 -7.85,-1.46l2.72 -21.35c-0.51,-0.1 1.09,0 4.9,0.28 3.8,0.28 6.25,0.42 7.24,0.42 5.78,0 10.53,-2.58 14.2,-7.71 3.67,-5.13 6.78,-10.82 9.22,-17.08l6.49 -15.52 -55.41 -145.95 30.34 0 31.42 93.74z"/>
    <path id="6" class="fil6" d="M6536.22 5114.19c8.98,0 16.93,-2.77 23.75,-8.32 6.87,-5.55 10.3,-12.42 10.3,-20.46l24.37 0 0.28 0.8c0.47,12.88 -5.27,24.31 -17.17,34.38 -11.9,10.02 -25.73,15.05 -41.53,15.05 -21.69,0 -38.24,-7.05 -49.77,-21.21 -11.47,-14.11 -17.21,-31.89 -17.21,-53.29l0 -5.79c0,-21.21 5.78,-38.9 17.31,-53.1 11.52,-14.16 28.08,-21.26 49.67,-21.26 17.45,0 31.7,5.17 42.8,15.47 11.06,10.3 16.42,22.95 16.04,37.96l-0.28 0.8 -24.51 0c0,-9.08 -3.24,-16.84 -9.64,-23.19 -6.44,-6.4 -14.58,-9.6 -24.41,-9.6 -14.25,0 -24.41,5.08 -30.53,15.29 -6.11,10.21 -9.17,22.77 -9.17,37.58l0 5.74c0,15.19 3.06,27.85 9.12,37.96 6.07,10.11 16.23,15.19 30.58,15.19z"/>
    <path id="7" class="fil6" d="M6746.24 4983.81l0 149.01 -27.14 0 0 -127.56 -50.43 0 0 42.14c0,29.4 -3.9,50.99 -11.71,64.77 -7.81,13.78 -21.12,20.65 -39.98,20.65l-7.72 0 0.57 -22.86 5.64 -0.14c9.65,0 16.37,-4.7 20.18,-14.16 3.81,-9.41 5.74,-25.45 5.74,-48.07l0 -63.78 104.85 0z"/>
    <path id="8" class="fil6" d="M6873.14 5132.82c-0.9,-4.52 -1.6,-8.47 -2.12,-11.9 -0.52,-3.48 -0.8,-6.91 -0.89,-10.44 -5.08,7.19 -11.67,13.17 -19.81,17.97 -8.09,4.79 -16.88,7.19 -26.24,7.19 -15.53,0 -27.33,-4 -35.47,-11.95 -8.14,-7.94 -12.18,-18.9 -12.18,-32.87 0,-14.26 5.74,-25.4 17.26,-33.45 11.52,-8.04 27.19,-12.04 46.94,-12.04l29.5 0 0 -14.67c0,-8.66 -2.69,-15.53 -8,-20.61 -5.32,-5.08 -12.89,-7.62 -22.63,-7.62 -8.7,0 -15.8,2.22 -21.26,6.64 -5.45,4.42 -8.23,9.73 -8.23,15.89l-25.87 0 -0.28 -0.79c-0.56,-10.82 4.56,-20.75 15.33,-29.73 10.82,-8.99 24.75,-13.45 41.87,-13.45 16.88,0 30.48,4.28 40.78,12.88 10.3,8.56 15.43,20.98 15.43,37.12l0 71.77c0,5.37 0.28,10.49 0.8,15.43 0.56,4.99 1.59,9.83 3.05,14.63l-27.98 0zm-45.07 -20.04c9.84,0 18.73,-2.54 26.63,-7.57 7.9,-5.03 13.03,-10.82 15.43,-17.31l0 -24.22 -30.48 0c-10.92,0 -19.67,2.72 -26.25,8.23 -6.54,5.5 -9.83,11.99 -9.83,19.42 0,6.59 2.07,11.81 6.21,15.67 4.09,3.85 10.2,5.78 18.29,5.78z"/>
    <polygon id="9" class="fil6" points="7057.37,5132.82 7030.23,5132.82 7030.23,5069.6 6963.82,5069.6 6963.82,5132.82 6936.68,5132.82 6936.68,4983.81 6963.82,4983.81 6963.82,5048.15 7030.23,5048.15 7030.23,4983.81 7057.37,4983.81 "/>
   </g>
  </g>
 </g>
</svg>
