<?xml version="1.0" encoding="UTF-8"?>
<!DOCTYPE svg PUBLIC "-//W3C//DTD SVG 1.1//EN" "http://www.w3.org/Graphics/SVG/1.1/DTD/svg11.dtd">
<!-- Creator: CorelDRAW 2018 (64-Bit) -->
<svg xmlns="http://www.w3.org/2000/svg" xml:space="preserve" width="247.564mm" height="160.313mm" version="1.1" style="shape-rendering:geometricPrecision; text-rendering:geometricPrecision; image-rendering:optimizeQuality; fill-rule:evenodd; clip-rule:evenodd"
viewBox="0 0 24756.4 16031.28"
 xmlns:xlink="http://www.w3.org/1999/xlink">
 <defs>
  <style type="text/css">
   <![CDATA[
    .str0 {stroke:#FF9436;stroke-width:25;stroke-miterlimit:22.9256}
    .fil2 {fill:none}
    .fil3 {fill:#49A2DC}
    .fil0 {fill:#FF9436;fill-rule:nonzero}
    .fil1 {fill:#FF9436;fill-rule:nonzero}
    .fil4 {fill:white;fill-rule:nonzero}
    .fil5 {fill:white;fill-rule:nonzero}
   ]]>
  </style>
 </defs>
 <g id="Слой_x0020_1">
  <metadata id="CorelCorpID_0Corel-Layer"/>
  <g id="_5_Автодороги">
   <path class="fil0" d="M6606.93 1585.8l32.27 50.13 73.58 0 60.46 78.39 50.53 4.73 56.43 -39.7 97.27 -18.91 203.94 194.96 161.24 19.36c26.83,13.41 54.42,26.54 80.89,40.49l196.07 119.34 68.65 -4.56 160.97 143.91 4.79 67.13 53.15 112.94 7.49 398.15 64.97 179.92 10.84 86.74 62.5 132.04 10.49 110.14 41.58 139.3 60.04 55.54 23.88 161.45 120.39 339.47 1.33 138.61 110.5 145.84 -2.53 133.47 -57.16 79.73 -19.73 142.29 8.98 163.69 17.21 51.24 109.97 163.82 6.51 106.4 38.59 45.01 10.62 57.39 91.55 77.62c239.22,93.27 416.39,176.22 652.01,293.21l58.79 83.3c43.39,139.08 61.65,212.47 84.15,356.59l180.24 133.12 76.27 6.95 77.39 95.17 64.9 127.07 135.1 33.64 74.84 -24.94 127.34 -16.21 101.58 15.63 123.03 234.24 4.5 76.56 55.98 149.01 49.91 125.53 43.98 81.01 8.81 171.92 133.93 244.47 60.12 51.54c68.49,82.41 133.59,162.86 199.81,246.99l24.27 56.62 90.67 74.24 44.22 161.41 67.61 58.6 9.03 67.33 57.94 62.64 19.92 61.99 275.87 315.91 2.32 74.37 22.39 49.24 -2.54 85.94 -52.61 116.19 4.07 152.48 25.54 38.78c-17.72,180.35 -29.21,225.17 -71.04,413.21 -44.51,68.78 -89.43,135.35 -135.46,203.3l-3.55 70.57 -115.64 112.91 -133.34 156.73 -52.35 -6.83 -102.58 96.57 -49.12 33.59 -95.08 10.57 -119.69 -87.09 -305.34 20.21 -65.08 -13.94 -22.12 -4.16 -95.62 91.27 -93.26 -5.48 -62.88 -47.7c-78.45,3.27 -109.9,3.5 -187.34,-0.37l-442.08 -2.24 -124.94 -71.04 -20.03 -42.25 -108.3 -66.2 -124.95 -18.17 -121.33 -132.55 -93.45 -39.13 -62.29 -53.38 -240.84 -112.69 -71.82 -67.59 -51.03 -6.39 -78.64 -55.89 -14.84 -82.78c-114.47,-136.88 -221.49,-274.63 -331.68,-415.53l-31.8 -83.33c-144.26,-130.09 -223.48,-218.72 -361.84,-369.26l-59.81 -22.98 -96.06 3.55 -321.35 -297.03 -187.31 -2.2 -36.14 -27.79 -179.35 0 -50.86 -36.87 -76.32 -7.73 -119.56 -90.29 -17.65 -49.41 -55.63 -67.55 -152.96 -82.2 -52.5 -2.92 -11.99 -47.93 -155.53 -98.98 -37.4 -1.14c-44.07,-32.77 -88.08,-65.64 -132.23,-98.29l-105.08 -102.71 -106.08 12.81 -34.6 -50.37 1.02 -94.78 -76.41 -134.69 -102.03 1.85 -99.07 36.62 -74.02 15.24 -54.6 27.3 -87.71 5.32 -29.76 -25.19 -102.37 -3.79 -71.67 47.03 -154.49 -19.3 -52.88 -27.23 -198.04 5.99 -436 -181.49 -140.18 -17.52 -138.69 -46.97 -176.91 -55.79 -576.39 -47.5c-76.03,-97.02 -143.78,-188.3 -216.43,-288.5l-340.86 -15.19 -90.86 -58.93 -90.29 -114.51 -195.33 -125.11 -50.58 -54.78 -170.9 -51.92 -136.34 -87.13 -46.21 114.62 -41.06 34.73 -163.94 -10.64 -116.79 214.47c-177.76,109.68 -355.72,219.3 -533.03,329.69l-737.45 249.78 -48.11 36.62 0 -62.68 24.44 -18.6 740.08 -250.69 516.62 -319.54 125.75 -230.9 175.59 11.39 16.28 -13.77 64.03 -158.78 181.16 115.76 177.47 53.92 55.26 59.85 197.13 126.26 90.51 114.79 72.31 46.9 351.46 15.67 134.92 186.1 80.81 103.09 560.21 46.18c107.02,33.42 210.99,67.2 317.03,103.11l142.03 17.76 432.72 180.12 200.09 -6.04 56.12 28.89 127.72 15.96 69.45 -45.56 135.75 5.03 27.57 23.33 57.8 -3.51 51.25 -25.61 75.91 -15.64 103.78 -38.34c46.83,-0.95 93.68,-1.73 140.51,-2.55l97.59 172.03 -1 92.38 8.62 12.55 99.77 -12.03 119.92 117.21 116.91 86.9 35.37 1.09 184.02 117.1 7.85 31.42 26.88 1.51 171.16 91.98 67.84 82.38 15.42 43.19 96.53 72.9 75.82 7.69 48.39 35.08 180.03 0 36.65 28.19 189.7 2.22 320.28 296.06 85.66 -3.17 80.64 30.98 236.6 257.45 138.63 125 33.53 87.89 228.55 291.67 105.64 126.24 13.6 75.94 51.67 36.72 54.81 6.86 78.11 73.53 239.81 112.19 61.2 52.46 96.16 40.25 116.8 127.62 117.59 17.09c43.21,26.54 86.53,52.92 129.81,79.35l19.67 41.52 99.97 56.84c172.78,0.87 345.66,-2.1 518.25,6.53l113.5 -4.73 65 49.32 56.68 3.33 98.41 -93.93c36.1,6.78 70.84,13.87 106.83,21.58l316.22 -20.93 118.66 86.35 63.66 -7.07 35.76 -24.46 116.82 -109.98 49.06 6.41c88.38,-103.88 125.78,-146.3 220.47,-238.75l3.27 -64.85 96.19 -142 41.75 -64.82 51.66 -230.66 14.69 -150.11 -23.65 -35.94 -4.76 -178.27 53.21 -117.53 1.89 -63.98 -21.71 -47.78 -2.09 -66.74 -270.94 -310.28 -19.77 -61.47 -61.12 -66.11 -8.61 -64.08 -64.68 -56.06 -43.98 -160.49 -87.88 -71.96 -26.49 -61.78 -88.13 -111.77 -104.52 -126.3 -63.35 -54.31c-48.09,-87.46 -96.04,-175.05 -143.89,-262.65l-8.83 -172.03c-64.51,-118.84 -102.44,-231.57 -149.99,-358.84l-4.32 -73.36 -106.27 -202.33 -70.4 -10.83 -115.2 14.66 -83.93 27.99 -170.89 -42.56 -72.78 -142.47 -61.01 -75.03 -69.25 -6.3 -207.83 -153.5 -18.06 -115.65 -22.67 -109.92 -42.7 -136.63 -47.02 -66.63 -335.24 -166.54 -175.42 -70.16 -133.81 -52.19 -111.29 -94.35 -11.42 -61.67 -40.8 -47.59 -6.73 -109.69 -106.1 -158.07 -21.53 -64.11c-3.36,-58.37 -6.51,-116.8 -9.61,-175.19 7.26,-53.12 14.7,-106.23 22.09,-159.34l55.36 -77.24 1.9 -100.25 -110 -145.19 -1.42 -146.59c-39.82,-112.2 -79.83,-224.35 -119.38,-336.65l-22.05 -149.04 -57.21 -52.92c-15.57,-52.02 -31.21,-104.06 -46.6,-156.13l-10.17 -106.72 -62.37 -131.76 -11.21 -89.67 -65.62 -181.73 -7.45 -395.53 -52.69 -111.97 -4.03 -56.34 -130.06 -116.28 -63.59 4.24 -209.18 -127.32 -69.5 -34.75 -169.48 -20.34 -197.36 -188.67 -61.48 11.95 -62.62 44.07 -90.6 -8.48 -58.59 -75.96 -76.36 0 -47.1 -73.17 42 -26.96z"/>
   <path class="fil1" d="M7.17 11724.21l567.93 161.04 260.51 155.66 466.93 151.94 92.02 -2.36 114.43 109.85 341.55 146.07 96.72 -1.93 27.04 -20.54 269.53 -21.51 739.13 -18.58 371.33 -209.19 70.78 -17.09c123.34,4.44 246.69,8.68 370.04,13.01l8.3 74.47 86.71 63.79 122.69 75.9 94.78 -0.97 52.73 -33.39 27.26 -81.75 94.49 -38.98 118.66 -109.53 334.7 0 103.63 28.67 89.65 0 92.6 -51.96 62.53 12.04 49.49 -5.72c130.2,-61.62 257.66,-129.15 392.76,-179.25l122.87 2.19 139.12 -61.82 64.95 2.16 104.17 -56.42 87.7 -10.96 153.81 -93.15 76.88 -32.03 90.7 -82.07c57.98,-37.94 115.82,-76.16 173.7,-114.27l149.39 -24.52 94.82 -44.1 101.8 -15.84 260.16 -66.7 236.06 0 93.54 -37.86 263.46 21.59 86.18 -85.65 68.35 -32.23 19.63 -58.93c109.49,-5.46 218.99,-10.81 328.47,-16.42l466.09 70.35 86.88 -13.51 65.05 -67.22 396.98 -110.89 72.22 -51.91 163.04 -20.37 145.83 -45.03 136.89 -60.61 94.88 -11.02 371.15 -160.33 348.54 -77.2 131.59 -58.74 332.65 5.01 84.15 -42.34 1.39 147.26 -131.98 281.82 29.04 131.88 24.66 97.56 57 58.68 -8.81 83.16 -118.74 307.81 -4.21 163.1 16.7 104.89 -118.56 166.25 17.13 224.17 41.1 89.35c177.28,18.67 354.4,36.99 531.51,57l82.64 3.21 98.83 -3.45 69.3 24.75c46.94,34.55 94.07,68.94 141.18,103.27l61.86 73.8 107.54 59.87 82.37 3.28 80.32 40.85 19.58 90.1 233.3 91.83 389.48 235.46 148.89 45.7 120.64 14.65 65.09 24.59 112.92 0 76.83 57.61 94.48 16.29c107.92,61.91 216.03,123.52 324.09,185.19l7.17 106.96 25.43 45.34 3.04 60.89 -41.22 42.35 0 28 27.14 26.42 142.15 1.08 118.64 69.85 130.12 10.36 251.98 215.39 153.81 118.74 13.84 28 56.52 1.18 9.4 37.6 400.57 365.47 71.91 111.32c35.81,170.54 39.4,316.85 54.33,495.43l138.23 151.23 100.11 661.62 -24.71 3.71 -25.27 0 -97.32 -643.18 -139.45 -152.57 -34 -406.87 -18.81 -89.98 -63.4 -98.15 -406.99 -371.32 -3.82 -15.31 -48.63 -1.02 -22.13 -44.77c-136.33,-105.25 -254.16,-205.16 -386.16,-318l-125.23 -9.98 -117.29 -69.05 -148.88 -1.14 -56.66 -55.16 0 -69.02 40.35 -41.44 -1.36 -27.31 -25.29 -45.06 -6.12 -91.5 -293.29 -167.59 -97.34 -16.79 -73.1 -54.82 -105.37 0 -68.05 -25.7 -118.83 -14.44 -159.83 -49.06 -391.07 -236.41 -253.98 -99.98 -20.21 -92.93 -49.76 -25.3 -83.02 -3.32 -126.15 -70.23 -63.82 -76.12 -130.1 -95.16 -54.18 -19.35c-64.9,2.26 -113.33,3.24 -178.32,-0.27l-136.7 -15.44 -423.12 -44.59 -56.84 -123.56c-6.54,-83.54 -12.79,-167.13 -19.16,-250.69l117.29 -164.47 -14.18 -89.13c1.28,-58.8 2.94,-117.67 4.55,-176.46l119.4 -309.55 5.67 -53.5 -50.11 -51.61c-22.24,-87.75 -41.48,-171.42 -60.94,-260.04l134.47 -287.14 -0.53 -55.87 -23.45 11.8 -333.99 -5.02 -126.1 56.29 -348.19 77.13 -374.12 161.6 -94.74 11.01c-125.26,55.46 -152.42,65.25 -286.12,106.04l-154.48 19.31 -68.88 49.51 -392.36 109.61 -67.24 69.48 -111.57 17.35 -468.76 -70.74 -288.92 14.44 -15.62 46.91 -79.8 37.63 -96.41 95.82 -274.52 -22.48 -91.68 37.1 -240.2 0c-129.7,33.25 -225.08,60.8 -352.42,80.62l-94.81 44.09 -146.04 23.98 -161.44 106.21 -94.52 85.52 -81.86 34.11 -159.29 96.46 -88.69 11.1 -107.5 58.22 -67.34 -2.23 -138.7 61.63 -124.06 -2.2 -54.49 20.18 -333.29 157.74 -65.15 7.53 -52.14 -10.03 -88.19 49.49 -108.79 0 -103.64 -28.67 -309.11 0 -110.65 102.14 -81.9 33.79 -25.67 76.99 -79.55 50.38 -123.49 1.26c-45.77,-28.27 -92.74,-56.24 -137.87,-85.33l-104.75 -77.06 -5.96 -53.43 -320.1 -11.25 -57.11 13.79 -376.19 211.92 -749.15 18.88 -255.23 20.4 -28.11 21.35 -123.76 2.47c-119.95,-51.02 -239.78,-102.43 -359.59,-153.78l-106.07 -101.81 -79.97 2.04c-159.96,-51.97 -320.19,-103.55 -479.92,-156.17l-259.74 -155.18 -554.91 -157.36 0 -25.93 6.74 -24.02z"/>
   <polyline class="fil2 str0" points="11057.39,10052.68 11142.25,10139.82 11201.78,10146.44 11312.02,10252.27 11292.18,10358.1 11361.92,10464.1 11324.43,10648.89 11181.89,10689.35 11080.71,10686.46 "/>
   <path class="fil1" d="M11327.34 10386.2l251.64 3.18 113.37 -40.39c111.73,0.74 223.48,1.27 335.21,1.88l93.18 42.15 75.13 4.69 67.19 64.89 158.04 68.03 113.23 97.66 231.07 118.76 158.75 40.82 167.71 187.59 113.28 32.05c234.83,144.95 388.29,232.01 595.21,411.06l151.66 10.39 118.95 -4.76 92.78 86.16 83.94 -2.11 94.92 44.15 46.48 0 24.84 -16.96 101.6 -14.7 34.25 -31.98 73.99 -1.56 174.56 107.09 174.3 46.33 152.22 120.89 74.25 39.3c83.32,59.85 166.98,119.28 250.46,178.91l95.34 95.34 105.66 -21.49 69.16 -123.67 113.13 -104.07c12.16,-9.56 24.28,-19.32 36.31,-29.05l59.08 -31.63 108.99 -135.71 166.94 -66.76 113.95 -109.49 197.58 -45.24 86.83 37.56 160.79 36.23c113.24,102.4 224.17,202.22 334.47,307.31l24.38 42.68 84.07 41.05 67.89 7.02 67.77 64.78 123 2.6 88.24 85.51 16.53 101.56 40.03 160.13 69.42 69.42 137.41 0 19.16 -82.41 57.15 -56.87 -14.98 -57.91c46.01,-24.58 92.05,-49.11 138,-73.8l119.29 -6.07 47.41 -76.49 -0.83 -80.05c83.52,-75.7 167.05,-151.41 250.44,-227.25l68.14 -21.29 53.7 -72.25 175.6 -199.16 8.58 -81.58c40.23,-63.34 80.3,-126.8 120.4,-190.22l247.3 -8.91 146.28 -163.75c36.46,-7.25 72.96,-14.46 109.38,-21.88l181.08 2.07 83.56 -175.28 26.84 -59.73 7.84 -70.6 57.94 -23.17 15.68 -51.54 126.38 -42.12 159.06 -142.31 86.09 -238.41 130.54 -112.84 66.23 -154.09 25.2 -41.2 -49.32 -41.64 54.61 -101.76 -9.23 -122.14 201.21 -173.55 56.93 43.27 133.5 -90.26 55.76 -255.24 96.95 -198.28 27.26 -152.23c97.45,-95.07 194.93,-190.14 292.22,-285.38l84.96 -25.75c53.68,11.74 107.38,23.48 161.1,35.03l52.92 26.46c82.42,-15.18 159.3,-24.84 242.94,-35.97l213.82 68 147.93 2.08 48.97 -18.66 153.52 33.58 116.87 86 146.66 32.15 78.73 -43.52 117.22 -24.67 2.45 217.73 98.37 120.23 10.78 94.92 19.98 17.63 74.34 -21.52 68.48 0 283.35 -132.23 37.09 -96.03 204.55 -116.88 139.44 -167.77 99.53 -86.82 50.41 -168.79 128.27 -130.67 378.56 -11.08 73.57 -60.59 329.98 -56.65 4.2 24.61 0 25.33 -312.89 53.71 -76.36 62.89 -375.5 10.98 -105.46 107.45 -51.01 170.75 -107.73 93.99 -142.78 171.77 -196.75 112.43 -37.86 98.01 -311.97 145.59 -72.65 0 -93.22 26.98 -55 -48.52 -11.25 -99.12 -100.07 -122.31 -1.96 -174.72 -50.35 10.6 -88.85 49.09 -175.24 -38.41 -116.85 -85.99 -128.71 -28.15 -43.64 16.61c-55.04,-0.67 -110.12,-1.43 -165.16,-2.32l-210.2 -66.84 -154.56 20.33 -91.3 16.8 -61.73 -30.86 -143.19 -31.13 -60.55 18.35 -272.22 265.85 -25.66 143.22 -97.09 198.6 -58.89 269.52 -179.59 121.41 -53.31 -40.52 -151.58 130.74 8.42 111.57 -42.41 79.05 51.12 43.16 -45.38 74.22 -69.48 161.63 -129.61 112.05 -85.89 237.84c-58.67,52.54 -117.3,105.18 -176.11,157.56l-111.73 37.25 -15.19 49.89 -52.31 20.93 -5.39 48.46c-40.82,91.73 -84.46,181.44 -127.71,272.12l-206.99 -2.36 -89.06 17.82 -149.18 166.97 -242.17 8.74 -100.11 158.15 -9.05 85.99 -185.77 210.69 -61.17 82.35 -72.99 22.82 -225.82 204.91 0.74 71.99 -68.79 111 -134.32 6.85 -93.48 49.99 12.33 47.67 -67.17 66.87 -24.94 107.21 -197.73 0 -93.75 -93.75 -43.58 -174.35 -14.49 -88.71 -62.36 -60.42 -122.85 -2.61 -69.38 -66.32 -59.99 -6.21 -105.56 -51.55 -28.53 -49.94 -94.26 -89.97 -223.91 -202.44 -152.29 -34.32 -76.34 -33.01 -168.43 38.56 -110.95 106.59 -163.8 65.52 -107.07 133.29 -64.41 34.51 -29.83 23.87 -107.37 98.8 -76.35 136.49 -154.52 31.43 -111.92 -111.92 -243.42 -173.88 -75.7 -40.07 -147.63 -117.24 -171.24 -45.53 -168.4 -103.31 -40.1 0.85 -31.88 29.75 -105.61 15.29 -28.14 19.2 -72.57 0 -94.71 -44.05 -92.45 2.31 -92.42 -85.83c-108.25,4.34 -157.3,0.24 -271.79,-7.6l-120.24 -104.05 -111.33 -85.13 -241.06 -149.03 -122.8 -75.36 -120.43 -34.09 -167.43 -187.25 -149.94 -38.56c-80.33,-41.04 -160.68,-82.29 -240.79,-123.76l-111.77 -96.38 -159.46 -68.66 -60.7 -58.6 -65.98 -4.13 -92.03 -41.62 -315.26 -1.76 -113.55 40.44 -260.86 -3.29 0.58 -49.8z"/>
   <path class="fil1" d="M2459.37 16027.29l235.35 -374.48 134.34 -543.74 68.29 -124.22 -26.64 -114.84 160.61 -167.15 335.44 -468.92 -17.55 -339.97 49.8 -129.49 4.34 -147.5 -0.04 -100.51c34.2,-148.86 28.34,-129.65 88.09,-272.13l-6.65 -119.7 28.98 -53.49 4.14 -101.39 -22.05 -36.75 31.18 -45.56 4.48 -98.34 140.65 -140.66 98.91 -230.79 35.55 -43.9 -5.44 -95.02 68.68 -65.98 80.38 -31.73 23.91 -80.44 114.42 -67.68 82.34 -77.39 4.37 -102.63 185.91 -234.04c-49.95,-174.88 -69.47,-309.87 -68.84,-492.18l-134.68 -184.22c-10.44,-183.93 -21.85,-368.14 -31.16,-552.09 5.35,-26.6 10.95,-53.19 16.42,-79.77 63.72,-73.3 127.26,-146.76 190.92,-220.11l213.36 -126.68 79.29 -52.15c27.89,-105.02 45.97,-148.63 88,-256.77l3.09 -122.65 22.19 -37.72 4.54 -54.49 70.52 -74.93 8.22 -109.63 41.51 -41.69 -10.54 -88.57 46.51 -239.23 6.68 -184.54c57.28,-118.65 114.85,-237.16 172.27,-355.74l120.63 -85.45 104.38 -204.27 67.8 -130.4 92.6 -96.92 0 -55.73 58.88 -52.08 30.88 -103.67 68.51 -59.96 -12.26 -133.63 44.18 -39.93 6.44 -144.53 148.02 -71.52 48.22 -88.72 -27.01 -137.97c7.08,-57.7 14.62,-115.48 22.09,-173.14l49.88 -80.91 14.53 -174.29 185.47 -231.83 15.27 -111.31 28.11 -54.04 -1.9 -41.53 -74.99 -108.09 -6.63 -194.24 -57.54 -90.75 10.99 -400.47 -75.88 -91.07c-11.52,-41.11 -22.98,-82.28 -34.29,-123.45 2.04,-64.35 4.33,-128.78 6.73,-193.12l74.85 -266.39 -2.22 -73.31c14.41,-37.48 28.89,-75.02 43.58,-112.39 32.23,-38.38 64.83,-76.53 97.26,-114.75l26.12 18.7 37.03 -72.39 -52.52 -140.06 22.3 -69.12 -23.9 -97.76c8.3,-118.73 8.51,-147.25 32.01,-254.07l88.24 -89.46 9.89 -331.89 -61.4 -140.34 -17.68 -165.78 -26.63 -73.24c-0.93,-50.93 -1.6,-101.91 -2.29,-152.85l116 -240.64 -3.61 -89.5 35.42 -86.35 2.11 -134.15 -21.6 -50.34 14.64 -62.01 -15.79 -60.88 29.9 -62.29 190.73 -130.81 128.88 -167.29 19.72 15.24 -131.29 170.43 -188.52 129.28 -23.02 47.97 15.09 58.18 -14.17 59.96 20.42 47.57c-0.89,48.06 -1.66,96.2 -2.27,144.27l-35.14 85.63 3.66 90.35 -116.18 240.97 2.14 142.59 26.29 72.28 17.58 164.95 62.08 141.89c-3.73,115.75 -7.08,231.6 -10.35,347.37l-89.96 91.18 -18.28 84.28 -11.45 155.54 24.62 100.69 -21.81 67.57 53.32 142.17 -55.26 108.02 -30.94 -22.16 -79.72 94.05 -40.2 103.69 2.19 72.21 -75.09 267.19 -6.48 186.12 31.85 114.67 78.45 94.16 -11.04 402.1 57.1 90.05 6.6 193.81 74.93 107.99 2.53 55.49 -29.24 56.19 -15.58 113.6 -184.96 231.18 -14.39 172.7 -50.29 81.56 -20.87 163.51 28.01 143.01c-18.87,34.54 -37.71,69.14 -56.4,103.78l-141.84 68.51 -6.23 140.02 -42.69 38.57 12.29 133.92 -72.59 63.52 -30.85 103.59 -55.79 49.34 0 54.51 -97.01 101.52 -66.23 127.3 -107.16 209.61 -120.31 85.23 -167.27 345.4c-7.41,204.96 -10.84,203.47 -52.64,418.48l11.52 96.66 -43.53 43.71 -8.18 109.22 -70.59 75.01 -4.27 51.36 -21.91 37.23 -3.03 120.57 -63.52 163.41 -27.59 103.9c-98.93,65.29 -195.75,121.91 -298.24,182.77l-183.91 212.03 -14.45 70.17 30.57 541.53 135.13 184.82 -0.42 120.72 35.03 256.13 36.84 128.95 -188.91 237.81 -4.44 104.63 -91.82 86.29 -108.31 64.07 -24.58 82.73 -87.21 34.43 -56.73 54.5 5.34 93.17 -39.44 48.71 -99.52 232.22 -137.15 137.16 -4.35 95.68 -26.16 38.22 17.66 29.41 -4.69 114.69 -28.35 52.33 6.59 118.44 -58.06 138.42 -30.26 131.86c0,84.56 -2.1,165.54 -4.52,250.29l-49.42 128.49 17.74 343.52c-192.54,268.94 -281.19,414.61 -494.05,636.15l25.76 111.01 -71.35 129.78 -134.48 544.34 -233.35 371.28 -14.72 0 -10.55 -6.64z"/>
   <path class="fil1" d="M1300.29 6489.37l469.44 1.11 43.65 -32.02 89.61 2.19 53.95 -49.63 49.13 -10.69 44.02 -65.59 68.51 -141.29 20.88 -90.45 75.92 -36.73 86.73 -6.06 11.81 -114.11 -81.19 -184.32 -2.25 -58.28c-32.57,-120.96 -51.12,-239.94 -74.43,-363.57l-40.6 -71.05 -131.11 -38.14c56.37,-105.87 112.6,-211.85 169.24,-317.57 41.1,-37.63 82.42,-75.26 123.82,-112.56l163.13 -90.39c113.19,-104.31 137.24,-121.32 267.67,-215.01l201.82 -254.47 147.03 -191.54 603.52 -322.78 128.51 -91.49 106.57 -117.65c154.68,-73.82 309.81,-147.23 464.89,-220.21l572.19 -66.29c434.6,-126.61 635.61,-166.27 1104.98,-204.94 124.01,-83.3 126.39,-89.2 250.28,-145.82 238.79,-256.39 205.69,-250.81 499.81,-398.66l113.84 -14.37 137.95 -33.55 100.37 -158.12 64.55 -130.77c65.53,-72.94 131.95,-145.68 198.22,-217.97l209.09 -109.64 92.2 -62.96c53.06,-8.69 106.16,-17.19 159.24,-25.76l113.71 120.67 22.35 42.65 39.66 8.63 52.86 -38.05c85.73,-15.92 171.81,-31.98 257.67,-47.05l121.19 4.32 94.36 -54.86 103.95 -4.43 88.22 -46.31 112.47 -4.33 83.76 -85.95 144.27 -6.56 141.22 -204.8 219.26 -59.86 -9.74 -88.51 43.9 -53.17 76.9 -3.65 328.97 -772.58 338.65 -431.71 15.88 0 9.8 7.7 -342.72 436.89 -333.77 783.87 -81.54 3.85 -30.13 36.49 10.93 99.23 -231.03 63.06 -143.09 207.53 -146.77 6.66 -83.82 86.03 -116.84 4.49 -88.17 46.3 -103.32 4.39 -95.25 55.39 -125.75 -4.49 -249.45 45.55 -57.39 41.32 -61.75 -13.43 -26.17 -49.94 -102.38 -108.64 -140.61 22.74c-107.53,73.44 -171.91,104.19 -295.22,168.85l-193.05 212.29c-63.49,128.65 -89.68,169.6 -169.94,296.46 -115.21,27.93 -147.87,36.09 -260.03,50.24l-175.67 88.92 -106.36 80.31 -210.35 225.86 -106.64 48.73 -150.19 100.9 -161.22 13.28 -458.1 57.4 -208.68 52.71c-362.1,105.46 -431.65,99.25 -850.66,147.78l-456.75 216.36 -105.11 116.06c-238.86,168.61 -467.81,273.5 -731.98,414.78 -115.14,150.01 -231.02,296.07 -347.92,444.75l-157.27 112.97 -113.04 104.18 -163.19 90.41 -118.72 107.92 -152.72 286.57 111.44 32.42 47.59 83.29 55.4 293.82 20.1 74.6 2.16 56.39 81.98 186.1c-4.99,47.2 -9.78,94.43 -14.66,141.64l-102.88 7.18 -60.79 29.41 -18.81 81.53c-51.78,105.23 -61.27,131.52 -121.18,220.86l-52.3 11.37 -56.29 51.8 -91.2 -2.24 -43.39 31.84 -477.64 -1.13 0 -24.9z"/>
   <polyline class="fil2 str0" points="10443.33,6897.73 10330.85,6980.42 10220.55,7265.69 10035.4,7450.06 9563.56,7719.06 9391.58,7732.29 9100.53,7937.34 8966.06,8215.19 8893.3,8484.19 8785.26,8711.29 8375.17,9101.59 8323.64,9500.55 8242.17,9570.21 8143.68,9776.34 7969.49,9959.35 7965.09,10040.93 7989.34,10111.48 8006.98,10201.88 8011.39,10254.8 7839.41,10331.97 7828.39,10803.82 7768.86,10894.22 7645.39,10861.15 7581.45,10753.11 7484.44,10670.24 7144.89,10598.76 7010.39,10512.77 6805.34,10455.45 6666.43,10365.05 6620.16,10360.62 6616.85,10388.18 6528.65,10408.03 6415.1,10387.08 6305.96,10414.64 6256.35,10374.95 6179.18,10393.69 6146.1,10346.29 5868.29,10318.73 5861.67,10351.8 5547.45,10491.8 5432.78,10487.38 5429.47,10536.99 5366.63,10529.28 5305.42,10578.33 5140.67,10565.67 5069.08,10440.76 5031.6,10364.7 5027.19,10295.24 4934.58,10252.25 4932.38,10188.31 4880.56,10095.7 4880.57,9949.07 4755.99,9940.25 4662.16,9825.85 "/>
   <polyline class="fil2 str0" points="7731.35,10884.17 7737.01,10978.71 7763.47,11052.58 7773.47,11126.7 7884.74,11159.51 7931.6,11157.34 "/>
   <path class="fil1" d="M6588.42 11491.91l276.97 659.2 72.49 78.66 94.72 2.14 70.66 38.55 78.8 -25.74 450.69 -1.83 79.33 -37.47c55.11,-0.6 110.33,-1.29 165.43,-2.26l343.85 81.56 306.81 0 120.3 86.89 462.34 106.17 62.22 71.81c52.14,281.73 104.49,563.54 157.49,845.1 -39.27,386.19 -27.14,348.47 -122.48,698.55l-98.92 128.38 137.7 159.19 -6.78 162.35 -14.57 458.65 145.95 141.61 -19.89 194.47 238.42 691.99 -11.82 4.05 -13.22 0 -238.75 -692.98 19.22 -188.04 -145.16 -140.86 14.92 -469.77 6.37 -152.64 -144.54 -167.12 108.34 -140.62 80.65 -292.08 39.4 -394.03 -155.61 -835.01 -52.41 -60.49 -459.3 -105.48 -117.82 -85.09 -301.75 0 -344.08 -81.61 -156.47 2.14 -79.43 37.51 -452.22 1.85 -85.44 27.9 -74.87 -40.83 -99.29 -2.26c-27.59,-29.83 -55.23,-59.7 -82.65,-89.68l-278.64 -663.17 23.04 -9.66z"/>
   <polyline class="fil2 str0" points="15322.83,15379.68 15545.47,15030.47 15655.45,14561.3 15611.98,14374.21 15655.45,14288.22 15841.28,14100.81 15920.66,14008.2 16057.36,13908.99 16224.93,13827.41 16275.64,13820.79 16383.68,13664.25 16458.65,13620.15 16498.34,13507.7 16551.25,13468.01 16679.14,13465.81 16734.26,13445.96 16848.91,13463.6 17005.44,13379.79 17261.21,13344.51 17353.81,13251.91 17413.34,13115.2 17501.54,13000.55 17512.56,12877.08 17552.25,12749.19 17613.99,12592.65 17621.6,12511.48 17686.75,12388.8 "/>
   <polyline class="fil2 str0" points="11127.24,10541.39 11342.8,10581.64 11589.61,10650.12 11894.54,10555.33 12242.91,10683.21 12538.03,10850.42 12873.51,11230.02 13213.05,11291.76 13473.23,11512.24 13636.39,11578.39 13773.09,11569.57 13790.37,11442.9 13848.06,11340.26 13900.41,11002.41 13980.35,10850.78 13949.48,10771.41 13759.86,10489.18 13702.54,10484.77 13548.19,10321.61 13437.95,10312.79 13266.84,10193.73 12957.29,10074.67 12688.3,10061.44 12586.87,10132 12347.51,10170.78 12207.64,10334.84 12068.3,10396.68 "/>
   <polyline class="fil2 str0" points="11388.12,9594.07 11552.82,9695.43 11655.66,9821.54 11787.64,9793.65 11956.55,9825.3 12131.76,9846.68 12323.19,9868.42 12317.88,10079.08 12347.51,10170.78 "/>
   <polyline class="fil2 str0" points="18149.42,12110.98 18584.46,12184.75 18720.5,12225.41 18808.69,12428.28 18852.79,12736.94 19077.69,13089.72 19531.89,13468.96 19695.05,13535.11 19739.15,13579.2 19816.32,13576.99 19829.55,13537.31 19957.43,13446.91 19986.1,13334.46 20188.95,13091.92 20427.07,13016.96 20762.21,12928.76 20857.02,12959.63 20918.76,12902.3 21057.65,12926.53 21234.04,12869.21 21430.27,12904.48 21595.64,13087.49 21871.25,13138.2 21917.55,13171.27 21944.01,13241.83 22153.47,13319 "/>
   <polyline class="fil2 str0" points="20316.81,12668.56 20376.34,12736.91 20358.71,12873.62 20427.07,13016.96 "/>
   <polyline class="fil2 str0" points="20024.58,9442.81 20078.6,9557.47 20219.71,9661.09 20310.2,9787.04 "/>
   <g id="А-305">
    <path class="fil3" d="M5579.8 11642.28l621.95 0c34.22,0 62.18,27.97 62.18,62.18l0 248.8c0,34.21 -27.96,62.19 -62.18,62.19l-621.95 0c-34.2,0 -62.18,-27.98 -62.18,-62.19l0 -248.8c0,-34.21 27.98,-62.18 62.18,-62.18z"/>
    <path class="fil4" d="M5579.8 11628.12l621.95 0c20.97,0 40.05,8.59 53.88,22.41 13.86,13.88 22.46,32.96 22.46,53.93l0 248.8c0,20.97 -8.6,40.05 -22.41,53.88 -13.88,13.87 -32.96,22.46 -53.93,22.46l-621.95 0c-20.94,0 -40.02,-8.59 -53.86,-22.42 -13.88,-13.9 -22.47,-32.97 -22.47,-53.92l0 -248.8c0,-20.93 8.59,-40.02 22.41,-53.86 13.9,-13.89 32.98,-22.48 53.92,-22.48zm621.95 28.31l-621.95 0c-13.23,0 -25.24,5.39 -33.9,14.07 -8.74,8.71 -14.13,20.74 -14.13,33.96l0 248.8c0,13.23 5.39,25.25 14.07,33.91 8.72,8.73 20.73,14.12 33.96,14.12l621.95 0c13.22,0 25.24,-5.4 33.95,-14.08 8.67,-8.7 14.08,-20.73 14.08,-33.95l0 -248.8c0,-13.22 -5.41,-25.25 -14.08,-33.95 -8.71,-8.68 -20.73,-14.08 -33.95,-14.08z"/>
    <path class="fil5" d="M5717.68 11915.28l-10.63 -45.35 -53.38 0 -10.63 45.35 -23.33 0 46.4 -178.55 29.28 0 46.39 178.55 -24.1 0zm-59.6 -64.27l44.57 0 -22.29 -94.6 -22.28 94.6zm96.14 -7.26l0 -19.18 61.93 0 0 19.18 -61.93 0zm107.8 -104.43c8.65,0 16.29,1.98 22.94,5.96 6.65,3.97 11.75,9.28 15.28,15.93 3.54,6.65 5.31,13.87 5.31,21.64 0,21.6 -10.61,35.07 -31.87,40.43 11.24,1.38 20.08,5.61 26.56,12.7 6.49,7.08 9.73,16.93 9.73,29.54 0,9.68 -2.04,18.54 -6.1,26.56 -4.05,8.04 -9.88,14.42 -17.5,19.18 -7.6,4.75 -16.4,7.13 -26.42,7.13 -9.15,0 -17.28,-1.91 -24.37,-5.7 -7.07,-3.81 -13.73,-9.68 -19.95,-17.62l14.26 -11.16c5.18,5.71 9.98,9.81 14.38,12.32 4.4,2.5 9.62,3.76 15.68,3.76 8.11,0 14.68,-3.03 19.69,-9.07 5.01,-6.04 7.51,-14.61 7.51,-25.66 0,-11.75 -2.54,-20.04 -7.64,-24.88 -5.09,-4.84 -12.74,-7.26 -22.93,-7.26l-9.59 0 2.59 -16.84 6.23 0c8.46,0 15.28,-2.72 20.46,-8.17 5.18,-5.43 7.78,-13.34 7.78,-23.7 0,-8.82 -2.16,-15.56 -6.48,-20.21 -4.32,-4.67 -10.29,-7.01 -17.89,-7.01 -10.19,0 -19.51,4.76 -27.98,14.25l-12.44 -11.66c12.61,-13.64 26.86,-20.46 42.76,-20.46zm121.54 0c16.42,0 28.67,7.3 36.8,21.89 8.12,14.61 12.18,37.11 12.18,67.51 0,30.58 -4.06,53.17 -12.18,67.76 -8.13,14.61 -20.38,21.91 -36.8,21.91 -16.42,0 -28.73,-7.35 -36.92,-22.04 -8.21,-14.67 -12.32,-37.22 -12.32,-67.63 0,-30.4 4.11,-52.9 12.32,-67.51 8.19,-14.59 20.5,-21.89 36.92,-21.89zm0 18.14c-8.82,0 -15.29,5.35 -19.43,16.06 -4.15,10.72 -6.23,29.12 -6.23,55.2 0,26.27 2.08,44.75 6.23,55.46 4.14,10.72 10.61,16.07 19.43,16.07 8.8,0 15.24,-5.35 19.3,-16.07 4.06,-10.71 6.09,-29.19 6.09,-55.46 0,-17.96 -0.95,-32.17 -2.85,-42.63 -1.89,-10.46 -4.67,-17.83 -8.29,-22.16 -3.62,-4.32 -8.38,-6.47 -14.25,-6.47zm154.44 2.59l-54.68 0 0 51.83c3.64,-2.42 7.22,-4.15 10.76,-5.18 3.53,-1.05 7.38,-1.56 11.53,-1.56 12.27,0 22.15,4.84 29.68,14.51 7.51,9.68 11.26,23.07 11.26,40.16 0,11.41 -2.11,21.56 -6.35,30.46 -4.23,8.9 -10.23,15.81 -18,20.73 -7.79,4.93 -16.68,7.39 -26.7,7.39 -9.15,0 -17.11,-1.81 -23.84,-5.45 -6.74,-3.62 -13.31,-9.16 -19.69,-16.59l13.47 -12.17c4.66,5.35 9.29,9.29 13.86,11.79 4.59,2.51 9.81,3.75 15.68,3.75 8.82,0 15.68,-3.41 20.61,-10.23 4.92,-6.82 7.38,-16.88 7.38,-30.19 0,-13.47 -2.16,-22.98 -6.48,-28.5 -4.31,-5.53 -10.36,-8.29 -18.14,-8.29 -3.62,0 -6.99,0.51 -10.11,1.55 -3.11,1.04 -6.39,2.59 -9.85,4.66l-16.84 0 0 -86.81 79.57 0 -3.12 18.14z"/>
   </g>
   <g id="М-5">
    <path class="fil3" d="M3928.49 6990.13l483.03 0c34.22,0 62.19,28.14 62.19,62.19l0 248.8c0,34.05 -28.12,62.19 -62.19,62.19l-483.03 0c-34.05,0 -62.19,-27.98 -62.19,-62.19l0 -248.8c0,-34.21 27.98,-62.19 62.19,-62.19z"/>
    <path class="fil4" d="M3928.49 6975.98l483.02 0c20.97,0 40.05,8.59 53.88,22.41 13.87,13.88 22.46,32.96 22.46,53.93l0 248.8c0,20.97 -8.59,40.05 -22.41,53.88 -13.88,13.87 -32.96,22.46 -53.93,22.46l-483.02 0c-20.95,0 -40.03,-8.59 -53.87,-22.42 -13.88,-13.9 -22.47,-32.97 -22.47,-53.92l0 -248.8c0,-20.93 8.59,-40.02 22.42,-53.86 13.89,-13.89 32.97,-22.48 53.92,-22.48zm483.02 28.31l-483.02 0c-13.24,0 -25.25,5.39 -33.91,14.06 -8.73,8.72 -14.13,20.75 -14.13,33.97l0 248.8c0,13.23 5.4,25.25 14.07,33.91 8.72,8.73 20.73,14.12 33.97,14.12l483.02 0c13.22,0 25.25,-5.4 33.95,-14.08 8.68,-8.7 14.08,-20.73 14.08,-33.95l0 -248.8c0,-13.22 -5.4,-25.25 -14.08,-33.95 -8.7,-8.68 -20.73,-14.08 -33.95,-14.08z"/>
    <path class="fil5" d="M4140.99 7265.95l-22.67 0 -4.75 -82.5c-2.28,-34.09 -3.25,-58.95 -2.9,-74.59l-30.83 136.53 -22.41 0 -32.42 -136.8 0.26 12.13c0,13.7 -0.7,35.14 -2.1,64.31l-4.49 80.92 -22.66 0 12.39 -181.61 31.1 0 29.52 133.11 27.94 -133.11 31.89 0 12.13 181.61z"/>
    <polygon id="1" class="fil5" points="4168.66,7193.2 4168.66,7173.7 4231.65,7173.7 4231.65,7193.2 "/>
    <path id="2" class="fil5" d="M4335.24 7108.07l-55.61 0 0 52.71c3.69,-2.46 7.33,-4.22 10.94,-5.27 3.6,-1.05 7.51,-1.58 11.73,-1.58 12.47,0 22.53,4.92 30.18,14.76 7.64,9.84 11.46,23.46 11.46,40.85 0,11.6 -2.15,21.92 -6.46,30.97 -4.3,9.05 -10.41,16.08 -18.31,21.09 -7.91,5.01 -16.96,7.51 -27.15,7.51 -9.32,0 -17.4,-1.84 -24.25,-5.53 -6.86,-3.69 -13.53,-9.32 -20.03,-16.87l13.7 -12.39c4.75,5.45 9.45,9.45 14.1,11.99 4.66,2.55 9.97,3.83 15.95,3.83 8.96,0 15.95,-3.48 20.95,-10.42 5.01,-6.94 7.52,-17.17 7.52,-30.7 0,-13.71 -2.2,-23.37 -6.59,-29 -4.4,-5.62 -10.55,-8.43 -18.45,-8.43 -3.69,0 -7.12,0.53 -10.28,1.58 -3.17,1.05 -6.51,2.64 -10.02,4.74l-17.13 0 0 -88.3 80.92 0 -3.17 18.46z"/>
   </g>
   <g id="М-5_0">
    <path class="fil3" d="M14633.28 11453.83l483.04 0c34.22,0 62.18,28.14 62.18,62.19l0 248.8c0,34.05 -28.12,62.18 -62.18,62.18l-483.04 0c-34.05,0 -62.18,-27.98 -62.18,-62.18l0 -248.8c0,-34.21 27.98,-62.19 62.18,-62.19z"/>
    <path class="fil4" d="M14633.28 11439.68l483.02 0c20.98,0 40.06,8.59 53.88,22.4 13.87,13.89 22.46,32.96 22.46,53.94l0 248.8c0,20.97 -8.59,40.05 -22.4,53.87 -13.88,13.87 -32.96,22.46 -53.94,22.46l-483.02 0c-20.94,0 -40.02,-8.59 -53.86,-22.41 -13.89,-13.9 -22.48,-32.98 -22.48,-53.92l0 -248.8c0,-20.94 8.59,-40.03 22.42,-53.87 13.9,-13.88 32.98,-22.47 53.92,-22.47zm483.02 28.3l-483.02 0c-13.23,0 -25.25,5.4 -33.91,14.07 -8.73,8.72 -14.12,20.75 -14.12,33.97l0 248.8c0,13.23 5.39,25.24 14.07,33.91 8.71,8.73 20.73,14.12 33.96,14.12l483.02 0c13.22,0 25.25,-5.41 33.96,-14.08 8.67,-8.71 14.08,-20.74 14.08,-33.95l0 -248.8c0,-13.22 -5.41,-25.25 -14.08,-33.96 -8.71,-8.67 -20.74,-14.08 -33.96,-14.08z"/>
    <path class="fil5" d="M14845.78 11729.65l-22.67 0 -4.75 -82.5c-2.28,-34.09 -3.25,-58.95 -2.9,-74.59l-30.83 136.53 -22.41 0 -32.42 -136.8 0.26 12.13c0,13.7 -0.7,35.14 -2.1,64.31l-4.49 80.92 -22.66 0 12.39 -181.61 31.1 0 29.52 133.11 27.94 -133.11 31.89 0 12.13 181.61z"/>
    <polygon id="1" class="fil5" points="14873.45,11656.9 14873.45,11637.4 14936.44,11637.4 14936.44,11656.9 "/>
    <path id="2" class="fil5" d="M15040.03 11571.77l-55.61 0 0 52.71c3.69,-2.46 7.33,-4.22 10.94,-5.27 3.6,-1.05 7.51,-1.58 11.73,-1.58 12.47,0 22.53,4.92 30.18,14.76 7.64,9.84 11.46,23.46 11.46,40.85 0,11.6 -2.15,21.92 -6.46,30.97 -4.3,9.05 -10.41,16.08 -18.31,21.09 -7.91,5.01 -16.96,7.51 -27.15,7.51 -9.32,0 -17.4,-1.84 -24.25,-5.53 -6.86,-3.69 -13.53,-9.32 -20.03,-16.87l13.7 -12.39c4.75,5.45 9.45,9.45 14.1,11.99 4.66,2.55 9.97,3.83 15.95,3.83 8.96,0 15.95,-3.48 20.95,-10.42 5.01,-6.94 7.52,-17.17 7.52,-30.7 0,-13.71 -2.2,-23.37 -6.59,-29 -4.4,-5.62 -10.55,-8.43 -18.45,-8.43 -3.69,0 -7.12,0.53 -10.28,1.58 -3.17,1.05 -6.51,2.64 -10.02,4.74l-17.13 0 0 -88.3 80.92 0 -3.17 18.46z"/>
   </g>
   <g id="А-24">
    <path class="fil3" d="M14028.09 13721.06l483.03 0c34.23,0 62.19,28.13 62.19,62.18l0 248.8c0,34.05 -28.12,62.19 -62.19,62.19l-483.03 0c-34.05,0 -62.19,-27.98 -62.19,-62.19l0 -248.8c0,-34.2 27.98,-62.18 62.19,-62.18z"/>
    <path class="fil4" d="M14028.09 13706.9l483.02 0c20.97,0 40.05,8.59 53.88,22.41 13.87,13.88 22.46,32.96 22.46,53.93l0 248.8c0,20.98 -8.59,40.05 -22.4,53.88 -13.89,13.87 -32.97,22.46 -53.94,22.46l-483.02 0c-20.95,0 -40.02,-8.59 -53.87,-22.42 -13.88,-13.9 -22.47,-32.97 -22.47,-53.92l0 -248.8c0,-20.93 8.59,-40.02 22.42,-53.86 13.9,-13.89 32.97,-22.48 53.92,-22.48zm483.02 28.31l-483.02 0c-13.23,0 -25.25,5.39 -33.91,14.07 -8.73,8.71 -14.12,20.74 -14.12,33.96l0 248.8c0,13.23 5.39,25.25 14.06,33.91 8.72,8.73 20.74,14.12 33.97,14.12l483.02 0c13.22,0 25.25,-5.4 33.95,-14.08 8.68,-8.7 14.08,-20.73 14.08,-33.95l0 -248.8c0,-13.22 -5.4,-25.25 -14.08,-33.95 -8.7,-8.68 -20.73,-14.08 -33.95,-14.08z"/>
    <path class="fil5" d="M14171.28 13996.88l-10.8 -46.13 -54.3 0 -10.81 46.13 -23.72 0 47.18 -181.61 29.78 0 47.18 181.61 -24.51 0zm-60.62 -65.37l45.33 0 -22.66 -96.2 -22.67 96.2z"/>
    <polygon id="1" class="fil5" points="14208.45,13924.13 14208.45,13904.63 14271.44,13904.63 14271.44,13924.13 "/>
    <path id="2" class="fil5" d="M14316.26 13817.91c13.88,0 24.91,4.39 33.08,13.18 8.17,8.78 12.25,20.03 12.25,33.74 0,10.72 -1.97,20.95 -5.93,30.7 -3.95,9.76 -9.97,20.39 -18.05,31.9 -8.09,11.51 -20.82,28.16 -38.22,49.95l65.63 0 -2.64 19.5 -87.77 0 0 -18.45c18.45,-23.55 31.9,-41.34 40.33,-53.38 8.43,-12.03 14.32,-22.44 17.66,-31.23 3.34,-8.79 5.01,-18.1 5.01,-27.94 0,-9.49 -2.02,-16.65 -6.06,-21.48 -4.05,-4.83 -9.67,-7.25 -16.87,-7.25 -5.63,0 -10.55,1.45 -14.76,4.35 -4.22,2.9 -8.79,7.51 -13.71,13.84l-15.02 -10.81c11.94,-17.75 26.97,-26.62 45.07,-26.62z"/>
    <polygon id="3" class="fil5" points="14480.73,13934.68 14480.73,13953.13 14462.55,13953.13 14462.55,13996.88 14440.41,13996.88 14440.41,13953.13 14377.94,13953.13 14377.94,13936.26 14420.9,13817.91 14440.67,13825.29 14401.66,13934.68 14440.67,13934.68 14443.04,13886.7 14462.55,13886.7 14462.55,13934.68 "/>
   </g>
   <g id="Р-239">
    <path class="fil3" d="M12327.05 12825.95l598.8 0c34.22,0 62.19,28.21 62.19,62.19l0 248.8c0,33.98 -28.19,62.18 -62.19,62.18l-598.8 0c-33.98,0 -62.19,-27.98 -62.19,-62.18l0 -248.8c0,-34.21 27.98,-62.19 62.19,-62.19z"/>
    <path class="fil4" d="M12327.05 12811.8l598.79 0c20.97,0 40.05,8.59 53.88,22.4 13.87,13.89 22.46,32.96 22.46,53.94l0 248.8c0,20.97 -8.59,40.05 -22.41,53.88 -13.88,13.87 -32.96,22.46 -53.93,22.46l-598.79 0c-20.95,0 -40.02,-8.59 -53.87,-22.42 -13.88,-13.9 -22.47,-32.98 -22.47,-53.92l0 -248.8c0,-20.93 8.59,-40.02 22.42,-53.87 13.9,-13.88 32.97,-22.47 53.92,-22.47zm598.79 28.31l-598.79 0c-13.23,0 -25.25,5.39 -33.91,14.06 -8.73,8.72 -14.12,20.75 -14.12,33.97l0 248.8c0,13.23 5.39,25.25 14.06,33.91 8.72,8.73 20.74,14.12 33.97,14.12l598.79 0c13.22,0 25.25,-5.4 33.95,-14.08 8.67,-8.7 14.08,-20.73 14.08,-33.95l0 -248.8c0,-13.22 -5.41,-25.25 -14.08,-33.95 -8.7,-8.68 -20.73,-14.08 -33.95,-14.08z"/>
    <path class="fil5" d="M12423.85 12920.16c21.26,0 37.39,4.75 48.37,14.24 10.98,9.49 16.47,23.46 16.47,41.91 0,19.68 -5.58,34.31 -16.73,43.88 -11.16,9.58 -27.02,14.37 -47.58,14.37l-11.86 0 0 67.21 -23.99 0 0 -181.61 35.32 0zm0.53 95.42c13.53,0 23.46,-2.86 29.78,-8.57 6.33,-5.71 9.49,-15.86 9.49,-30.44 0,-13.18 -3.2,-22.71 -9.62,-28.6 -6.41,-5.89 -16.3,-8.83 -29.65,-8.83l-11.86 0 0 76.44 11.86 0z"/>
    <polygon id="1" class="fil5" points="12503.19,13029.02 12503.19,13009.52 12566.18,13009.52 12566.18,13029.02 "/>
    <path id="2" class="fil5" d="M12611 12922.8c13.88,0 24.91,4.39 33.08,13.18 8.17,8.78 12.25,20.03 12.25,33.74 0,10.72 -1.97,20.95 -5.93,30.7 -3.95,9.76 -9.97,20.39 -18.05,31.9 -8.09,11.51 -20.82,28.16 -38.22,49.95l65.63 0 -2.64 19.5 -87.77 0 0 -18.45c18.45,-23.55 31.9,-41.34 40.33,-53.38 8.43,-12.03 14.32,-22.44 17.66,-31.23 3.34,-8.79 5.01,-18.1 5.01,-27.94 0,-9.49 -2.02,-16.65 -6.06,-21.48 -4.05,-4.83 -9.67,-7.25 -16.87,-7.25 -5.63,0 -10.55,1.45 -14.76,4.35 -4.22,2.9 -8.79,7.51 -13.71,13.84l-15.02 -10.81c11.94,-17.75 26.97,-26.62 45.07,-26.62z"/>
    <path id="3" class="fil5" d="M12718.8 12922.8c8.79,0 16.56,2.02 23.33,6.06 6.76,4.04 11.95,9.45 15.55,16.21 3.6,6.77 5.4,14.1 5.4,22.01 0,21.97 -10.81,35.67 -32.42,41.12 11.42,1.4 20.43,5.71 27.02,12.91 6.59,7.21 9.88,17.23 9.88,30.05 0,9.84 -2.06,18.85 -6.19,27.02 -4.13,8.17 -10.06,14.67 -17.79,19.5 -7.74,4.84 -16.7,7.25 -26.89,7.25 -9.31,0 -17.57,-1.93 -24.78,-5.8 -7.2,-3.86 -13.97,-9.84 -20.29,-17.92l14.5 -11.33c5.27,5.8 10.14,9.97 14.62,12.52 4.49,2.54 9.8,3.82 15.95,3.82 8.26,0 14.94,-3.08 20.03,-9.23 5.1,-6.15 7.65,-14.84 7.65,-26.09 0,-11.95 -2.6,-20.38 -7.78,-25.3 -5.18,-4.92 -12.96,-7.38 -23.33,-7.38l-9.75 0 2.64 -17.14 6.32 0c8.61,0 15.55,-2.77 20.83,-8.3 5.27,-5.54 7.9,-13.57 7.9,-24.12 0,-8.96 -2.19,-15.81 -6.59,-20.56 -4.39,-4.74 -10.45,-7.11 -18.18,-7.11 -10.37,0 -19.86,4.83 -28.47,14.49l-12.65 -11.86c12.83,-13.88 27.32,-20.82 43.49,-20.82z"/>
    <path id="4" class="fil5" d="M12832.4 12922.8c15.99,0 28.12,5.93 36.38,17.79 8.26,11.86 12.39,28.86 12.39,51 0,23.9 -2.82,43.19 -8.44,57.86 -5.62,14.67 -14.19,26.36 -25.7,35.06 -11.51,8.69 -27.01,16.38 -46.52,23.06l-5.01 -17.4c19.51,-6.67 34.27,-15.42 44.28,-26.22 10.02,-10.81 15.82,-25.79 17.4,-44.94 -3.69,5.62 -8.17,10.1 -13.44,13.44 -5.27,3.34 -11.25,5.01 -17.93,5.01 -7.38,0 -14.23,-2.29 -20.56,-6.86 -6.32,-4.57 -11.42,-11.15 -15.28,-19.77 -3.87,-8.61 -5.8,-18.53 -5.8,-29.78 0,-12.65 2.11,-23.33 6.32,-32.02 4.22,-8.7 9.98,-15.25 17.27,-19.64 7.29,-4.39 15.51,-6.59 24.64,-6.59zm-1.84 96.47c11.07,0 20.21,-7.38 27.41,-22.14 0,-14.06 -0.88,-25.17 -2.64,-33.34 -1.75,-8.18 -4.48,-14.02 -8.17,-17.53 -3.69,-3.52 -8.52,-5.27 -14.49,-5.27 -8.09,0 -14.32,3.33 -18.72,10.01 -4.39,6.68 -6.59,16.87 -6.59,30.58 0,12.47 2.07,21.87 6.2,28.2 4.13,6.33 9.79,9.49 17,9.49z"/>
   </g>
   <g id="А-23">
    <path class="fil3" d="M23223.01 8593.39l483.04 0c34.22,0 62.19,28.14 62.19,62.19l0 248.8c0,34.05 -28.13,62.18 -62.19,62.18l-483.04 0c-34.05,0 -62.18,-27.98 -62.18,-62.18l0 -248.8c0,-34.21 27.98,-62.19 62.18,-62.19z"/>
    <path class="fil4" d="M23223.01 8579.24l483.03 0c20.97,0 40.05,8.59 53.87,22.4 13.87,13.89 22.46,32.96 22.46,53.94l0 248.8c0,20.97 -8.59,40.05 -22.4,53.88 -13.88,13.87 -32.96,22.46 -53.93,22.46l-483.03 0c-20.94,0 -40.02,-8.59 -53.86,-22.42 -13.88,-13.9 -22.47,-32.98 -22.47,-53.92l0 -248.8c0,-20.93 8.59,-40.02 22.41,-53.87 13.9,-13.88 32.98,-22.47 53.92,-22.47zm483.03 28.31l-483.03 0c-13.23,0 -25.24,5.39 -33.91,14.06 -8.73,8.72 -14.12,20.75 -14.12,33.97l0 248.8c0,13.23 5.39,25.25 14.07,33.91 8.72,8.73 20.73,14.12 33.96,14.12l483.03 0c13.21,0 25.24,-5.4 33.95,-14.08 8.67,-8.7 14.08,-20.73 14.08,-33.95l0 -248.8c0,-13.22 -5.41,-25.25 -14.08,-33.95 -8.71,-8.68 -20.74,-14.08 -33.95,-14.08z"/>
    <path class="fil5" d="M23366.21 8869.21l-10.8 -46.13 -54.3 0 -10.81 46.13 -23.72 0 47.18 -181.61 29.78 0 47.18 181.61 -24.51 0zm-60.62 -65.37l45.33 0 -22.66 -96.2 -22.67 96.2z"/>
    <polygon id="1" class="fil5" points="23403.38,8796.46 23403.38,8776.96 23466.37,8776.96 23466.37,8796.46 "/>
    <path id="2" class="fil5" d="M23511.19 8690.24c13.88,0 24.91,4.39 33.08,13.18 8.17,8.78 12.25,20.03 12.25,33.74 0,10.72 -1.97,20.95 -5.93,30.7 -3.95,9.76 -9.97,20.39 -18.05,31.9 -8.09,11.51 -20.82,28.16 -38.22,49.95l65.63 0 -2.64 19.5 -87.77 0 0 -18.45c18.45,-23.55 31.9,-41.34 40.33,-53.38 8.43,-12.03 14.32,-22.44 17.66,-31.23 3.34,-8.79 5.01,-18.1 5.01,-27.94 0,-9.49 -2.02,-16.65 -6.06,-21.48 -4.05,-4.83 -9.67,-7.25 -16.87,-7.25 -5.63,0 -10.55,1.45 -14.76,4.35 -4.22,2.9 -8.79,7.51 -13.71,13.84l-15.02 -10.81c11.94,-17.75 26.97,-26.62 45.07,-26.62z"/>
    <path id="3" class="fil5" d="M23618.99 8690.24c8.79,0 16.56,2.02 23.33,6.06 6.76,4.04 11.95,9.45 15.55,16.21 3.6,6.77 5.4,14.1 5.4,22.01 0,21.97 -10.81,35.67 -32.42,41.12 11.42,1.4 20.43,5.71 27.02,12.91 6.59,7.21 9.88,17.23 9.88,30.05 0,9.84 -2.06,18.85 -6.19,27.02 -4.13,8.17 -10.06,14.67 -17.79,19.5 -7.74,4.84 -16.7,7.25 -26.89,7.25 -9.31,0 -17.57,-1.93 -24.78,-5.8 -7.2,-3.86 -13.97,-9.84 -20.29,-17.92l14.5 -11.33c5.27,5.8 10.14,9.97 14.62,12.52 4.49,2.54 9.8,3.82 15.95,3.82 8.26,0 14.94,-3.08 20.03,-9.23 5.1,-6.15 7.65,-14.84 7.65,-26.09 0,-11.95 -2.6,-20.38 -7.78,-25.3 -5.18,-4.92 -12.96,-7.38 -23.33,-7.38l-9.75 0 2.64 -17.14 6.32 0c8.61,0 15.55,-2.77 20.83,-8.3 5.27,-5.54 7.9,-13.57 7.9,-24.12 0,-8.96 -2.19,-15.81 -6.59,-20.56 -4.39,-4.74 -10.45,-7.11 -18.18,-7.11 -10.37,0 -19.86,4.83 -28.47,14.49l-12.65 -11.86c12.83,-13.88 27.32,-20.82 43.49,-20.82z"/>
   </g>
   <g id="А-28">
    <path class="fil3" d="M3333.31 12576.85l483.04 0c34.22,0 62.19,28.13 62.19,62.18l0 248.8c0,34.05 -28.12,62.19 -62.19,62.19l-483.04 0c-34.05,0 -62.18,-27.98 -62.18,-62.19l0 -248.8c0,-34.2 27.98,-62.18 62.18,-62.18z"/>
    <path class="fil4" d="M3333.31 12562.69l483.03 0c20.97,0 40.05,8.59 53.87,22.41 13.87,13.88 22.46,32.96 22.46,53.93l0 248.8c0,20.98 -8.59,40.05 -22.4,53.88 -13.88,13.87 -32.96,22.46 -53.93,22.46l-483.03 0c-20.94,0 -40.02,-8.59 -53.86,-22.42 -13.88,-13.89 -22.47,-32.97 -22.47,-53.92l0 -248.8c0,-20.93 8.59,-40.02 22.41,-53.86 13.9,-13.89 32.98,-22.48 53.92,-22.48zm483.03 28.31l-483.03 0c-13.23,0 -25.24,5.39 -33.9,14.07 -8.74,8.71 -14.13,20.74 -14.13,33.96l0 248.8c0,13.23 5.39,25.25 14.07,33.91 8.72,8.73 20.73,14.13 33.96,14.13l483.03 0c13.22,0 25.24,-5.41 33.95,-14.09 8.67,-8.7 14.08,-20.73 14.08,-33.95l0 -248.8c0,-13.22 -5.41,-25.25 -14.08,-33.95 -8.71,-8.67 -20.73,-14.08 -33.95,-14.08z"/>
    <path class="fil5" d="M3464.93 12852.67l-10.8 -46.13 -54.3 0 -10.81 46.13 -23.72 0 47.18 -181.61 29.78 0 47.18 181.61 -24.51 0zm-60.62 -65.37l45.33 0 -22.66 -96.2 -22.67 96.2z"/>
    <polygon id="1" class="fil5" points="3502.1,12779.92 3502.1,12760.42 3565.09,12760.42 3565.09,12779.92 "/>
    <path id="2" class="fil5" d="M3609.91 12673.7c13.88,0 24.91,4.39 33.08,13.18 8.17,8.78 12.25,20.03 12.25,33.74 0,10.72 -1.97,20.95 -5.93,30.7 -3.95,9.76 -9.97,20.39 -18.05,31.9 -8.09,11.51 -20.82,28.16 -38.22,49.95l65.63 0 -2.64 19.5 -87.77 0 0 -18.45c18.45,-23.55 31.9,-41.34 40.33,-53.38 8.43,-12.03 14.32,-22.44 17.66,-31.23 3.34,-8.79 5.01,-18.1 5.01,-27.94 0,-9.49 -2.02,-16.65 -6.06,-21.48 -4.05,-4.83 -9.67,-7.25 -16.87,-7.25 -5.63,0 -10.55,1.45 -14.76,4.35 -4.22,2.9 -8.79,7.51 -13.71,13.84l-15.02 -10.81c11.94,-17.75 26.97,-26.62 45.07,-26.62z"/>
    <path id="3" class="fil5" d="M3747.23 12758.31c11.25,5.09 19.55,11.55 24.91,19.37 5.36,7.82 8.04,17.18 8.04,28.07 0,15.11 -4.75,27.24 -14.24,36.38 -9.48,9.13 -22.05,13.7 -37.69,13.7 -15.46,0 -27.81,-4.52 -37.03,-13.57 -9.23,-9.05 -13.84,-21.04 -13.84,-35.98 0,-11.07 2.59,-20.38 7.78,-27.94 5.18,-7.56 12.87,-13.71 23.06,-18.45 -8.79,-4.92 -15.11,-10.68 -18.98,-17.26 -3.86,-6.59 -5.8,-14.46 -5.8,-23.6 0,-9.66 2.07,-17.92 6.2,-24.77 4.13,-6.85 9.62,-11.99 16.47,-15.42 6.86,-3.43 14.41,-5.14 22.67,-5.14 12.83,0 23.63,3.82 32.42,11.46 8.79,7.65 13.18,18.68 13.18,33.08 0,8.97 -2.15,16.65 -6.46,23.07 -4.3,6.41 -11.2,12.08 -20.69,17zm-18.45 -67.48c-7.38,0 -13.05,2.2 -17,6.59 -3.95,4.39 -5.93,11.69 -5.93,21.88 0,8.43 1.89,14.85 5.67,19.24 3.77,4.39 9.97,8.52 18.58,12.39l3.69 1.58c6.68,-4.39 11.38,-9.14 14.1,-14.23 2.72,-5.1 4.08,-11.51 4.08,-19.25 0,-9.84 -1.93,-17 -5.79,-21.48 -3.87,-4.48 -9.67,-6.72 -17.4,-6.72zm0 147.08c18.8,0 28.2,-10.63 28.2,-31.89 0,-9.49 -2.15,-16.92 -6.45,-22.28 -4.31,-5.36 -12,-10.41 -23.07,-15.15l-5.27 -2.37c-7.56,4.04 -13,9.26 -16.34,15.68 -3.34,6.41 -5.01,14.54 -5.01,24.38 0,21.09 9.31,31.63 27.94,31.63z"/>
   </g>
   <g id="А-29">
    <path class="fil3" d="M2218.31 12235.34l483.03 0c34.22,0 62.19,28.13 62.19,62.18l0 248.8c0,34.05 -28.12,62.19 -62.19,62.19l-483.03 0c-34.05,0 -62.19,-27.98 -62.19,-62.19l0 -248.8c0,-34.2 27.98,-62.18 62.19,-62.18z"/>
    <path class="fil4" d="M2218.31 12221.18l483.02 0c20.97,0 40.05,8.59 53.88,22.41 13.87,13.88 22.46,32.96 22.46,53.93l0 248.8c0,20.98 -8.59,40.05 -22.41,53.88 -13.88,13.87 -32.96,22.46 -53.93,22.46l-483.02 0c-20.95,0 -40.03,-8.59 -53.87,-22.42 -13.88,-13.89 -22.47,-32.97 -22.47,-53.92l0 -248.8c0,-20.93 8.59,-40.02 22.42,-53.86 13.89,-13.89 32.97,-22.48 53.92,-22.48zm483.02 28.31l-483.02 0c-13.24,0 -25.25,5.39 -33.91,14.07 -8.74,8.71 -14.13,20.74 -14.13,33.96l0 248.8c0,13.23 5.39,25.25 14.07,33.91 8.72,8.73 20.73,14.13 33.97,14.13l483.02 0c13.22,0 25.25,-5.41 33.95,-14.09 8.68,-8.7 14.08,-20.73 14.08,-33.95l0 -248.8c0,-13.22 -5.4,-25.25 -14.08,-33.95 -8.7,-8.67 -20.73,-14.08 -33.95,-14.08z"/>
    <path class="fil5" d="M2349.93 12511.16l-10.8 -46.13 -54.3 0 -10.81 46.13 -23.72 0 47.18 -181.61 29.78 0 47.18 181.61 -24.51 0zm-60.62 -65.37l45.33 0 -22.66 -96.2 -22.67 96.2z"/>
    <polygon id="1" class="fil5" points="2387.1,12438.41 2387.1,12418.91 2450.09,12418.91 2450.09,12438.41 "/>
    <path id="2" class="fil5" d="M2494.91 12332.19c13.88,0 24.91,4.39 33.08,13.18 8.17,8.78 12.25,20.03 12.25,33.74 0,10.72 -1.97,20.95 -5.93,30.7 -3.95,9.76 -9.97,20.39 -18.05,31.9 -8.09,11.51 -20.82,28.16 -38.22,49.95l65.63 0 -2.64 19.5 -87.77 0 0 -18.45c18.45,-23.55 31.9,-41.34 40.33,-53.38 8.43,-12.03 14.32,-22.44 17.66,-31.23 3.34,-8.79 5.01,-18.1 5.01,-27.94 0,-9.49 -2.02,-16.65 -6.06,-21.48 -4.05,-4.83 -9.67,-7.25 -16.87,-7.25 -5.63,0 -10.55,1.45 -14.76,4.35 -4.22,2.9 -8.79,7.51 -13.71,13.84l-15.02 -10.81c11.94,-17.75 26.97,-26.62 45.07,-26.62z"/>
    <path id="3" class="fil5" d="M2609.03 12332.19c15.99,0 28.12,5.93 36.38,17.79 8.26,11.86 12.39,28.86 12.39,51 0,23.9 -2.82,43.19 -8.44,57.86 -5.62,14.67 -14.19,26.36 -25.7,35.06 -11.51,8.69 -27.01,16.38 -46.52,23.06l-5.01 -17.4c19.51,-6.67 34.27,-15.42 44.28,-26.22 10.02,-10.81 15.82,-25.79 17.4,-44.94 -3.69,5.62 -8.17,10.1 -13.44,13.44 -5.27,3.34 -11.25,5.01 -17.93,5.01 -7.38,0 -14.23,-2.29 -20.56,-6.86 -6.32,-4.57 -11.42,-11.15 -15.28,-19.77 -3.87,-8.61 -5.8,-18.53 -5.8,-29.78 0,-12.65 2.11,-23.33 6.32,-32.02 4.22,-8.7 9.98,-15.25 17.27,-19.64 7.29,-4.39 15.51,-6.59 24.64,-6.59zm-1.84 96.47c11.07,0 20.21,-7.38 27.41,-22.14 0,-14.06 -0.88,-25.17 -2.64,-33.34 -1.75,-8.18 -4.48,-14.02 -8.17,-17.53 -3.69,-3.52 -8.52,-5.27 -14.49,-5.27 -8.09,0 -14.32,3.33 -18.72,10.01 -4.39,6.68 -6.59,16.87 -6.59,30.58 0,12.47 2.07,21.87 6.2,28.2 4.13,6.33 9.79,9.49 17,9.49z"/>
   </g>
   <g id="М-5_1">
    <path class="fil3" d="M5244.78 2908.77l483.03 0c34.22,0 62.19,28.13 62.19,62.18l0 248.8c0,34.05 -28.12,62.19 -62.19,62.19l-483.03 0c-34.06,0 -62.19,-27.98 -62.19,-62.19l0 -248.8c0,-34.2 27.98,-62.18 62.19,-62.18z"/>
    <path class="fil4" d="M5244.78 2894.61l483.02 0c20.97,0 40.05,8.6 53.88,22.41 13.87,13.88 22.46,32.96 22.46,53.93l0 248.8c0,20.98 -8.59,40.05 -22.41,53.88 -13.88,13.87 -32.96,22.46 -53.93,22.46l-483.02 0c-20.95,0 -40.03,-8.59 -53.87,-22.42 -13.88,-13.89 -22.47,-32.97 -22.47,-53.92l0 -248.8c0,-20.93 8.59,-40.02 22.41,-53.86 13.9,-13.88 32.98,-22.48 53.93,-22.48zm483.02 28.31l-483.02 0c-13.24,0 -25.25,5.39 -33.91,14.07 -8.74,8.71 -14.13,20.74 -14.13,33.96l0 248.8c0,13.23 5.39,25.25 14.07,33.91 8.72,8.73 20.73,14.13 33.97,14.13l483.02 0c13.22,0 25.25,-5.41 33.95,-14.09 8.67,-8.7 14.08,-20.73 14.08,-33.95l0 -248.8c0,-13.22 -5.41,-25.25 -14.08,-33.95 -8.7,-8.67 -20.73,-14.08 -33.95,-14.08z"/>
    <path class="fil5" d="M5457.28 3184.59l-22.67 0 -4.75 -82.5c-2.28,-34.09 -3.25,-58.95 -2.9,-74.59l-30.83 136.53 -22.41 0 -32.42 -136.8 0.26 12.13c0,13.7 -0.7,35.14 -2.1,64.31l-4.49 80.92 -22.66 0 12.39 -181.61 31.1 0 29.52 133.11 27.94 -133.11 31.89 0 12.13 181.61z"/>
    <polygon id="1" class="fil5" points="5484.95,3111.84 5484.95,3092.34 5547.94,3092.34 5547.94,3111.84 "/>
    <path id="2" class="fil5" d="M5651.53 3026.71l-55.61 0 0 52.71c3.69,-2.46 7.33,-4.22 10.94,-5.27 3.6,-1.05 7.51,-1.58 11.73,-1.58 12.47,0 22.53,4.92 30.18,14.76 7.64,9.84 11.46,23.46 11.46,40.85 0,11.6 -2.15,21.92 -6.46,30.97 -4.3,9.05 -10.41,16.08 -18.31,21.09 -7.91,5.01 -16.96,7.51 -27.15,7.51 -9.32,0 -17.4,-1.84 -24.25,-5.53 -6.86,-3.69 -13.53,-9.32 -20.03,-16.87l13.7 -12.39c4.75,5.45 9.45,9.45 14.1,11.99 4.66,2.55 9.97,3.83 15.95,3.83 8.96,0 15.95,-3.48 20.95,-10.42 5.01,-6.94 7.52,-17.17 7.52,-30.7 0,-13.71 -2.2,-23.37 -6.59,-29 -4.4,-5.62 -10.55,-8.43 -18.45,-8.43 -3.69,0 -7.12,0.53 -10.28,1.58 -3.17,1.05 -6.51,2.64 -10.02,4.74l-17.13 0 0 -88.3 80.92 0 -3.17 18.46z"/>
   </g>
  </g>
 </g>
</svg>
