<?xml version="1.0" encoding="UTF-8"?>
<!DOCTYPE svg PUBLIC "-//W3C//DTD SVG 1.1//EN" "http://www.w3.org/Graphics/SVG/1.1/DTD/svg11.dtd">
<!-- Creator: CorelDRAW 2018 (64-Bit) -->
<svg xmlns="http://www.w3.org/2000/svg" xml:space="preserve" width="247.564mm" height="160.313mm" version="1.1" style="shape-rendering:geometricPrecision; text-rendering:geometricPrecision; image-rendering:optimizeQuality; fill-rule:evenodd; clip-rule:evenodd"
viewBox="0 0 24756.4 16031.28"
 xmlns:xlink="http://www.w3.org/1999/xlink">
 <defs>
  <style type="text/css">
   <![CDATA[
    .fil2 {fill:#FEFEFE;fill-rule:nonzero}
    .fil1 {fill:#585757;fill-rule:nonzero}
    .fil0 {fill:#549FD0;fill-rule:nonzero}
   ]]>
  </style>
 </defs>
 <g id="Слой_x0020_1">
  <metadata id="CorelCorpID_0Corel-Layer"/>
  <g id="_2_Аэропорты">
   <g id="Asset_x0020_24_x0020_новый_eps.eps">
    <path class="fil0" d="M17976.88 11088.12c-220.34,0.24 -398.91,178.8 -399.15,399.15 0,116.65 65.61,245.61 194.36,382.16 58.36,61.64 122.14,117.91 190.57,168.12l17.8 12.91 17.86 -12.47c67.44,-49.19 130.09,-104.62 187.14,-165.56 126.49,-135.46 190.57,-265.16 190.57,-385.16 -0.24,-220.35 -178.81,-398.91 -399.15,-399.15z"/>
    <path class="fil1" d="M17976.88 11126.4c-199.2,0.23 -360.63,161.66 -360.87,360.87 0,240.58 323.4,485.76 364.52,515.87 40.45,-30.33 357.23,-275.29 357.23,-515.87 -0.24,-199.21 -161.67,-360.64 -360.88,-360.87zm3.65 893.07c-1.52,0.01 -2.99,-0.44 -4.23,-1.31 -67.11,-49.38 -129.74,-104.59 -187.15,-164.98 -85.51,-90.77 -187.73,-227.9 -187.73,-365.91 0,-207.36 168.1,-375.46 375.46,-375.46 207.36,0 375.46,168.1 375.46,375.46 0,137.94 -100.17,275.07 -184.16,365.84 -56.14,60.29 -117.49,115.5 -183.35,164.98 -1.25,0.9 -2.76,1.39 -4.3,1.38z"/>
    <path class="fil2" d="M18078.66 11629.58l-21.87 21.87 -36.46 -176.28 58.33 -58.33 0 212.74zm-171.11 -62.04c-1.35,1.36 -2.11,3.19 -2.11,5.1l0 63.64 -16.04 16.04 -21.88 -71 30.26 -30.19 -10.21 -10.28 -30.25 30.26 -70.94 -21.87 16.04 -16.04 63.57 0c1.94,0.01 3.8,-0.75 5.18,-2.12l233.29 -233.29c7.3,-7.29 30.33,-10.28 47.46,-11.01 -0.79,17.06 -4,40.39 -11.08,47.4l-233.29 233.36zm-120.22 -185.83l21.87 -21.87 212.59 0 -58.32 58.32 -176.14 -36.45zm363.65 -37.11c14.94,-15.02 15.38,-60 15.38,-65.11 0,-4.02 -3.26,-7.29 -7.29,-7.29 -5.03,0 -50.09,0.44 -65.03,15.46l-57.89 57.81 -230.08 0c-1.92,0.01 -3.75,0.77 -5.11,2.12l-33.32 33.31c-1.9,1.91 -2.6,4.71 -1.82,7.29 0.79,2.52 2.89,4.42 5.47,4.96l180.08 37.62 -88.36 87.99 -63.58 0c-1.91,0.01 -3.74,0.77 -5.1,2.12l-26.69 26.54c-1.77,1.8 -2.49,4.39 -1.89,6.85 0.62,2.46 2.47,4.42 4.89,5.18l75.16 23.1 -24.86 24.79 10.2 10.21 24.87 -24.79 23.11 75.09c0.76,2.42 2.72,4.28 5.17,4.89 2.4,0.76 5.01,0.24 6.93,-1.39l26.61 -26.61c1.35,-1.36 2.11,-3.19 2.11,-5.1l0 -64.01 88.29 -88.36 37.26 180.08c0.55,2.59 2.47,4.7 5.02,5.46 0.68,0.11 1.37,0.11 2.05,0 1.91,-0.01 3.74,-0.76 5.1,-2.11l33.32 -33.32c1.35,-1.36 2.1,-3.19 2.11,-5.11l0 -229.86 57.89 -57.81z"/>
    <polygon class="fil2" points="18114.02,11311.21 18124.23,11301 18137.53,11314.3 18127.32,11324.51 "/>
   </g>
   <g id="Asset_x0020_24_x0020_новый_eps.eps_0">
    <path class="fil0" d="M11372.18 9416.19c-220.34,0.24 -398.91,178.8 -399.15,399.15 0,116.65 65.61,245.61 194.36,382.16 58.36,61.64 122.14,117.91 190.57,168.12l17.8 12.91 17.86 -12.47c67.44,-49.19 130.09,-104.62 187.14,-165.56 126.49,-135.46 190.57,-265.16 190.57,-385.16 -0.24,-220.35 -178.81,-398.91 -399.15,-399.15z"/>
    <path class="fil1" d="M11372.18 9454.47c-199.2,0.23 -360.63,161.66 -360.87,360.87 0,240.58 323.4,485.76 364.52,515.87 40.45,-30.33 357.23,-275.29 357.23,-515.87 -0.24,-199.21 -161.67,-360.64 -360.88,-360.87zm3.65 893.07c-1.52,0.01 -2.99,-0.44 -4.23,-1.31 -67.11,-49.38 -129.74,-104.59 -187.15,-164.98 -85.51,-90.77 -187.73,-227.9 -187.73,-365.91 0,-207.36 168.1,-375.46 375.46,-375.46 207.36,0 375.46,168.1 375.46,375.46 0,137.94 -100.17,275.07 -184.16,365.84 -56.14,60.29 -117.49,115.5 -183.35,164.98 -1.25,0.9 -2.76,1.39 -4.3,1.38z"/>
    <path class="fil2" d="M11473.96 9957.65l-21.87 21.87 -36.46 -176.28 58.33 -58.33 0 212.74zm-171.11 -62.04c-1.35,1.36 -2.11,3.19 -2.11,5.1l0 63.64 -16.04 16.04 -21.88 -71 30.26 -30.19 -10.21 -10.28 -30.25 30.26 -70.94 -21.87 16.04 -16.04 63.57 0c1.94,0.01 3.8,-0.75 5.18,-2.12l233.29 -233.29c7.3,-7.29 30.33,-10.28 47.46,-11.01 -0.79,17.06 -4,40.39 -11.08,47.4l-233.29 233.36zm-120.22 -185.83l21.87 -21.87 212.59 0 -58.32 58.32 -176.14 -36.45zm363.65 -37.11c14.94,-15.02 15.38,-60 15.38,-65.11 0,-4.02 -3.26,-7.29 -7.29,-7.29 -5.03,0 -50.09,0.44 -65.03,15.46l-57.89 57.81 -230.08 0c-1.92,0.01 -3.75,0.77 -5.11,2.12l-33.32 33.31c-1.9,1.91 -2.6,4.71 -1.82,7.29 0.79,2.52 2.89,4.42 5.47,4.96l180.08 37.62 -88.36 87.99 -63.58 0c-1.91,0.01 -3.74,0.77 -5.1,2.12l-26.69 26.54c-1.77,1.8 -2.49,4.39 -1.89,6.85 0.62,2.46 2.47,4.42 4.89,5.18l75.16 23.1 -24.86 24.79 10.2 10.21 24.87 -24.79 23.11 75.09c0.76,2.42 2.72,4.28 5.17,4.89 2.4,0.76 5.01,0.24 6.93,-1.39l26.61 -26.61c1.35,-1.36 2.11,-3.19 2.11,-5.1l0 -64.01 88.29 -88.36 37.26 180.08c0.55,2.59 2.47,4.7 5.02,5.46 0.68,0.11 1.37,0.11 2.05,0 1.91,-0.01 3.74,-0.76 5.1,-2.11l33.32 -33.32c1.35,-1.36 2.1,-3.19 2.11,-5.11l0 -229.86 57.89 -57.81z"/>
    <polygon class="fil2" points="11509.32,9639.28 11519.53,9629.07 11532.83,9642.37 11522.62,9652.58 "/>
   </g>
  </g>
 </g>
</svg>
