<?xml version="1.0" encoding="UTF-8"?>
<!DOCTYPE svg PUBLIC "-//W3C//DTD SVG 1.1//EN" "http://www.w3.org/Graphics/SVG/1.1/DTD/svg11.dtd">
<!-- Creator: CorelDRAW 2018 (64-Bit) -->
<svg xmlns="http://www.w3.org/2000/svg" xml:space="preserve" width="247.564mm" height="160.313mm" version="1.1" style="shape-rendering:geometricPrecision; text-rendering:geometricPrecision; image-rendering:optimizeQuality; fill-rule:evenodd; clip-rule:evenodd"
viewBox="0 0 24756.4 16031.28"
 xmlns:xlink="http://www.w3.org/1999/xlink">
 <defs>
  <style type="text/css">
   <![CDATA[
    .fil2 {fill:#49A2DC}
    .fil1 {fill:white}
    .fil3 {fill:#363636;fill-rule:nonzero}
    .fil0 {fill:#49A2DC;fill-rule:nonzero}
   ]]>
  </style>
 </defs>
 <g id="Слой_x0020_1">
  <metadata id="CorelCorpID_0Corel-Layer"/>
  <g id="_1_Оренбург">
   <path class="fil0" d="M11024.36 10403.83c74.24,-36.45 156.37,-39.32 228.93,-14.56 72.69,24.79 136.03,77.36 172.53,151.69 36.43,74.22 39.31,156.37 14.55,228.91 -24.8,72.7 -77.38,136.04 -151.69,172.55 -74.24,36.45 -156.38,39.32 -228.93,14.56 -72.67,-24.81 -136.01,-77.4 -172.52,-151.71 -36.45,-74.23 -39.34,-156.39 -14.58,-228.91 24.8,-72.68 77.38,-136.02 151.71,-172.53zm194.99 85.55c-47.31,-16.13 -100.67,-14.36 -148.65,9.18 -47.87,23.51 -81.83,64.56 -97.93,111.74 -16.14,47.28 -14.37,100.66 9.2,148.64 23.51,47.87 64.55,81.83 111.71,97.93 47.32,16.14 100.68,14.36 148.66,-9.18 47.85,-23.51 81.81,-64.55 97.91,-111.76 16.14,-47.31 14.39,-100.67 -9.16,-148.64 -23.49,-47.85 -64.53,-81.8 -111.74,-97.91z"/>
   <path class="fil1" d="M11047.54 10451.19c122.2,-60.01 270.87,-9.3 330.91,112.94 60.01,122.21 9.27,270.9 -112.94,330.92 -122.24,60.03 -270.9,9.26 -330.91,-112.94 -60.04,-122.25 -9.31,-270.89 112.94,-330.92z"/>
   <path class="fil1" d="M11047.66 10448.98c61.49,-29.93 129.32,-32.26 189.19,-11.82 60.34,20.56 113,64.33 143.41,126.24 30.29,61.74 32.73,129.92 12.22,190.03 -20.6,60.37 -64.37,113.03 -126.25,143.41 -61.77,30.33 -129.95,32.75 -190.04,12.24 -60.36,-20.61 -113,-64.34 -143.38,-126.22l-0.38 -0.79c-29.98,-61.53 -32.29,-129.41 -11.89,-189.28 20.6,-60.36 64.35,-112.98 126.25,-143.4l0.87 -0.41zm39.19 82.29c78.13,-38.36 173.15,-5.96 211.53,72.18 38.35,78.12 5.91,173.16 -72.2,211.51 -78.14,38.38 -173.16,5.93 -211.5,-72.18 -38.39,-78.14 -5.95,-173.14 72.17,-211.51z"/>
   <path class="fil2" d="M11086.86 10531.27c78.11,-38.36 173.14,-5.95 211.51,72.18 38.37,78.12 5.93,173.16 -72.19,211.52 -78.13,38.37 -173.15,5.92 -211.51,-72.19 -38.37,-78.14 -5.94,-173.14 72.19,-211.51z"/>
   <path class="fil3" d="M9272.36 10480.01c0,36.76 -11.57,67.24 -34.64,91.37 -23.07,24.2 -52.99,36.26 -89.82,36.26 -36.05,0 -65.4,-12.06 -87.91,-36.26 -22.57,-24.13 -33.79,-54.61 -33.79,-91.37l0 -54.19c0,-36.61 11.22,-67.02 33.79,-91.3 22.51,-24.2 51.79,-36.33 87.7,-36.33 36.83,0 66.82,12.13 89.96,36.33 23.14,24.28 34.71,54.69 34.71,91.3l0 54.19zm-50.02 -54.47c0,-25.05 -6.7,-45.58 -20.18,-61.73 -13.4,-16.09 -31.54,-24.13 -54.47,-24.13 -22.01,0 -39.44,8.04 -52.28,24.13 -12.77,16.15 -19.19,36.68 -19.19,61.73l0 54.54c0,25.33 6.42,46.07 19.19,62.23 12.84,16.16 30.34,24.27 52.49,24.27 23.08,0 41.21,-8.04 54.47,-24.13 13.34,-16.16 19.97,-36.9 19.97,-62.37l0 -54.54z"/>
   <path id="1" class="fil3" d="M9516.27 10498.99c0,32.52 -7.62,58.7 -22.93,78.67 -15.31,19.96 -36.55,29.98 -63.85,29.98 -12.7,0 -23.92,-2.25 -33.73,-6.84 -9.74,-4.52 -18.13,-11.22 -25.19,-20.04l0 108.59 -50.23 0 0 -309.46 42.4 0 4.94 28.08c7.13,-10.44 15.8,-18.48 25.96,-23.99 10.09,-5.57 21.88,-8.32 35.21,-8.32 27.59,0 49.04,10.93 64.42,32.74 15.31,21.8 23,50.58 23,86.21l0 4.38zm-50.02 -4.45c0,-22.86 -4.31,-41.48 -12.92,-56.02 -8.6,-14.53 -21.44,-21.8 -38.52,-21.8 -10.51,0 -19.4,2.26 -26.67,6.7 -7.34,4.52 -13.19,10.73 -17.57,18.7l0 100.97c4.38,7.83 10.23,13.82 17.57,18.06 7.27,4.16 16.3,6.28 27.09,6.28 17.08,0 29.85,-6.28 38.32,-18.91 8.46,-12.56 12.7,-29.14 12.7,-49.6l0 -4.38z"/>
   <path id="2" class="fil3" d="M9655.97 10607.64c-31.68,0 -56.94,-10.37 -75.7,-31.11 -18.84,-20.67 -28.23,-47.34 -28.23,-79.8l0 -8.25c0,-32.53 9.32,-59.48 28.02,-80.93 18.62,-21.38 42.05,-32.03 70.13,-31.89 30.19,0 53.34,9.1 69.35,27.37 16.09,18.28 24.13,42.76 24.13,73.45l0 29.56 -139.56 0 -0.42 1.06c0.85,17.71 6.07,32.18 15.59,43.46 9.6,11.22 22.86,16.87 39.8,16.87 13.54,0 25.11,-1.63 34.71,-4.94 9.67,-3.32 18.98,-8.12 27.94,-14.32l16.16 32.94c-8.47,7.48 -19.62,13.76 -33.52,18.84 -13.9,5.15 -30.05,7.69 -48.4,7.69zm-5.78 -191.77c-12.35,0 -22.58,4.94 -30.55,14.82 -7.98,9.81 -12.99,22.3 -14.89,37.47l0.42 1.05 88.69 0 0 -5.15c0,-14.18 -3.67,-25.82 -10.87,-34.78 -7.26,-8.96 -18.2,-13.41 -32.8,-13.41z"/>
   <polygon id="3" class="fil3" points="9971.21,10603.41 9921.04,10603.41 9921.04,10513.24 9833.98,10513.24 9833.98,10603.41 9783.74,10603.41 9783.74,10379.89 9833.98,10379.89 9833.98,10473.02 9921.04,10473.02 9921.04,10379.89 9971.21,10379.89 "/>
   <path id="4" class="fil3" d="M10125.59 10392.17c29.77,0 53.2,9.59 70.34,28.78 17.08,19.27 25.61,43.96 25.61,74.09l0 4.37c0,31.96 -9.17,57.93 -27.37,78.04 -18.28,20.1 -43.32,30.19 -75.14,30.19 -31.97,0 -57.08,-10.02 -75.36,-30.12 -18.27,-20.11 -27.37,-46.15 -27.37,-78.11l0 -29.07c0,-46.85 9.31,-83.39 28.08,-109.78 18.77,-26.32 43.6,-42.62 74.65,-48.82 15.52,-2.61 26.88,-5.93 34,-9.95 7.06,-4.02 10.59,-10.59 10.59,-19.69l38.87 0 0.43 1.27c0.56,25.76 -5.37,42.76 -17.78,50.94 -12.42,8.19 -32.67,14.68 -60.75,19.34 -16.93,3.03 -31.12,9.66 -42.41,20.03 -11.28,10.3 -18.34,24.98 -21.23,44.1l0.56 1.06c8.19,-7.9 17.78,-14.25 28.93,-19.26 11.22,-4.94 23,-7.41 35.35,-7.41zm-6.99 40.21c-17.49,0 -30.55,5.93 -39.16,17.78 -8.6,11.79 -12.91,26.74 -12.91,44.81l0 4.3c0,20.11 4.24,36.48 12.77,49.18 8.54,12.63 21.81,18.98 39.73,18.98 17.49,0 30.62,-6.35 39.37,-18.98 8.74,-12.7 13.12,-29.07 13.12,-49.18l0 -4.3c0,-18.21 -4.38,-33.16 -13.12,-44.95 -8.75,-11.78 -22.02,-17.64 -39.8,-17.64z"/>
   <path id="5" class="fil3" d="M10335.63 10513.88l4.94 22.29 1.27 0 48.97 -156.28 54.96 0 -92.57 257.32c-5.93,15.52 -14.25,28.85 -25.05,39.86 -10.72,11.01 -25.96,16.51 -45.65,16.51 -4.16,0 -8.6,-0.42 -13.33,-1.27 -4.73,-0.78 -9.31,-1.76 -13.76,-2.89l5.57 -39.02c1.84,0.14 4.38,0.35 7.7,0.63 3.24,0.29 5.78,0.43 7.4,0.43 9.11,0 16.37,-3.11 21.81,-9.24 5.43,-6.14 9.87,-13.27 13.33,-21.31l8.25 -20.04 -81.2 -220.98 54.75 0 42.61 133.99z"/>
   <path id="6" class="fil3" d="M10671.9 10498.99c0,32.52 -7.62,58.7 -22.93,78.67 -15.31,19.96 -36.55,29.98 -63.85,29.98 -12.7,0 -23.92,-2.25 -33.73,-6.84 -9.74,-4.52 -18.13,-11.22 -25.19,-20.04l0 108.59 -50.23 0 0 -309.46 42.4 0 4.94 28.08c7.13,-10.44 15.8,-18.48 25.96,-23.99 10.09,-5.57 21.88,-8.32 35.21,-8.32 27.59,0 49.04,10.93 64.42,32.74 15.31,21.8 23,50.58 23,86.21l0 4.38zm-50.02 -4.45c0,-22.86 -4.31,-41.48 -12.92,-56.02 -8.6,-14.53 -21.44,-21.8 -38.52,-21.8 -10.51,0 -19.4,2.26 -26.67,6.7 -7.34,4.52 -13.19,10.73 -17.57,18.7l0 100.97c4.38,7.83 10.23,13.82 17.57,18.06 7.27,4.16 16.3,6.28 27.09,6.28 17.08,0 29.85,-6.28 38.32,-18.91 8.46,-12.56 12.7,-29.14 12.7,-49.6l0 -4.38z"/>
   <polygon id="7" class="fil3" points="10862.47,10420.11 10765.53,10420.11 10765.53,10603.41 10715.29,10603.41 10715.29,10379.89 10862.47,10379.89 "/>
  </g>
 </g>
</svg>
