<svg width="58" height="61" viewBox="0 0 58 61" fill="none" xmlns="http://www.w3.org/2000/svg">
<path d="M36.3985 32.8407C36.3985 25.1721 30.1341 18.9077 22.4656 18.9077C14.797 18.9077 8.64062 25.1721 8.64062 32.8407C8.64062 40.5092 14.9051 46.7736 22.5736 46.7736C30.2421 46.7736 36.3985 40.4012 36.3985 32.8407ZM22.5736 44.8295C15.9851 44.8295 10.5848 39.4291 10.5848 32.8407C10.5848 26.2522 15.9851 20.8518 22.5736 20.8518C29.162 20.8518 34.5624 26.1442 34.5624 32.8407C34.5624 39.5371 29.162 44.8295 22.5736 44.8295Z" fill="#535859"/>
<path d="M45.3631 32.9487V37.269V39.1051V41.5893H44.4991C43.527 31.0046 41.2588 23.228 38.3426 20.2038C35.5345 17.3956 29.594 14.5875 27.7579 13.7234V10.3752L32.5102 3.24667L26.8939 0.438477L22.5736 2.59863L18.2533 0.438477L12.6369 3.24667L17.2812 10.3752V13.8314C15.4451 14.6955 9.61266 17.3956 6.69646 20.3118C3.45624 23.5521 0 34.2448 0 54.4422C0 58.0064 2.70019 60.8146 6.37244 60.8146H23.7616H24.7337H34.5624H36.3985H45.3631H47.1993H58V56.4943V54.6582V52.174V50.3379V47.8537V46.0176V43.5334V41.6973V39.2132V37.377V33.0567H45.3631V32.9487ZM45.3631 45.9096H36.3985V43.4254H45.3631V45.9096ZM45.3631 50.2299H36.3985V47.7457H45.3631V50.2299ZM45.3631 54.5502H36.3985V52.066H45.3631V54.5502ZM34.5624 54.5502H25.5978V52.066H34.5624V54.5502ZM18.2533 2.49062L22.5736 4.65077L26.8939 2.49062L29.9181 4.00272L26.4618 9.18708H18.7933L15.3371 4.00272L18.2533 2.49062ZM25.9218 11.0232V13.5074H19.1173V11.0232H25.9218ZM6.37244 58.8705C3.78026 58.8705 1.94413 57.0344 1.94413 54.4422C1.94413 34.7848 5.29236 24.5241 8.20857 21.6079C11.0168 18.7997 17.4972 15.8835 18.5773 15.3435H26.7858C27.8659 15.7755 34.3464 18.6917 37.1546 21.6079C38.1266 22.58 41.4749 27.0083 42.7709 41.5893H34.5624V45.9096V47.7457V50.2299H23.7616V54.5502V56.3863V58.8705H6.37244ZM34.5624 58.8705H25.5978V56.3863H34.5624V58.8705ZM45.3631 58.8705H36.3985V56.3863H45.3631V58.8705ZM56.1639 58.8705H47.1993V56.3863H56.1639V58.8705ZM56.1639 54.5502H47.1993V52.066H56.1639V54.5502ZM56.1639 50.2299H47.1993V47.7457H56.1639V50.2299ZM56.1639 45.9096H47.1993V43.4254H56.1639V45.9096ZM56.1639 41.5893H47.1993V39.1051H56.1639V41.5893ZM47.1993 37.269V34.7848H56.1639V37.269H47.1993Z" fill="#535859"/>
<path d="M22.7904 24.2001H19.0102V26.0362H19.9822V36.6209H18.0381V38.4571H19.9822V40.4012H21.8183V38.4571H23.7625V36.6209H21.8183V34.6768H22.7904C25.7066 34.6768 27.9748 32.3006 27.9748 29.4924C27.9748 26.5762 25.5986 24.2001 22.7904 24.2001ZM22.7904 32.8407H21.8183V26.0362H22.7904C24.6265 26.0362 26.1386 27.5483 26.1386 29.3844C26.1386 31.3286 24.6265 32.8407 22.7904 32.8407Z" fill="#535859"/>
</svg>
