<svg width="33" height="33" viewBox="0 0 33 33" fill="none" xmlns="http://www.w3.org/2000/svg">
<path d="M24.3609 33H8.63905C3.86968 33 0 29.1303 0 24.3609V8.63905C0 3.86968 3.86968 0 8.63905 0H24.3609C29.1303 0 33 3.86968 33 8.63905V24.3609C33 29.1303 29.1303 33 24.3609 33Z" fill="#C4C4C4"/>
<path d="M14.728 5.03662H20.2512C20.4978 5.03662 20.6611 5.2902 20.5638 5.51599L16.5865 14.4607H23.242C23.5199 14.4607 23.6832 14.7768 23.5165 15.0026L13.1961 29.0641C12.7203 29.7137 11.7059 29.1718 11.9804 28.4145L15.5374 18.65H9.75373C9.51404 18.65 9.35078 18.4103 9.43415 18.188L14.4085 5.25894C14.4606 5.12346 14.5856 5.03662 14.728 5.03662Z" fill="white"/>
</svg>
