<svg width="34" height="33" viewBox="0 0 34 33" fill="none" xmlns="http://www.w3.org/2000/svg">
<path d="M24.3609 33H8.63905C3.86621 33 0 29.1303 0 24.3609V8.63905C0 3.86968 3.86968 0 8.64253 0H24.3644C29.1373 0 33.0035 3.86968 33.0035 8.63905V24.3609C33 29.1303 29.1338 33 24.3609 33Z" fill="#19A5E0"/>
<path d="M16.5013 4.34204C16.5013 4.34204 6.25391 11.6368 6.25391 19.4526C6.25391 24.538 10.8426 28.6578 16.5013 28.6578C12.8643 28.6578 9.91517 26.0074 9.91517 22.7387C9.91517 17.7157 16.5013 13.0263 16.5013 13.0263C16.5013 13.0263 23.0874 17.7157 23.0874 22.7387C23.0874 26.0074 20.1382 28.6578 16.5013 28.6578C22.1599 28.6578 26.7486 24.538 26.7486 19.4526C26.7486 11.6368 16.5013 4.34204 16.5013 4.34204Z" fill="white"/>
<path d="M20.7436 23.9754C20.7436 26.0805 18.8435 27.7895 16.4987 27.7895C14.154 27.7895 12.2539 26.0805 12.2539 23.9754C12.2539 20.7379 16.4987 17.7158 16.4987 17.7158C16.4987 17.7158 20.7436 20.7379 20.7436 23.9754Z" fill="white"/>
</svg>
