<svg width="34" height="33" viewBox="0 0 34 33" fill="none" xmlns="http://www.w3.org/2000/svg">
<path d="M24.3609 33H8.63906C3.86622 33 0 29.1303 0 24.3609V8.63905C0 3.86968 3.86969 0 8.64253 0H24.3644C29.1373 0 33.0035 3.86968 33.0035 8.63905V24.3609C33 29.1303 29.1338 33 24.3609 33Z" fill="#D22929"/>
<path d="M28.3172 9.3786C28.7995 9.3786 29.1901 8.988 29.1901 8.50575V7.47143C29.1901 6.98919 28.7995 6.59859 28.3172 6.59859H28.147V6.25164C28.147 5.10167 27.2131 4.16772 26.0631 4.16772H25.3692C24.2192 4.16772 23.2853 5.10167 23.2853 6.25164V6.59859H22.0109V6.25164C22.0109 5.10167 21.077 4.16772 19.927 4.16772H19.2331C18.081 4.16772 17.1492 5.10167 17.1492 6.25164V6.59859H15.8748V6.25164C15.8748 5.10167 14.9409 4.16772 13.7909 4.16772H13.097C11.9471 4.16772 11.0131 5.10167 11.0131 6.25164V6.59859H9.73877V6.25164C9.73877 5.10167 8.80482 4.16772 7.65485 4.16772H6.96094C5.81097 4.16772 4.87703 5.10167 4.87703 6.25164V6.59859H4.70683C4.22458 6.59859 3.83398 6.98919 3.83398 7.47143V8.50575C3.83398 8.988 4.22458 9.3786 4.70683 9.3786H4.87703V23.3223C4.27913 23.4772 3.83398 24.0162 3.83398 24.6621C3.83398 25.308 4.27695 25.847 4.87703 26.0019V26.399C4.87703 27.549 5.81097 28.4829 6.96094 28.4829H7.65485C8.80482 28.4829 9.73877 27.549 9.73877 26.399V26.0521H11.0131V26.399C11.0131 27.549 11.9471 28.4829 13.097 28.4829H13.7909C14.9431 28.4829 15.8748 27.549 15.8748 26.399V26.0521H17.1492V26.399C17.1492 27.549 18.0831 28.4829 19.2331 28.4829H19.927C21.077 28.4829 22.0109 27.549 22.0109 26.399V26.0521H23.2853V26.399C23.2853 27.549 24.2192 28.4829 25.3692 28.4829H26.0631C27.2131 28.4829 28.147 27.549 28.147 26.399V26.0019C28.7449 25.847 29.1901 25.308 29.1901 24.6621C29.1901 24.0162 28.7471 23.4772 28.147 23.3223V9.3786H28.3172ZM7.73777 26.7482C7.73777 27.0209 7.51738 27.2413 7.24462 27.2413C6.97185 27.2413 6.75146 27.0209 6.75146 26.7482V6.25164C6.75146 5.97887 6.97185 5.75848 7.24462 5.75848C7.51738 5.75848 7.73777 5.97887 7.73777 6.25164V26.7482ZM11.0109 23.2743H9.73658V9.3786H11.0109V23.2743ZM13.8782 26.7482C13.8782 27.0209 13.6578 27.2413 13.3851 27.2413C13.1123 27.2413 12.8919 27.0209 12.8919 26.7482V6.25164C12.8919 5.97887 13.1123 5.75848 13.3851 5.75848C13.6578 5.75848 13.8782 5.97887 13.8782 6.25164V26.7482ZM17.1492 23.2743H15.8748V9.3786H17.1492V23.2743ZM20.13 26.7482C20.13 27.0209 19.9096 27.2413 19.6368 27.2413C19.364 27.2413 19.1436 27.0209 19.1436 26.7482V6.25164C19.1436 5.97887 19.364 5.75848 19.6368 5.75848C19.9096 5.75848 20.13 5.97887 20.13 6.25164V26.7482ZM23.2853 23.2743H22.0109V9.3786H23.2853V23.2743ZM26.2093 26.7482C26.2093 27.0209 25.9889 27.2413 25.7162 27.2413C25.4434 27.2413 25.223 27.0209 25.223 26.7482V6.25164C25.223 5.97887 25.4434 5.75848 25.7162 5.75848C25.9889 5.75848 26.2093 5.97887 26.2093 6.25164V26.7482Z" fill="white"/>
</svg>
