<svg id="Layer_1" data-name="Layer 1" xmlns="http://www.w3.org/2000/svg" viewBox="0 0 26 27"><defs><style>.cls-1{fill:#fff;}</style></defs><path class="cls-1" d="M13,2.34c3.47,0,3.87,0,5.25.08a7,7,0,0,1,2.42.46,4,4,0,0,1,1.5,1,4,4,0,0,1,1,1.51,7.48,7.48,0,0,1,.46,2.42c.05,1.38.08,1.78.08,5.26s0,3.87-.08,5.25a7,7,0,0,1-.46,2.42,4,4,0,0,1-1,1.51,4,4,0,0,1-1.5,1,7.48,7.48,0,0,1-2.42.46c-1.38.05-1.78.08-5.25.08s-3.87,0-5.24-.08a7,7,0,0,1-2.42-.46,4,4,0,0,1-1.51-1,4.11,4.11,0,0,1-1-1.51,7.48,7.48,0,0,1-.46-2.42c-.06-1.38-.08-1.78-.08-5.25s0-3.88.08-5.26a6.73,6.73,0,0,1,.46-2.42,4.11,4.11,0,0,1,1-1.51,4,4,0,0,1,1.51-1,7.48,7.48,0,0,1,2.42-.46C9.14,2.34,9.54,2.34,13,2.34ZM13,0C9.49,0,9,0,7.66.08A10.07,10.07,0,0,0,4.52.67,6.36,6.36,0,0,0,2.2,2.18,6.74,6.74,0,0,0,.7,4.5,9.1,9.1,0,0,0,.11,7.65C.05,9.05,0,9.48,0,13s0,4,.08,5.36A9.92,9.92,0,0,0,.7,21.52a6.33,6.33,0,0,0,1.5,2.32,6.74,6.74,0,0,0,2.32,1.5,9.25,9.25,0,0,0,3.14.6C9.06,26,9.49,26,13,26s4,0,5.35-.08a10.11,10.11,0,0,0,3.15-.6,6.21,6.21,0,0,0,2.31-1.5,6.63,6.63,0,0,0,1.51-2.32,9.39,9.39,0,0,0,.59-3.15C26,17,26,16.54,26,13s0-4-.08-5.36a10.14,10.14,0,0,0-.59-3.15,6.36,6.36,0,0,0-1.51-2.32A6.5,6.5,0,0,0,21.51.67,9.34,9.34,0,0,0,18.36.08C17,0,16.53,0,13,0Z"/><path class="cls-1" d="M13,6.33A6.68,6.68,0,1,0,19.68,13,6.68,6.68,0,0,0,13,6.33Zm0,11A4.34,4.34,0,1,1,17.34,13,4.33,4.33,0,0,1,13,17.34Z"/><path class="cls-1" d="M21.51,6.06A1.56,1.56,0,1,1,20,4.5,1.56,1.56,0,0,1,21.51,6.06Z"/></svg>