<svg width="73" height="51" viewBox="0 0 73 51" fill="none" xmlns="http://www.w3.org/2000/svg">
<path d="M58.8152 30.8653C62.479 30.8653 65.3657 27.3125 65.3657 22.6494C65.3657 19.0965 64.5885 15.5437 58.8152 15.5437C53.0418 15.5437 52.2646 19.0965 52.2646 22.6494C52.2646 27.3125 55.0403 30.8653 58.8152 30.8653ZM58.8152 17.5422C62.368 17.5422 63.4783 18.7635 63.4783 22.7604C63.4783 25.8691 61.8129 29.0889 58.8152 29.0889C55.8175 29.0889 54.1521 25.8691 54.1521 22.7604C54.1521 18.7635 55.2623 17.5422 58.8152 17.5422Z" fill="#535859"/>
<path d="M72.0274 38.8591C72.0274 38.6371 72.0274 33.7519 68.0304 32.4196C67.0312 32.0865 65.8099 31.4204 64.3666 30.4211L63.2563 31.9755C64.9217 33.0858 66.254 33.8629 67.4753 34.196C70.1399 35.0842 70.1399 38.8591 70.1399 38.8591V40.1914H60.0366C58.1491 37.5268 55.1514 36.4165 51.9317 35.1953C51.2655 34.9732 50.5993 34.6401 49.9332 34.4181C50.0442 34.4181 50.1552 34.307 50.2663 34.307C51.3765 33.974 52.8199 33.1968 54.4853 32.0865L53.375 30.5322C51.9317 31.5314 50.5993 32.1976 49.7111 32.5306C49.045 32.7527 48.4899 33.0858 47.9347 33.5299C47.3796 33.3078 46.8245 32.9747 46.2693 32.6417L43.6047 28.8668L42.9385 28.9778V25.8691C43.9378 24.9809 46.4914 22.0942 47.3796 15.5436V10.9916C47.4906 3.66386 43.8268 0 36.499 0C29.1713 0 25.5075 3.66386 25.5075 10.9916V15.4326V15.5436C26.3957 22.0942 28.9493 24.9809 29.9485 25.8691V28.9778L29.3934 28.8668L26.9508 32.5306C26.3957 32.8637 25.8405 33.0858 25.2854 33.4188C24.7303 32.9747 24.1751 32.6417 23.509 32.4196C22.5098 32.0865 21.2885 31.4204 19.8451 30.4211L18.7349 31.9755C20.4003 33.0858 21.7326 33.8629 22.9539 34.196C23.0649 34.196 23.1759 34.307 23.2869 34.307C22.6208 34.5291 21.9546 34.8622 21.2885 35.0842C18.0687 36.3055 15.071 37.5268 13.1836 40.0804H2.85815V38.8591C2.85815 38.8591 2.85815 35.0842 5.52277 34.196C6.63303 33.8629 8.07637 33.0858 9.74176 31.9755L8.6315 30.4211C7.18816 31.4204 5.85585 32.0865 4.96764 32.4196C0.970703 33.7519 0.970703 38.6371 0.970703 38.8591V42.0789H11.9623C11.4072 43.5222 10.963 45.4097 10.963 47.7412V50.961H61.924V47.7412C61.924 45.2986 61.5909 43.5222 60.9248 41.9678H72.0274V38.8591ZM36.499 1.88744C42.6055 1.88744 45.3811 4.55207 45.6032 10.4364L42.0503 12.2129L30.9477 7.77182L27.5059 9.43721C27.95 4.21899 30.7257 1.88744 36.499 1.88744ZM27.3949 15.3216V11.5467L30.9477 9.77029L42.0503 14.2113L45.4921 12.4349V15.3216C44.4929 22.0942 41.8283 24.3147 41.4952 24.6478C39.4967 25.647 36.388 25.647 36.388 25.647C36.388 25.647 33.2793 25.647 31.2808 24.6478C31.0588 24.4257 28.3941 22.0942 27.3949 15.3216ZM31.8359 26.8683C34.0565 27.5345 36.388 27.5345 36.499 27.5345C36.6101 27.5345 38.9416 27.5345 41.1621 26.8683V29.3109L36.499 30.0881L31.8359 29.3109V26.8683ZM30.2816 30.9763L36.499 31.9755L42.7165 30.9763L44.1598 33.1968L40.718 36.6386L36.499 34.4181L32.169 36.6386L28.7272 33.1968L30.2816 30.9763ZM60.0366 49.0735H12.8505V47.7412C12.8505 40.1914 16.4033 38.8591 21.7326 36.8606C23.509 36.1945 25.3964 35.4173 27.3949 34.4181L31.8359 38.8591L36.499 36.5276L41.1621 38.8591L45.6032 34.4181C47.6016 35.4173 49.4891 36.1945 51.2655 36.8606C56.5948 38.8591 60.1476 40.1914 60.1476 47.7412V49.0735H60.0366Z" fill="#535859"/>
<path d="M14.1824 30.8653C17.8462 30.8653 20.7329 27.3125 20.7329 22.6494C20.7329 19.0965 19.9557 15.5437 14.1824 15.5437C8.40902 15.5437 7.63184 19.2076 7.63184 22.6494C7.63184 27.3125 10.5185 30.8653 14.1824 30.8653ZM14.1824 17.5422C17.7352 17.5422 18.8455 18.7635 18.8455 22.7604C18.8455 25.8691 17.1801 29.0889 14.1824 29.0889C11.1847 29.0889 9.51928 25.8691 9.51928 22.7604C9.51928 18.7635 10.6295 17.5422 14.1824 17.5422Z" fill="#535859"/>
<path d="M37.6092 44.6324H35.3887V46.5199H37.6092V44.6324Z" fill="#535859"/>
<path d="M37.6092 40.1914H35.3887V42.0788H37.6092V40.1914Z" fill="#535859"/>
</svg>
