<svg id="Layer_1" data-name="Layer 1" xmlns="http://www.w3.org/2000/svg" viewBox="0 0 30.69 36.72"><defs><style>.cls-1{fill:#4ba4db;}</style></defs><circle class="cls-1" cx="15.59" cy="15.21" r="3.15"/><path class="cls-1" d="M15.46,36.72l-1.38-1a49.86,49.86,0,0,1-6.89-6.07C2.42,24.62,0,19.8,0,15.34a15.35,15.35,0,0,1,30.69,0c0,4.56-2.37,9.41-7,14.42a47.77,47.77,0,0,1-6.76,6Zm-.12-34A12.68,12.68,0,0,0,2.67,15.34c0,3.76,2.17,8,6.46,12.5a47.18,47.18,0,0,0,6.34,5.62,47.17,47.17,0,0,0,6.22-5.52c4.2-4.5,6.33-8.74,6.33-12.6A12.69,12.69,0,0,0,15.34,2.67Z"/></svg>