<svg id="Layer_1" data-name="Layer 1" xmlns="http://www.w3.org/2000/svg" viewBox="0 0 77.39 95.96"><defs><style>.cls-1{fill:#707070;}.cls-2{fill:#4ba4db;}</style></defs><path class="cls-1" d="M30,43.94a4.64,4.64,0,0,1,1.56,3.81,4.84,4.84,0,0,1-1.59,4,6.8,6.8,0,0,1-4.42,1.31H24v6.1H21.74V42.67h3.73A7,7,0,0,1,30,43.94Zm-1.7,6.58a3.41,3.41,0,0,0,.94-2.75,3.29,3.29,0,0,0-.92-2.6,4.24,4.24,0,0,0-2.82-.8H24v7h1.51A4.24,4.24,0,0,0,28.29,50.52Z"/><path class="cls-1" d="M41.11,43.33a5.23,5.23,0,0,1,2.58,2.44,10.53,10.53,0,0,1,1,5q0,4.65-2,6.49a7.09,7.09,0,0,1-5,1.84H34V42.67h3.4A9.78,9.78,0,0,1,41.11,43.33Zm-4.88,1.1v13h1.63A4.12,4.12,0,0,0,41.14,56c.81-1,1.22-2.67,1.22-5.18a10.12,10.12,0,0,0-.64-4,3.52,3.52,0,0,0-1.62-1.88,5.47,5.47,0,0,0-2.36-.47Z"/><path class="cls-1" d="M47.62,59.14V42.67h8l-.24,1.73H49.89v5.74h4.78v1.72H49.89v7.28Z"/><path class="cls-2" d="M68.19,96h-59A9.21,9.21,0,0,1,0,86.76V9.19A9.22,9.22,0,0,1,9.19,0H48.48A10.56,10.56,0,0,1,56,3.1L74.29,21.41a10.52,10.52,0,0,1,3.1,7.49V86.76A9.21,9.21,0,0,1,68.19,96ZM9.19,5.67A3.53,3.53,0,0,0,5.66,9.19V86.76a3.53,3.53,0,0,0,3.49,3.57H68.2a3.53,3.53,0,0,0,3.53-3.53V28.9a4.88,4.88,0,0,0-1.44-3.48L52,7.11a4.86,4.86,0,0,0-3.49-1.44Z"/></svg>