<svg width="68" height="55" viewBox="0 0 68 55" fill="none" xmlns="http://www.w3.org/2000/svg">
<path d="M68.0005 20.8111L66.4098 19.2204L60.8425 24.7877L43.0802 7.15794L48.6475 1.59065L47.1894 0L40.0315 7.15794L42.0198 9.27882H25.9807L28.1016 7.15794L20.8111 0L19.2204 1.59065L24.7877 7.15794L7.2905 24.9202L1.72321 19.353L0 20.8111L7.2905 27.969L8.88115 26.5109L12.5927 30.2224V33.4037L13.7857 34.5967C13.388 35.1269 12.5927 36.0548 12.5927 37.2478C12.5927 39.6338 14.4484 41.4896 16.8344 41.6221C16.8344 44.0081 18.8227 45.8639 21.0762 45.8639C21.0762 48.2498 23.0645 50.1056 25.3179 50.1056C25.3179 52.4916 27.3062 54.3474 29.6922 54.3474C30.8852 54.3474 31.9456 53.552 32.3433 53.1544C32.8735 53.552 33.8014 54.3474 34.9944 54.3474C36.9827 54.3474 38.5734 53.0218 39.1036 51.2986C39.6338 51.6963 40.5617 52.2265 41.357 52.2265C43.4779 52.2265 45.2011 50.7684 45.5988 48.7801C45.9964 48.9126 46.2615 49.0452 46.6592 49.0452C49.0452 49.0452 51.0335 47.0569 51.0335 44.6709C51.0335 43.743 50.5033 42.9477 50.1056 42.4174C51.8288 41.8872 53.1544 40.2966 53.1544 38.3083C53.1544 37.1153 52.359 36.1874 51.9614 35.6572L56.3357 31.2829V29.162L58.9868 26.5109L60.5774 28.1016L68.0005 20.8111ZM14.7136 37.2478C14.7136 36.9827 14.9787 36.4525 15.2438 36.1874L17.8949 38.8385C17.6298 39.1036 17.0995 39.3687 16.8344 39.3687C15.774 39.2361 14.7136 38.3083 14.7136 37.2478ZM19.0879 41.4896C19.0879 41.2245 19.353 40.6942 19.6181 40.4291L22.2692 43.0802C22.004 43.3453 21.4738 43.6104 21.2087 43.6104C20.0157 43.6104 19.0879 42.6826 19.0879 41.4896ZM23.3296 45.7313C23.3296 45.4662 23.5947 44.936 23.8598 44.6709L26.5109 47.322C26.2458 47.5871 25.7156 47.8522 25.4505 47.8522C24.2575 47.8522 23.3296 46.9243 23.3296 45.7313ZM27.5713 50.1056C27.5713 49.8405 27.8365 49.3103 28.1016 49.0452L30.7526 51.6963C30.4875 51.9614 29.9573 52.2265 29.6922 52.2265C28.4992 52.0939 27.5713 51.166 27.5713 50.1056ZM49.0452 40.4291C48.6475 40.4291 47.9847 40.0315 47.7196 39.6338L38.0431 29.9573L36.4525 31.548L48.2498 43.3453C48.515 43.6104 49.0452 44.2732 49.0452 44.6709C49.0452 45.8639 48.1173 46.7917 46.9243 46.7917C46.5266 46.7917 45.8639 46.3941 45.5988 45.9964L44.5383 44.936L33.8014 34.1991L32.2107 35.7897L42.9477 46.5266C43.2128 46.7917 43.743 47.4545 43.743 47.8522C43.743 49.0452 42.8151 49.9731 41.6221 49.9731C41.2245 49.9731 40.5617 49.5754 40.2966 49.1777L29.5597 38.4408L27.8364 40.164L36.4525 48.7801C36.7176 49.0452 37.2478 49.7079 37.2478 50.1056C37.2478 51.2986 36.3199 52.2265 35.1269 52.2265C34.7293 52.2265 34.0665 51.8288 33.8014 51.4312L14.7136 32.4759V29.2945L10.3393 24.9202L23.7273 11.5322H28.1016L23.5947 16.0391C23.4621 16.1717 22.1366 17.4972 22.1366 18.9553C22.1366 21.3413 24.1249 23.3296 26.5109 23.3296C27.969 23.3296 29.2945 22.1366 29.4271 21.8715L34.4642 16.8344H36.0548V22.5343L50.3707 36.9827C50.6358 37.2478 51.166 37.9106 51.166 38.3083C51.0335 39.3687 50.1056 40.4291 49.0452 40.4291ZM54.3474 28.2341V30.355L50.6358 34.0665L42.1523 25.583H42.6826C45.0685 25.583 47.0569 23.5947 47.0569 21.2087H44.8034C44.8034 22.4017 43.8755 23.3296 42.6826 23.3296H39.7664L38.3083 21.8715V14.8461H33.5363L27.8364 20.2808C27.5713 20.5459 26.9086 21.0762 26.5109 21.0762C25.3179 21.0762 24.39 20.1483 24.39 18.9553C24.39 18.5576 24.7877 17.8949 25.1854 17.6298L31.2829 11.5322H44.2732L57.6612 24.9202L54.3474 28.2341Z" fill="#535859"/>
<path d="M59.4437 17.1341L57.8506 18.7281L60.0073 20.8836L61.6004 19.2895L59.4437 17.1341Z" fill="#535859"/>
<path d="M8.58092 17.1483L6.42578 19.3053L8.02007 20.8982L10.1752 18.7413L8.58092 17.1483Z" fill="#535859"/>
</svg>
