<svg width="34" height="33" viewBox="0 0 34 33" fill="none" xmlns="http://www.w3.org/2000/svg">
<path d="M24.3688 33H8.64687C3.87403 33 0.0078125 29.1303 0.0078125 24.3609V8.63905C0.0078125 3.86968 3.8775 0 8.65034 0H24.3722C29.1451 0 33.0113 3.86968 33.0113 8.63905V24.3609C33.0078 29.1303 29.1416 33 24.3688 33Z" fill="#FFA64B"/>
<path d="M6.70767 7.64209H5.11673C4.30736 7.64209 3.6543 8.29862 3.6543 9.10451V25.6323C3.6543 26.4417 4.31083 27.0947 5.11673 27.0947H6.70767C7.51704 27.0947 8.17009 26.4382 8.17009 25.6323V9.10451C8.17009 8.29862 7.51704 7.64209 6.70767 7.64209Z" fill="white"/>
<path d="M27.8971 7.81567H26.3062C25.4968 7.81567 24.8438 8.4722 24.8438 9.27809V25.8059C24.8438 26.6153 25.5003 27.2683 26.3062 27.2683H27.8971C28.7065 27.2683 29.3595 26.6118 29.3595 25.8059V9.27809C29.3595 8.4722 28.7065 7.81567 27.8971 7.81567Z" fill="white"/>
<path d="M23.3215 11.1157H19.4622V9.60113C19.4622 9.38229 19.2851 9.20513 19.0662 9.20513H17.0306V7.12092H20.8517C21.2338 7.12092 21.5464 6.80829 21.5464 6.42618C21.5464 6.04408 21.2338 5.73145 20.8517 5.73145H12.1675C11.7854 5.73145 11.4727 6.04408 11.4727 6.42618C11.4727 6.80829 11.7854 7.12092 12.1675 7.12092H15.9885V9.20513H13.953C13.7341 9.20513 13.5569 9.38229 13.5569 9.60113V11.1157H9.69769C9.43022 11.1157 9.21484 11.331 9.21484 11.5985V23.1416C9.21484 23.409 9.43022 23.6244 9.69769 23.6244H23.3249C23.5924 23.6244 23.8078 23.409 23.8078 23.1416V11.5985C23.8008 11.331 23.5855 11.1157 23.3215 11.1157Z" fill="white"/>
</svg>
