<svg width="34" height="33" viewBox="0 0 34 33" fill="none" xmlns="http://www.w3.org/2000/svg">
<path d="M24.3648 33H8.64296C3.87012 33 0.00390625 29.1303 0.00390625 24.3609V8.63905C0.00390625 3.86968 3.87359 0 8.64643 0H24.3683C29.1412 0 33.0074 3.86968 33.0074 8.63905V24.3609C33.0039 29.1303 29.1377 33 24.3648 33Z" fill="#4441B3"/>
<path d="M16.5032 4.34204C16.5032 4.34204 6.25586 11.6368 6.25586 19.4526C6.25586 24.538 10.8446 28.6578 16.5032 28.6578C22.1619 28.6578 26.7506 24.538 26.7506 19.4526C26.7506 11.6368 16.5032 4.34204 16.5032 4.34204ZM24.7011 19.7027C24.4302 19.7027 24.2079 19.4838 24.2079 19.2094C24.2079 14.6554 19.4941 10.2091 17.4654 8.50699C17.257 8.3333 17.2292 8.02067 17.4064 7.81225C17.5801 7.60383 17.8927 7.57604 18.1011 7.7532C20.7481 9.97636 25.1944 14.4192 25.1944 19.2094C25.1944 19.4804 24.9755 19.7027 24.7011 19.7027Z" fill="white"/>
</svg>
