<svg id="Layer_1" data-name="Layer 1" xmlns="http://www.w3.org/2000/svg" viewBox="0 0 31.57 33.86"><defs><style>.cls-1{fill:#4d5152;}</style></defs><path class="cls-1" d="M14.25,4.88a13.15,13.15,0,1,0,3.07,0V3.56H18.9V0H12.67V3.56h1.58ZM28,18A12.22,12.22,0,1,1,15.73,5.73,12.23,12.23,0,0,1,28,18ZM13.57,2.65V1H18V2.71H16.37V4.83H15.15V2.71H13.57Z"/><path class="cls-1" d="M26.93,6.85l.95-1L28.93,7l2.22-2.23L28.4,2,26.19,4.19l1,1.06-.95,1a15.16,15.16,0,0,0-6.18-3.45l-.26.85a14.95,14.95,0,0,1-4.06,29.3,14.95,14.95,0,0,1-4.12-29.3l-.27-.85A16.07,16.07,0,0,0,5.23,6.21l-1-1,1-1.06L3.11,2,.37,4.72,2.59,7,3.64,5.89l.95,1A16,16,0,0,0,0,18a15.79,15.79,0,1,0,31.57,0A16.28,16.28,0,0,0,26.93,6.85Zm1.53-3.61,1.47,1.48-.95,1L27.51,4.19ZM1.64,4.72,3.11,3.24l1,1L2.59,5.68Z"/><path class="cls-1" d="M15.79,15.92A2.07,2.07,0,0,0,13.73,18a2,2,0,0,0,2.06,2.07,2,2,0,0,0,1.95-1.59h6v-.9h-6A2,2,0,0,0,15.79,15.92Zm0,3.19A1.12,1.12,0,0,1,14.68,18a1.11,1.11,0,1,1,1.11,1.12Z"/><path class="cls-1" d="M26.87,17.52H25.82v.9h1.05Z"/><path class="cls-1" d="M5.75,17.52h-1v.9h1Z"/><path class="cls-1" d="M8.92,10.08h-1V11h1Z"/><path class="cls-1" d="M23.7,25H22.65v.9H23.7Z"/><path class="cls-1" d="M23.7,10.08H22.65V11H23.7Z"/><path class="cls-1" d="M8.92,25h-1v.9h1Z"/><path class="cls-1" d="M16.21,28.08h-.9v1.06h.9Z"/><path class="cls-1" d="M16.21,6.85h-.9V7.91h.9Z"/></svg>