<svg id="Layer_1" data-name="Layer 1" xmlns="http://www.w3.org/2000/svg" viewBox="0 0 29.46 42.83"><defs><style>.cls-1{fill:#4d5152;}</style></defs><path class="cls-1" d="M28.83,28.61v-1.7h.63l-9.24-9.29v-.79h4.86v1.69H26V16.83h2v1.69h.9V16.83h.63l-9.35-9.4L16.42,0H13L9.29,7.43,0,16.77H.63v1.7h.9v-1.7h2v1.7h.9v-1.7H9.24v.8L0,26.91H.63v1.7h.9v-1.7h2v1.7h.9v-1.7H9.24v.9L3.64,41.93H.37v.9H29.14v-.9H25.87l-5.6-14.12v-.9h4.86v1.7H26v-1.7H28v1.7Zm-18.48-.69,4.38-4.41,4.38,4.41-4.38,4.4Zm8.34-9.71-4,4-4-4Zm-7.92-.91,4-4,4,4Zm4.59-4.56,4-4v8Zm-.63-.64-4-4h7.92ZM10.14,8.76l4,4-4,4Zm0,10.08,4,4-4,4Zm5.22,4,4-4v8Zm4.86-7V8.76l7.07,7.11ZM13.57.9h2.32l3.17,6.32H10.45Zm-11.41,15L9.24,8.76v7.11ZM2.16,26,9.24,18.9V26ZM4.59,41.88,9.87,28.66l4.23,4.25-8.93,9Zm1.85,0,8.29-8.34L23,41.88Zm17.85,0-8.93-9,4.23-4.25,5.28,13.22ZM20.22,26V18.84L27.29,26H20.22Z"/></svg>