<svg id="Layer_1" data-name="Layer 1" xmlns="http://www.w3.org/2000/svg" viewBox="0 0 32.63 36.41"><defs><style>.cls-1{fill:#4d5152;}</style></defs><path class="cls-1" d="M30.25,11.94V9.55H23.49v2.34H22.07V4.83H19.75V2.49h-3V0h-.95V2.49h-3V4.83H10.56V16.61H9.13V14.28H2.38v2.33H0v19.8H32.63V11.94Zm-5.91-1.48h5v1.43h-5ZM13.78,3.4h5V4.83h-5ZM11.46,5.79h9.6v25H11.4v-25Zm0,27.38V31.74h9.66v1.43Zm-8.24-18h5v1.43h-5ZM.9,35.51V17.57h9.61V30.84H2.27v4.72H.9Zm2.32,0V31.69h7.34v1.43H5.28v2.33H3.22Zm3,0V34.07h4.38v1.44Zm5.28-1.44h4.38v1.44H11.46Zm5.28,1.44V34.07h4.38v1.44Zm5.28,0V34.07H26.4v1.44Zm5.27,0V33.17H22V31.74h7.33v3.82H27.29Zm4.39,0H30.25V30.78H22V12.84h9.6V35.51Z"/><path class="cls-1" d="M5.17,28.45H2.22v.9H5.17Z"/><path class="cls-1" d="M9.29,28.45h-3v.9h3Z"/><path class="cls-1" d="M5.17,26.06H2.22V27H5.17Z"/><path class="cls-1" d="M9.29,26.06h-3V27h3Z"/><path class="cls-1" d="M5.17,23.72H2.22v.91H5.17Z"/><path class="cls-1" d="M9.29,23.72h-3v.91h3Z"/><path class="cls-1" d="M9.24,21.39h-7v.9h7Z"/><path class="cls-1" d="M5.17,19H2.22v.9H5.17Z"/><path class="cls-1" d="M9.29,19h-3v.9h3Z"/><path class="cls-1" d="M26.29,28.45h-3v.9h3Z"/><path class="cls-1" d="M30.41,28.45h-3v.9h3Z"/><path class="cls-1" d="M26.29,26.06h-3V27h3Z"/><path class="cls-1" d="M30.41,26.06h-3V27h3Z"/><path class="cls-1" d="M30.36,23.72h-7v.91h7Z"/><path class="cls-1" d="M26.29,21.39h-3v.9h3Z"/><path class="cls-1" d="M30.41,21.39h-3v.9h3Z"/><path class="cls-1" d="M26.29,19h-3v.9h3Z"/><path class="cls-1" d="M30.41,19h-3v.9h3Z"/><path class="cls-1" d="M26.29,16.67h-3v.9h3Z"/><path class="cls-1" d="M30.41,16.67h-3v.9h3Z"/><path class="cls-1" d="M26.29,14.28h-3v.9h3Z"/><path class="cls-1" d="M30.41,14.28h-3v.9h3Z"/><path class="cls-1" d="M19.8,28.45h-7v.9h7Z"/><path class="cls-1" d="M15.73,26.06h-3V27h3Z"/><path class="cls-1" d="M19.85,26.06h-3V27h3Z"/><path class="cls-1" d="M15.73,23.72h-3v.91h3Z"/><path class="cls-1" d="M19.85,23.72h-3v.91h3Z"/><path class="cls-1" d="M15.73,21.39h-3v.9h3Z"/><path class="cls-1" d="M19.85,21.39h-3v.9h3Z"/><path class="cls-1" d="M15.73,19h-3v.9h3Z"/><path class="cls-1" d="M19.85,19h-3v.9h3Z"/><path class="cls-1" d="M19.8,16.67h-7v.9h7Z"/><path class="cls-1" d="M15.73,14.28h-3v.9h3Z"/><path class="cls-1" d="M19.85,14.28h-3v.9h3Z"/><path class="cls-1" d="M15.73,11.94h-3v.9h3Z"/><path class="cls-1" d="M19.85,11.94h-3v.9h3Z"/><path class="cls-1" d="M15.73,9.55h-3v.91h3Z"/><path class="cls-1" d="M19.85,9.55h-3v.91h3Z"/><path class="cls-1" d="M15.73,7.22h-3v.9h3Z"/><path class="cls-1" d="M19.85,7.22h-3v.9h3Z"/></svg>