<svg id="Layer_1" data-name="Layer 1" xmlns="http://www.w3.org/2000/svg" viewBox="0 0 33.63 28.61"><defs><style>.cls-1{fill:#4d5152;}</style></defs><path class="cls-1" d="M27.4,2.18v.95h5.33V6.42H27.4v1h5.33V27.65H.9V9.5h9.24l2.11-2.12h4.59v-1h-5L9.77,8.54H.9V1H9.77l2.11,2.12h5V2.18H12.25L10.14.05H0V28.61H33.63V2.18Z"/><path class="cls-1" d="M4.17,11.73H3.11v.9H4.17Z"/><path class="cls-1" d="M6.28,11.73h-1v.9h1Z"/><path class="cls-1" d="M8.39,11.73H7.34v.9H8.39Z"/><path class="cls-1" d="M22.12,18.68l9-9.07H25.18V0h-.89V10.56h4.64l-6.81,6.85-6.86-6.85H19.9V0H19V9.61H13.09Z"/></svg>