<svg id="Layer_1" data-name="Layer 1" xmlns="http://www.w3.org/2000/svg" viewBox="0 0 37.38 33.23"><defs><style>.cls-1{fill:#4d5152;}</style></defs><path class="cls-1" d="M31,8.39V14.6L29.35,13l-.63.64,2.75,2.76,2.74-2.76L33.58,13,31.94,14.6V8.39a4.73,4.73,0,0,0-4.7-4.73H20v.9h7.28A3.82,3.82,0,0,1,31,8.39Z"/><path class="cls-1" d="M7.6,24.26V18.05l1.64,1.64.63-.64L7.13,16.29,4.38,19.05l.64.64,1.63-1.64v6.21A4.72,4.72,0,0,0,11.35,29h7.29v-.9H11.35A3.79,3.79,0,0,1,7.6,24.26Z"/><path class="cls-1" d="M17.48,15.87H16.26v.9h1.22Z"/><path class="cls-1" d="M19.9,15.87H18.69v.9H19.9Z"/><path class="cls-1" d="M22.33,15.87H21.12v.9h1.21Z"/><path class="cls-1" d="M17.32,1.22H8.82V0H0V13.11H17.32ZM.9.9h7v.59L5.75,3.66H1V.9ZM16.37,12.21H.9V4.56H6.12L8.55,2.12h7.82Z"/><path class="cls-1" d="M28.83,21.34V20.12H20.06V33.23H37.38V21.34ZM21,21.07h7v.58l-2.17,2.18H21ZM36.43,32.32H21V24.73h5.23l2.42-2.44h7.82Z"/></svg>