<svg xmlns="http://www.w3.org/2000/svg" width="96" height="96.027" viewBox="0 0 96 96.027">
  <g id="Group_133" data-name="Group 133" transform="translate(312.592 -241.923)">
    <circle id="Ellipse_2" data-name="Ellipse 2" cx="48" cy="48" r="48" transform="translate(-312.592 241.923)" fill="#cbcbcb"/>
    <path id="Path_13" data-name="Path 13" d="M-273.118,314.438-292.6,333.915h-3l11.986-29.965V262l7.491-14.982h5.993L-262.63,262V303.95l11.986,29.965h-3Z" transform="translate(8.47 2.537)" fill="#fff"/>
    <path id="Path_14" data-name="Path 14" d="M-250.146,335.911h-3a1.5,1.5,0,0,1-1.059-.439l-18.418-18.418-18.418,18.418a1.494,1.494,0,0,1-1.059.439h-3a1.5,1.5,0,0,1-1.241-.658,1.5,1.5,0,0,1-.151-1.4l11.88-29.7V262.5a1.488,1.488,0,0,1,.159-.67l7.491-14.982a1.5,1.5,0,0,1,1.339-.829h5.993a1.5,1.5,0,0,1,1.341.829l7.491,14.982a1.506,1.506,0,0,1,.157.67V304.16l11.88,29.7a1.5,1.5,0,0,1-.151,1.4A1.5,1.5,0,0,1-250.146,335.911Zm-2.376-3h.163l-10.32-25.8-7.822,7.821Zm-40.358,0h.163l17.979-17.979-7.822-7.821Zm11.271-29.087,8.989,8.989,8.99-8.989V262.85l-6.919-13.838h-4.141l-6.919,13.838Z" transform="translate(7.972 2.038)" fill="#a7a7a7"/>
    <path id="Path_15" data-name="Path 15" d="M-250.146,335.911h-3a1.5,1.5,0,0,1-1.059-.439l-18.418-18.418-18.418,18.418a1.494,1.494,0,0,1-1.059.439h-3a1.5,1.5,0,0,1-1.241-.658,1.5,1.5,0,0,1-.151-1.4l11.88-29.7V262.5a1.488,1.488,0,0,1,.159-.67l7.491-14.982a1.5,1.5,0,0,1,1.339-.829h5.993a1.5,1.5,0,0,1,1.341.829l7.491,14.982a1.506,1.506,0,0,1,.157.67V304.16l11.88,29.7a1.5,1.5,0,0,1-.151,1.4A1.5,1.5,0,0,1-250.146,335.911Zm-2.376-3h.163L-263.524,305a1.506,1.506,0,0,1-.106-.557v-41.6l-6.919-13.838h-4.141l-6.919,13.838v41.6a1.5,1.5,0,0,1-.106.557l-11.165,27.909h.163l19.038-19.038a1.5,1.5,0,0,1,2.118,0Z" transform="translate(7.972 2.038)" fill="#a7a7a7"/>
    <path id="Path_16" data-name="Path 16" d="M-242.16,276.991h-17.979v-3h14.362l-14.982-14.982h-19.735l-14.982,14.982h14.362v3h-17.979a1.5,1.5,0,0,1-1.384-.924,1.5,1.5,0,0,1,.325-1.633l17.979-17.979a1.5,1.5,0,0,1,1.059-.439h20.975a1.5,1.5,0,0,1,1.059.439l17.979,17.979a1.5,1.5,0,0,1,.325,1.633A1.5,1.5,0,0,1-242.16,276.991Z" transform="translate(5.979 7.021)" fill="#a7a7a7"/>
    <path id="Path_17" data-name="Path 17" d="M-242.16,290.991h-17.979v-3h14.362l-14.982-14.982h-19.735l-14.982,14.982h14.362v3h-17.979a1.5,1.5,0,0,1-1.384-.924,1.5,1.5,0,0,1,.325-1.633l17.979-17.979a1.5,1.5,0,0,1,1.059-.439h20.975a1.5,1.5,0,0,1,1.059.439l17.979,17.979a1.5,1.5,0,0,1,.325,1.633A1.5,1.5,0,0,1-242.16,290.991Z" transform="translate(5.979 13.996)" fill="#a7a7a7"/>
    <rect id="Rectangle_1192" data-name="Rectangle 1192" width="2.996" height="4.495" transform="translate(-243.673 303.49)" fill="#a7a7a7"/>
    <rect id="Rectangle_1193" data-name="Rectangle 1193" width="2.996" height="4.495" transform="translate(-237.68 303.49)" fill="#a7a7a7"/>
    <rect id="Rectangle_1194" data-name="Rectangle 1194" width="2.996" height="4.495" transform="translate(-243.673 282.514)" fill="#a7a7a7"/>
    <rect id="Rectangle_1195" data-name="Rectangle 1195" width="2.996" height="4.495" transform="translate(-237.68 282.514)" fill="#a7a7a7"/>
    <rect id="Rectangle_1196" data-name="Rectangle 1196" width="2.996" height="4.495" transform="translate(-294.613 303.49)" fill="#a7a7a7"/>
    <rect id="Rectangle_1197" data-name="Rectangle 1197" width="2.996" height="4.495" transform="translate(-288.62 303.49)" fill="#a7a7a7"/>
    <rect id="Rectangle_1198" data-name="Rectangle 1198" width="2.996" height="4.495" transform="translate(-294.613 282.514)" fill="#a7a7a7"/>
    <rect id="Rectangle_1199" data-name="Rectangle 1199" width="2.996" height="4.495" transform="translate(-288.62 282.514)" fill="#a7a7a7"/>
    <rect id="Rectangle_1200" data-name="Rectangle 1200" width="2.996" height="29.664" transform="translate(-276.195 286.57) rotate(-45)" fill="#a7a7a7"/>
    <rect id="Rectangle_1201" data-name="Rectangle 1201" width="29.664" height="2.996" transform="translate(-276.195 305.427) rotate(-45)" fill="#a7a7a7"/>
    <rect id="Rectangle_1202" data-name="Rectangle 1202" width="29.664" height="2.996" transform="translate(-276.195 284.452) rotate(-45)" fill="#a7a7a7"/>
    <rect id="Rectangle_1203" data-name="Rectangle 1203" width="2.996" height="29.664" transform="translate(-276.195 265.595) rotate(-45)" fill="#a7a7a7"/>
    <rect id="Rectangle_1204" data-name="Rectangle 1204" width="59.93" height="2.996" transform="translate(-294.613 334.953)" fill="#a7a7a7"/>
  </g>
</svg>
