<svg xmlns="http://www.w3.org/2000/svg" width="72" height="110.028" viewBox="0 0 72 110.028">
  <g id="Group_134" data-name="Group 134" transform="translate(301.592 -360.131)">
    <circle id="Ellipse_3" data-name="Ellipse 3" cx="36" cy="36" r="36" transform="translate(-301.592 398.131)" fill="#b2d4ed"/>
    <path id="Path_18" data-name="Path 18" d="M-282.08,383.481s0-3.438-1.733-5.158c-6.321-6.263,5.171-13.753,6.89-17.192,0,8.6,8.6,10.315,6.877,15.473a17.132,17.132,0,0,0-1.719,6.877" transform="translate(11.433 0.72)" fill="#b2d4ed"/>
    <rect id="Rectangle_1210" data-name="Rectangle 1210" width="10" height="72" transform="translate(-270.592 389.131)" fill="#f1f9ff"/>
    <path id="Path_19" data-name="Path 19" d="M-272.558,451.776h-10.315a1.72,1.72,0,0,1-1.719-1.719V377.851a1.719,1.719,0,0,1,1.719-1.719h10.315a1.719,1.719,0,0,1,1.719,1.719v72.205A1.72,1.72,0,0,1-272.558,451.776Zm-8.6-3.438h6.877V379.57h-6.877Z" transform="translate(12.226 11.507)" fill="#a7a7a7"/>
    <path id="Path_20" data-name="Path 20" d="M-291.715,419.132h48.137l6.877,6.877h-61.89Z" transform="translate(2.158 42.431)" fill="#fff"/>
    <path id="Path_21" data-name="Path 21" d="M-235.983,428.447h-61.89a1.721,1.721,0,0,1-1.589-1.062,1.719,1.719,0,0,1,.373-1.872l6.877-6.877a1.718,1.718,0,0,1,1.215-.5h48.137a1.715,1.715,0,0,1,1.215.5l6.877,6.877a1.716,1.716,0,0,1,.373,1.872A1.721,1.721,0,0,1-235.983,428.447Zm-57.74-3.438h53.59l-3.438-3.438h-46.713Z" transform="translate(1.438 41.713)" fill="#a7a7a7"/>
    <rect id="Rectangle_1211" data-name="Rectangle 1211" width="3.438" height="26.186" transform="translate(-282.542 436.453) rotate(-23.199)" fill="#a7a7a7"/>
    <rect id="Rectangle_1212" data-name="Rectangle 1212" width="26.186" height="3.438" transform="translate(-261.914 459.165) rotate(-66.79)" fill="#a7a7a7"/>
    <rect id="Rectangle_1213" data-name="Rectangle 1213" width="59.802" height="3.439" transform="translate(-291.193 461.018) rotate(-71.556)" fill="#a7a7a7"/>
    <rect id="Rectangle_1214" data-name="Rectangle 1214" width="3.439" height="59.802" transform="matrix(0.949, -0.316, 0.316, 0.949, -261.963, 405.374)" fill="#a7a7a7"/>
    <path id="Path_22" data-name="Path 22" d="M-270.4,389.008h-10.315l-6.877-6.877h24.068Z" transform="translate(10.069 15.822)" fill="#fff"/>
    <path id="Path_23" data-name="Path 23" d="M-256.489,408.447h-30.945l-5.158-10.315h41.26Z" transform="translate(6.473 27.329)" fill="#fff"/>
    <path id="Path_24" data-name="Path 24" d="M-270.4,389.008h-10.315l-6.877-6.877h24.068Z" transform="translate(10.069 15.822)" fill="#fff"/>
    <path id="Path_25" data-name="Path 25" d="M-269.681,391.447H-280a1.725,1.725,0,0,1-1.215-.5l-6.877-6.877a1.723,1.723,0,0,1-.373-1.874,1.719,1.719,0,0,1,1.588-1.061H-262.8a1.719,1.719,0,0,1,1.589,1.061,1.72,1.72,0,0,1-.373,1.874l-6.877,6.877A1.721,1.721,0,0,1-269.681,391.447Zm-9.6-3.438h8.892l3.438-3.438h-15.768Z" transform="translate(9.349 15.103)" fill="#a7a7a7"/>
    <path id="Path_26" data-name="Path 26" d="M-256.489,408.447h-30.945l-5.158-10.315h41.26Z" transform="translate(6.473 27.329)" fill="#fff"/>
    <path id="Path_27" data-name="Path 27" d="M-255.77,410.885h-30.945a1.717,1.717,0,0,1-1.537-.951l-5.158-10.315a1.716,1.716,0,0,1,.076-1.673,1.715,1.715,0,0,1,1.461-.815h41.26a1.718,1.718,0,0,1,1.463.815,1.725,1.725,0,0,1,.076,1.673l-5.158,10.315A1.721,1.721,0,0,1-255.77,410.885Zm-29.883-3.438h28.82l3.438-6.877h-35.7Z" transform="translate(5.754 26.61)" fill="#a7a7a7"/>
    <path id="Path_28" data-name="Path 28" d="M-283.067,384.2c0-.712-.237-2.962-1.226-3.94-5.859-5.806.3-12.282,3.985-16.152a19.2,19.2,0,0,0,2.581-3.031,1.716,1.716,0,0,1,1.932-.9,1.721,1.721,0,0,1,1.324,1.674c0,3.846,1.994,6.053,3.923,8.187,1.876,2.073,4,4.425,2.866,7.829a1.818,1.818,0,0,1-.093.225,15.558,15.558,0,0,0-1.539,6.112l-3.438,0a18.843,18.843,0,0,1,1.84-7.521c.39-1.317-.308-2.257-2.187-4.336a17.859,17.859,0,0,1-4.176-6.433l-.542.572c-4.989,5.242-6.985,8.436-4.056,11.338,2.182,2.161,2.244,5.954,2.244,6.38h-1.719Z" transform="translate(10.701 0)" fill="#a7a7a7"/>
    <rect id="Rectangle_1215" data-name="Rectangle 1215" width="72" height="3" transform="translate(-301.592 467.131)" fill="#a7a7a7"/>
  </g>
</svg>
