<svg xmlns="http://www.w3.org/2000/svg" width="113" height="87.484" viewBox="0 0 113 87.484">
  <g id="Group_128" data-name="Group 128" transform="translate(311.592 -486.293)">
    <rect id="Rectangle_1225" data-name="Rectangle 1225" width="81" height="73" transform="translate(-295.592 493.293)" fill="#fdb3b3"/>
    <path id="Path_29" data-name="Path 29" d="M-295.657,571.132h-7.29a3.647,3.647,0,0,1-3.645-3.645V490.938a3.645,3.645,0,0,1,3.645-3.645h7.29Z" transform="translate(4.113 0.823)" fill="#fff"/>
    <path id="Path_30" data-name="Path 30" d="M-260.592,487.293h7.29a3.644,3.644,0,0,1,3.645,3.645v76.548a3.645,3.645,0,0,1-3.645,3.645h-7.29Z" transform="translate(41.951 0.823)" fill="#fff"/>
    <path id="Path_31" data-name="Path 31" d="M-294.834,573.777h-7.29a5.474,5.474,0,0,1-5.468-5.468V491.761a5.473,5.473,0,0,1,5.468-5.468h7.29a1.822,1.822,0,0,1,1.823,1.823v83.839A1.823,1.823,0,0,1-294.834,573.777Zm-7.29-83.839a1.824,1.824,0,0,0-1.823,1.823v76.548a1.826,1.826,0,0,0,1.823,1.823h5.468V489.938Z" transform="translate(3.29)" fill="#a7a7a7"/>
    <path id="Path_32" data-name="Path 32" d="M-252.479,573.777h-7.29a1.823,1.823,0,0,1-1.823-1.823V488.116a1.822,1.822,0,0,1,1.823-1.823h7.29a5.472,5.472,0,0,1,5.468,5.468v76.548A5.473,5.473,0,0,1-252.479,573.777Zm-5.468-3.645h5.468a1.824,1.824,0,0,0,1.823-1.823V491.761a1.823,1.823,0,0,0-1.823-1.823h-5.468Z" transform="translate(41.129)" fill="#a7a7a7"/>
    <rect id="Rectangle_1226" data-name="Rectangle 1226" width="7" height="4" transform="translate(-205.592 493.293)" fill="#a7a7a7"/>
    <rect id="Rectangle_1227" data-name="Rectangle 1227" width="7" height="3" transform="translate(-205.592 563.293)" fill="#a7a7a7"/>
    <rect id="Rectangle_1228" data-name="Rectangle 1228" width="7" height="4" transform="translate(-311.592 493.293)" fill="#a7a7a7"/>
    <rect id="Rectangle_1229" data-name="Rectangle 1229" width="7" height="3" transform="translate(-311.592 563.293)" fill="#a7a7a7"/>
    <path id="Path_33" data-name="Path 33" d="M-290.3,573.777h-1.823a5.474,5.474,0,0,1-5.468-5.468V491.761a5.473,5.473,0,0,1,5.468-5.468h1.823a5.472,5.472,0,0,1,5.468,5.468v76.548A5.473,5.473,0,0,1-290.3,573.777Zm-1.823-83.839a1.824,1.824,0,0,0-1.823,1.823v76.548a1.826,1.826,0,0,0,1.823,1.823h1.823a1.824,1.824,0,0,0,1.823-1.823V491.761a1.823,1.823,0,0,0-1.823-1.823Z" transform="translate(11.516)" fill="#a7a7a7"/>
    <path id="Path_34" data-name="Path 34" d="M-281.3,573.777h-1.823a5.474,5.474,0,0,1-5.468-5.468V491.761a5.473,5.473,0,0,1,5.468-5.468h1.823a5.472,5.472,0,0,1,5.468,5.468v76.548A5.473,5.473,0,0,1-281.3,573.777Zm-1.823-83.839a1.824,1.824,0,0,0-1.823,1.823v76.548a1.826,1.826,0,0,0,1.823,1.823h1.823a1.824,1.824,0,0,0,1.823-1.823V491.761a1.823,1.823,0,0,0-1.823-1.823Z" transform="translate(18.919)" fill="#a7a7a7"/>
    <path id="Path_35" data-name="Path 35" d="M-272.3,573.777h-1.823a5.474,5.474,0,0,1-5.468-5.468V491.761a5.473,5.473,0,0,1,5.468-5.468h1.823a5.472,5.472,0,0,1,5.468,5.468v76.548A5.473,5.473,0,0,1-272.3,573.777Zm-1.823-83.839a1.824,1.824,0,0,0-1.823,1.823v76.548a1.826,1.826,0,0,0,1.823,1.823h1.823a1.824,1.824,0,0,0,1.823-1.823V491.761a1.823,1.823,0,0,0-1.823-1.823Z" transform="translate(26.322)" fill="#a7a7a7"/>
    <path id="Path_36" data-name="Path 36" d="M-263.3,573.777h-1.823a5.474,5.474,0,0,1-5.468-5.468V491.761a5.473,5.473,0,0,1,5.468-5.468h1.823a5.472,5.472,0,0,1,5.468,5.468v76.548A5.473,5.473,0,0,1-263.3,573.777Zm-1.823-83.839a1.824,1.824,0,0,0-1.823,1.823v76.548a1.826,1.826,0,0,0,1.823,1.823h1.823a1.824,1.824,0,0,0,1.823-1.823V491.761a1.823,1.823,0,0,0-1.823-1.823Z" transform="translate(33.726)" fill="#a7a7a7"/>
  </g>
</svg>
