<svg xmlns="http://www.w3.org/2000/svg" width="113" height="98.875" viewBox="0 0 113 98.875">
  <g id="Group_78" data-name="Group 78" transform="translate(312.592 -127.81)">
    <rect id="Rectangle_1172" data-name="Rectangle 1172" width="35" height="29" rx="2.616" transform="translate(-273.592 162.81)" fill="#f4d199"/>
    <path id="Path_8" data-name="Path 8" d="M-274.467,176.06a14.142,14.142,0,0,1-14.125-14.125,14.14,14.14,0,0,1,14.125-14.125,14.14,14.14,0,0,1,14.125,14.125A14.141,14.141,0,0,1-274.467,176.06Zm0-24.719a10.606,10.606,0,0,0-10.594,10.594,10.607,10.607,0,0,0,10.594,10.594,10.606,10.606,0,0,0,10.594-10.594A10.6,10.6,0,0,0-274.467,151.341Z" transform="translate(18.375 15.312)" fill="#a7a7a7"/>
    <path id="Path_9" data-name="Path 9" d="M-275.279,187.841h-10.594a24.748,24.748,0,0,1-24.719-24.719A24.747,24.747,0,0,1-285.873,138.4h56.5a3.535,3.535,0,0,0,3.531-3.531V127.81h3.531v7.063a7.071,7.071,0,0,1-7.062,7.063h-56.5a21.212,21.212,0,0,0-21.187,21.188,21.213,21.213,0,0,0,21.188,21.188h10.594Z" transform="translate(1.531 0)" fill="#a7a7a7"/>
    <path id="Path_10" data-name="Path 10" d="M-282.936,170.185h-10.594a7.072,7.072,0,0,1-7.062-7.062,7.071,7.071,0,0,1,7.063-7.062h56.5a21.212,21.212,0,0,0,21.188-21.187V127.81h3.531v7.063a24.747,24.747,0,0,1-24.719,24.719h-56.5a3.534,3.534,0,0,0-3.531,3.531,3.535,3.535,0,0,0,3.531,3.531h10.594Z" transform="translate(9.187 0)" fill="#a7a7a7"/>
    <path id="Path_11" data-name="Path 11" d="M-307.061,202.185h-3.531v-7.062A24.747,24.747,0,0,1-285.873,170.4h56.5a3.535,3.535,0,0,0,3.531-3.531,3.534,3.534,0,0,0-3.531-3.531h-10.594V159.81h10.594a7.07,7.07,0,0,1,7.063,7.063,7.071,7.071,0,0,1-7.062,7.063h-56.5a21.212,21.212,0,0,0-21.187,21.187Z" transform="translate(1.531 24.5)" fill="#a7a7a7"/>
    <path id="Path_12" data-name="Path 12" d="M-297.061,209.841h-3.531v-7.062a7.071,7.071,0,0,1,7.063-7.062h56.5a21.212,21.212,0,0,0,21.188-21.187,21.211,21.211,0,0,0-21.187-21.187h-10.594V149.81h10.594a24.746,24.746,0,0,1,24.719,24.719,24.747,24.747,0,0,1-24.719,24.719h-56.5a3.534,3.534,0,0,0-3.531,3.531Z" transform="translate(9.187 16.844)" fill="#a7a7a7"/>
    <rect id="Rectangle_1173" data-name="Rectangle 1173" width="15" height="3" transform="translate(-263.592 175.81)" fill="#a7a7a7"/>
    <rect id="Rectangle_1174" data-name="Rectangle 1174" width="3" height="14" transform="translate(-257.592 169.81)" fill="#a7a7a7"/>
    <rect id="Rectangle_1175" data-name="Rectangle 1175" width="4" height="7" transform="translate(-238.592 173.81)" fill="#a7a7a7"/>
    <rect id="Rectangle_1176" data-name="Rectangle 1176" width="4" height="7" transform="translate(-277.592 173.81)" fill="#a7a7a7"/>
    <rect id="Rectangle_1177" data-name="Rectangle 1177" width="3" height="3" transform="translate(-264.592 203.81)" fill="#a7a7a7"/>
    <rect id="Rectangle_1178" data-name="Rectangle 1178" width="3" height="3" transform="translate(-257.592 203.81)" fill="#a7a7a7"/>
    <rect id="Rectangle_1179" data-name="Rectangle 1179" width="3" height="3" transform="translate(-250.592 203.81)" fill="#a7a7a7"/>
    <rect id="Rectangle_1180" data-name="Rectangle 1180" width="3" height="4" transform="translate(-264.592 146.81)" fill="#a7a7a7"/>
    <rect id="Rectangle_1181" data-name="Rectangle 1181" width="3" height="4" transform="translate(-257.592 146.81)" fill="#a7a7a7"/>
    <rect id="Rectangle_1182" data-name="Rectangle 1182" width="3" height="4" transform="translate(-250.592 146.81)" fill="#a7a7a7"/>
    <rect id="Rectangle_1183" data-name="Rectangle 1183" width="28" height="3" transform="translate(-312.592 219.81)" fill="#a7a7a7"/>
    <rect id="Rectangle_1184" data-name="Rectangle 1184" width="28" height="3" transform="translate(-227.592 131.81)" fill="#a7a7a7"/>
  </g>
</svg>
