<svg id="Group_74" data-name="Group 74" xmlns="http://www.w3.org/2000/svg" width="99.264" height="99.265" viewBox="0 0 99.264 99.265">
  <g id="Group_68" data-name="Group 68" transform="translate(18.199 18.047)">
    <circle id="Ellipse_1" data-name="Ellipse 1" cx="31.433" cy="31.433" r="31.433" fill="#92d1d9"/>
  </g>
  <g id="Group_69" data-name="Group 69" transform="translate(62.411 1.718)">
    <path id="Path_1" data-name="Path 1" d="M-382.575,1543.4a1.651,1.651,0,0,1-1.435-.832l-6.617-11.581,2.872-1.642,4.994,8.739a56.07,56.07,0,0,0,3.5-19.5,46.643,46.643,0,0,0-33.544-44.731l.911-3.181a49.967,49.967,0,0,1,35.942,47.913c0,8.438-1.968,17.6-5.139,23.907a1.65,1.65,0,0,1-1.432.909Z" transform="translate(412.811 -1470.67)" fill="#a7a7a7"/>
  </g>
  <g id="Group_70" data-name="Group 70">
    <path id="Path_2" data-name="Path 2" d="M-435.554,1531.607a50.148,50.148,0,0,1-1.7-11.979A49.689,49.689,0,0,1-387.624,1470a1.657,1.657,0,0,1,1.458.873,1.65,1.65,0,0,1-.082,1.7l-6.617,9.926-2.752-1.833,4.83-7.248a46.384,46.384,0,0,0-43.159,46.215,46.961,46.961,0,0,0,1.606,11.182Z" transform="translate(437.257 -1469.997)" fill="#a7a7a7"/>
  </g>
  <g id="Group_71" data-name="Group 71" transform="translate(6.62 72.792)">
    <path id="Path_3" data-name="Path 3" d="M-391.65,1524.981a49.991,49.991,0,0,1-42.779-23.966,1.657,1.657,0,0,1-.02-1.667,1.654,1.654,0,0,1,1.44-.84h13.235v3.309h-10.2a46.781,46.781,0,0,0,38.323,19.855,45.916,45.916,0,0,0,33.544-14.376l2.395,2.28A49.185,49.185,0,0,1-391.65,1524.981Z" transform="translate(434.664 -1498.509)" fill="#a7a7a7"/>
  </g>
  <g id="Group_72" data-name="Group 72" transform="translate(39.707 31.433)">
    <path id="Path_4" data-name="Path 4" d="M-401.852,1505.47c0,4.963-3.309,9.926-9.926,9.926s-9.926-4.963-9.926-9.926c0-8.272,9.926-18.2,9.926-23.161C-411.778,1487.272-401.852,1497.2-401.852,1505.47Z" transform="translate(421.704 -1482.309)" fill="#fff"/>
  </g>
  <g id="Group_73" data-name="Group 73" transform="translate(38.053 29.779)">
    <path id="Path_5" data-name="Path 5" d="M-410.771,1518.057c-7.6,0-11.581-5.826-11.581-11.581,0-5.124,3.263-10.5,6.143-15.234,1.861-3.058,3.784-6.224,3.784-7.927a1.654,1.654,0,0,1,1.654-1.654,1.654,1.654,0,0,1,1.654,1.654c0,1.7,1.922,4.869,3.781,7.927,2.88,4.739,6.145,10.11,6.145,15.234C-399.191,1512.231-403.169,1518.057-410.771,1518.057Zm0-29.587c-.73,1.4-1.642,2.9-2.609,4.491-2.655,4.368-5.663,9.319-5.663,13.516,0,3.985,2.589,8.272,8.272,8.272s8.272-4.286,8.272-8.272c0-4.2-3.007-9.147-5.663-13.516C-409.13,1491.368-410.041,1489.869-410.771,1488.47Z" transform="translate(422.352 -1481.661)" fill="#a7a7a7"/>
  </g>
</svg>
