<?xml version="1.0" encoding="utf-8"?><!DOCTYPE svg PUBLIC "-//W3C//DTD SVG 1.1//EN" "http://www.w3.org/Graphics/SVG/1.1/DTD/svg11.dtd"><svg xmlns="http://www.w3.org/2000/svg" xmlns:xlink="http://www.w3.org/1999/xlink"><symbol viewBox="0 0 48 24" id="arrow-left" xmlns="http://www.w3.org/2000/svg"><path d="M47 13H3.4l9.3 9.3a1 1 0 010 1.4 1 1 0 01-1.4 0l-11-11a1 1 0 010-1.4l11-11a1 1 0 011.4 0 1 1 0 010 1.4L3.4 11H47a1 1 0 010 2z" fill-rule="evenodd"/></symbol><symbol fill="none" viewBox="0 0 58 61" id="available" xmlns="http://www.w3.org/2000/svg"><path d="M36.398 32.84c0-7.668-6.264-13.932-13.932-13.932-7.669 0-13.825 6.264-13.825 13.933 0 7.668 6.264 13.933 13.933 13.933 7.668 0 13.824-6.373 13.824-13.933zM22.575 44.83c-6.589 0-11.99-5.4-11.99-11.99 0-6.588 5.401-11.988 11.99-11.988 6.588 0 11.988 5.292 11.988 11.989 0 6.696-5.4 11.989-11.988 11.989z" fill="#535859"/><path d="M45.363 32.949v8.64H44.5c-.972-10.584-3.24-18.361-6.156-21.385-2.809-2.808-8.749-5.617-10.585-6.48v-3.349l4.752-7.128L26.894.438l-4.32 2.16-4.32-2.16-5.617 2.809 4.644 7.128v3.456c-1.836.864-7.668 3.565-10.585 6.48C3.456 23.553 0 34.246 0 54.443c0 3.564 2.7 6.373 6.372 6.373H58V33.057H45.363v-.108zm0 12.96h-8.965v-2.484h8.965v2.485zm0 4.32h-8.965v-2.483h8.965v2.484zm0 4.321h-8.965v-2.484h8.965v2.484zm-10.8 0h-8.965v-2.484h8.964v2.484zM18.252 2.49l4.32 2.16 4.32-2.16 3.025 1.513-3.456 5.184h-7.669l-3.456-5.184 2.916-1.512zm7.669 8.533v2.484h-6.805v-2.484h6.805zM6.372 58.871c-2.592 0-4.428-1.837-4.428-4.429 0-19.657 3.348-29.918 6.265-32.834 2.808-2.808 9.288-5.725 10.368-6.264h8.209c1.08.431 7.56 3.348 10.369 6.264.972.972 4.32 5.4 5.616 19.981h-8.209v8.641h-10.8v8.64H6.372zm28.19 0h-8.964v-2.485h8.964v2.484zm10.801 0h-8.965v-2.485h8.965v2.484zm10.8 0H47.2v-2.485h8.965v2.484zm0-4.32H47.2v-2.485h8.965v2.484zm0-4.321H47.2v-2.484h8.965v2.484zm0-4.32H47.2v-2.485h8.965v2.485zm0-4.32H47.2v-2.485h8.965v2.484zM47.2 37.268v-2.484h8.965v2.484h-8.965z" fill="#535859"/><path d="M22.79 24.2h-3.78v1.836h.972v10.585h-1.944v1.836h1.944v1.944h1.836v-1.944h1.944v-1.836h-1.944v-1.944h.972c2.917 0 5.185-2.376 5.185-5.185 0-2.916-2.376-5.292-5.185-5.292zm0 8.64h-.972v-6.804h.972a3.365 3.365 0 013.349 3.348c0 1.945-1.512 3.457-3.349 3.457z" fill="#535859"/></symbol><symbol viewBox="0 0 16.63 13.59" id="checkmark" xmlns="http://www.w3.org/2000/svg"><path d="M0 6.65l4.3 5.74 1.6-1.2-4.3-5.74zm9.2 5.61l7.43-11.15L15 0 7.54 11.15zm-4.9.13a3 3 0 004.9-.13l-1.66-1.11a1 1 0 01-1.64 0z"/></symbol><symbol viewBox="0 0 284.936 284.936" id="double-arrow" xmlns="http://www.w3.org/2000/svg"><path d="M277.515 135.9L144.464 2.857C142.565.955 140.375 0 137.9 0c-2.472 0-4.659.955-6.562 2.857l-14.277 14.275c-1.903 1.903-2.853 4.089-2.853 6.567 0 2.478.95 4.664 2.853 6.567L229.268 142.47 117.062 254.677c-1.903 1.903-2.853 4.093-2.853 6.564 0 2.477.95 4.667 2.853 6.57l14.277 14.271c1.902 1.905 4.089 2.854 6.562 2.854 2.478 0 4.665-.951 6.563-2.854l133.051-133.044c1.902-1.902 2.851-4.093 2.851-6.567s-.949-4.664-2.851-6.571z"/><path d="M170.732 142.471c0-2.474-.947-4.665-2.857-6.571L34.833 2.857C32.931.955 30.741 0 28.267 0S23.602.955 21.7 2.857L7.426 17.133C5.52 19.036 4.57 21.222 4.57 23.7c0 2.478.95 4.664 2.856 6.567L119.63 142.471 7.426 254.677c-1.906 1.903-2.856 4.093-2.856 6.564 0 2.477.95 4.667 2.856 6.57l14.273 14.271c1.903 1.905 4.093 2.854 6.567 2.854s4.664-.951 6.567-2.854l133.042-133.044c1.91-1.902 2.857-4.093 2.857-6.567z"/></symbol><symbol viewBox="0 0 512 512" id="download" xmlns="http://www.w3.org/2000/svg"><path d="M472 313v139c0 11.028-8.972 20-20 20H60c-11.028 0-20-8.972-20-20V313H0v139c0 33.084 26.916 60 60 60h392c33.084 0 60-26.916 60-60V313h-40z"/><path d="M352 235.716l-76 76V0h-40v311.716l-76-76L131.716 264 256 388.284 380.284 264z"/></symbol><symbol fill="none" viewBox="0 0 33 33" id="electricity" xmlns="http://www.w3.org/2000/svg"><path d="M24.36 33H8.64a8.641 8.641 0 01-8.64-8.64V8.64c0-4.77 3.87-8.64 8.639-8.64h15.722C29.13 0 33 3.87 33 8.639v15.722C33 29.13 29.13 33 24.36 33z" fill="#C4C4C4"/><path d="M14.728 5.037h5.523c.247 0 .41.253.313.479l-3.977 8.945h6.655a.34.34 0 01.274.542l-10.32 14.061c-.476.65-1.49.108-1.216-.65l3.557-9.764H9.754a.342.342 0 01-.32-.462l4.975-12.93a.34.34 0 01.319-.221z" fill="#fff"/></symbol><symbol id="facebook" viewBox="0 0 25 26" xmlns="http://www.w3.org/2000/svg"><defs><style>.agcls-1{fill:#fff}</style></defs><path class="agcls-1" d="M23.63 0H1.39A1.41 1.41 0 000 1.45v23.1A1.4 1.4 0 001.37 26h12V16H10.1v-4h3.27V9.1c0-3.37 2-5.17 4.85-5.17a25.15 25.15 0 012.92.16V7.6h-2c-1.55 0-1.87.78-1.87 1.92V12H21l-.5 4h-3.24v10h6.37A1.4 1.4 0 0025 24.58V1.48A1.42 1.42 0 0023.63 0z"/></symbol><symbol fill="none" viewBox="0 0 34 33" id="gas" xmlns="http://www.w3.org/2000/svg"><path d="M24.36 33H8.64a8.64 8.64 0 01-8.64-8.64V8.64c0-4.77 3.87-8.64 8.643-8.64h15.721a8.64 8.64 0 018.64 8.639v15.722C33 29.13 29.134 33 24.36 33z" fill="#19A5E0"/><path d="M16.501 4.342S6.254 11.637 6.254 19.452c0 5.086 4.589 9.206 10.247 9.206-3.637 0-6.586-2.65-6.586-5.92 0-5.022 6.586-9.712 6.586-9.712s6.586 4.69 6.586 9.713c0 3.268-2.949 5.919-6.586 5.919 5.659 0 10.248-4.12 10.248-9.205 0-7.816-10.248-15.111-10.248-15.111z" fill="#fff"/><path d="M20.744 23.975c0 2.105-1.9 3.814-4.245 3.814s-4.245-1.709-4.245-3.814c0-3.237 4.245-6.26 4.245-6.26s4.245 3.023 4.245 6.26z" fill="#fff"/></symbol><symbol fill="none" viewBox="0 0 34 33" id="heat" xmlns="http://www.w3.org/2000/svg"><path d="M24.36 33H8.64A8.64 8.64 0 010 24.36V8.64c0-4.77 3.87-8.64 8.643-8.64h15.721a8.64 8.64 0 018.64 8.639v15.722C33 29.13 29.134 33 24.36 33z" fill="#D22929"/><path d="M28.317 9.379c.482 0 .873-.391.873-.873V7.47a.873.873 0 00-.873-.872h-.17v-.347c0-1.15-.934-2.084-2.084-2.084h-.694c-1.15 0-2.084.934-2.084 2.084v.347h-1.274v-.347c0-1.15-.934-2.084-2.084-2.084h-.694a2.084 2.084 0 00-2.084 2.084v.347h-1.274v-.347c0-1.15-.934-2.084-2.084-2.084h-.694c-1.15 0-2.084.934-2.084 2.084v.347H9.74v-.347c0-1.15-.934-2.084-2.084-2.084H6.96c-1.15 0-2.084.934-2.084 2.084v.347h-.17a.873.873 0 00-.873.872v1.035c0 .482.39.873.873.873h.17v13.943a1.387 1.387 0 00-1.043 1.34c0 .646.443 1.185 1.043 1.34v.397c0 1.15.934 2.084 2.084 2.084h.694c1.15 0 2.084-.934 2.084-2.084v-.347h1.274v.347c0 1.15.934 2.084 2.084 2.084h.694a2.084 2.084 0 002.084-2.084v-.347h1.274v.347c0 1.15.934 2.084 2.084 2.084h.694c1.15 0 2.084-.934 2.084-2.084v-.347h1.274v.347c0 1.15.934 2.084 2.084 2.084h.694c1.15 0 2.084-.934 2.084-2.084v-.397a1.388 1.388 0 001.043-1.34c0-.646-.443-1.185-1.043-1.34V9.38h.17zm-20.58 17.37a.493.493 0 11-.986 0V6.251a.493.493 0 11.987 0v20.496zm3.274-3.475H9.737V9.38h1.274v13.895zm2.867 3.474a.493.493 0 11-.986 0V6.252a.493.493 0 11.986 0v20.496zm3.271-3.474h-1.274V9.38h1.274v13.895zm2.981 3.474a.493.493 0 11-.986 0V6.252a.493.493 0 11.986 0v20.496zm3.155-3.474h-1.274V9.38h1.274v13.895zm2.924 3.474a.493.493 0 11-.986 0V6.252a.493.493 0 11.986 0v20.496z" fill="#fff"/></symbol><symbol id="instagram" viewBox="0 0 26 27" xmlns="http://www.w3.org/2000/svg"><defs><style>.ajcls-1{fill:#fff}</style></defs><path class="ajcls-1" d="M13 2.34c3.47 0 3.87 0 5.25.08a7 7 0 012.42.46 4 4 0 011.5 1 4 4 0 011 1.51 7.48 7.48 0 01.46 2.42c.05 1.38.08 1.78.08 5.26s0 3.87-.08 5.25a7 7 0 01-.46 2.42 4 4 0 01-1 1.51 4 4 0 01-1.5 1 7.48 7.48 0 01-2.42.46c-1.38.05-1.78.08-5.25.08s-3.87 0-5.24-.08a7 7 0 01-2.42-.46 4 4 0 01-1.51-1 4.11 4.11 0 01-1-1.51 7.48 7.48 0 01-.46-2.42c-.06-1.38-.08-1.78-.08-5.25s0-3.88.08-5.26a6.73 6.73 0 01.46-2.42 4.11 4.11 0 011-1.51 4 4 0 011.51-1 7.48 7.48 0 012.42-.46c1.38-.08 1.78-.08 5.24-.08zM13 0C9.49 0 9 0 7.66.08a10.07 10.07 0 00-3.14.59A6.36 6.36 0 002.2 2.18 6.74 6.74 0 00.7 4.5a9.1 9.1 0 00-.59 3.15C.05 9.05 0 9.48 0 13s0 4 .08 5.36a9.92 9.92 0 00.62 3.16 6.33 6.33 0 001.5 2.32 6.74 6.74 0 002.32 1.5 9.25 9.25 0 003.14.6C9.06 26 9.49 26 13 26s4 0 5.35-.08a10.11 10.11 0 003.15-.6 6.21 6.21 0 002.31-1.5 6.63 6.63 0 001.51-2.32 9.39 9.39 0 00.59-3.15C26 17 26 16.54 26 13s0-4-.08-5.36a10.14 10.14 0 00-.59-3.15 6.36 6.36 0 00-1.51-2.32 6.5 6.5 0 00-2.31-1.5 9.34 9.34 0 00-3.15-.59C17 0 16.53 0 13 0z"/><path class="ajcls-1" d="M13 6.33A6.68 6.68 0 1019.68 13 6.68 6.68 0 0013 6.33zm0 11A4.34 4.34 0 1117.34 13 4.33 4.33 0 0113 17.34zM21.51 6.06A1.56 1.56 0 1120 4.5a1.56 1.56 0 011.51 1.56z"/></symbol><symbol fill="none" viewBox="0 0 73 51" id="issued" xmlns="http://www.w3.org/2000/svg"><path d="M58.815 30.865c3.664 0 6.55-3.552 6.55-8.216 0-3.553-.776-7.105-6.55-7.105-5.773 0-6.55 3.552-6.55 7.105 0 4.663 2.775 8.216 6.55 8.216zm0-13.323c3.553 0 4.663 1.221 4.663 5.218 0 3.11-1.665 6.329-4.663 6.329-2.997 0-4.663-3.22-4.663-6.329 0-3.997 1.11-5.218 4.663-5.218z" fill="#535859"/><path d="M72.027 38.86c0-.223 0-5.108-3.997-6.44-.999-.334-2.22-1-3.663-1.999l-1.11 1.555c1.665 1.11 2.997 1.887 4.218 2.22 2.665.888 2.665 4.663 2.665 4.663v1.332H60.037c-1.888-2.664-4.886-3.775-8.105-4.996-.666-.222-1.333-.555-1.999-.777.111 0 .222-.111.333-.111 1.11-.333 2.554-1.11 4.22-2.22l-1.111-1.555c-1.443 1-2.776 1.666-3.664 1.999-.666.222-1.221.555-1.776.999-.555-.222-1.11-.555-1.666-.888l-2.664-3.775-.666.11V25.87c.999-.888 3.552-3.775 4.44-10.325v-4.552C47.492 3.664 43.828 0 36.5 0c-7.328 0-10.992 3.664-10.992 10.992V15.544c.889 6.55 3.442 9.437 4.441 10.325v3.109l-.555-.111-2.442 3.664c-.555.333-1.11.555-1.666.888-.555-.444-1.11-.777-1.776-1-1-.332-2.22-.999-3.664-1.998l-1.11 1.555c1.665 1.11 2.998 1.887 4.219 2.22.11 0 .222.111.333.111-.666.222-1.332.555-1.998.777-3.22 1.221-6.218 2.443-8.105 4.996H2.858v-1.22s0-3.776 2.665-4.664c1.11-.333 2.553-1.11 4.219-2.22l-1.11-1.555c-1.444 1-2.776 1.666-3.664 1.999C.97 33.752.97 38.637.97 38.86v3.219h10.991c-.555 1.443-.999 3.33-.999 5.662v3.22h50.961v-3.22c0-2.442-.333-4.219-1-5.773h11.103v-3.109zM36.5 1.886c6.106 0 8.882 2.665 9.104 8.55l-3.553 1.776-11.102-4.441-3.442 1.665c.444-5.218 3.22-7.55 8.993-7.55zm-9.104 13.435v-3.775l3.553-1.777 11.102 4.441 3.442-1.776v2.887c-1 6.772-3.664 8.993-3.997 9.326-1.998.999-5.107.999-5.107.999s-3.109 0-5.107-1c-.222-.221-2.887-2.553-3.886-9.325zm4.44 11.546c2.221.667 4.553.667 4.664.667.111 0 2.443 0 4.663-.667v2.443l-4.663.777-4.663-.777v-2.443zm-1.553 4.108l6.217 1 6.218-1 1.443 2.22-3.442 3.443-4.219-2.22-4.33 2.22-3.442-3.442 1.555-2.22zm29.755 18.098H12.85V47.74c0-7.55 3.552-8.882 8.882-10.88a58.12 58.12 0 005.662-2.443l4.44 4.441 4.664-2.331 4.663 2.331 4.441-4.44a58.11 58.11 0 005.663 2.442c5.329 1.998 8.882 3.33 8.882 10.88v1.333h-.111z" fill="#535859"/><path d="M14.182 30.865c3.664 0 6.55-3.552 6.55-8.216 0-3.553-.776-7.105-6.55-7.105-5.773 0-6.55 3.664-6.55 7.105 0 4.663 2.886 8.216 6.55 8.216zm0-13.323c3.553 0 4.664 1.221 4.664 5.218 0 3.11-1.666 6.329-4.664 6.329-2.997 0-4.663-3.22-4.663-6.329 0-3.997 1.11-5.218 4.663-5.218zM37.61 44.632h-2.221v1.888h2.22v-1.888zM37.61 40.191h-2.221v1.888h2.22V40.19z" fill="#535859"/></symbol><symbol viewBox="0 0 6.5 6.33" id="lang-arrow" xmlns="http://www.w3.org/2000/svg"><path d="M4.14 5.79a1 1 0 01-1.78 0L.11 1.46A1 1 0 011 0h4.5a1 1 0 01.89 1.46z"/></symbol><symbol viewBox="0 0 492 492" id="left-arrow" xmlns="http://www.w3.org/2000/svg"><path d="M198.608 246.104L382.664 62.04c5.068-5.056 7.856-11.816 7.856-19.024 0-7.212-2.788-13.968-7.856-19.032l-16.128-16.12C361.476 2.792 354.712 0 347.504 0s-13.964 2.792-19.028 7.864L109.328 227.008c-5.084 5.08-7.868 11.868-7.848 19.084-.02 7.248 2.76 14.028 7.848 19.112l218.944 218.932c5.064 5.072 11.82 7.864 19.032 7.864 7.208 0 13.964-2.792 19.032-7.864l16.124-16.12c10.492-10.492 10.492-27.572 0-38.06L198.608 246.104z"/></symbol><symbol id="location" viewBox="0 0 30.69 36.72" xmlns="http://www.w3.org/2000/svg"><defs><style>.ancls-1{fill:#4ba4db}</style></defs><circle class="ancls-1" cx="15.59" cy="15.21" r="3.15"/><path class="ancls-1" d="M15.46 36.72l-1.38-1a49.86 49.86 0 01-6.89-6.07C2.42 24.62 0 19.8 0 15.34a15.35 15.35 0 0130.69 0c0 4.56-2.37 9.41-7 14.42a47.77 47.77 0 01-6.76 6zm-.12-34A12.68 12.68 0 002.67 15.34c0 3.76 2.17 8 6.46 12.5a47.18 47.18 0 006.34 5.62 47.17 47.17 0 006.22-5.52c4.2-4.5 6.33-8.74 6.33-12.6A12.69 12.69 0 0015.34 2.67z"/></symbol><symbol id="pdf" viewBox="0 0 77.39 95.96" xmlns="http://www.w3.org/2000/svg"><defs><style>.aocls-1{fill:#707070}.aocls-2{fill:#4ba4db}</style></defs><path class="aocls-1" d="M30 43.94a4.64 4.64 0 011.56 3.81 4.84 4.84 0 01-1.59 4 6.8 6.8 0 01-4.42 1.31H24v6.1h-2.26V42.67h3.73A7 7 0 0130 43.94zm-1.7 6.58a3.41 3.41 0 00.94-2.75 3.29 3.29 0 00-.92-2.6 4.24 4.24 0 00-2.82-.8H24v7h1.51a4.24 4.24 0 002.78-.85zM41.11 43.33a5.23 5.23 0 012.58 2.44 10.53 10.53 0 011 5q0 4.65-2 6.49a7.09 7.09 0 01-5 1.84H34V42.67h3.4a9.78 9.78 0 013.71.66zm-4.88 1.1v13h1.63A4.12 4.12 0 0041.14 56c.81-1 1.22-2.67 1.22-5.18a10.12 10.12 0 00-.64-4 3.52 3.52 0 00-1.62-1.88 5.47 5.47 0 00-2.36-.47zM47.62 59.14V42.67h8l-.24 1.73h-5.49v5.74h4.78v1.72h-4.78v7.28z"/><path class="aocls-2" d="M68.19 96h-59A9.21 9.21 0 010 86.76V9.19A9.22 9.22 0 019.19 0h39.29A10.56 10.56 0 0156 3.1l18.29 18.31a10.52 10.52 0 013.1 7.49v57.86a9.21 9.21 0 01-9.2 9.24zm-59-90.33a3.53 3.53 0 00-3.53 3.52v77.57a3.53 3.53 0 003.49 3.57H68.2a3.53 3.53 0 003.53-3.53V28.9a4.88 4.88 0 00-1.44-3.48L52 7.11a4.86 4.86 0 00-3.49-1.44z"/></symbol><symbol fill="none" viewBox="0 0 68 55" id="received" xmlns="http://www.w3.org/2000/svg"><path d="M68 20.811l-1.59-1.59-5.567 5.567L43.08 7.158l5.568-5.567L47.188 0l-7.157 7.158 1.988 2.12H25.98l2.122-2.12L20.812 0 19.22 1.59l5.568 5.568L7.29 24.92l-5.568-5.567L0 20.811l7.29 7.158 1.591-1.458 3.712 3.711v3.182l1.193 1.193c-.398.53-1.193 1.458-1.193 2.65 0 2.387 1.855 4.243 4.241 4.375 0 2.386 1.989 4.242 4.242 4.242 0 2.386 1.988 4.242 4.242 4.242 0 2.386 1.988 4.241 4.374 4.241 1.193 0 2.254-.795 2.651-1.193.53.398 1.458 1.193 2.651 1.193 1.989 0 3.58-1.325 4.11-3.048.53.397 1.458.928 2.253.928 2.12 0 3.844-1.459 4.242-3.447.397.133.663.265 1.06.265 2.386 0 4.374-1.988 4.374-4.374 0-.928-.53-1.723-.927-2.254 1.723-.53 3.048-2.12 3.048-4.109 0-1.193-.795-2.12-1.193-2.65l4.375-4.375v-2.121l2.65-2.651 1.591 1.59 7.424-7.29zM14.715 37.248c0-.265.265-.795.53-1.06l2.65 2.65c-.264.266-.794.53-1.06.53-1.06-.132-2.12-1.06-2.12-2.12zm4.374 4.242c0-.266.265-.796.53-1.06l2.651 2.65c-.265.265-.795.53-1.06.53a2.094 2.094 0 01-2.121-2.12zm4.242 4.241c0-.265.265-.795.53-1.06l2.65 2.651c-.264.265-.794.53-1.06.53a2.094 2.094 0 01-2.12-2.12zm4.241 4.375c0-.266.265-.796.53-1.06l2.652 2.65c-.265.265-.796.53-1.06.53-1.194-.132-2.122-1.06-2.122-2.12zm21.474-9.677c-.398 0-1.06-.398-1.325-.795l-9.677-9.677-1.59 1.591L48.25 43.345c.265.265.795.928.795 1.326 0 1.193-.928 2.12-2.12 2.12-.398 0-1.061-.397-1.326-.795l-1.06-1.06L33.8 34.199l-1.59 1.59 10.737 10.738c.265.265.795.928.795 1.325 0 1.193-.928 2.121-2.12 2.121-.398 0-1.061-.398-1.326-.795L29.56 38.44l-1.724 1.723 8.617 8.616c.265.265.795.928.795 1.326 0 1.193-.928 2.12-2.121 2.12-.398 0-1.06-.397-1.326-.795L14.714 32.476v-3.181l-4.375-4.375 13.388-13.388h4.375l-4.507 4.507c-.133.133-1.458 1.458-1.458 2.916 0 2.386 1.988 4.375 4.374 4.375 1.458 0 2.784-1.193 2.916-1.458l5.037-5.038h1.59v5.7l14.317 14.449c.265.265.795.928.795 1.325-.133 1.06-1.06 2.121-2.12 2.121zm5.302-12.195v2.121l-3.711 3.711-8.484-8.483h.53c2.386 0 4.375-1.988 4.375-4.374h-2.254c0 1.193-.927 2.12-2.12 2.12h-2.917l-1.458-1.457v-7.026h-4.772l-5.7 5.435c-.265.265-.927.795-1.325.795a2.094 2.094 0 01-2.121-2.12c0-.398.398-1.061.795-1.326l6.098-6.098h12.99L57.661 24.92l-3.314 3.314z" fill="#535859"/><path d="M59.444 17.134l-1.593 1.594 2.156 2.156 1.593-1.595-2.156-2.155zM8.58 17.148l-2.154 2.157 1.594 1.593 2.155-2.157-1.594-1.593z" fill="#535859"/></symbol><symbol viewBox="0 0 512.005 512.005" id="right" xmlns="http://www.w3.org/2000/svg"><path d="M388.418 240.923L153.751 6.256c-8.341-8.341-21.824-8.341-30.165 0s-8.341 21.824 0 30.165L343.17 256.005 123.586 475.589c-8.341 8.341-8.341 21.824 0 30.165a21.275 21.275 0 0015.083 6.251 21.277 21.277 0 0015.083-6.251l234.667-234.667c8.34-8.34 8.34-21.823-.001-30.164z"/></symbol><symbol viewBox="0 0 492.004 492.004" id="right-arrow" xmlns="http://www.w3.org/2000/svg"><path d="M382.678 226.804L163.73 7.86C158.666 2.792 151.906 0 144.698 0s-13.968 2.792-19.032 7.86l-16.124 16.12c-10.492 10.504-10.492 27.576 0 38.064L293.398 245.9l-184.06 184.06c-5.064 5.068-7.86 11.824-7.86 19.028 0 7.212 2.796 13.968 7.86 19.04l16.124 16.116c5.068 5.068 11.824 7.86 19.032 7.86s13.968-2.792 19.032-7.86L382.678 265c5.076-5.084 7.864-11.872 7.848-19.088.016-7.244-2.772-14.028-7.848-19.108z"/></symbol><symbol viewBox="0 0 31 59" id="scroll-down" xmlns="http://www.w3.org/2000/svg"><path d="M15.5 59A15.51 15.51 0 010 43.5v-28a15.5 15.5 0 0131 0v28A15.51 15.51 0 0115.5 59zm0-57A13.52 13.52 0 002 15.5v28a13.5 13.5 0 0027 0v-28A13.52 13.52 0 0015.5 2z"/><path d="M16 18a1 1 0 01-1-1V9a1 1 0 012 0v8a1 1 0 01-1 1z"/></symbol><symbol fill="none" viewBox="0 0 34 33" id="sewers" xmlns="http://www.w3.org/2000/svg"><path d="M24.369 33H8.647a8.64 8.64 0 01-8.64-8.64V8.64c0-4.77 3.87-8.64 8.643-8.64h15.722a8.64 8.64 0 018.64 8.639v15.722C33.007 29.13 29.141 33 24.368 33z" fill="#FFA64B"/><path d="M6.708 7.642H5.117c-.81 0-1.463.657-1.463 1.463v16.527c0 .81.657 1.463 1.463 1.463h1.59c.81 0 1.463-.657 1.463-1.463V9.105c0-.806-.653-1.463-1.462-1.463zM27.897 7.816h-1.59c-.81 0-1.463.656-1.463 1.462v16.528c0 .81.656 1.462 1.462 1.462h1.591c.81 0 1.463-.656 1.463-1.462V9.278c0-.806-.654-1.462-1.463-1.462zM23.322 11.116h-3.86V9.6a.396.396 0 00-.396-.396h-2.035V7.121h3.82a.697.697 0 00.695-.695.697.697 0 00-.694-.695h-8.684a.697.697 0 00-.695.695c0 .382.312.695.694.695h3.822v2.084h-2.036a.396.396 0 00-.396.396v1.515h-3.86a.482.482 0 00-.482.482v11.544c0 .267.215.482.483.482h13.627a.482.482 0 00.483-.482V11.599a.492.492 0 00-.486-.483z" fill="#fff"/></symbol><symbol viewBox="0 0 8.22 18.44" id="slider-arrow-left" xmlns="http://www.w3.org/2000/svg"><path d="M7.72 18.44a.5.5 0 01-.39-.18L.11 9.54a.51.51 0 010-.64L7.33.18A.49.49 0 018 .12a.49.49 0 01.07.7l-6.92 8.4 7 8.4a.49.49 0 01-.07.7.47.47 0 01-.36.12z"/></symbol><symbol viewBox="0 0 8.22 18.44" id="slider-arrow-right" xmlns="http://www.w3.org/2000/svg"><path d="M.5 18.44a.49.49 0 01-.32-.12.5.5 0 01-.07-.7l7-8.4-7-8.4A.5.5 0 01.89.18L8.1 8.9a.51.51 0 010 .64L.89 18.26a.51.51 0 01-.39.18z"/></symbol><symbol viewBox="0 0 37 37" id="step" xmlns="http://www.w3.org/2000/svg"><rect x="5" y="5" width="27" height="27" rx="8"/><path d="M24 37H13A13 13 0 010 24V13A13 13 0 0113 0h11a13 13 0 0113 13v11a13 13 0 01-13 13zM13 2A11 11 0 002 13v11a11 11 0 0011 11h11a11 11 0 0011-11V13A11 11 0 0024 2z"/></symbol><symbol viewBox="0 0 57 16" id="step-arrow" xmlns="http://www.w3.org/2000/svg"><path class="axcls-1" d="M48 0l-1.23 1.58L53.74 7H52v2h1.74l-6.97 5.42L48 16l9-7V7l-9-7zM26 7h5v2h-5zM0 7h5v2H0zM39 7h5v2h-5zM13 7h5v2h-5z"/></symbol><symbol viewBox="0 0 24 24" id="vk" xmlns="http://www.w3.org/2000/svg"><path d="M19.915 13.028c-.388-.49-.277-.708 0-1.146.005-.005 3.208-4.431 3.538-5.932l.002-.001c.164-.547 0-.949-.793-.949h-2.624c-.668 0-.976.345-1.141.731 0 0-1.336 3.198-3.226 5.271-.61.599-.892.791-1.225.791-.164 0-.419-.192-.419-.739V5.949c0-.656-.187-.949-.74-.949H9.161c-.419 0-.668.306-.668.591 0 .622.945.765 1.043 2.515v3.797c0 .832-.151.985-.486.985-.892 0-3.057-3.211-4.34-6.886-.259-.713-.512-1.001-1.185-1.001H.9c-.749 0-.9.345-.9.731 0 .682.892 4.073 4.148 8.553C6.318 17.343 9.374 19 12.154 19c1.671 0 1.875-.368 1.875-1.001 0-2.922-.151-3.198.686-3.198.388 0 1.056.192 2.616 1.667C19.114 18.217 19.407 19 20.405 19h2.624c.748 0 1.127-.368.909-1.094-.499-1.527-3.871-4.668-4.023-4.878z"/></symbol><symbol fill="none" viewBox="0 0 34 33" id="water" xmlns="http://www.w3.org/2000/svg"><path d="M24.365 33H8.643a8.64 8.64 0 01-8.64-8.64V8.64c0-4.77 3.87-8.64 8.643-8.64h15.722a8.64 8.64 0 018.64 8.639v15.722C33.003 29.13 29.137 33 24.364 33z" fill="#4441B3"/><path d="M16.503 4.342S6.256 11.637 6.256 19.452c0 5.086 4.589 9.206 10.247 9.206 5.659 0 10.248-4.12 10.248-9.205 0-7.816-10.248-15.111-10.248-15.111zm8.198 15.36a.493.493 0 01-.493-.493c0-4.554-4.714-9-6.743-10.702a.491.491 0 01-.059-.695.491.491 0 01.695-.059c2.647 2.223 7.093 6.666 7.093 11.456a.493.493 0 01-.493.494z" fill="#fff"/></symbol><symbol viewBox="0 0 373.12 373.12" id="zoom-in" xmlns="http://www.w3.org/2000/svg"><path d="M266.667 234.667h-16.853l-5.973-5.76c20.907-24.32 33.493-55.893 33.493-90.24C277.333 62.08 215.253 0 138.667 0S0 62.08 0 138.667s62.08 138.667 138.667 138.667c34.347 0 65.92-12.587 90.24-33.493l5.76 5.973v16.853L341.333 373.12l31.787-31.787-106.453-106.666zm-128 0c-53.12 0-96-42.88-96-96s42.88-96 96-96 96 42.88 96 96-42.88 96-96 96z"/><path d="M149.333 128V85.333H128V128H85.333v21.333H128V192h21.333v-42.667H192V128z"/></symbol></svg>