<svg id="Layer_1" data-name="Layer 1" xmlns="http://www.w3.org/2000/svg" viewBox="0 0 153.06 46"><defs><style>.cls-1{fill:#fff;fill-opacity:0.8;}</style></defs><path class="cls-1" d="M82.92,21.09,79.1,10.61,75.23,21.09ZM83,3.73,94.29,31.26H86.63l-1.81-4.89H73.29l-1.77,4.89H64L75.27,3.73Z"/><path class="cls-1" d="M108.81,31.75c-9.3,0-14.94-5.47-14.94-14.27S99.71,3.29,109,3.29c7.49,0,12.76,4.48,13.78,10.74h-6.91c-.78-3.76-3.78-5.39-7.12-5.39-4.2,0-7.45,3.22-7.45,8.84,0,5.81,3.25,8.93,7.54,8.93,3.05,0,6.42-1.22,7.24-5.39H123C122,27.39,116.34,31.75,108.81,31.75Z"/><path class="cls-1" d="M133.59,3.73V21.58L146.26,3.73h6.8V31.26h-6.8V13.42L133.59,31.26H126.8V3.73Z"/><path class="cls-1" d="M12.4,8.68,0,0V35l12.4-8.68Z"/><path class="cls-1" d="M37.59,8.68V26.32L50,35V0Z"/><path class="cls-1" d="M68.65,46H67.14V40.12H65.2V38.86h5.39v1.26H68.65Zm22.91,0V38.85h4.66v1.26h-3v1.67h2.44V43H93.17v1.78h3.21V46ZM117,46l2.35-7.15h2.11L123.73,46H122l-.49-1.59H119L118.47,46Zm3.31-5.83-1,3.09h1.89ZM144.71,46V38.85h2.14l1.67,4.45,1.65-4.45h2.1V46h-1.61V41l-2,5h-.53l-2-5v5Z"/></svg>