<svg width="648" height="257" viewBox="0 0 648 257" fill="none" xmlns="http://www.w3.org/2000/svg">
<path d="M5.16047 62.2651H4.15255V51.25L0.84082 52.4739V51.538L5.01648 49.9541H5.16047V62.2651Z" fill="black"/>
<path d="M16.3914 57.1537C16.3914 58.8816 16.1034 60.1775 15.4555 61.1134C14.8075 62.0493 13.8716 62.4813 12.6477 62.4813C11.4238 62.4813 10.4879 62.0493 9.83995 61.1854C9.192 60.3215 8.83203 59.0256 8.83203 57.3697V55.1379C8.83203 53.41 9.12001 52.1141 9.76795 51.2502C10.4159 50.3863 11.3518 49.8823 12.5757 49.8823C13.7996 49.8823 14.7356 50.3143 15.3835 51.1782C16.0314 52.0422 16.3914 53.266 16.3914 54.9939V57.1537ZM15.3835 54.9939C15.3835 53.554 15.1675 52.5461 14.6636 51.8262C14.1596 51.1062 13.5116 50.7463 12.5757 50.7463C11.6398 50.7463 10.9919 51.1062 10.4879 51.8262C9.98394 52.5461 9.76795 53.554 9.76795 54.9219V57.3697C9.76795 58.7376 9.98394 59.8175 10.4879 60.6095C10.9919 61.4014 11.6398 61.6894 12.5757 61.6894C13.4397 61.6894 14.1596 61.3294 14.5916 60.6095C15.0235 59.8895 15.3115 58.8096 15.3115 57.4417V54.9939H15.3835Z" fill="black"/>
<path d="M26.0379 57.1537C26.0379 58.8816 25.7499 60.1775 25.102 61.1134C24.454 62.0493 23.5181 62.4813 22.2942 62.4813C21.0703 62.4813 20.1344 62.0493 19.4864 61.1854C18.8385 60.3215 18.4785 59.0256 18.4785 57.3697V55.1379C18.4785 53.41 18.7665 52.1141 19.4144 51.2502C20.0624 50.3863 20.9983 49.8823 22.2222 49.8823C23.4461 49.8823 24.382 50.3143 25.03 51.1782C25.6779 52.0422 26.0379 53.266 26.0379 54.9939V57.1537ZM25.03 54.9939C25.03 53.554 24.814 52.5461 24.31 51.8262C23.8061 51.1062 23.1581 50.7463 22.2222 50.7463C21.2863 50.7463 20.6383 51.1062 20.1344 51.8262C19.6304 52.5461 19.4144 53.554 19.4144 54.9219V57.3697C19.4144 58.7376 19.6304 59.8175 20.1344 60.6095C20.6383 61.4014 21.2863 61.6894 22.2222 61.6894C23.0861 61.6894 23.8061 61.3294 24.238 60.6095C24.67 59.8895 24.958 58.8096 24.958 57.4417V54.9939H25.03Z" fill="black"/>
<path d="M35.7576 57.1537C35.7576 58.8816 35.4697 60.1775 34.8217 61.1134C34.1738 62.0493 33.2378 62.4813 32.0139 62.4813C30.79 62.4813 29.8541 62.0493 29.2062 61.1854C28.5582 60.3215 28.1982 59.0256 28.1982 57.3697V55.1379C28.1982 53.41 28.4862 52.1141 29.1342 51.2502C29.7821 50.3863 30.718 49.8823 31.9419 49.8823C33.1658 49.8823 34.1018 50.3143 34.7497 51.1782C35.3977 52.0422 35.7576 53.266 35.7576 54.9939V57.1537ZM34.7497 54.9939C34.7497 53.554 34.5337 52.5461 34.0298 51.8262C33.5258 51.1062 32.8779 50.7463 31.9419 50.7463C31.006 50.7463 30.3581 51.1062 29.8541 51.8262C29.3501 52.5461 29.1342 53.554 29.1342 54.9219V57.3697C29.1342 58.7376 29.3501 59.8175 29.8541 60.6095C30.3581 61.4014 31.006 61.6894 31.9419 61.6894C32.8059 61.6894 33.5258 61.3294 33.9578 60.6095C34.3897 59.8895 34.6777 58.8096 34.6777 57.4417V54.9939H34.7497Z" fill="black"/>
<path d="M6.16801 18.2057H5.0881V7.11865L1.77637 8.34255V7.40663L5.95203 5.82275H6.09602V18.2057H6.16801Z" fill="black"/>
<path d="M17.3273 18.2045H9.62391V17.4126L13.7996 12.6609C14.5195 11.869 14.9515 11.2211 15.2395 10.6451C15.5274 10.0692 15.6714 9.6372 15.6714 9.13324C15.6714 8.3413 15.4554 7.76535 15.0235 7.26139C14.5915 6.75743 13.9436 6.61344 13.1516 6.61344C12.3597 6.61344 11.6398 6.82942 11.1358 7.40538C10.6318 7.98133 10.3439 8.62928 10.3439 9.49321H9.33594C9.33594 8.77327 9.47993 8.19731 9.8399 7.62136C10.1999 7.04541 10.6318 6.61344 11.2078 6.25347C11.7837 5.8935 12.4317 5.74951 13.1516 5.74951C14.3035 5.74951 15.1675 6.03749 15.8154 6.61344C16.4634 7.18939 16.7513 7.98133 16.7513 9.06124C16.7513 9.6372 16.6073 10.2851 16.2474 10.9331C15.8874 11.581 15.2395 12.445 14.3755 13.4529L10.9198 17.3406H17.3993V18.2045H17.3273Z" fill="black"/>
<path d="M19.4154 11.8691L19.9913 5.89355H26.1108V6.82948H20.8552L20.4233 11.0051C21.0712 10.5732 21.8632 10.3572 22.7271 10.3572C23.807 10.3572 24.7429 10.7172 25.3909 11.4371C26.0388 12.157 26.3988 13.093 26.3988 14.3169C26.3988 15.6128 26.1108 16.6207 25.4629 17.3406C24.8149 18.0606 23.951 18.4205 22.7271 18.4205C21.6472 18.4205 20.7833 18.1326 20.1353 17.5566C19.4874 16.9807 19.1274 16.1167 18.9834 15.0368H19.9193C19.9913 15.9007 20.2793 16.4767 20.7833 16.9087C21.2872 17.3406 21.8632 17.5566 22.7271 17.5566C23.591 17.5566 24.239 17.2686 24.7429 16.6927C25.2469 16.1167 25.3909 15.3248 25.3909 14.3169C25.3909 13.4529 25.1749 12.661 24.6709 12.0851C24.167 11.5091 23.519 11.2211 22.6551 11.2211C22.1511 11.2211 21.7912 11.2931 21.4312 11.4371C21.0712 11.5811 20.7113 11.7971 20.2793 12.157L19.4154 11.8691Z" fill="black"/>
<path d="M35.7576 13.0209C35.7576 14.7488 35.4697 16.0447 34.8217 16.9806C34.1738 17.9165 33.2378 18.3485 32.0139 18.3485C30.79 18.3485 29.8541 17.9165 29.2062 17.0526C28.5582 16.1887 28.1982 14.8928 28.1982 13.2369V11.0051C28.1982 9.27722 28.4862 7.98133 29.1342 7.1174C29.7821 6.25347 30.718 5.74951 31.9419 5.74951C33.1658 5.74951 34.1018 6.18148 34.7497 7.04541C35.3977 7.90934 35.7576 9.13324 35.7576 10.8611V13.0209ZM34.7497 10.8611C34.7497 9.42121 34.5337 8.41329 34.0298 7.69335C33.5258 6.97341 32.9499 6.61344 32.0139 6.61344C31.078 6.61344 30.4301 6.97341 29.9261 7.69335C29.4221 8.41329 29.2062 9.42121 29.2062 10.7891V13.2369C29.2062 14.6048 29.4221 15.6847 29.9261 16.4766C30.4301 17.2686 31.078 17.5566 32.0139 17.5566C32.8779 17.5566 33.5978 17.1966 34.0298 16.4766C34.4617 15.7567 34.7497 14.6768 34.7497 13.3089V10.8611Z" fill="black"/>
<path d="M17.3277 94.6629L12.0721 106.398H10.9922L16.1758 94.9508H9.19238V94.0869H17.2557V94.6629H17.3277Z" fill="black"/>
<path d="M19.4144 100.062L19.9903 94.0864H26.1098V95.0224H20.8543L20.4223 99.198C21.0703 98.766 21.8622 98.5501 22.7261 98.5501C23.806 98.5501 24.742 98.91 25.3899 99.63C26.0378 100.35 26.3978 101.286 26.3978 102.51C26.3978 103.806 26.1098 104.814 25.4619 105.533C24.8139 106.253 23.95 106.613 22.7261 106.613C21.6462 106.613 20.7823 106.325 20.1343 105.749C19.4864 105.174 19.1264 104.31 18.9824 103.23H19.9183C19.9903 104.094 20.2783 104.67 20.7823 105.102C21.2862 105.533 21.8622 105.749 22.7261 105.749C23.59 105.749 24.238 105.462 24.742 104.886C25.2459 104.31 25.3899 103.518 25.3899 102.51C25.3899 101.646 25.1739 100.854 24.67 100.278C24.166 99.702 23.5181 99.414 22.6541 99.414C22.1502 99.414 21.7902 99.486 21.4302 99.63C21.0703 99.774 20.7103 99.9899 20.2783 100.35L19.4144 100.062Z" fill="black"/>
<path d="M35.7576 101.286C35.7576 103.014 35.4697 104.31 34.8217 105.246C34.1738 106.182 33.2378 106.614 32.0139 106.614C30.79 106.614 29.8541 106.182 29.2062 105.318C28.5582 104.454 28.1982 103.158 28.1982 101.502V99.2702C28.1982 97.5424 28.4862 96.2465 29.1342 95.3825C29.7821 94.5186 30.718 94.0146 31.9419 94.0146C33.1658 94.0146 34.1018 94.4466 34.7497 95.3105C35.3977 96.1745 35.7576 97.3984 35.7576 99.1262V101.286ZM34.7497 99.0542C34.7497 97.6144 34.5337 96.6064 34.0298 95.8865C33.5258 95.1666 32.8779 94.8066 31.9419 94.8066C31.006 94.8066 30.3581 95.1666 29.8541 95.8865C29.3501 96.6064 29.1342 97.6144 29.1342 98.9823V101.43C29.1342 102.798 29.3501 103.878 29.8541 104.67C30.3581 105.462 31.006 105.75 31.9419 105.75C32.8059 105.75 33.5258 105.39 33.9578 104.67C34.3897 103.95 34.6777 102.87 34.6777 101.502V99.0542H34.7497Z" fill="black"/>
<path d="M9.69564 144.195L10.2716 138.219H16.3911V139.155H11.1355L10.7036 143.331C11.3515 142.899 12.1434 142.683 13.0074 142.683C14.0873 142.683 15.0232 143.043 15.6712 143.763C16.3191 144.483 16.6791 145.419 16.6791 146.643C16.6791 147.938 16.3911 148.946 15.7431 149.666C15.0952 150.386 14.2313 150.746 13.0074 150.746C11.9275 150.746 11.0635 150.458 10.4156 149.882C9.76763 149.306 9.40766 148.442 9.26367 147.362H10.1996C10.2716 148.226 10.5596 148.802 11.0635 149.234C11.5675 149.666 12.1434 149.882 13.0074 149.882C13.8713 149.882 14.5192 149.594 15.0232 149.018C15.5272 148.442 15.6712 147.65 15.6712 146.643C15.6712 145.779 15.4552 144.987 14.9512 144.411C14.4473 143.835 13.7993 143.547 12.9354 143.547C12.4314 143.547 12.0714 143.619 11.7115 143.763C11.3515 143.907 10.9915 144.123 10.5596 144.483L9.69564 144.195Z" fill="black"/>
<path d="M26.1111 145.347C26.1111 147.074 25.8232 148.37 25.1752 149.306C24.5273 150.242 23.5913 150.674 22.3674 150.674C21.1435 150.674 20.2076 150.242 19.5597 149.378C18.9117 148.514 18.5518 147.218 18.5518 145.563V143.331C18.5518 141.603 18.8397 140.307 19.4877 139.443C20.1356 138.579 21.0716 138.075 22.2955 138.075C23.5194 138.075 24.4553 138.507 25.1032 139.371C25.7512 140.235 26.1111 141.459 26.1111 143.187V145.347ZM25.0312 143.187C25.0312 141.747 24.8152 140.739 24.3113 140.019C23.8073 139.299 23.1594 138.939 22.2235 138.939C21.2875 138.939 20.6396 139.299 20.1356 140.019C19.6317 140.739 19.4157 141.747 19.4157 143.115V145.563C19.4157 146.93 19.6317 148.01 20.1356 148.802C20.6396 149.594 21.2875 149.882 22.2235 149.882C23.0874 149.882 23.8073 149.522 24.2393 148.802C24.6713 148.082 24.9592 147.002 24.9592 145.635V143.187H25.0312Z" fill="black"/>
<path d="M35.7576 145.347C35.7576 147.074 35.4697 148.37 34.8217 149.306C34.1738 150.242 33.2378 150.674 32.0139 150.674C30.79 150.674 29.8541 150.242 29.2062 149.378C28.5582 148.514 28.1982 147.218 28.1982 145.563V143.331C28.1982 141.603 28.4862 140.307 29.1342 139.443C29.7821 138.579 30.718 138.075 31.9419 138.075C33.1658 138.075 34.1018 138.507 34.7497 139.371C35.3977 140.235 35.7576 141.459 35.7576 143.187V145.347ZM34.7497 143.187C34.7497 141.747 34.5337 140.739 34.0298 140.019C33.5258 139.299 32.8779 138.939 31.9419 138.939C31.006 138.939 30.3581 139.299 29.8541 140.019C29.3501 140.739 29.1342 141.747 29.1342 143.115V145.563C29.1342 146.93 29.3501 148.01 29.8541 148.802C30.3581 149.594 31.006 149.882 31.9419 149.882C32.8059 149.882 33.5258 149.522 33.9578 148.802C34.3897 148.082 34.6777 147.002 34.6777 145.635V143.187H34.7497Z" fill="black"/>
<path d="M17.3273 194.59H9.62391V193.798L13.7996 189.047C14.5195 188.255 14.9515 187.607 15.2395 187.031C15.5274 186.455 15.6714 186.023 15.6714 185.519C15.6714 184.727 15.4554 184.151 15.0235 183.647C14.5915 183.143 13.9436 182.999 13.1516 182.999C12.3597 182.999 11.6398 183.287 11.1358 183.791C10.6318 184.295 10.3439 185.015 10.3439 185.879H9.33594C9.33594 185.159 9.47993 184.583 9.8399 184.007C10.1999 183.431 10.6318 182.999 11.2078 182.639C11.7837 182.279 12.4317 182.135 13.1516 182.135C14.3035 182.135 15.1675 182.423 15.8154 182.999C16.4634 183.575 16.7513 184.367 16.7513 185.447C16.7513 186.023 16.6073 186.671 16.2474 187.319C15.8874 187.967 15.2395 188.831 14.3755 189.839L10.9198 193.726H17.3993V194.59H17.3273Z" fill="black"/>
<path d="M19.4154 188.327L19.9913 182.352H26.1108V183.287H20.8552L20.4233 187.463C21.0712 187.031 21.8632 186.815 22.7271 186.815C23.807 186.815 24.7429 187.175 25.3909 187.895C26.0388 188.615 26.3988 189.551 26.3988 190.775C26.3988 192.071 26.1108 193.079 25.4629 193.799C24.8149 194.519 23.951 194.879 22.7271 194.879C21.6472 194.879 20.7833 194.591 20.1353 194.015C19.4874 193.439 19.1274 192.575 18.9834 191.495H19.9193C19.9913 192.359 20.2793 192.935 20.7833 193.367C21.2872 193.799 21.8632 194.015 22.7271 194.015C23.591 194.015 24.239 193.727 24.7429 193.151C25.2469 192.575 25.3909 191.783 25.3909 190.775C25.3909 189.911 25.1749 189.119 24.6709 188.543C24.167 187.967 23.519 187.679 22.6551 187.679C22.1511 187.679 21.7912 187.751 21.4312 187.895C21.0712 188.039 20.7113 188.255 20.2793 188.615L19.4154 188.327Z" fill="black"/>
<path d="M35.7576 189.479C35.7576 191.207 35.4697 192.503 34.8217 193.439C34.1738 194.375 33.2378 194.807 32.0139 194.807C30.79 194.807 29.8541 194.375 29.2062 193.511C28.5582 192.647 28.1982 191.351 28.1982 189.695V187.464C28.1982 185.736 28.4862 184.44 29.1342 183.576C29.7821 182.712 30.718 182.208 31.9419 182.208C33.1658 182.208 34.1018 182.64 34.7497 183.504C35.3977 184.368 35.7576 185.592 35.7576 187.32V189.479ZM34.7497 187.248C34.7497 185.808 34.5337 184.8 34.0298 184.08C33.5258 183.36 32.8779 183 31.9419 183C31.006 183 30.3581 183.36 29.8541 184.08C29.3501 184.8 29.1342 185.808 29.1342 187.176V189.623C29.1342 190.991 29.3501 192.071 29.8541 192.863C30.3581 193.655 31.006 193.943 31.9419 193.943C32.8059 193.943 33.5258 193.583 33.9578 192.863C34.3897 192.143 34.6777 191.063 34.6777 189.695V187.248H34.7497Z" fill="black"/>
<path d="M35.7576 233.612C35.7576 235.34 35.4697 236.635 34.8217 237.571C34.1738 238.507 33.2378 238.939 32.0139 238.939C30.79 238.939 29.8541 238.507 29.2062 237.643C28.5582 236.779 28.1982 235.484 28.1982 233.828V231.596C28.1982 229.868 28.4862 228.572 29.1342 227.708C29.7821 226.844 30.718 226.34 31.9419 226.34C33.1658 226.34 34.1018 226.772 34.7497 227.636C35.3977 228.5 35.7576 229.724 35.7576 231.452V233.612ZM34.7497 231.38C34.7497 229.94 34.5337 228.932 34.0298 228.212C33.5258 227.492 32.8779 227.132 31.9419 227.132C31.006 227.132 30.3581 227.492 29.8541 228.212C29.3501 228.932 29.1342 229.94 29.1342 231.308V233.756C29.1342 235.124 29.3501 236.204 29.8541 236.995C30.3581 237.787 31.006 238.075 31.9419 238.075C32.8059 238.075 33.5258 237.715 33.9578 236.995C34.3897 236.276 34.6777 235.196 34.6777 233.828V231.38H34.7497Z" fill="black"/>
<path d="M602.857 255.931H595.153V255.139L599.329 250.387C600.049 249.595 600.481 248.947 600.769 248.371C601.057 247.795 601.201 247.363 601.201 246.859C601.201 246.067 600.985 245.491 600.553 244.987C600.121 244.484 599.473 244.34 598.681 244.34C597.889 244.34 597.169 244.627 596.665 245.131C596.161 245.635 595.873 246.355 595.873 247.219H594.865C594.865 246.499 595.009 245.923 595.369 245.347C595.729 244.771 596.161 244.34 596.737 243.98C597.313 243.62 597.961 243.476 598.681 243.476C599.833 243.476 600.697 243.764 601.345 244.34C601.993 244.915 602.281 245.707 602.281 246.787C602.281 247.363 602.137 248.011 601.777 248.659C601.417 249.307 600.769 250.171 599.905 251.179L596.449 255.067H602.929V255.931H602.857Z" fill="black"/>
<path d="M611.855 250.819C611.855 252.547 611.567 253.843 610.919 254.779C610.271 255.715 609.335 256.147 608.112 256.147C606.888 256.147 605.952 255.715 605.304 254.851C604.656 253.987 604.296 252.691 604.296 251.035V248.803C604.296 247.076 604.584 245.78 605.232 244.916C605.88 244.052 606.816 243.548 608.04 243.548C609.264 243.548 610.199 243.98 610.847 244.844C611.495 245.708 611.855 246.932 611.855 248.659V250.819ZM610.847 248.587C610.847 247.148 610.631 246.14 610.127 245.42C609.623 244.7 608.976 244.34 608.04 244.34C607.104 244.34 606.456 244.7 605.952 245.42C605.448 246.14 605.232 247.148 605.232 248.515V250.963C605.232 252.331 605.448 253.411 605.952 254.203C606.456 254.995 607.104 255.283 608.04 255.283C608.904 255.283 609.623 254.923 610.055 254.203C610.487 253.483 610.775 252.403 610.775 251.035V248.587H610.847Z" fill="black"/>
<path d="M618.334 255.931H617.326V244.844L614.015 246.068V245.132L618.19 243.548H618.334V255.931Z" fill="black"/>
<path d="M629.278 246.787C629.278 247.435 629.062 248.011 628.702 248.515C628.342 249.019 627.839 249.379 627.263 249.595C627.982 249.811 628.558 250.243 628.99 250.747C629.422 251.251 629.638 251.899 629.638 252.619C629.638 253.698 629.278 254.49 628.558 255.138C627.839 255.786 626.903 256.074 625.751 256.074C624.599 256.074 623.591 255.786 622.871 255.138C622.151 254.49 621.791 253.698 621.791 252.619C621.791 251.899 622.007 251.323 622.439 250.747C622.871 250.171 623.447 249.811 624.095 249.595C623.519 249.379 623.015 249.019 622.655 248.515C622.295 248.011 622.079 247.435 622.079 246.787C622.079 245.779 622.439 244.987 623.087 244.339C623.735 243.691 624.599 243.403 625.679 243.403C626.759 243.403 627.623 243.691 628.27 244.339C628.918 244.987 629.278 245.779 629.278 246.787ZM628.558 252.691C628.558 251.899 628.27 251.323 627.767 250.819C627.263 250.315 626.543 250.099 625.679 250.099C624.815 250.099 624.167 250.315 623.591 250.819C623.015 251.323 622.799 251.971 622.799 252.691C622.799 253.411 623.087 254.13 623.591 254.562C624.095 254.994 624.815 255.282 625.751 255.282C626.615 255.282 627.335 255.066 627.839 254.562C628.343 254.058 628.558 253.411 628.558 252.691ZM628.27 246.787C628.27 246.067 628.055 245.491 627.551 245.059C627.047 244.627 626.471 244.339 625.679 244.339C624.887 244.339 624.311 244.555 623.807 244.987C623.303 245.419 623.087 246.067 623.087 246.787C623.087 247.507 623.303 248.083 623.807 248.515C624.311 248.947 624.887 249.163 625.679 249.163C626.471 249.163 627.047 248.947 627.551 248.515C628.055 248.083 628.27 247.507 628.27 246.787Z" fill="black"/>
<path d="M429.566 255.93H421.862V255.138L426.038 250.386C426.758 249.594 427.19 248.946 427.478 248.37C427.766 247.794 427.91 247.362 427.91 246.858C427.91 246.066 427.694 245.49 427.262 244.986C426.83 244.483 426.182 244.339 425.39 244.339C424.598 244.339 423.878 244.627 423.374 245.13C422.87 245.634 422.582 246.354 422.582 247.218H421.574C421.574 246.498 421.718 245.922 422.078 245.346C422.438 244.771 422.87 244.339 423.446 243.979C424.022 243.619 424.67 243.475 425.39 243.475C426.542 243.475 427.406 243.763 428.054 244.339C428.702 244.915 428.99 245.706 428.99 246.786C428.99 247.362 428.846 248.01 428.486 248.658C428.126 249.306 427.478 250.17 426.614 251.178L423.158 255.066H429.638V255.93H429.566Z" fill="black"/>
<path d="M438.565 250.818C438.565 252.546 438.277 253.842 437.629 254.778C436.981 255.714 436.045 256.146 434.822 256.146C433.598 256.146 432.662 255.714 432.014 254.85C431.366 253.986 431.006 252.69 431.006 251.034V248.802C431.006 247.075 431.294 245.779 431.942 244.915C432.59 244.051 433.526 243.547 434.75 243.547C435.973 243.547 436.909 243.979 437.557 244.843C438.205 245.707 438.565 246.931 438.565 248.658V250.818ZM437.557 248.586C437.557 247.147 437.341 246.139 436.837 245.419C436.333 244.699 435.685 244.339 434.75 244.339C433.814 244.339 433.166 244.699 432.662 245.419C432.158 246.139 431.942 247.147 431.942 248.514V250.962C431.942 252.33 432.158 253.41 432.662 254.202C433.166 254.994 433.814 255.282 434.75 255.282C435.613 255.282 436.333 254.922 436.765 254.202C437.197 253.482 437.485 252.402 437.485 251.034V248.586H437.557Z" fill="black"/>
<path d="M445.045 255.93H444.037V244.843L440.726 246.067V245.131L444.901 243.547H445.045V255.93Z" fill="black"/>
<path d="M456.276 244.195L451.02 255.93H449.94L455.124 244.483H448.141V243.619H456.204V244.195H456.276Z" fill="black"/>
<path d="M256.276 255.93H248.573V255.138L252.749 250.386C253.469 249.594 253.901 248.946 254.189 248.37C254.477 247.794 254.621 247.362 254.621 246.858C254.621 246.066 254.405 245.49 253.973 244.986C253.541 244.483 252.893 244.339 252.101 244.339C251.309 244.339 250.589 244.627 250.085 245.13C249.581 245.634 249.293 246.354 249.293 247.218H248.285C248.285 246.498 248.429 245.922 248.789 245.346C249.149 244.771 249.581 244.339 250.157 243.979C250.733 243.619 251.381 243.475 252.101 243.475C253.253 243.475 254.117 243.763 254.765 244.339C255.413 244.915 255.701 245.706 255.701 246.786C255.701 247.362 255.557 248.01 255.197 248.658C254.837 249.306 254.189 250.17 253.325 251.178L249.869 255.066H256.348V255.93H256.276Z" fill="black"/>
<path d="M265.347 250.818C265.347 252.546 265.06 253.842 264.412 254.778C263.764 255.714 262.828 256.146 261.604 256.146C260.38 256.146 259.444 255.714 258.796 254.85C258.148 253.986 257.788 252.69 257.788 251.034V248.802C257.788 247.075 258.076 245.779 258.724 244.915C259.372 244.051 260.308 243.547 261.532 243.547C262.756 243.547 263.692 243.979 264.34 244.843C264.988 245.707 265.347 246.931 265.347 248.658V250.818ZM264.34 248.586C264.34 247.147 264.124 246.139 263.62 245.419C263.116 244.699 262.468 244.339 261.532 244.339C260.596 244.339 259.948 244.699 259.444 245.419C258.94 246.139 258.724 247.147 258.724 248.514V250.962C258.724 252.33 258.94 253.41 259.444 254.202C259.948 254.994 260.596 255.282 261.532 255.282C262.396 255.282 263.116 254.922 263.548 254.202C263.98 253.482 264.268 252.402 264.268 251.034V248.586H264.34Z" fill="black"/>
<path d="M271.827 255.93H270.82V244.843L267.508 246.067V245.131L271.683 243.547H271.827V255.93Z" fill="black"/>
<path d="M281.402 243.547V244.411H281.258C279.818 244.411 278.667 244.843 277.803 245.707C276.939 246.571 276.507 247.795 276.435 249.306C276.795 248.874 277.227 248.442 277.731 248.226C278.235 248.011 278.81 247.867 279.458 247.867C280.538 247.867 281.402 248.226 282.05 249.018C282.698 249.81 282.986 250.746 282.986 251.97C282.986 252.762 282.842 253.482 282.554 254.13C282.266 254.778 281.834 255.282 281.258 255.642C280.682 256.002 280.034 256.146 279.386 256.146C278.235 256.146 277.227 255.714 276.507 254.85C275.787 253.986 275.427 252.906 275.427 251.538V250.53C275.427 248.298 275.931 246.643 276.939 245.419C277.947 244.195 279.386 243.619 281.186 243.547H281.402ZM279.314 248.73C278.666 248.73 278.091 248.946 277.515 249.306C276.939 249.666 276.579 250.17 276.435 250.746V251.61C276.435 252.69 276.723 253.554 277.227 254.202C277.731 254.85 278.523 255.21 279.386 255.21C280.178 255.21 280.826 254.922 281.33 254.274C281.834 253.626 282.05 252.834 282.05 251.898C282.05 250.962 281.834 250.17 281.33 249.594C280.754 249.018 280.106 248.73 279.314 248.73Z" fill="black"/>
<path d="M83.3468 255.93H75.6434V255.138L79.8191 250.386C80.539 249.594 80.971 248.946 81.259 248.37C81.547 247.794 81.691 247.362 81.691 246.858C81.691 246.066 81.475 245.49 81.043 244.986C80.611 244.483 79.9631 244.339 79.1712 244.339C78.3792 244.339 77.6593 244.627 77.1553 245.13C76.6514 245.634 76.3634 246.354 76.3634 247.218H75.3555C75.3555 246.498 75.4995 245.922 75.8594 245.346C76.2194 244.771 76.6514 244.339 77.2273 243.979C77.8033 243.619 78.4512 243.475 79.1712 243.475C80.3231 243.475 81.187 243.763 81.8349 244.339C82.4829 244.915 82.7709 245.706 82.7709 246.786C82.7709 247.362 82.6269 248.01 82.2669 248.658C81.9069 249.306 81.259 250.17 80.3951 251.178L76.9393 255.066H83.4188V255.93H83.3468Z" fill="black"/>
<path d="M92.3455 250.818C92.3455 252.546 92.0575 253.842 91.4096 254.778C90.7617 255.714 89.8257 256.146 88.6018 256.146C87.3779 256.146 86.442 255.714 85.7941 254.85C85.1461 253.986 84.7861 252.69 84.7861 251.034V248.802C84.7861 247.075 85.0741 245.779 85.7221 244.915C86.37 244.051 87.3059 243.547 88.5298 243.547C89.7537 243.547 90.6897 243.979 91.3376 244.843C91.9855 245.707 92.3455 246.931 92.3455 248.658V250.818ZM91.3376 248.586C91.3376 247.147 91.1216 246.139 90.6177 245.419C90.1137 244.699 89.4658 244.339 88.5298 244.339C87.5939 244.339 86.946 244.699 86.442 245.419C85.938 246.139 85.7221 247.147 85.7221 248.514V250.962C85.7221 252.33 85.938 253.41 86.442 254.202C86.946 254.994 87.5939 255.282 88.5298 255.282C89.3938 255.282 90.1137 254.922 90.5457 254.202C90.9776 253.482 91.2656 252.402 91.2656 251.034V248.586H91.3376Z" fill="black"/>
<path d="M98.8255 255.93H97.8176V244.843L94.5059 246.067V245.131L98.6815 243.547H98.8255V255.93Z" fill="black"/>
<path d="M102.857 249.594L103.433 243.619H109.552V244.555H104.297L103.865 248.73C104.513 248.298 105.305 248.082 106.168 248.082C107.248 248.082 108.184 248.442 108.832 249.162C109.48 249.882 109.84 250.818 109.84 252.042C109.84 253.338 109.552 254.346 108.904 255.066C108.256 255.786 107.392 256.146 106.168 256.146C105.089 256.146 104.225 255.858 103.577 255.282C102.929 254.706 102.569 253.842 102.425 252.762H103.361C103.433 253.626 103.721 254.202 104.225 254.634C104.729 255.066 105.305 255.282 106.168 255.282C107.032 255.282 107.68 254.994 108.184 254.418C108.688 253.842 108.832 253.05 108.832 252.042C108.832 251.178 108.616 250.386 108.112 249.81C107.608 249.234 106.96 248.946 106.096 248.946C105.593 248.946 105.233 249.018 104.873 249.162C104.513 249.306 104.153 249.522 103.721 249.882L102.857 249.594Z" fill="black"/>
<path d="M644.828 234.187H642.669V233.107H644.828V234.187ZM633.885 234.187H631.726V233.107H633.885V234.187ZM622.942 234.187H620.782V233.107H622.942V234.187ZM611.999 234.187H609.839V233.107H611.999V234.187ZM601.056 234.187H598.896V233.107H601.056V234.187ZM590.113 234.187H587.953V233.107H590.113V234.187ZM579.242 234.187H577.082V233.107H579.242V234.187ZM568.299 234.187H566.139V233.107H568.299V234.187ZM557.356 234.187H555.196V233.107H557.356V234.187ZM546.413 234.187H544.253V233.107H546.413V234.187ZM535.469 234.187H533.31V233.107H535.469V234.187ZM524.598 234.187H522.438V233.107H524.598V234.187ZM513.655 234.187H511.495V233.107H513.655V234.187ZM502.712 234.187H500.552V233.107H502.712V234.187ZM491.769 234.187H489.609V233.107H491.769V234.187ZM480.826 234.187H478.666V233.107H480.826V234.187ZM469.883 234.187H467.723V233.107H469.883V234.187ZM459.012 234.187H456.852V233.107H459.012V234.187ZM448.069 234.187H445.909V233.107H448.069V234.187ZM437.125 234.187H434.966V233.107H437.125V234.187ZM426.182 234.187H424.022V233.107H426.182V234.187ZM415.239 234.187H413.079V233.107H415.239V234.187ZM404.368 234.187H402.208V233.107H404.368V234.187ZM393.425 234.187H391.265V233.107H393.425V234.187ZM382.482 234.187H380.322V233.107H382.482V234.187ZM371.539 234.187H369.379V233.107H371.539V234.187ZM360.596 234.187H358.436V233.107H360.596V234.187ZM349.652 234.187H347.493V233.107H349.652V234.187ZM338.781 234.187H336.622V233.107H338.781V234.187ZM327.838 234.187H325.678V233.107H327.838V234.187ZM316.895 234.187H314.735V233.107H316.895V234.187ZM305.952 234.187H303.792V233.107H305.952V234.187ZM295.009 234.187H292.849V233.107H295.009V234.187ZM284.138 234.187H281.978V233.107H284.138V234.187ZM273.195 234.187H271.035V233.107H273.195V234.187ZM262.252 234.187H260.092V233.107H262.252V234.187ZM251.308 234.187H249.149V233.107H251.308V234.187ZM240.365 234.187H238.206V233.107H240.365V234.187ZM229.422 234.187H227.262V233.107H229.422V234.187ZM218.551 234.187H216.391V233.107H218.551V234.187ZM207.608 234.187H205.448V233.107H207.608V234.187ZM196.665 234.187H194.505V233.107H196.665V234.187ZM185.722 234.187H183.562V233.107H185.722V234.187ZM174.779 234.187H172.619V233.107H174.779V234.187ZM163.908 234.187H161.748V233.107H163.908V234.187ZM152.965 234.187H150.805V233.107H152.965V234.187ZM142.021 234.187H139.862V233.107H142.021V234.187ZM131.078 234.187H128.918V233.107H131.078V234.187ZM120.135 234.187H117.975V233.107H120.135V234.187ZM109.192 234.187H107.032V233.107H109.192V234.187ZM98.3209 234.187H96.1611V233.107H98.3209V234.187ZM87.3778 234.187H85.218V233.107H87.3778V234.187ZM76.4347 234.187H74.2749V233.107H76.4347V234.187ZM65.4916 234.187H63.3318V233.107H65.4916V234.187ZM54.5485 234.187H52.3887V233.107H54.5485V234.187Z" fill="#DADADA"/>
<path d="M644.828 145.995H642.669V144.915H644.828V145.995ZM633.885 145.995H631.726V144.915H633.885V145.995ZM622.942 145.995H620.782V144.915H622.942V145.995ZM611.999 145.995H609.839V144.915H611.999V145.995ZM601.056 145.995H598.896V144.915H601.056V145.995ZM590.113 145.995H587.953V144.915H590.113V145.995ZM579.242 145.995H577.082V144.915H579.242V145.995ZM568.299 145.995H566.139V144.915H568.299V145.995ZM557.356 145.995H555.196V144.915H557.356V145.995ZM546.413 145.995H544.253V144.915H546.413V145.995ZM535.469 145.995H533.31V144.915H535.469V145.995ZM524.598 145.995H522.438V144.915H524.598V145.995ZM513.655 145.995H511.495V144.915H513.655V145.995ZM502.712 145.995H500.552V144.915H502.712V145.995ZM491.769 145.995H489.609V144.915H491.769V145.995ZM480.826 145.995H478.666V144.915H480.826V145.995ZM469.883 145.995H467.723V144.915H469.883V145.995ZM459.012 145.995H456.852V144.915H459.012V145.995ZM448.069 145.995H445.909V144.915H448.069V145.995ZM437.125 145.995H434.966V144.915H437.125V145.995ZM426.182 145.995H424.022V144.915H426.182V145.995ZM415.239 145.995H413.079V144.915H415.239V145.995ZM404.368 145.995H402.208V144.915H404.368V145.995ZM393.425 145.995H391.265V144.915H393.425V145.995ZM382.482 145.995H380.322V144.915H382.482V145.995ZM371.539 145.995H369.379V144.915H371.539V145.995ZM360.596 145.995H358.436V144.915H360.596V145.995ZM349.652 145.995H347.493V144.915H349.652V145.995ZM338.781 145.995H336.622V144.915H338.781V145.995ZM327.838 145.995H325.678V144.915H327.838V145.995ZM316.895 145.995H314.735V144.915H316.895V145.995ZM305.952 145.995H303.792V144.915H305.952V145.995ZM295.009 145.995H292.849V144.915H295.009V145.995ZM284.138 145.995H281.978V144.915H284.138V145.995ZM273.195 145.995H271.035V144.915H273.195V145.995ZM262.252 145.995H260.092V144.915H262.252V145.995ZM251.308 145.995H249.149V144.915H251.308V145.995ZM240.365 145.995H238.206V144.915H240.365V145.995ZM229.422 145.995H227.262V144.915H229.422V145.995ZM218.551 145.995H216.391V144.915H218.551V145.995ZM207.608 145.995H205.448V144.915H207.608V145.995ZM196.665 145.995H194.505V144.915H196.665V145.995ZM185.722 145.995H183.562V144.915H185.722V145.995ZM174.779 145.995H172.619V144.915H174.779V145.995ZM163.908 145.995H161.748V144.915H163.908V145.995ZM152.965 145.995H150.805V144.915H152.965V145.995ZM142.021 145.995H139.862V144.915H142.021V145.995ZM131.078 145.995H128.918V144.915H131.078V145.995ZM120.135 145.995H117.975V144.915H120.135V145.995ZM109.192 145.995H107.032V144.915H109.192V145.995ZM98.3209 145.995H96.1611V144.915H98.3209V145.995ZM87.3778 145.995H85.218V144.915H87.3778V145.995ZM76.4347 145.995H74.2749V144.915H76.4347V145.995ZM65.4916 145.995H63.3318V144.915H65.4916V145.995ZM54.5485 145.995H52.3887V144.915H54.5485V145.995Z" fill="#DADADA"/>
<path d="M644.828 190.127H642.669V189.047H644.828V190.127ZM633.885 190.127H631.726V189.047H633.885V190.127ZM622.942 190.127H620.782V189.047H622.942V190.127ZM611.999 190.127H609.839V189.047H611.999V190.127ZM601.056 190.127H598.896V189.047H601.056V190.127ZM590.113 190.127H587.953V189.047H590.113V190.127ZM579.242 190.127H577.082V189.047H579.242V190.127ZM568.299 190.127H566.139V189.047H568.299V190.127ZM557.356 190.127H555.196V189.047H557.356V190.127ZM546.413 190.127H544.253V189.047H546.413V190.127ZM535.469 190.127H533.31V189.047H535.469V190.127ZM524.598 190.127H522.438V189.047H524.598V190.127ZM513.655 190.127H511.495V189.047H513.655V190.127ZM502.712 190.127H500.552V189.047H502.712V190.127ZM491.769 190.127H489.609V189.047H491.769V190.127ZM480.826 190.127H478.666V189.047H480.826V190.127ZM469.883 190.127H467.723V189.047H469.883V190.127ZM459.012 190.127H456.852V189.047H459.012V190.127ZM448.069 190.127H445.909V189.047H448.069V190.127ZM437.125 190.127H434.966V189.047H437.125V190.127ZM426.182 190.127H424.022V189.047H426.182V190.127ZM415.239 190.127H413.079V189.047H415.239V190.127ZM404.368 190.127H402.208V189.047H404.368V190.127ZM393.425 190.127H391.265V189.047H393.425V190.127ZM382.482 190.127H380.322V189.047H382.482V190.127ZM371.539 190.127H369.379V189.047H371.539V190.127ZM360.596 190.127H358.436V189.047H360.596V190.127ZM349.652 190.127H347.493V189.047H349.652V190.127ZM338.781 190.127H336.622V189.047H338.781V190.127ZM327.838 190.127H325.678V189.047H327.838V190.127ZM316.895 190.127H314.735V189.047H316.895V190.127ZM305.952 190.127H303.792V189.047H305.952V190.127ZM295.009 190.127H292.849V189.047H295.009V190.127ZM284.138 190.127H281.978V189.047H284.138V190.127ZM273.195 190.127H271.035V189.047H273.195V190.127ZM262.252 190.127H260.092V189.047H262.252V190.127ZM251.308 190.127H249.149V189.047H251.308V190.127ZM240.365 190.127H238.206V189.047H240.365V190.127ZM229.422 190.127H227.262V189.047H229.422V190.127ZM218.551 190.127H216.391V189.047H218.551V190.127ZM207.608 190.127H205.448V189.047H207.608V190.127ZM196.665 190.127H194.505V189.047H196.665V190.127ZM185.722 190.127H183.562V189.047H185.722V190.127ZM174.779 190.127H172.619V189.047H174.779V190.127ZM163.908 190.127H161.748V189.047H163.908V190.127ZM152.965 190.127H150.805V189.047H152.965V190.127ZM142.021 190.127H139.862V189.047H142.021V190.127ZM131.078 190.127H128.918V189.047H131.078V190.127ZM120.135 190.127H117.975V189.047H120.135V190.127ZM109.192 190.127H107.032V189.047H109.192V190.127ZM98.3209 190.127H96.1611V189.047H98.3209V190.127ZM87.3778 190.127H85.218V189.047H87.3778V190.127ZM76.4347 190.127H74.2749V189.047H76.4347V190.127ZM65.4916 190.127H63.3318V189.047H65.4916V190.127ZM54.5485 190.127H52.3887V189.047H54.5485V190.127Z" fill="#DADADA"/>
<path d="M644.828 101.862H642.669V100.782H644.828V101.862ZM633.885 101.862H631.726V100.782H633.885V101.862ZM622.942 101.862H620.782V100.782H622.942V101.862ZM611.999 101.862H609.839V100.782H611.999V101.862ZM601.056 101.862H598.896V100.782H601.056V101.862ZM590.113 101.862H587.953V100.782H590.113V101.862ZM579.242 101.862H577.082V100.782H579.242V101.862ZM568.299 101.862H566.139V100.782H568.299V101.862ZM557.356 101.862H555.196V100.782H557.356V101.862ZM546.413 101.862H544.253V100.782H546.413V101.862ZM535.469 101.862H533.31V100.782H535.469V101.862ZM524.598 101.862H522.438V100.782H524.598V101.862ZM513.655 101.862H511.495V100.782H513.655V101.862ZM502.712 101.862H500.552V100.782H502.712V101.862ZM491.769 101.862H489.609V100.782H491.769V101.862ZM480.826 101.862H478.666V100.782H480.826V101.862ZM469.883 101.862H467.723V100.782H469.883V101.862ZM459.012 101.862H456.852V100.782H459.012V101.862ZM448.069 101.862H445.909V100.782H448.069V101.862ZM437.125 101.862H434.966V100.782H437.125V101.862ZM426.182 101.862H424.022V100.782H426.182V101.862ZM415.239 101.862H413.079V100.782H415.239V101.862ZM404.368 101.862H402.208V100.782H404.368V101.862ZM393.425 101.862H391.265V100.782H393.425V101.862ZM382.482 101.862H380.322V100.782H382.482V101.862ZM371.539 101.862H369.379V100.782H371.539V101.862ZM360.596 101.862H358.436V100.782H360.596V101.862ZM349.652 101.862H347.493V100.782H349.652V101.862ZM338.781 101.862H336.622V100.782H338.781V101.862ZM327.838 101.862H325.678V100.782H327.838V101.862ZM316.895 101.862H314.735V100.782H316.895V101.862ZM305.952 101.862H303.792V100.782H305.952V101.862ZM295.009 101.862H292.849V100.782H295.009V101.862ZM284.138 101.862H281.978V100.782H284.138V101.862ZM273.195 101.862H271.035V100.782H273.195V101.862ZM262.252 101.862H260.092V100.782H262.252V101.862ZM251.308 101.862H249.149V100.782H251.308V101.862ZM240.365 101.862H238.206V100.782H240.365V101.862ZM229.422 101.862H227.262V100.782H229.422V101.862ZM218.551 101.862H216.391V100.782H218.551V101.862ZM207.608 101.862H205.448V100.782H207.608V101.862ZM196.665 101.862H194.505V100.782H196.665V101.862ZM185.722 101.862H183.562V100.782H185.722V101.862ZM174.779 101.862H172.619V100.782H174.779V101.862ZM163.908 101.862H161.748V100.782H163.908V101.862ZM152.965 101.862H150.805V100.782H152.965V101.862ZM142.021 101.862H139.862V100.782H142.021V101.862ZM131.078 101.862H128.918V100.782H131.078V101.862ZM120.135 101.862H117.975V100.782H120.135V101.862ZM109.192 101.862H107.032V100.782H109.192V101.862ZM98.3209 101.862H96.1611V100.782H98.3209V101.862ZM87.3778 101.862H85.218V100.782H87.3778V101.862ZM76.4347 101.862H74.2749V100.782H76.4347V101.862ZM65.4916 101.862H63.3318V100.782H65.4916V101.862ZM54.5485 101.862H52.3887V100.782H54.5485V101.862Z" fill="#DADADA"/>
<path d="M644.828 57.8016H642.669V56.7217H644.828V57.8016ZM633.885 57.8016H631.726V56.7217H633.885V57.8016ZM622.942 57.8016H620.782V56.7217H622.942V57.8016ZM611.999 57.8016H609.839V56.7217H611.999V57.8016ZM601.056 57.8016H598.896V56.7217H601.056V57.8016ZM590.113 57.8016H587.953V56.7217H590.113V57.8016ZM579.242 57.8016H577.082V56.7217H579.242V57.8016ZM568.299 57.8016H566.139V56.7217H568.299V57.8016ZM557.356 57.8016H555.196V56.7217H557.356V57.8016ZM546.413 57.8016H544.253V56.7217H546.413V57.8016ZM535.469 57.8016H533.31V56.7217H535.469V57.8016ZM524.598 57.8016H522.438V56.7217H524.598V57.8016ZM513.655 57.8016H511.495V56.7217H513.655V57.8016ZM502.712 57.8016H500.552V56.7217H502.712V57.8016ZM491.769 57.8016H489.609V56.7217H491.769V57.8016ZM480.826 57.8016H478.666V56.7217H480.826V57.8016ZM469.883 57.8016H467.723V56.7217H469.883V57.8016ZM459.012 57.8016H456.852V56.7217H459.012V57.8016ZM448.069 57.8016H445.909V56.7217H448.069V57.8016ZM437.125 57.8016H434.966V56.7217H437.125V57.8016ZM426.182 57.8016H424.022V56.7217H426.182V57.8016ZM415.239 57.8016H413.079V56.7217H415.239V57.8016ZM404.368 57.8016H402.208V56.7217H404.368V57.8016ZM393.425 57.8016H391.265V56.7217H393.425V57.8016ZM382.482 57.8016H380.322V56.7217H382.482V57.8016ZM371.539 57.8016H369.379V56.7217H371.539V57.8016ZM360.596 57.8016H358.436V56.7217H360.596V57.8016ZM349.652 57.8016H347.493V56.7217H349.652V57.8016ZM338.781 57.8016H336.622V56.7217H338.781V57.8016ZM327.838 57.8016H325.678V56.7217H327.838V57.8016ZM316.895 57.8016H314.735V56.7217H316.895V57.8016ZM305.952 57.8016H303.792V56.7217H305.952V57.8016ZM295.009 57.8016H292.849V56.7217H295.009V57.8016ZM284.138 57.8016H281.978V56.7217H284.138V57.8016ZM273.195 57.8016H271.035V56.7217H273.195V57.8016ZM262.252 57.8016H260.092V56.7217H262.252V57.8016ZM251.308 57.8016H249.149V56.7217H251.308V57.8016ZM240.365 57.8016H238.206V56.7217H240.365V57.8016ZM229.422 57.8016H227.262V56.7217H229.422V57.8016ZM218.551 57.8016H216.391V56.7217H218.551V57.8016ZM207.608 57.8016H205.448V56.7217H207.608V57.8016ZM196.665 57.8016H194.505V56.7217H196.665V57.8016ZM185.722 57.8016H183.562V56.7217H185.722V57.8016ZM174.779 57.8016H172.619V56.7217H174.779V57.8016ZM163.908 57.8016H161.748V56.7217H163.908V57.8016ZM152.965 57.8016H150.805V56.7217H152.965V57.8016ZM142.021 57.8016H139.862V56.7217H142.021V57.8016ZM131.078 57.8016H128.918V56.7217H131.078V57.8016ZM120.135 57.8016H117.975V56.7217H120.135V57.8016ZM109.192 57.8016H107.032V56.7217H109.192V57.8016ZM98.3209 57.8016H96.1611V56.7217H98.3209V57.8016ZM87.3778 57.8016H85.218V56.7217H87.3778V57.8016ZM76.4347 57.8016H74.2749V56.7217H76.4347V57.8016ZM65.4916 57.8016H63.3318V56.7217H65.4916V57.8016ZM54.5485 57.8016H52.3887V56.7217H54.5485V57.8016Z" fill="#DADADA"/>
<path d="M644.828 13.6693H642.669V12.5894H644.828V13.6693ZM633.885 13.6693H631.726V12.5894H633.885V13.6693ZM622.942 13.6693H620.782V12.5894H622.942V13.6693ZM611.999 13.6693H609.839V12.5894H611.999V13.6693ZM601.056 13.6693H598.896V12.5894H601.056V13.6693ZM590.113 13.6693H587.953V12.5894H590.113V13.6693ZM579.242 13.6693H577.082V12.5894H579.242V13.6693ZM568.299 13.6693H566.139V12.5894H568.299V13.6693ZM557.356 13.6693H555.196V12.5894H557.356V13.6693ZM546.413 13.6693H544.253V12.5894H546.413V13.6693ZM535.469 13.6693H533.31V12.5894H535.469V13.6693ZM524.598 13.6693H522.438V12.5894H524.598V13.6693ZM513.655 13.6693H511.495V12.5894H513.655V13.6693ZM502.712 13.6693H500.552V12.5894H502.712V13.6693ZM491.769 13.6693H489.609V12.5894H491.769V13.6693ZM480.826 13.6693H478.666V12.5894H480.826V13.6693ZM469.883 13.6693H467.723V12.5894H469.883V13.6693ZM459.012 13.6693H456.852V12.5894H459.012V13.6693ZM448.069 13.6693H445.909V12.5894H448.069V13.6693ZM437.125 13.6693H434.966V12.5894H437.125V13.6693ZM426.182 13.6693H424.022V12.5894H426.182V13.6693ZM415.239 13.6693H413.079V12.5894H415.239V13.6693ZM404.368 13.6693H402.208V12.5894H404.368V13.6693ZM393.425 13.6693H391.265V12.5894H393.425V13.6693ZM382.482 13.6693H380.322V12.5894H382.482V13.6693ZM371.539 13.6693H369.379V12.5894H371.539V13.6693ZM360.596 13.6693H358.436V12.5894H360.596V13.6693ZM349.652 13.6693H347.493V12.5894H349.652V13.6693ZM338.781 13.6693H336.622V12.5894H338.781V13.6693ZM327.838 13.6693H325.678V12.5894H327.838V13.6693ZM316.895 13.6693H314.735V12.5894H316.895V13.6693ZM305.952 13.6693H303.792V12.5894H305.952V13.6693ZM295.009 13.6693H292.849V12.5894H295.009V13.6693ZM284.138 13.6693H281.978V12.5894H284.138V13.6693ZM273.195 13.6693H271.035V12.5894H273.195V13.6693ZM262.252 13.6693H260.092V12.5894H262.252V13.6693ZM251.308 13.6693H249.149V12.5894H251.308V13.6693ZM240.365 13.6693H238.206V12.5894H240.365V13.6693ZM229.422 13.6693H227.262V12.5894H229.422V13.6693ZM218.551 13.6693H216.391V12.5894H218.551V13.6693ZM207.608 13.6693H205.448V12.5894H207.608V13.6693ZM196.665 13.6693H194.505V12.5894H196.665V13.6693ZM185.722 13.6693H183.562V12.5894H185.722V13.6693ZM174.779 13.6693H172.619V12.5894H174.779V13.6693ZM163.908 13.6693H161.748V12.5894H163.908V13.6693ZM152.965 13.6693H150.805V12.5894H152.965V13.6693ZM142.021 13.6693H139.862V12.5894H142.021V13.6693ZM131.078 13.6693H128.918V12.5894H131.078V13.6693ZM120.135 13.6693H117.975V12.5894H120.135V13.6693ZM109.192 13.6693H107.032V12.5894H109.192V13.6693ZM98.3209 13.6693H96.1611V12.5894H98.3209V13.6693ZM87.3778 13.6693H85.218V12.5894H87.3778V13.6693ZM76.4347 13.6693H74.2749V12.5894H76.4347V13.6693ZM65.4916 13.6693H63.3318V12.5894H65.4916V13.6693ZM54.5485 13.6693H52.3887V12.5894H54.5485V13.6693Z" fill="#DADADA"/>
<path d="M645.837 35.4837H618.191C617.903 35.4837 617.615 35.5557 617.327 35.6277L613.007 37.2115C612.503 37.4275 611.927 37.4275 611.351 37.2115L606.672 35.5557C606.384 35.4837 606.168 35.4117 605.88 35.4117H578.594C577.37 35.4117 576.362 34.4038 576.362 33.1799V3.08631C576.362 1.86241 577.37 0.854492 578.594 0.854492H645.765C646.989 0.854492 647.996 1.86241 647.996 3.08631V33.2519C648.068 34.4758 647.061 35.4837 645.837 35.4837Z" fill="#4BA4DB"/>
<path d="M594.434 27.7084H591.482V13.5975L587.162 15.0374V12.5896L594.002 10.0698H594.362V27.7084H594.434Z" fill="white"/>
<path d="M610.489 20.2929C610.489 22.8127 609.985 24.7566 609.049 25.9805C608.113 27.2044 606.673 27.9243 604.729 27.9243C602.857 27.9243 601.417 27.2764 600.409 26.0525C599.473 24.8286 598.969 22.9567 598.897 20.5089V17.4852C598.897 14.9654 599.401 13.0935 600.337 11.7976C601.273 10.5017 602.713 9.92578 604.657 9.92578C606.601 9.92578 608.041 10.5737 608.977 11.7976C609.913 13.0215 610.417 14.8934 610.417 17.3412V20.2929H610.489ZM607.537 17.0532C607.537 15.3973 607.321 14.1734 606.889 13.4535C606.457 12.6616 605.737 12.3016 604.729 12.3016C603.793 12.3016 603.073 12.6616 602.641 13.3815C602.209 14.1014 601.921 15.2533 601.921 16.7652V20.7249C601.921 22.3808 602.137 23.6047 602.641 24.3966C603.073 25.1885 603.793 25.6205 604.801 25.6205C605.737 25.6205 606.457 25.2605 606.889 24.5406C607.321 23.8207 607.609 22.6687 607.609 21.0129V17.0532H607.537Z" fill="white"/>
<path d="M624.671 20.2929C624.671 22.8127 624.167 24.7566 623.231 25.9805C622.295 27.2044 620.855 27.9243 618.912 27.9243C617.04 27.9243 615.6 27.2764 614.592 26.0525C613.656 24.8286 613.152 22.9567 613.08 20.5089V17.4852C613.08 14.9654 613.584 13.0935 614.52 11.7976C615.456 10.5017 616.896 9.92578 618.84 9.92578C620.783 9.92578 622.223 10.5737 623.159 11.7976C624.095 13.0215 624.599 14.8934 624.599 17.3412V20.2929H624.671ZM621.719 17.0532C621.719 15.3973 621.503 14.1734 621.071 13.4535C620.639 12.6616 619.92 12.3016 618.912 12.3016C617.976 12.3016 617.256 12.6616 616.824 13.3815C616.392 14.1014 616.104 15.2533 616.104 16.7652V20.7249C616.104 22.3808 616.32 23.6047 616.824 24.3966C617.256 25.1885 617.976 25.6205 618.984 25.6205C619.919 25.6205 620.639 25.2605 621.071 24.5406C621.503 23.8207 621.791 22.6687 621.791 21.0129V17.0532H621.719Z" fill="white"/>
<path d="M634.462 27.7089H631.51V13.598L627.19 15.0379V12.5901L634.03 10.0703H634.39V27.7089H634.462Z" fill="white"/>
<path d="M462.611 68.5288H443.101C442.885 68.5288 442.669 68.6008 442.525 68.6008L439.501 69.7527C439.141 69.8967 438.709 69.8967 438.349 69.7527L435.038 68.6008C434.822 68.5288 434.678 68.5288 434.462 68.5288H415.239C414.375 68.5288 413.655 67.8089 413.655 66.9449V45.6347C413.655 44.7707 414.375 44.0508 415.239 44.0508H462.683C463.547 44.0508 464.267 44.7707 464.267 45.6347V66.8729C464.195 67.8088 463.475 68.5288 462.611 68.5288Z" fill="#F0F0F0"/>
<path d="M432.949 53.9147C432.949 54.4907 432.805 55.0666 432.445 55.5706C432.157 56.0745 431.725 56.4345 431.149 56.7225C431.797 57.0104 432.301 57.4424 432.661 57.9464C433.021 58.4503 433.165 59.0263 433.165 59.7462C433.165 60.8261 432.805 61.6901 432.085 62.338C431.365 62.986 430.357 63.2739 429.133 63.2739C427.909 63.2739 426.901 62.986 426.181 62.338C425.462 61.6901 425.102 60.8261 425.102 59.7462C425.102 59.0983 425.246 58.4503 425.606 57.9464C425.966 57.4424 426.469 57.0104 427.117 56.7225C426.613 56.4345 426.181 56.0745 425.822 55.5706C425.534 55.0666 425.39 54.5626 425.39 53.9147C425.39 52.8348 425.75 52.0429 426.397 51.3949C427.045 50.747 427.981 50.459 429.133 50.459C430.285 50.459 431.221 50.747 431.869 51.3949C432.589 52.0429 432.949 52.8348 432.949 53.9147ZM431.149 59.5302C431.149 58.8823 430.933 58.4503 430.573 58.0184C430.213 57.6584 429.709 57.4424 429.133 57.4424C428.557 57.4424 428.053 57.6584 427.693 58.0184C427.333 58.3783 427.117 58.8823 427.117 59.5302C427.117 60.1062 427.261 60.6102 427.621 60.9701C427.981 61.3301 428.485 61.5461 429.061 61.5461C429.637 61.5461 430.141 61.4021 430.501 61.0421C431.005 60.6822 431.149 60.1782 431.149 59.5302ZM430.861 53.9867C430.861 53.4827 430.717 52.9788 430.429 52.6908C430.141 52.3308 429.709 52.1868 429.133 52.1868C428.629 52.1868 428.197 52.3308 427.909 52.6908C427.621 53.0508 427.477 53.4827 427.477 54.0587C427.477 54.6346 427.621 55.0666 427.909 55.4266C428.197 55.7866 428.629 55.9305 429.133 55.9305C429.637 55.9305 430.069 55.7866 430.357 55.4266C430.717 54.9946 430.861 54.5627 430.861 53.9867Z" fill="#535859"/>
<path d="M443.244 63.0567H434.893V61.6168L438.997 57.0812C439.573 56.4332 440.005 55.8573 440.293 55.4253C440.581 54.9934 440.653 54.5614 440.653 54.0574C440.653 53.4815 440.509 52.9775 440.149 52.6176C439.789 52.2576 439.357 52.0416 438.781 52.0416C438.133 52.0416 437.557 52.2576 437.197 52.6896C436.837 53.1215 436.621 53.6255 436.621 54.3454H434.533C434.533 53.6255 434.677 52.9055 435.037 52.3296C435.397 51.7536 435.901 51.2497 436.477 50.8897C437.125 50.5297 437.845 50.3857 438.709 50.3857C439.933 50.3857 440.869 50.6737 441.589 51.3217C442.309 51.8976 442.597 52.7615 442.597 53.8415C442.597 54.4894 442.453 55.1374 442.093 55.7853C441.733 56.4333 441.157 57.2252 440.365 58.0891L437.341 61.3288H443.1V63.0567H443.244Z" fill="#535859"/>
<path d="M451.667 58.5929H453.179V60.2488H451.667V62.9846H449.579V60.2488H444.252L444.18 58.9529L449.507 50.6016H451.667V58.5929ZM446.34 58.5929H449.579V53.4093L449.435 53.6973L446.34 58.5929Z" fill="#535859"/>
<path d="M289.393 77.8162H269.882C269.666 77.8162 269.45 77.8882 269.306 77.8882L266.282 79.0401C265.922 79.1841 265.49 79.1841 265.131 79.0401L261.819 77.8882C261.603 77.8162 261.459 77.8162 261.243 77.8162H242.02C241.156 77.8162 240.437 77.0962 240.437 76.2323V54.994C240.437 54.1301 241.156 53.4102 242.02 53.4102H289.465C290.328 53.4102 291.048 54.1301 291.048 54.994V76.2323C290.976 77.0962 290.256 77.8162 289.393 77.8162Z" fill="#F0F0F0"/>
<path d="M260.452 61.1148L255.484 72.3459H253.325L258.292 61.6188H251.885V59.9629H260.452V61.1148Z" fill="#535859"/>
<path d="M267.723 59.8894V61.6172H267.435C266.283 61.6172 265.347 61.9772 264.627 62.5532C263.907 63.1291 263.547 64.065 263.403 65.2169C264.051 64.497 264.915 64.137 265.923 64.137C267.003 64.137 267.867 64.497 268.515 65.2889C269.163 66.0809 269.451 67.0888 269.451 68.3127C269.451 69.6086 269.091 70.6165 268.371 71.3364C267.651 72.1284 266.643 72.4884 265.491 72.4884C264.267 72.4884 263.259 72.0564 262.467 71.1205C261.675 70.1845 261.315 69.0326 261.315 67.5208V66.8008C261.315 64.641 261.819 62.9131 262.899 61.6892C263.979 60.4653 265.491 59.8174 267.435 59.8174H267.723V59.8894ZM265.491 65.7929C265.059 65.7929 264.627 65.9369 264.267 66.1529C263.907 66.3688 263.619 66.7288 263.403 67.1608V67.8087C263.403 68.7447 263.619 69.4646 263.979 69.9686C264.339 70.4725 264.843 70.7605 265.491 70.7605C266.139 70.7605 266.571 70.5445 266.931 70.0405C267.291 69.6086 267.435 68.9606 267.435 68.2407C267.435 67.5208 267.219 66.8728 266.859 66.4408C266.571 66.0089 266.139 65.7929 265.491 65.7929Z" fill="#535859"/>
<path d="M271.611 66.1531L272.259 59.8896H278.883V61.6895H273.915L273.555 64.6413C274.131 64.2813 274.779 64.1373 275.499 64.1373C276.651 64.1373 277.587 64.4973 278.235 65.2892C278.883 66.0092 279.243 67.0891 279.243 68.313C279.243 69.6089 278.883 70.5448 278.163 71.3367C277.443 72.0567 276.435 72.4886 275.139 72.4886C273.987 72.4886 273.051 72.2006 272.331 71.5527C271.611 70.9047 271.179 70.0408 271.107 69.0329H273.123C273.195 69.6089 273.411 70.1128 273.771 70.4008C274.131 70.6888 274.563 70.9048 275.139 70.9048C275.787 70.9048 276.291 70.6888 276.651 70.2568C277.011 69.8248 277.155 69.1769 277.155 68.385C277.155 67.665 276.939 67.0171 276.579 66.5851C276.219 66.1531 275.643 65.9372 274.995 65.9372C274.635 65.9372 274.275 66.0091 274.059 66.0811C273.771 66.1531 273.483 66.3691 273.195 66.6571L271.611 66.1531Z" fill="#535859"/>
<path d="M116.247 75.3681H96.7363C96.5204 75.3681 96.3044 75.4401 96.1604 75.4401L93.1366 76.592C92.7767 76.736 92.3447 76.736 91.9847 76.592L88.673 75.4401C88.457 75.3681 88.313 75.3681 88.0971 75.3681H68.8026C67.9387 75.3681 67.2188 74.6482 67.2188 73.7843V52.474C67.2188 51.6101 67.9387 50.8901 68.8026 50.8901H116.247C117.111 50.8901 117.831 51.6101 117.831 52.474V73.7123C117.831 74.6482 117.111 75.3681 116.247 75.3681Z" fill="#F0F0F0"/>
<path d="M87.0907 58.5943L82.1231 69.8254H79.9633L84.9309 59.0983H78.5234V57.4424H87.0907V58.5943Z" fill="#535859"/>
<path d="M97.0976 58.5938L92.13 69.8249H89.9702L94.9377 59.0978H88.5303V57.4419H97.0976V58.5938Z" fill="#535859"/>
<path d="M98.753 63.7054L99.4009 57.4419H106.024V59.2417H101.057L100.697 62.1935C101.273 61.8335 101.921 61.6895 102.641 61.6895C103.793 61.6895 104.728 62.0495 105.376 62.8415C106.024 63.5614 106.384 64.6413 106.384 65.8652C106.384 67.1611 106.024 68.097 105.304 68.889C104.585 69.6089 103.577 70.0409 102.281 70.0409C101.129 70.0409 100.193 69.7529 99.4729 69.1049C98.753 68.457 98.321 67.5931 98.249 66.5852H100.265C100.337 67.1611 100.553 67.6651 100.913 67.953C101.273 68.241 101.705 68.457 102.281 68.457C102.929 68.457 103.433 68.241 103.793 67.8091C104.153 67.3771 104.297 66.7291 104.297 65.9372C104.297 65.2173 104.081 64.5693 103.721 64.1374C103.361 63.7054 102.785 63.4894 102.137 63.4894C101.777 63.4894 101.417 63.5614 101.201 63.6334C100.913 63.7054 100.625 63.9214 100.337 64.2093L98.753 63.7054Z" fill="#535859"/>
<path d="M265.707 94.4473H265.635L92.4893 92.6474L92.5613 88.5438L265.635 90.3436L438.709 81.1284L611.855 48.875L612.575 52.9067L439.141 85.16H438.997L265.707 94.4473Z" fill="#4BA4DB"/>
<path d="M92.5617 98.6224C96.9752 98.6224 100.553 95.0445 100.553 90.631C100.553 86.2175 96.9752 82.6396 92.5617 82.6396C88.1482 82.6396 84.5703 86.2175 84.5703 90.631C84.5703 95.0445 88.1482 98.6224 92.5617 98.6224Z" fill="white"/>
<path d="M92.5609 100.638C87.0173 100.638 82.5537 96.1748 82.5537 90.6312C82.5537 85.0877 87.0173 80.624 92.5609 80.624C98.1044 80.624 102.568 85.0877 102.568 90.6312C102.568 96.1748 98.0325 100.638 92.5609 100.638ZM92.5609 84.6557C89.3212 84.6557 86.6574 87.3195 86.6574 90.5592C86.6574 93.7989 89.3212 96.4627 92.5609 96.4627C95.8006 96.4627 98.4644 93.7989 98.4644 90.5592C98.4644 87.3195 95.8006 84.6557 92.5609 84.6557Z" fill="#4BA4DB"/>
<path d="M265.635 100.422C270.048 100.422 273.626 96.8443 273.626 92.4308C273.626 88.0173 270.048 84.4395 265.635 84.4395C261.221 84.4395 257.644 88.0173 257.644 92.4308C257.644 96.8443 261.221 100.422 265.635 100.422Z" fill="white"/>
<path d="M265.636 102.438C260.093 102.438 255.629 97.9746 255.629 92.431C255.629 86.8875 260.093 82.4238 265.636 82.4238C271.18 82.4238 275.643 86.8875 275.643 92.431C275.643 97.9746 271.18 102.438 265.636 102.438ZM265.636 86.4555C262.396 86.4555 259.733 89.1193 259.733 92.359C259.733 95.5988 262.396 98.2625 265.636 98.2625C268.876 98.2625 271.54 95.5988 271.54 92.359C271.612 89.1193 268.948 86.4555 265.636 86.4555Z" fill="#4BA4DB"/>
<path d="M438.925 91.1355C443.338 91.1355 446.916 87.5577 446.916 83.1442C446.916 78.7307 443.338 75.1528 438.925 75.1528C434.511 75.1528 430.934 78.7307 430.934 83.1442C430.934 87.5577 434.511 91.1355 438.925 91.1355Z" fill="white"/>
<path d="M438.924 93.1511C433.381 93.1511 428.917 88.6875 428.917 83.1439C428.917 77.6004 433.381 73.1367 438.924 73.1367C444.468 73.1367 448.931 77.6004 448.931 83.1439C448.931 88.6875 444.468 93.1511 438.924 93.1511ZM438.924 77.1684C435.684 77.1684 433.021 79.8322 433.021 83.0719C433.021 86.3116 435.684 88.9754 438.924 88.9754C442.164 88.9754 444.828 86.3116 444.828 83.0719C444.828 79.8322 442.164 77.1684 438.924 77.1684Z" fill="#4BA4DB"/>
<path d="M612.215 58.8811C616.629 58.8811 620.206 55.3033 620.206 50.8898C620.206 46.4763 616.629 42.8984 612.215 42.8984C607.802 42.8984 604.224 46.4763 604.224 50.8898C604.224 55.3033 607.802 58.8811 612.215 58.8811Z" fill="white"/>
<path d="M612.215 60.8977C606.672 60.8977 602.208 56.434 602.208 50.8905C602.208 45.3469 606.672 40.8833 612.215 40.8833C617.759 40.8833 622.222 45.3469 622.222 50.8905C622.222 56.434 617.759 60.8977 612.215 60.8977ZM612.215 44.987C608.975 44.987 606.312 47.6508 606.312 50.8905C606.312 54.1302 608.975 56.794 612.215 56.794C615.455 56.794 618.119 54.1302 618.119 50.8905C618.119 47.6508 615.455 44.987 612.215 44.987Z" fill="#4BA4DB"/>
</svg>
