<svg id="Layer_1" data-name="Layer 1" xmlns="http://www.w3.org/2000/svg" viewBox="0 0 648 257"><defs><style>.cls-1{fill:#4ba4db;}.cls-2{fill:#335182;}.cls-3{fill:#535859;}</style></defs><path class="cls-1" d="M304.89,69.19V20.7a106.36,106.36,0,0,0-90.36,50.22l41.2,25.6A57.88,57.88,0,0,1,304.89,69.19Z"/><path class="cls-2" d="M304.89,20.7V69.19A57.73,57.73,0,1,1,255.8,96.46L214.6,70.85A106.39,106.39,0,1,0,304.89,20.7Z"/><path class="cls-3" d="M292.68,95.26a12.09,12.09,0,0,1,4.78,4.32,11.13,11.13,0,0,1,1.66,6,10.74,10.74,0,0,1-2.33,7.1,12.7,12.7,0,0,1-6.63,4,12.24,12.24,0,0,1,7.5,3.45c1.92,1.92,2.85,4.58,2.85,8a14.47,14.47,0,0,1-1.92,7.3,13.94,13.94,0,0,1-5.44,5.24,17,17,0,0,1-8.36,2,17.94,17.94,0,0,1-7.9-1.73,18.67,18.67,0,0,1-6.23-5.11l5-4.44a19.84,19.84,0,0,0,4.25,3.38,9,9,0,0,0,4.44,1.06,6.89,6.89,0,0,0,5.24-2.12,8.23,8.23,0,0,0,2-5.9c0-2.79-.66-4.71-2-5.91s-3.25-1.79-5.9-1.79h-3.25l1-6.23h2.19a6.66,6.66,0,0,0,7.1-7.3A6.14,6.14,0,0,0,289,102a6.23,6.23,0,0,0-4.64-1.65,11.46,11.46,0,0,0-8.29,3.91l-4.51-4.58a18.49,18.49,0,0,1,13.73-6A16.64,16.64,0,0,1,292.68,95.26Z"/><path class="cls-3" d="M312.45,134.87a4.48,4.48,0,0,1,0,6.23,4.32,4.32,0,0,1-3.18,1.33,3.93,3.93,0,0,1-3-1.33A4.51,4.51,0,0,1,305,138a4.13,4.13,0,0,1,1.27-3.12,4,4,0,0,1,3-1.26A4.54,4.54,0,0,1,312.45,134.87Z"/><path class="cls-3" d="M334.08,104.55a9.06,9.06,0,0,1,3.78,3.45,9.33,9.33,0,0,1,1.33,4.84,8.57,8.57,0,0,1-1.86,5.71,10.57,10.57,0,0,1-5.31,3.18,10.07,10.07,0,0,1,6,2.72,8.69,8.69,0,0,1,2.25,6.44,11.85,11.85,0,0,1-1.52,5.84,11,11,0,0,1-4.31,4.18,13.39,13.39,0,0,1-6.7,1.59,14,14,0,0,1-6.31-1.4,16,16,0,0,1-5-4l4-3.52a14.24,14.24,0,0,0,3.39,2.72,7.11,7.11,0,0,0,3.58.86,5.4,5.4,0,0,0,4.18-1.72,6.65,6.65,0,0,0,1.59-4.71c0-2.19-.53-3.78-1.59-4.71a6.89,6.89,0,0,0-4.71-1.46h-2.59l.8-5h1.72a5.6,5.6,0,0,0,4.11-1.52,5.88,5.88,0,0,0,1.53-4.31,5,5,0,0,0-1.33-3.72,5.19,5.19,0,0,0-3.71-1.33,9.34,9.34,0,0,0-6.64,3.12l-3.58-3.65a15,15,0,0,1,11-4.84A11.76,11.76,0,0,1,334.08,104.55Z"/><path class="cls-3" d="M285.58,162.14h-1.72l-.33-5.18c-.07-.93-.07-1.79-.07-2.45v-1.07l-2.12,7.5h-1.53l-2.05-7.5v1.2c0,.79,0,1.59-.07,2.32l-.33,5.18H275.7l.8-10.35h2.19l1.92,7.49,2-7.49h2.19Z"/><path class="cls-3" d="M295.14,151.79v10.35h-1.79v-9h-2.86l-.26,3.78c-.13,1.39-.27,2.39-.4,3a2.72,2.72,0,0,1-.73,1.46,4.5,4.5,0,0,1-1.53.86l-.46-1.32a1.32,1.32,0,0,0,.8-.6,3.12,3.12,0,0,0,.39-1.13c.07-.53.14-1.32.27-2.45l.33-5Z"/><path class="cls-3" d="M305.35,152.91a7.37,7.37,0,0,1,.87,4,7.63,7.63,0,0,1-.93,4,3,3,0,0,1-2.66,1.46,2.84,2.84,0,0,1-2.45-1.26V166l-1.79.2V151.65h1.52l.07,1.4a3.2,3.2,0,0,1,2.79-1.66A3.3,3.3,0,0,1,305.35,152.91Zm-1,4.05a6.82,6.82,0,0,0-.53-3.05,1.57,1.57,0,0,0-1.53-.93,1.82,1.82,0,0,0-1.19.4,5.45,5.45,0,0,0-1,1.13v5.24a2.31,2.31,0,0,0,2.06,1.26C303.63,160.94,304.36,159.61,304.36,157Z"/><path class="cls-3" d="M316.17,160.74v4.38h-1.33l-.27-3h-6l-.27,3H307v-4.38h.66a3.55,3.55,0,0,0,.66-.73,6.3,6.3,0,0,0,.47-1.32c.13-.6.2-1.53.33-2.72l.26-4.18h5.91v9Zm-2.66-7.63h-2.65l-.13,2.66a19.11,19.11,0,0,1-.27,2.58,5.06,5.06,0,0,1-.53,1.46,3.46,3.46,0,0,1-.79.93h4.37Z"/><path class="cls-3" d="M320.08,160.28a1.38,1.38,0,0,1,.33.86,1.25,1.25,0,0,1-.33.86,1.1,1.1,0,0,1-.93.4,1.06,1.06,0,0,1-.86-.4,1.38,1.38,0,0,1-.33-.86,1.25,1.25,0,0,1,.33-.86,1,1,0,0,1,.86-.33A1,1,0,0,1,320.08,160.28Z"/><path class="cls-3" d="M333.75,160.94a4.32,4.32,0,0,1-2.39,1.33v2.92H330v-2.86a5.15,5.15,0,0,1-3.65-1.65l.93-1a8.79,8.79,0,0,0,1.39,1,4.5,4.5,0,0,0,1.66.33,2.29,2.29,0,0,0,1.79-.67,2.25,2.25,0,0,0,.66-1.72,2.13,2.13,0,0,0-.53-1.53,5.88,5.88,0,0,0-2-1.06,6.5,6.5,0,0,1-2.65-1.52,3.25,3.25,0,0,1-.8-2.26,3.15,3.15,0,0,1,.86-2.26,3.89,3.89,0,0,1,2.33-1.12V146h1.39v2.86a5.29,5.29,0,0,1,1.59.46,6.35,6.35,0,0,1,1.33,1l-.93,1a3.93,3.93,0,0,0-1.26-.86,3.47,3.47,0,0,0-1.39-.27,2.25,2.25,0,0,0-1.53.53,1.73,1.73,0,0,0-.6,1.4,2.21,2.21,0,0,0,.2,1,1.7,1.7,0,0,0,.8.73,9.74,9.74,0,0,0,1.59.67,6.46,6.46,0,0,1,2.59,1.46,3.43,3.43,0,0,1,.86,2.45A3.37,3.37,0,0,1,333.75,160.94Z"/><path class="cls-3" d="M102.22,59.44H88.69V69.59a11.79,11.79,0,0,1,5.57-1.53,9.31,9.31,0,0,1,7.56,3.45c1.93,2.33,2.86,5.44,2.86,9.49A15.37,15.37,0,0,1,103,88.3a11.58,11.58,0,0,1-4.84,4.91A14.31,14.31,0,0,1,90.88,95a13.79,13.79,0,0,1-6.57-1.46,19.11,19.11,0,0,1-5.18-4.18l4.25-3.91a11.25,11.25,0,0,0,3.32,2.78,8.16,8.16,0,0,0,3.84.93A5.68,5.68,0,0,0,95.25,87c1.13-1.4,1.66-3.45,1.66-6.11,0-5-1.85-7.62-5.5-7.62a8.4,8.4,0,0,0-2.26.33,9.4,9.4,0,0,0-2.39,1.13h-5.1V53.87h21.49Z"/><path class="cls-3" d="M125.11,54.53a9.49,9.49,0,0,1,4,3.72,9.73,9.73,0,0,1,1.4,5.17,9.27,9.27,0,0,1-2,6.1,10.67,10.67,0,0,1-5.71,3.39,10.7,10.7,0,0,1,6.44,2.92,9.5,9.5,0,0,1,2.45,6.9A12.47,12.47,0,0,1,130.15,89a12.06,12.06,0,0,1-4.64,4.51,14.29,14.29,0,0,1-7.17,1.66,14.87,14.87,0,0,1-6.77-1.46,17.18,17.18,0,0,1-5.37-4.31l4.25-3.78a13.29,13.29,0,0,0,3.65,2.85,7.89,7.89,0,0,0,3.78.93,5.78,5.78,0,0,0,4.51-1.86,7.1,7.1,0,0,0,1.66-5c0-2.32-.53-4-1.66-5a7.37,7.37,0,0,0-5-1.53h-2.72l.86-5.3h1.86a5.92,5.92,0,0,0,4.37-1.6,6.17,6.17,0,0,0,1.66-4.57,5.12,5.12,0,0,0-1.46-4,5.38,5.38,0,0,0-4-1.4,9.57,9.57,0,0,0-7,3.39l-3.85-3.92a15.88,15.88,0,0,1,11.75-5.17A11.21,11.21,0,0,1,125.11,54.53Z"/><path class="cls-3" d="M159.8,58.45c2.26,3.51,3.39,8.75,3.39,15.59s-1.13,12.2-3.39,15.72A11.9,11.9,0,0,1,140,89.69q-3.37-5.26-3.38-15.72c0-7,1.13-12.14,3.38-15.66a11.86,11.86,0,0,1,19.77.14Zm-13,1.79A10.22,10.22,0,0,0,145,65a53.52,53.52,0,0,0-.6,9.09,53.83,53.83,0,0,0,.6,9.15,10.22,10.22,0,0,0,1.79,4.71,4.34,4.34,0,0,0,6.37,0A10.22,10.22,0,0,0,155,83.19a55.33,55.33,0,0,0,.6-9.22,53.88,53.88,0,0,0-.6-9.16,9.58,9.58,0,0,0-1.79-4.64A4,4,0,0,0,150,58.78,4.24,4.24,0,0,0,146.8,60.24Z"/><path class="cls-3" d="M90,119.88H88.16l-.4-5.51c-.07-1-.13-1.86-.13-2.59v-1.12l-2.26,8H83.71l-2.19-8V112c0,.86,0,1.73-.06,2.46l-.34,5.5H79.33l.87-11.08h2.32l2,8,2.13-8h2.38Z"/><path class="cls-3" d="M100.16,108.86v11.08H98.24v-9.55h-3l-.27,4c-.13,1.46-.26,2.52-.4,3.25a3,3,0,0,1-.79,1.59,4.41,4.41,0,0,1-1.66.93l-.46-1.46a2.32,2.32,0,0,0,.86-.67,2.51,2.51,0,0,0,.4-1.19c.06-.53.19-1.39.26-2.65l.4-5.38Z"/><path class="cls-3" d="M109.45,119.88V115h-4v4.91h-1.92v-11h1.92v4.65h4v-4.65h1.92v11.08h-1.92Z"/><path class="cls-3" d="M116.22,117.89a1.33,1.33,0,0,1-.93,2.25,1.2,1.2,0,0,1-.93-.4,1.27,1.27,0,0,1,0-1.85,1.2,1.2,0,0,1,.93-.4A1.31,1.31,0,0,1,116.22,117.89Z"/><path class="cls-3" d="M130.88,118.62a4.15,4.15,0,0,1-2.52,1.39v3.12h-1.53v-3a5.64,5.64,0,0,1-3.91-1.79l1-1.06a6.1,6.1,0,0,0,1.53,1.06,3.75,3.75,0,0,0,1.72.33,2.65,2.65,0,0,0,1.93-.66,2.52,2.52,0,0,0,.73-1.86,2.21,2.21,0,0,0-.6-1.66,5.9,5.9,0,0,0-2.12-1.13,7.45,7.45,0,0,1-2.86-1.59,3.22,3.22,0,0,1-.86-2.39,3.45,3.45,0,0,1,.93-2.38,4.05,4.05,0,0,1,2.46-1.2v-3h1.52v3a4.56,4.56,0,0,1,1.66.53,7.07,7.07,0,0,1,1.46,1.06l-1,1.07a5.33,5.33,0,0,0-1.32-.93,3.7,3.7,0,0,0-1.53-.27,2.64,2.64,0,0,0-1.66.53,1.87,1.87,0,0,0-.59,1.46,1.78,1.78,0,0,0,.26,1.06,2.59,2.59,0,0,0,.86.8,9.74,9.74,0,0,0,1.73.73,6.88,6.88,0,0,1,2.79,1.59,3.72,3.72,0,0,1,.92,2.65A4.38,4.38,0,0,1,130.88,118.62Z"/><path class="cls-1" d="M89.48,35.16H86.83V28.92a49.83,49.83,0,0,1,.33-5.5L83.05,35.16H79.73V20.63h2.65v6.3c0,1.13,0,2.06-.06,2.79s-.13,1.66-.27,2.59l4.18-11.68h3.25Z"/><path class="cls-1" d="M103.08,35.16h-2.52l-.26-4.64a17.15,17.15,0,0,1-.07-1.86c0-.66,0-1.46.07-2.26L98.44,34H96.18l-1.72-7.5c0,.46.07,1.19.07,2.06a15.48,15.48,0,0,1-.07,2l-.2,4.64H91.81L92.67,24h3.12l1.52,7.57L99,24h3.18Z"/><path class="cls-1" d="M111,35.16V26h-3.12v9.15h-2.65V24h8.36V35.16Z"/><path class="cls-1" d="M124.11,25.21a6.45,6.45,0,0,1,1.26,4.38,6.62,6.62,0,0,1-1.26,4.31,4.23,4.23,0,0,1-3.51,1.59A4.39,4.39,0,0,1,117.08,34a6.6,6.6,0,0,1-1.26-4.32,6.57,6.57,0,0,1,1.26-4.31,4.18,4.18,0,0,1,3.52-1.52A4.26,4.26,0,0,1,124.11,25.21Zm-5,1.46a6.47,6.47,0,0,0-.53,3,6.49,6.49,0,0,0,.53,3,1.72,1.72,0,0,0,3.05,0,6.49,6.49,0,0,0,.53-3,6.47,6.47,0,0,0-.53-3,1.68,1.68,0,0,0-1.52-.93A1.58,1.58,0,0,0,119.07,26.67Z"/><path class="cls-1" d="M135.72,25.28a8.44,8.44,0,0,1,.93,4.31,7.54,7.54,0,0,1-1.06,4.31,3.33,3.33,0,0,1-2.92,1.59,3.17,3.17,0,0,1-2.52-1.19v5.17l-2.65.27V24h2.32l.13,1.33a3.51,3.51,0,0,1,3-1.66A3.09,3.09,0,0,1,135.72,25.28Zm-2.32,7.29a6.45,6.45,0,0,0,.53-3,6.67,6.67,0,0,0-.46-3,1.35,1.35,0,0,0-1.33-.86,2.25,2.25,0,0,0-1.92,1.46v5.17A2.1,2.1,0,0,0,132,33.5,1.68,1.68,0,0,0,133.4,32.57Z"/><path class="cls-1" d="M145.94,24l-.33,2h-2.86v9.15H140.1V26h-3V24Z"/><path class="cls-3" d="M465.76,167.84a10.9,10.9,0,0,1,4.18,4,11.56,11.56,0,0,1,1.46,5.71,17.34,17.34,0,0,1-1.32,6.56,30.09,30.09,0,0,1-4.38,7c-2.06,2.58-5.11,6-9.09,10.34H472.2l-.8,5.91H448.45v-5.51c4.44-5,7.69-8.82,9.75-11.47a31.33,31.33,0,0,0,4.31-6.7,14.5,14.5,0,0,0,1.2-5.78,6.26,6.26,0,0,0-1.33-4.24,4.69,4.69,0,0,0-3.65-1.46,7,7,0,0,0-3.52.93,15.38,15.38,0,0,0-3.31,3.12l-4.51-3.45c3.05-4.38,7-6.51,11.94-6.51A14.06,14.06,0,0,1,465.76,167.84Z"/><path class="cls-3" d="M511.07,167v5.24l-13.4,35.83-6.7-2.19,12.54-33H488.32V167Z"/><path class="cls-3" d="M535.49,172.62H522v10.15a11.74,11.74,0,0,1,5.58-1.53,9.32,9.32,0,0,1,7.56,3.45c1.92,2.32,2.85,5.44,2.85,9.49a15.44,15.44,0,0,1-1.72,7.29,11.44,11.44,0,0,1-4.85,4.91,14.18,14.18,0,0,1-7.23,1.79,13.72,13.72,0,0,1-6.56-1.45,19,19,0,0,1-5.18-4.18l4.25-3.92a11.55,11.55,0,0,0,3.31,2.79,8.23,8.23,0,0,0,3.85.93,5.67,5.67,0,0,0,4.71-2.13c1.13-1.39,1.66-3.45,1.66-6.1,0-5-1.86-7.63-5.51-7.63a8.38,8.38,0,0,0-2.25.33,9.59,9.59,0,0,0-2.39,1.13h-5.18v-21h21.5Z"/><path class="cls-3" d="M563.48,170.49q3.39,4.19,3.39,11.55a33.42,33.42,0,0,1-2.33,13.4,18.83,18.83,0,0,1-7,8.29,42.35,42.35,0,0,1-12.47,5.17l-1.53-5.3c4.78-1.33,8.42-3.12,10.81-5.31a14.65,14.65,0,0,0,4.51-9.16,9.24,9.24,0,0,1-12.8,2.39,10.84,10.84,0,0,1-3.78-4.57,16.23,16.23,0,0,1-1.39-6.9,15.09,15.09,0,0,1,1.72-7.37,11.82,11.82,0,0,1,4.64-4.71,13.86,13.86,0,0,1,6.64-1.59C558,166.38,561.23,167.77,563.48,170.49Zm-4.31,12.94c.07-4.25-.33-7.23-1.19-9a4.34,4.34,0,0,0-4.25-2.58,4.55,4.55,0,0,0-4,2,10.45,10.45,0,0,0-1.46,6c0,2.66.46,4.65,1.33,5.91a4.27,4.27,0,0,0,3.65,1.86C555.65,187.68,557.64,186.22,559.17,183.43Z"/><path class="cls-3" d="M458.6,233.12h-1.79l-.4-5.51c-.07-1-.13-1.86-.13-2.59V223.9l-2.26,8h-1.66l-2.19-8v1.26c0,.87,0,1.73-.06,2.46l-.33,5.5H448l.86-11.07h2.32l2.06,8,2.12-8h2.39Z"/><path class="cls-3" d="M468.82,222v11.08h-1.93v-9.55h-3.05l-.27,4c-.13,1.46-.26,2.52-.39,3.25a3,3,0,0,1-.8,1.59,4.28,4.28,0,0,1-1.66.93l-.46-1.46a2.14,2.14,0,0,0,.86-.66,2.51,2.51,0,0,0,.4-1.19c.06-.53.2-1.4.26-2.66l.4-5.37Z"/><path class="cls-3" d="M478.1,233.12v-4.91h-4v4.91h-1.93V222h1.93v4.64h4V222H480v11.08Z"/><path class="cls-3" d="M484.87,231.06a1.28,1.28,0,0,1,0,1.86,1.33,1.33,0,0,1-.93.4,1.23,1.23,0,0,1-.93-.4,1.28,1.28,0,0,1,0-1.86,1.23,1.23,0,0,1,.93-.4A2.35,2.35,0,0,1,484.87,231.06Z"/><path class="cls-3" d="M499.53,231.86a4.15,4.15,0,0,1-2.52,1.39v3.12h-1.52v-3.05a5.73,5.73,0,0,1-3.92-1.79l1-1.07a5.69,5.69,0,0,0,1.52,1.07,3.9,3.9,0,0,0,1.73.33,2.59,2.59,0,0,0,1.92-.67,2.5,2.5,0,0,0,.73-1.85,2.21,2.21,0,0,0-.6-1.66,5.53,5.53,0,0,0-2.12-1.13A7.32,7.32,0,0,1,492.9,225a3.2,3.2,0,0,1-.86-2.39,3.52,3.52,0,0,1,.92-2.39,4.12,4.12,0,0,1,2.46-1.19v-3.05h1.52V219a4.21,4.21,0,0,1,1.66.53,6.49,6.49,0,0,1,1.46,1.06l-1,1.06a5.56,5.56,0,0,0-1.33-.93,3.67,3.67,0,0,0-1.53-.26,2.59,2.59,0,0,0-1.65.53,1.84,1.84,0,0,0-.6,1.46,1.88,1.88,0,0,0,.26,1.06,2.63,2.63,0,0,0,.87.79,8.33,8.33,0,0,0,1.72.73,6.88,6.88,0,0,1,2.79,1.6,3.65,3.65,0,0,1,.93,2.65A4.64,4.64,0,0,1,499.53,231.86Z"/><path class="cls-2" d="M455,135.33c.92,1.2,1.32,3.12,1.32,5.71a9.75,9.75,0,0,1-1.39,5.7,4.69,4.69,0,0,1-4,1.93,5,5,0,0,1-3.85-1.66l1.26-1.53a4.62,4.62,0,0,0,1.13.73,2.52,2.52,0,0,0,1.26.27,2.19,2.19,0,0,0,2-1.06,6.75,6.75,0,0,0,.73-3.52h-4.58v-2h4.58a6.65,6.65,0,0,0-.73-3.32,2,2,0,0,0-1.79-1,4.36,4.36,0,0,0-1.33.2,4,4,0,0,0-1.26.79l-1.26-1.52a7.38,7.38,0,0,1,1.79-1.2,5.5,5.5,0,0,1,2.19-.39A4.84,4.84,0,0,1,455,135.33Z"/><path class="cls-2" d="M467.16,137.26l-2.79,5.17,3.05,6h-2.79l-2.38-5h-1.06v5h-2.66V137.26h2.66v4.44h1.06l2.32-4.44Z"/><path class="cls-2" d="M474.59,137.26a4.33,4.33,0,0,1,1.52,1L475,139.78a3,3,0,0,0-2-.73,1.86,1.86,0,0,0-1.65.93,5.63,5.63,0,0,0-.54,3,5.7,5.7,0,0,0,.54,2.85,1.94,1.94,0,0,0,1.65.87,2.7,2.7,0,0,0,1-.2l1-.53,1.2,1.59a4.81,4.81,0,0,1-3.25,1.26,4.49,4.49,0,0,1-3.58-1.53,6.37,6.37,0,0,1-1.27-4.31,8,8,0,0,1,.6-3.18,4.37,4.37,0,0,1,1.66-2.06,4.7,4.7,0,0,1,2.52-.73A3.87,3.87,0,0,1,474.59,137.26Z"/><path class="cls-2" d="M483.41,148.34v-9.16h-3.12v9.16h-2.65V137.19H486v11.15Z"/><path class="cls-2" d="M496.55,138.45a6.54,6.54,0,0,1,1.26,4.38,6.68,6.68,0,0,1-1.26,4.31,4.26,4.26,0,0,1-3.52,1.59,4.4,4.4,0,0,1-3.52-1.52,8,8,0,0,1,0-8.63,4.2,4.2,0,0,1,3.52-1.52A4.33,4.33,0,0,1,496.55,138.45Zm-5.05,1.39a6.52,6.52,0,0,0-.53,3,6.45,6.45,0,0,0,.53,3,1.72,1.72,0,0,0,3.05,0,6.29,6.29,0,0,0,.54-3,6.37,6.37,0,0,0-.54-3,1.72,1.72,0,0,0-3.05,0Z"/><path class="cls-2" d="M508.22,138.45a8.49,8.49,0,0,1,.93,4.31,7.6,7.6,0,0,1-1.06,4.32,3.33,3.33,0,0,1-2.92,1.59,3.15,3.15,0,0,1-2.52-1.2v5.18l-2.66.26V137.19h2.33l.13,1.33a3.51,3.51,0,0,1,3-1.66A3.42,3.42,0,0,1,508.22,138.45Zm-2.32,7.3a6.49,6.49,0,0,0,.53-3,6.65,6.65,0,0,0-.46-3,1.35,1.35,0,0,0-1.33-.86,2.25,2.25,0,0,0-1.92,1.46v5.17a2.1,2.1,0,0,0,1.79,1.13A1.73,1.73,0,0,0,505.9,145.75Z"/><path class="cls-2" d="M518.37,137.26l-.33,2h-2.85v9.15h-2.66v-9.15h-3v-2Z"/></svg>