<svg width="1917" height="885" viewBox="0 0 1917 885" fill="none" xmlns="http://www.w3.org/2000/svg">
<line x1="1044.5" y1="860" x2="1044.5" y2="885" stroke="white" stroke-opacity="0.15" stroke-width="3" stroke-linejoin="round"/>
<line x1="1057" y1="872.5" x2="1032" y2="872.5" stroke="white" stroke-opacity="0.15" stroke-width="3" stroke-linejoin="round"/>
<line x1="1044.5" y1="172" x2="1044.5" y2="197" stroke="white" stroke-opacity="0.15" stroke-width="3" stroke-linejoin="round"/>
<line x1="1057" y1="184.5" x2="1032" y2="184.5" stroke="white" stroke-opacity="0.15" stroke-width="3" stroke-linejoin="round"/>
<line x1="1044.5" y1="516" x2="1044.5" y2="541" stroke="white" stroke-opacity="0.15" stroke-width="3" stroke-linejoin="round"/>
<line x1="1057" y1="528.5" x2="1032" y2="528.5" stroke="white" stroke-opacity="0.15" stroke-width="3" stroke-linejoin="round"/>
<line x1="1044.5" y1="688" x2="1044.5" y2="713" stroke="white" stroke-opacity="0.15" stroke-width="3" stroke-linejoin="round"/>
<line x1="1057" y1="700.5" x2="1032" y2="700.5" stroke="white" stroke-opacity="0.15" stroke-width="3" stroke-linejoin="round"/>
<line x1="1044.5" y1="6.55671e-08" x2="1044.5" y2="25" stroke="white" stroke-opacity="0.15" stroke-width="3" stroke-linejoin="round"/>
<line x1="1057" y1="12.5" x2="1032" y2="12.5" stroke="white" stroke-opacity="0.15" stroke-width="3" stroke-linejoin="round"/>
<line x1="1044.5" y1="344" x2="1044.5" y2="369" stroke="white" stroke-opacity="0.15" stroke-width="3" stroke-linejoin="round"/>
<line x1="1057" y1="356.5" x2="1032" y2="356.5" stroke="white" stroke-opacity="0.15" stroke-width="3" stroke-linejoin="round"/>
<line x1="1216.5" y1="860" x2="1216.5" y2="885" stroke="white" stroke-opacity="0.15" stroke-width="3" stroke-linejoin="round"/>
<line x1="1229" y1="872.5" x2="1204" y2="872.5" stroke="white" stroke-opacity="0.15" stroke-width="3" stroke-linejoin="round"/>
<line x1="1216.5" y1="172" x2="1216.5" y2="197" stroke="white" stroke-opacity="0.15" stroke-width="3" stroke-linejoin="round"/>
<line x1="1229" y1="184.5" x2="1204" y2="184.5" stroke="white" stroke-opacity="0.15" stroke-width="3" stroke-linejoin="round"/>
<line x1="1216.5" y1="516" x2="1216.5" y2="541" stroke="white" stroke-opacity="0.15" stroke-width="3" stroke-linejoin="round"/>
<line x1="1229" y1="528.5" x2="1204" y2="528.5" stroke="white" stroke-opacity="0.15" stroke-width="3" stroke-linejoin="round"/>
<line x1="1216.5" y1="688" x2="1216.5" y2="713" stroke="white" stroke-opacity="0.15" stroke-width="3" stroke-linejoin="round"/>
<line x1="1229" y1="700.5" x2="1204" y2="700.5" stroke="white" stroke-opacity="0.15" stroke-width="3" stroke-linejoin="round"/>
<line x1="1216.5" y1="6.55671e-08" x2="1216.5" y2="25" stroke="white" stroke-opacity="0.15" stroke-width="3" stroke-linejoin="round"/>
<line x1="1229" y1="12.5" x2="1204" y2="12.5" stroke="white" stroke-opacity="0.15" stroke-width="3" stroke-linejoin="round"/>
<line x1="1216.5" y1="344" x2="1216.5" y2="369" stroke="white" stroke-opacity="0.15" stroke-width="3" stroke-linejoin="round"/>
<line x1="1229" y1="356.5" x2="1204" y2="356.5" stroke="white" stroke-opacity="0.15" stroke-width="3" stroke-linejoin="round"/>
<line x1="184.5" y1="860" x2="184.5" y2="885" stroke="white" stroke-opacity="0.15" stroke-width="3" stroke-linejoin="round"/>
<line x1="197" y1="872.5" x2="172" y2="872.5" stroke="white" stroke-opacity="0.15" stroke-width="3" stroke-linejoin="round"/>
<line x1="184.5" y1="172" x2="184.5" y2="197" stroke="white" stroke-opacity="0.15" stroke-width="3" stroke-linejoin="round"/>
<line x1="197" y1="184.5" x2="172" y2="184.5" stroke="white" stroke-opacity="0.15" stroke-width="3" stroke-linejoin="round"/>
<line x1="184.5" y1="516" x2="184.5" y2="541" stroke="white" stroke-opacity="0.15" stroke-width="3" stroke-linejoin="round"/>
<line x1="197" y1="528.5" x2="172" y2="528.5" stroke="white" stroke-opacity="0.15" stroke-width="3" stroke-linejoin="round"/>
<line x1="184.5" y1="688" x2="184.5" y2="713" stroke="white" stroke-opacity="0.15" stroke-width="3" stroke-linejoin="round"/>
<line x1="197" y1="700.5" x2="172" y2="700.5" stroke="white" stroke-opacity="0.15" stroke-width="3" stroke-linejoin="round"/>
<line x1="184.5" y1="6.55671e-08" x2="184.5" y2="25" stroke="white" stroke-opacity="0.15" stroke-width="3" stroke-linejoin="round"/>
<line x1="197" y1="12.5" x2="172" y2="12.5" stroke="white" stroke-opacity="0.15" stroke-width="3" stroke-linejoin="round"/>
<line x1="184.5" y1="344" x2="184.5" y2="369" stroke="white" stroke-opacity="0.15" stroke-width="3" stroke-linejoin="round"/>
<line x1="197" y1="356.5" x2="172" y2="356.5" stroke="white" stroke-opacity="0.15" stroke-width="3" stroke-linejoin="round"/>
<line x1="12.5" y1="860" x2="12.5" y2="885" stroke="white" stroke-opacity="0.15" stroke-width="3" stroke-linejoin="round"/>
<line x1="25" y1="872.5" x2="-1.31134e-07" y2="872.5" stroke="white" stroke-opacity="0.15" stroke-width="3" stroke-linejoin="round"/>
<line x1="12.5" y1="172" x2="12.5" y2="197" stroke="white" stroke-opacity="0.15" stroke-width="3" stroke-linejoin="round"/>
<line x1="25" y1="184.5" x2="-1.31134e-07" y2="184.5" stroke="white" stroke-opacity="0.15" stroke-width="3" stroke-linejoin="round"/>
<line x1="12.5" y1="516" x2="12.5" y2="541" stroke="white" stroke-opacity="0.15" stroke-width="3" stroke-linejoin="round"/>
<line x1="25" y1="528.5" x2="-1.31134e-07" y2="528.5" stroke="white" stroke-opacity="0.15" stroke-width="3" stroke-linejoin="round"/>
<line x1="12.5" y1="688" x2="12.5" y2="713" stroke="white" stroke-opacity="0.15" stroke-width="3" stroke-linejoin="round"/>
<line x1="25" y1="700.5" x2="-1.31134e-07" y2="700.5" stroke="white" stroke-opacity="0.15" stroke-width="3" stroke-linejoin="round"/>
<line x1="12.5" y1="6.55671e-08" x2="12.5" y2="25" stroke="white" stroke-opacity="0.15" stroke-width="3" stroke-linejoin="round"/>
<line x1="25" y1="12.5" x2="-1.31134e-07" y2="12.5" stroke="white" stroke-opacity="0.15" stroke-width="3" stroke-linejoin="round"/>
<line x1="12.5" y1="344" x2="12.5" y2="369" stroke="white" stroke-opacity="0.15" stroke-width="3" stroke-linejoin="round"/>
<line x1="25" y1="356.5" x2="-1.31134e-07" y2="356.5" stroke="white" stroke-opacity="0.15" stroke-width="3" stroke-linejoin="round"/>
<line x1="1388.5" y1="860" x2="1388.5" y2="885" stroke="white" stroke-opacity="0.15" stroke-width="3" stroke-linejoin="round"/>
<line x1="1401" y1="872.5" x2="1376" y2="872.5" stroke="white" stroke-opacity="0.15" stroke-width="3" stroke-linejoin="round"/>
<line x1="1388.5" y1="172" x2="1388.5" y2="197" stroke="white" stroke-opacity="0.15" stroke-width="3" stroke-linejoin="round"/>
<line x1="1401" y1="184.5" x2="1376" y2="184.5" stroke="white" stroke-opacity="0.15" stroke-width="3" stroke-linejoin="round"/>
<line x1="1388.5" y1="516" x2="1388.5" y2="541" stroke="white" stroke-opacity="0.15" stroke-width="3" stroke-linejoin="round"/>
<line x1="1401" y1="528.5" x2="1376" y2="528.5" stroke="white" stroke-opacity="0.15" stroke-width="3" stroke-linejoin="round"/>
<line x1="1388.5" y1="688" x2="1388.5" y2="713" stroke="white" stroke-opacity="0.15" stroke-width="3" stroke-linejoin="round"/>
<line x1="1401" y1="700.5" x2="1376" y2="700.5" stroke="white" stroke-opacity="0.15" stroke-width="3" stroke-linejoin="round"/>
<line x1="1388.5" y1="6.55671e-08" x2="1388.5" y2="25" stroke="white" stroke-opacity="0.15" stroke-width="3" stroke-linejoin="round"/>
<line x1="1401" y1="12.5" x2="1376" y2="12.5" stroke="white" stroke-opacity="0.15" stroke-width="3" stroke-linejoin="round"/>
<line x1="1388.5" y1="344" x2="1388.5" y2="369" stroke="white" stroke-opacity="0.15" stroke-width="3" stroke-linejoin="round"/>
<line x1="1401" y1="356.5" x2="1376" y2="356.5" stroke="white" stroke-opacity="0.15" stroke-width="3" stroke-linejoin="round"/>
<line x1="356.5" y1="860" x2="356.5" y2="885" stroke="white" stroke-opacity="0.15" stroke-width="3" stroke-linejoin="round"/>
<line x1="369" y1="872.5" x2="344" y2="872.5" stroke="white" stroke-opacity="0.15" stroke-width="3" stroke-linejoin="round"/>
<line x1="356.5" y1="172" x2="356.5" y2="197" stroke="white" stroke-opacity="0.15" stroke-width="3" stroke-linejoin="round"/>
<line x1="369" y1="184.5" x2="344" y2="184.5" stroke="white" stroke-opacity="0.15" stroke-width="3" stroke-linejoin="round"/>
<line x1="356.5" y1="516" x2="356.5" y2="541" stroke="white" stroke-opacity="0.15" stroke-width="3" stroke-linejoin="round"/>
<line x1="369" y1="528.5" x2="344" y2="528.5" stroke="white" stroke-opacity="0.15" stroke-width="3" stroke-linejoin="round"/>
<line x1="356.5" y1="688" x2="356.5" y2="713" stroke="white" stroke-opacity="0.15" stroke-width="3" stroke-linejoin="round"/>
<line x1="369" y1="700.5" x2="344" y2="700.5" stroke="white" stroke-opacity="0.15" stroke-width="3" stroke-linejoin="round"/>
<line x1="356.5" y1="6.55671e-08" x2="356.5" y2="25" stroke="white" stroke-opacity="0.15" stroke-width="3" stroke-linejoin="round"/>
<line x1="369" y1="12.5" x2="344" y2="12.5" stroke="white" stroke-opacity="0.15" stroke-width="3" stroke-linejoin="round"/>
<line x1="356.5" y1="344" x2="356.5" y2="369" stroke="white" stroke-opacity="0.15" stroke-width="3" stroke-linejoin="round"/>
<line x1="369" y1="356.5" x2="344" y2="356.5" stroke="white" stroke-opacity="0.15" stroke-width="3" stroke-linejoin="round"/>
<line x1="1560.5" y1="860" x2="1560.5" y2="885" stroke="white" stroke-opacity="0.15" stroke-width="3" stroke-linejoin="round"/>
<line x1="1573" y1="872.5" x2="1548" y2="872.5" stroke="white" stroke-opacity="0.15" stroke-width="3" stroke-linejoin="round"/>
<line x1="1560.5" y1="172" x2="1560.5" y2="197" stroke="white" stroke-opacity="0.15" stroke-width="3" stroke-linejoin="round"/>
<line x1="1573" y1="184.5" x2="1548" y2="184.5" stroke="white" stroke-opacity="0.15" stroke-width="3" stroke-linejoin="round"/>
<line x1="1560.5" y1="516" x2="1560.5" y2="541" stroke="white" stroke-opacity="0.15" stroke-width="3" stroke-linejoin="round"/>
<line x1="1573" y1="528.5" x2="1548" y2="528.5" stroke="white" stroke-opacity="0.15" stroke-width="3" stroke-linejoin="round"/>
<line x1="1560.5" y1="688" x2="1560.5" y2="713" stroke="white" stroke-opacity="0.15" stroke-width="3" stroke-linejoin="round"/>
<line x1="1573" y1="700.5" x2="1548" y2="700.5" stroke="white" stroke-opacity="0.15" stroke-width="3" stroke-linejoin="round"/>
<line x1="1560.5" y1="6.55671e-08" x2="1560.5" y2="25" stroke="white" stroke-opacity="0.15" stroke-width="3" stroke-linejoin="round"/>
<line x1="1573" y1="12.5" x2="1548" y2="12.5" stroke="white" stroke-opacity="0.15" stroke-width="3" stroke-linejoin="round"/>
<line x1="1560.5" y1="344" x2="1560.5" y2="369" stroke="white" stroke-opacity="0.15" stroke-width="3" stroke-linejoin="round"/>
<line x1="1573" y1="356.5" x2="1548" y2="356.5" stroke="white" stroke-opacity="0.15" stroke-width="3" stroke-linejoin="round"/>
<line x1="528.5" y1="860" x2="528.5" y2="885" stroke="white" stroke-opacity="0.15" stroke-width="3" stroke-linejoin="round"/>
<line x1="541" y1="872.5" x2="516" y2="872.5" stroke="white" stroke-opacity="0.15" stroke-width="3" stroke-linejoin="round"/>
<line x1="528.5" y1="172" x2="528.5" y2="197" stroke="white" stroke-opacity="0.15" stroke-width="3" stroke-linejoin="round"/>
<line x1="541" y1="184.5" x2="516" y2="184.5" stroke="white" stroke-opacity="0.15" stroke-width="3" stroke-linejoin="round"/>
<line x1="528.5" y1="516" x2="528.5" y2="541" stroke="white" stroke-opacity="0.15" stroke-width="3" stroke-linejoin="round"/>
<line x1="541" y1="528.5" x2="516" y2="528.5" stroke="white" stroke-opacity="0.15" stroke-width="3" stroke-linejoin="round"/>
<line x1="528.5" y1="688" x2="528.5" y2="713" stroke="white" stroke-opacity="0.15" stroke-width="3" stroke-linejoin="round"/>
<line x1="541" y1="700.5" x2="516" y2="700.5" stroke="white" stroke-opacity="0.15" stroke-width="3" stroke-linejoin="round"/>
<line x1="528.5" y1="6.55671e-08" x2="528.5" y2="25" stroke="white" stroke-opacity="0.15" stroke-width="3" stroke-linejoin="round"/>
<line x1="541" y1="12.5" x2="516" y2="12.5" stroke="white" stroke-opacity="0.15" stroke-width="3" stroke-linejoin="round"/>
<line x1="528.5" y1="344" x2="528.5" y2="369" stroke="white" stroke-opacity="0.15" stroke-width="3" stroke-linejoin="round"/>
<line x1="541" y1="356.5" x2="516" y2="356.5" stroke="white" stroke-opacity="0.15" stroke-width="3" stroke-linejoin="round"/>
<line x1="1732.5" y1="860" x2="1732.5" y2="885" stroke="white" stroke-opacity="0.15" stroke-width="3" stroke-linejoin="round"/>
<line x1="1745" y1="872.5" x2="1720" y2="872.5" stroke="white" stroke-opacity="0.15" stroke-width="3" stroke-linejoin="round"/>
<line x1="1732.5" y1="172" x2="1732.5" y2="197" stroke="white" stroke-opacity="0.15" stroke-width="3" stroke-linejoin="round"/>
<line x1="1745" y1="184.5" x2="1720" y2="184.5" stroke="white" stroke-opacity="0.15" stroke-width="3" stroke-linejoin="round"/>
<line x1="1732.5" y1="516" x2="1732.5" y2="541" stroke="white" stroke-opacity="0.15" stroke-width="3" stroke-linejoin="round"/>
<line x1="1745" y1="528.5" x2="1720" y2="528.5" stroke="white" stroke-opacity="0.15" stroke-width="3" stroke-linejoin="round"/>
<line x1="1732.5" y1="688" x2="1732.5" y2="713" stroke="white" stroke-opacity="0.15" stroke-width="3" stroke-linejoin="round"/>
<line x1="1745" y1="700.5" x2="1720" y2="700.5" stroke="white" stroke-opacity="0.15" stroke-width="3" stroke-linejoin="round"/>
<line x1="1732.5" y1="6.55671e-08" x2="1732.5" y2="25" stroke="white" stroke-opacity="0.15" stroke-width="3" stroke-linejoin="round"/>
<line x1="1745" y1="12.5" x2="1720" y2="12.5" stroke="white" stroke-opacity="0.15" stroke-width="3" stroke-linejoin="round"/>
<line x1="1732.5" y1="344" x2="1732.5" y2="369" stroke="white" stroke-opacity="0.15" stroke-width="3" stroke-linejoin="round"/>
<line x1="1745" y1="356.5" x2="1720" y2="356.5" stroke="white" stroke-opacity="0.15" stroke-width="3" stroke-linejoin="round"/>
<line x1="700.5" y1="860" x2="700.5" y2="885" stroke="white" stroke-opacity="0.15" stroke-width="3" stroke-linejoin="round"/>
<line x1="713" y1="872.5" x2="688" y2="872.5" stroke="white" stroke-opacity="0.15" stroke-width="3" stroke-linejoin="round"/>
<line x1="700.5" y1="172" x2="700.5" y2="197" stroke="white" stroke-opacity="0.15" stroke-width="3" stroke-linejoin="round"/>
<line x1="713" y1="184.5" x2="688" y2="184.5" stroke="white" stroke-opacity="0.15" stroke-width="3" stroke-linejoin="round"/>
<line x1="700.5" y1="516" x2="700.5" y2="541" stroke="white" stroke-opacity="0.15" stroke-width="3" stroke-linejoin="round"/>
<line x1="713" y1="528.5" x2="688" y2="528.5" stroke="white" stroke-opacity="0.15" stroke-width="3" stroke-linejoin="round"/>
<line x1="700.5" y1="688" x2="700.5" y2="713" stroke="white" stroke-opacity="0.15" stroke-width="3" stroke-linejoin="round"/>
<line x1="713" y1="700.5" x2="688" y2="700.5" stroke="white" stroke-opacity="0.15" stroke-width="3" stroke-linejoin="round"/>
<line x1="700.5" y1="6.55671e-08" x2="700.5" y2="25" stroke="white" stroke-opacity="0.15" stroke-width="3" stroke-linejoin="round"/>
<line x1="713" y1="12.5" x2="688" y2="12.5" stroke="white" stroke-opacity="0.15" stroke-width="3" stroke-linejoin="round"/>
<line x1="700.5" y1="344" x2="700.5" y2="369" stroke="white" stroke-opacity="0.15" stroke-width="3" stroke-linejoin="round"/>
<line x1="713" y1="356.5" x2="688" y2="356.5" stroke="white" stroke-opacity="0.15" stroke-width="3" stroke-linejoin="round"/>
<line x1="1904.5" y1="860" x2="1904.5" y2="885" stroke="white" stroke-opacity="0.15" stroke-width="3" stroke-linejoin="round"/>
<line x1="1917" y1="872.5" x2="1892" y2="872.5" stroke="white" stroke-opacity="0.15" stroke-width="3" stroke-linejoin="round"/>
<line x1="1904.5" y1="172" x2="1904.5" y2="197" stroke="white" stroke-opacity="0.15" stroke-width="3" stroke-linejoin="round"/>
<line x1="1917" y1="184.5" x2="1892" y2="184.5" stroke="white" stroke-opacity="0.15" stroke-width="3" stroke-linejoin="round"/>
<line x1="1904.5" y1="516" x2="1904.5" y2="541" stroke="white" stroke-opacity="0.15" stroke-width="3" stroke-linejoin="round"/>
<line x1="1917" y1="528.5" x2="1892" y2="528.5" stroke="white" stroke-opacity="0.15" stroke-width="3" stroke-linejoin="round"/>
<line x1="1904.5" y1="688" x2="1904.5" y2="713" stroke="white" stroke-opacity="0.15" stroke-width="3" stroke-linejoin="round"/>
<line x1="1917" y1="700.5" x2="1892" y2="700.5" stroke="white" stroke-opacity="0.15" stroke-width="3" stroke-linejoin="round"/>
<line x1="1904.5" y1="6.55671e-08" x2="1904.5" y2="25" stroke="white" stroke-opacity="0.15" stroke-width="3" stroke-linejoin="round"/>
<line x1="1917" y1="12.5" x2="1892" y2="12.5" stroke="white" stroke-opacity="0.15" stroke-width="3" stroke-linejoin="round"/>
<line x1="1904.5" y1="344" x2="1904.5" y2="369" stroke="white" stroke-opacity="0.15" stroke-width="3" stroke-linejoin="round"/>
<line x1="1917" y1="356.5" x2="1892" y2="356.5" stroke="white" stroke-opacity="0.15" stroke-width="3" stroke-linejoin="round"/>
<line x1="872.5" y1="860" x2="872.5" y2="885" stroke="white" stroke-opacity="0.15" stroke-width="3" stroke-linejoin="round"/>
<line x1="885" y1="872.5" x2="860" y2="872.5" stroke="white" stroke-opacity="0.15" stroke-width="3" stroke-linejoin="round"/>
<line x1="872.5" y1="172" x2="872.5" y2="197" stroke="white" stroke-opacity="0.15" stroke-width="3" stroke-linejoin="round"/>
<line x1="885" y1="184.5" x2="860" y2="184.5" stroke="white" stroke-opacity="0.15" stroke-width="3" stroke-linejoin="round"/>
<line x1="872.5" y1="516" x2="872.5" y2="541" stroke="white" stroke-opacity="0.15" stroke-width="3" stroke-linejoin="round"/>
<line x1="885" y1="528.5" x2="860" y2="528.5" stroke="white" stroke-opacity="0.15" stroke-width="3" stroke-linejoin="round"/>
<line x1="872.5" y1="688" x2="872.5" y2="713" stroke="white" stroke-opacity="0.15" stroke-width="3" stroke-linejoin="round"/>
<line x1="885" y1="700.5" x2="860" y2="700.5" stroke="white" stroke-opacity="0.15" stroke-width="3" stroke-linejoin="round"/>
<line x1="872.5" y1="6.55671e-08" x2="872.5" y2="25" stroke="white" stroke-opacity="0.15" stroke-width="3" stroke-linejoin="round"/>
<line x1="885" y1="12.5" x2="860" y2="12.5" stroke="white" stroke-opacity="0.15" stroke-width="3" stroke-linejoin="round"/>
<line x1="872.5" y1="344" x2="872.5" y2="369" stroke="white" stroke-opacity="0.15" stroke-width="3" stroke-linejoin="round"/>
<line x1="885" y1="356.5" x2="860" y2="356.5" stroke="white" stroke-opacity="0.15" stroke-width="3" stroke-linejoin="round"/>
</svg>
