<svg width="40" height="40" xmlns="http://www.w3.org/2000/svg" viewBox="0 0 40 40"><defs><style>.cls-1{fill:#49a2dc;}.cls-2{fill:#fff;}</style></defs><path class="cls-1" d="M20.34.53A14.12,14.12,0,0,0,6.23,14.63c0,9.65,12.62,23.82,13.16,24.42a1.27,1.27,0,0,0,1.89,0c.54-.6,13.16-14.77,13.16-24.42A14.12,14.12,0,0,0,20.34.53Zm0,21.2a7.1,7.1,0,1,1,7.09-7.1A7.11,7.11,0,0,1,20.34,21.73Z"/><path class="cls-2" d="M20.33,39.85h0a1.64,1.64,0,0,1-1.22-.55c-.54-.6-13.26-14.88-13.26-24.67a14.49,14.49,0,0,1,29,0c0,9.79-12.71,24.07-13.26,24.67A1.64,1.64,0,0,1,20.33,39.85Zm0-38.94A13.74,13.74,0,0,0,6.61,14.63c0,9.5,12.53,23.57,13.06,24.17a.88.88,0,0,0,.66.29h0a.86.86,0,0,0,.67-.3c.53-.59,13.06-14.66,13.06-24.16A13.74,13.74,0,0,0,20.34.91Zm0,21.2a7.48,7.48,0,1,1,7.47-7.48A7.48,7.48,0,0,1,20.34,22.11Zm0-14.19a6.72,6.72,0,1,0,6.71,6.71A6.72,6.72,0,0,0,20.34,7.92Z"/></svg>